G04 #@! TF.GenerationSoftware,KiCad,Pcbnew,(5.0.1-3-g963ef8bb5)*
G04 #@! TF.CreationDate,2018-11-18T00:10:26+02:00*
G04 #@! TF.ProjectId,winch,77696E63682E6B696361645F70636200,rev?*
G04 #@! TF.SameCoordinates,Original*
G04 #@! TF.FileFunction,Legend,Top*
G04 #@! TF.FilePolarity,Positive*
%FSLAX46Y46*%
G04 Gerber Fmt 4.6, Leading zero omitted, Abs format (unit mm)*
G04 Created by KiCad (PCBNEW (5.0.1-3-g963ef8bb5)) date Sunday, November 18, 2018 at 12:10:26 AM*
%MOMM*%
%LPD*%
G01*
G04 APERTURE LIST*
%ADD10C,0.200000*%
%ADD11C,0.300000*%
%ADD12C,0.120000*%
%ADD13C,0.150000*%
%ADD14C,0.010000*%
%ADD15C,0.500000*%
G04 APERTURE END LIST*
D10*
X122404761Y-118904761D02*
X122547619Y-118952380D01*
X122785714Y-118952380D01*
X122880952Y-118904761D01*
X122928571Y-118857142D01*
X122976190Y-118761904D01*
X122976190Y-118666666D01*
X122928571Y-118571428D01*
X122880952Y-118523809D01*
X122785714Y-118476190D01*
X122595238Y-118428571D01*
X122500000Y-118380952D01*
X122452380Y-118333333D01*
X122404761Y-118238095D01*
X122404761Y-118142857D01*
X122452380Y-118047619D01*
X122500000Y-118000000D01*
X122595238Y-117952380D01*
X122833333Y-117952380D01*
X122976190Y-118000000D01*
X123261904Y-117952380D02*
X123833333Y-117952380D01*
X123547619Y-118952380D02*
X123547619Y-117952380D01*
X124500000Y-118428571D02*
X124642857Y-118476190D01*
X124690476Y-118523809D01*
X124738095Y-118619047D01*
X124738095Y-118761904D01*
X124690476Y-118857142D01*
X124642857Y-118904761D01*
X124547619Y-118952380D01*
X124166666Y-118952380D01*
X124166666Y-117952380D01*
X124500000Y-117952380D01*
X124595238Y-118000000D01*
X124642857Y-118047619D01*
X124690476Y-118142857D01*
X124690476Y-118238095D01*
X124642857Y-118333333D01*
X124595238Y-118380952D01*
X124500000Y-118428571D01*
X124166666Y-118428571D01*
X125357142Y-118476190D02*
X125357142Y-118952380D01*
X125023809Y-117952380D02*
X125357142Y-118476190D01*
X125690476Y-117952380D01*
X122523809Y-116166666D02*
X123000000Y-116166666D01*
X122428571Y-116452380D02*
X122761904Y-115452380D01*
X123095238Y-116452380D01*
X123428571Y-116452380D02*
X123428571Y-115452380D01*
X123904761Y-116452380D02*
X123904761Y-115452380D01*
X124476190Y-116452380D01*
X124476190Y-115452380D01*
X125476190Y-116452380D02*
X124904761Y-116452380D01*
X125190476Y-116452380D02*
X125190476Y-115452380D01*
X125095238Y-115595238D01*
X125000000Y-115690476D01*
X124904761Y-115738095D01*
X122523809Y-113666666D02*
X123000000Y-113666666D01*
X122428571Y-113952380D02*
X122761904Y-112952380D01*
X123095238Y-113952380D01*
X123428571Y-113952380D02*
X123428571Y-112952380D01*
X123904761Y-113952380D02*
X123904761Y-112952380D01*
X124476190Y-113952380D01*
X124476190Y-112952380D01*
X124904761Y-113047619D02*
X124952380Y-113000000D01*
X125047619Y-112952380D01*
X125285714Y-112952380D01*
X125380952Y-113000000D01*
X125428571Y-113047619D01*
X125476190Y-113142857D01*
X125476190Y-113238095D01*
X125428571Y-113380952D01*
X124857142Y-113952380D01*
X125476190Y-113952380D01*
X122166666Y-111452380D02*
X122166666Y-110452380D01*
X122547619Y-110452380D01*
X122642857Y-110500000D01*
X122690476Y-110547619D01*
X122738095Y-110642857D01*
X122738095Y-110785714D01*
X122690476Y-110880952D01*
X122642857Y-110928571D01*
X122547619Y-110976190D01*
X122166666Y-110976190D01*
X123071428Y-110452380D02*
X123309523Y-111452380D01*
X123500000Y-110738095D01*
X123690476Y-111452380D01*
X123928571Y-110452380D01*
X124309523Y-111452380D02*
X124309523Y-110452380D01*
X124642857Y-111166666D01*
X124976190Y-110452380D01*
X124976190Y-111452380D01*
X125404761Y-111166666D02*
X125880952Y-111166666D01*
X125309523Y-111452380D02*
X125642857Y-110452380D01*
X125976190Y-111452380D01*
X115809523Y-121166666D02*
X116285714Y-121166666D01*
X115714285Y-121452380D02*
X116047619Y-120452380D01*
X116380952Y-121452380D01*
X116904761Y-120452380D02*
X117000000Y-120452380D01*
X117095238Y-120500000D01*
X117142857Y-120547619D01*
X117190476Y-120642857D01*
X117238095Y-120833333D01*
X117238095Y-121071428D01*
X117190476Y-121261904D01*
X117142857Y-121357142D01*
X117095238Y-121404761D01*
X117000000Y-121452380D01*
X116904761Y-121452380D01*
X116809523Y-121404761D01*
X116761904Y-121357142D01*
X116714285Y-121261904D01*
X116666666Y-121071428D01*
X116666666Y-120833333D01*
X116714285Y-120642857D01*
X116761904Y-120547619D01*
X116809523Y-120500000D01*
X116904761Y-120452380D01*
X117619047Y-120547619D02*
X117666666Y-120500000D01*
X117761904Y-120452380D01*
X118000000Y-120452380D01*
X118095238Y-120500000D01*
X118142857Y-120547619D01*
X118190476Y-120642857D01*
X118190476Y-120738095D01*
X118142857Y-120880952D01*
X117571428Y-121452380D01*
X118190476Y-121452380D01*
X115809523Y-118666666D02*
X116285714Y-118666666D01*
X115714285Y-118952380D02*
X116047619Y-117952380D01*
X116380952Y-118952380D01*
X116904761Y-117952380D02*
X117000000Y-117952380D01*
X117095238Y-118000000D01*
X117142857Y-118047619D01*
X117190476Y-118142857D01*
X117238095Y-118333333D01*
X117238095Y-118571428D01*
X117190476Y-118761904D01*
X117142857Y-118857142D01*
X117095238Y-118904761D01*
X117000000Y-118952380D01*
X116904761Y-118952380D01*
X116809523Y-118904761D01*
X116761904Y-118857142D01*
X116714285Y-118761904D01*
X116666666Y-118571428D01*
X116666666Y-118333333D01*
X116714285Y-118142857D01*
X116761904Y-118047619D01*
X116809523Y-118000000D01*
X116904761Y-117952380D01*
X118190476Y-118952380D02*
X117619047Y-118952380D01*
X117904761Y-118952380D02*
X117904761Y-117952380D01*
X117809523Y-118095238D01*
X117714285Y-118190476D01*
X117619047Y-118238095D01*
X116238095Y-115500000D02*
X116142857Y-115452380D01*
X116000000Y-115452380D01*
X115857142Y-115500000D01*
X115761904Y-115595238D01*
X115714285Y-115690476D01*
X115666666Y-115880952D01*
X115666666Y-116023809D01*
X115714285Y-116214285D01*
X115761904Y-116309523D01*
X115857142Y-116404761D01*
X116000000Y-116452380D01*
X116095238Y-116452380D01*
X116238095Y-116404761D01*
X116285714Y-116357142D01*
X116285714Y-116023809D01*
X116095238Y-116023809D01*
X116714285Y-116452380D02*
X116714285Y-115452380D01*
X117285714Y-116452380D01*
X117285714Y-115452380D01*
X117761904Y-116452380D02*
X117761904Y-115452380D01*
X118000000Y-115452380D01*
X118142857Y-115500000D01*
X118238095Y-115595238D01*
X118285714Y-115690476D01*
X118333333Y-115880952D01*
X118333333Y-116023809D01*
X118285714Y-116214285D01*
X118238095Y-116309523D01*
X118142857Y-116404761D01*
X118000000Y-116452380D01*
X117761904Y-116452380D01*
X115666666Y-112952380D02*
X116000000Y-113952380D01*
X116333333Y-112952380D01*
X117238095Y-113857142D02*
X117190476Y-113904761D01*
X117047619Y-113952380D01*
X116952380Y-113952380D01*
X116809523Y-113904761D01*
X116714285Y-113809523D01*
X116666666Y-113714285D01*
X116619047Y-113523809D01*
X116619047Y-113380952D01*
X116666666Y-113190476D01*
X116714285Y-113095238D01*
X116809523Y-113000000D01*
X116952380Y-112952380D01*
X117047619Y-112952380D01*
X117190476Y-113000000D01*
X117238095Y-113047619D01*
X118238095Y-113857142D02*
X118190476Y-113904761D01*
X118047619Y-113952380D01*
X117952380Y-113952380D01*
X117809523Y-113904761D01*
X117714285Y-113809523D01*
X117666666Y-113714285D01*
X117619047Y-113523809D01*
X117619047Y-113380952D01*
X117666666Y-113190476D01*
X117714285Y-113095238D01*
X117809523Y-113000000D01*
X117952380Y-112952380D01*
X118047619Y-112952380D01*
X118190476Y-113000000D01*
X118238095Y-113047619D01*
X115595238Y-110452380D02*
X115928571Y-111452380D01*
X116261904Y-110452380D01*
X116595238Y-111452380D02*
X116595238Y-110452380D01*
X116928571Y-111166666D01*
X117261904Y-110452380D01*
X117261904Y-111452380D01*
X117880952Y-111452380D02*
X117785714Y-111404761D01*
X117738095Y-111357142D01*
X117690476Y-111261904D01*
X117690476Y-110976190D01*
X117738095Y-110880952D01*
X117785714Y-110833333D01*
X117880952Y-110785714D01*
X118023809Y-110785714D01*
X118119047Y-110833333D01*
X118166666Y-110880952D01*
X118214285Y-110976190D01*
X118214285Y-111261904D01*
X118166666Y-111357142D01*
X118119047Y-111404761D01*
X118023809Y-111452380D01*
X117880952Y-111452380D01*
X118500000Y-110785714D02*
X118880952Y-110785714D01*
X118642857Y-110452380D02*
X118642857Y-111309523D01*
X118690476Y-111404761D01*
X118785714Y-111452380D01*
X118880952Y-111452380D01*
X119357142Y-111452380D02*
X119261904Y-111404761D01*
X119214285Y-111357142D01*
X119166666Y-111261904D01*
X119166666Y-110976190D01*
X119214285Y-110880952D01*
X119261904Y-110833333D01*
X119357142Y-110785714D01*
X119500000Y-110785714D01*
X119595238Y-110833333D01*
X119642857Y-110880952D01*
X119690476Y-110976190D01*
X119690476Y-111261904D01*
X119642857Y-111357142D01*
X119595238Y-111404761D01*
X119500000Y-111452380D01*
X119357142Y-111452380D01*
X120119047Y-111452380D02*
X120119047Y-110785714D01*
X120119047Y-110976190D02*
X120166666Y-110880952D01*
X120214285Y-110833333D01*
X120309523Y-110785714D01*
X120404761Y-110785714D01*
D11*
X164903571Y-96750000D02*
X166403571Y-96250000D01*
X164903571Y-95750000D01*
X166403571Y-95035714D02*
X166332142Y-95178571D01*
X166260714Y-95250000D01*
X166117857Y-95321428D01*
X165689285Y-95321428D01*
X165546428Y-95250000D01*
X165475000Y-95178571D01*
X165403571Y-95035714D01*
X165403571Y-94821428D01*
X165475000Y-94678571D01*
X165546428Y-94607142D01*
X165689285Y-94535714D01*
X166117857Y-94535714D01*
X166260714Y-94607142D01*
X166332142Y-94678571D01*
X166403571Y-94821428D01*
X166403571Y-95035714D01*
X166403571Y-93678571D02*
X166332142Y-93821428D01*
X166189285Y-93892857D01*
X164903571Y-93892857D01*
X166403571Y-92464285D02*
X165617857Y-92464285D01*
X165475000Y-92535714D01*
X165403571Y-92678571D01*
X165403571Y-92964285D01*
X165475000Y-93107142D01*
X166332142Y-92464285D02*
X166403571Y-92607142D01*
X166403571Y-92964285D01*
X166332142Y-93107142D01*
X166189285Y-93178571D01*
X166046428Y-93178571D01*
X165903571Y-93107142D01*
X165832142Y-92964285D01*
X165832142Y-92607142D01*
X165760714Y-92464285D01*
X166332142Y-91821428D02*
X166403571Y-91678571D01*
X166403571Y-91392857D01*
X166332142Y-91250000D01*
X166189285Y-91178571D01*
X166117857Y-91178571D01*
X165975000Y-91250000D01*
X165903571Y-91392857D01*
X165903571Y-91607142D01*
X165832142Y-91750000D01*
X165689285Y-91821428D01*
X165617857Y-91821428D01*
X165475000Y-91750000D01*
X165403571Y-91607142D01*
X165403571Y-91392857D01*
X165475000Y-91250000D01*
X166332142Y-89964285D02*
X166403571Y-90107142D01*
X166403571Y-90392857D01*
X166332142Y-90535714D01*
X166189285Y-90607142D01*
X165617857Y-90607142D01*
X165475000Y-90535714D01*
X165403571Y-90392857D01*
X165403571Y-90107142D01*
X165475000Y-89964285D01*
X165617857Y-89892857D01*
X165760714Y-89892857D01*
X165903571Y-90607142D01*
X166403571Y-89250000D02*
X165403571Y-89250000D01*
X165689285Y-89250000D02*
X165546428Y-89178571D01*
X165475000Y-89107142D01*
X165403571Y-88964285D01*
X165403571Y-88821428D01*
X164903571Y-87321428D02*
X166403571Y-86964285D01*
X165332142Y-86678571D01*
X166403571Y-86392857D01*
X164903571Y-86035714D01*
X166403571Y-85464285D02*
X165403571Y-85464285D01*
X164903571Y-85464285D02*
X164975000Y-85535714D01*
X165046428Y-85464285D01*
X164975000Y-85392857D01*
X164903571Y-85464285D01*
X165046428Y-85464285D01*
X165403571Y-84750000D02*
X166403571Y-84750000D01*
X165546428Y-84750000D02*
X165475000Y-84678571D01*
X165403571Y-84535714D01*
X165403571Y-84321428D01*
X165475000Y-84178571D01*
X165617857Y-84107142D01*
X166403571Y-84107142D01*
X166332142Y-82750000D02*
X166403571Y-82892857D01*
X166403571Y-83178571D01*
X166332142Y-83321428D01*
X166260714Y-83392857D01*
X166117857Y-83464285D01*
X165689285Y-83464285D01*
X165546428Y-83392857D01*
X165475000Y-83321428D01*
X165403571Y-83178571D01*
X165403571Y-82892857D01*
X165475000Y-82750000D01*
X166403571Y-82107142D02*
X164903571Y-82107142D01*
X166403571Y-81464285D02*
X165617857Y-81464285D01*
X165475000Y-81535714D01*
X165403571Y-81678571D01*
X165403571Y-81892857D01*
X165475000Y-82035714D01*
X165546428Y-82107142D01*
X168810714Y-95678571D02*
X168882142Y-95750000D01*
X168953571Y-95964285D01*
X168953571Y-96107142D01*
X168882142Y-96321428D01*
X168739285Y-96464285D01*
X168596428Y-96535714D01*
X168310714Y-96607142D01*
X168096428Y-96607142D01*
X167810714Y-96535714D01*
X167667857Y-96464285D01*
X167525000Y-96321428D01*
X167453571Y-96107142D01*
X167453571Y-95964285D01*
X167525000Y-95750000D01*
X167596428Y-95678571D01*
X168953571Y-94821428D02*
X168882142Y-94964285D01*
X168810714Y-95035714D01*
X168667857Y-95107142D01*
X168239285Y-95107142D01*
X168096428Y-95035714D01*
X168025000Y-94964285D01*
X167953571Y-94821428D01*
X167953571Y-94607142D01*
X168025000Y-94464285D01*
X168096428Y-94392857D01*
X168239285Y-94321428D01*
X168667857Y-94321428D01*
X168810714Y-94392857D01*
X168882142Y-94464285D01*
X168953571Y-94607142D01*
X168953571Y-94821428D01*
X167953571Y-93678571D02*
X168953571Y-93678571D01*
X168096428Y-93678571D02*
X168025000Y-93607142D01*
X167953571Y-93464285D01*
X167953571Y-93250000D01*
X168025000Y-93107142D01*
X168167857Y-93035714D01*
X168953571Y-93035714D01*
X167953571Y-92535714D02*
X167953571Y-91964285D01*
X167453571Y-92321428D02*
X168739285Y-92321428D01*
X168882142Y-92250000D01*
X168953571Y-92107142D01*
X168953571Y-91964285D01*
X168953571Y-91464285D02*
X167953571Y-91464285D01*
X168239285Y-91464285D02*
X168096428Y-91392857D01*
X168025000Y-91321428D01*
X167953571Y-91178571D01*
X167953571Y-91035714D01*
X168953571Y-90321428D02*
X168882142Y-90464285D01*
X168810714Y-90535714D01*
X168667857Y-90607142D01*
X168239285Y-90607142D01*
X168096428Y-90535714D01*
X168025000Y-90464285D01*
X167953571Y-90321428D01*
X167953571Y-90107142D01*
X168025000Y-89964285D01*
X168096428Y-89892857D01*
X168239285Y-89821428D01*
X168667857Y-89821428D01*
X168810714Y-89892857D01*
X168882142Y-89964285D01*
X168953571Y-90107142D01*
X168953571Y-90321428D01*
X168953571Y-88964285D02*
X168882142Y-89107142D01*
X168739285Y-89178571D01*
X167453571Y-89178571D01*
X168167857Y-86750000D02*
X168239285Y-86535714D01*
X168310714Y-86464285D01*
X168453571Y-86392857D01*
X168667857Y-86392857D01*
X168810714Y-86464285D01*
X168882142Y-86535714D01*
X168953571Y-86678571D01*
X168953571Y-87250000D01*
X167453571Y-87250000D01*
X167453571Y-86750000D01*
X167525000Y-86607142D01*
X167596428Y-86535714D01*
X167739285Y-86464285D01*
X167882142Y-86464285D01*
X168025000Y-86535714D01*
X168096428Y-86607142D01*
X168167857Y-86750000D01*
X168167857Y-87250000D01*
X168953571Y-85535714D02*
X168882142Y-85678571D01*
X168810714Y-85750000D01*
X168667857Y-85821428D01*
X168239285Y-85821428D01*
X168096428Y-85750000D01*
X168025000Y-85678571D01*
X167953571Y-85535714D01*
X167953571Y-85321428D01*
X168025000Y-85178571D01*
X168096428Y-85107142D01*
X168239285Y-85035714D01*
X168667857Y-85035714D01*
X168810714Y-85107142D01*
X168882142Y-85178571D01*
X168953571Y-85321428D01*
X168953571Y-85535714D01*
X168953571Y-83750000D02*
X168167857Y-83750000D01*
X168025000Y-83821428D01*
X167953571Y-83964285D01*
X167953571Y-84250000D01*
X168025000Y-84392857D01*
X168882142Y-83750000D02*
X168953571Y-83892857D01*
X168953571Y-84250000D01*
X168882142Y-84392857D01*
X168739285Y-84464285D01*
X168596428Y-84464285D01*
X168453571Y-84392857D01*
X168382142Y-84250000D01*
X168382142Y-83892857D01*
X168310714Y-83750000D01*
X168953571Y-83035714D02*
X167953571Y-83035714D01*
X168239285Y-83035714D02*
X168096428Y-82964285D01*
X168025000Y-82892857D01*
X167953571Y-82750000D01*
X167953571Y-82607142D01*
X168953571Y-81464285D02*
X167453571Y-81464285D01*
X168882142Y-81464285D02*
X168953571Y-81607142D01*
X168953571Y-81892857D01*
X168882142Y-82035714D01*
X168810714Y-82107142D01*
X168667857Y-82178571D01*
X168239285Y-82178571D01*
X168096428Y-82107142D01*
X168025000Y-82035714D01*
X167953571Y-81892857D01*
X167953571Y-81607142D01*
X168025000Y-81464285D01*
X116357142Y-126332142D02*
X116571428Y-126403571D01*
X116928571Y-126403571D01*
X117071428Y-126332142D01*
X117142857Y-126260714D01*
X117214285Y-126117857D01*
X117214285Y-125975000D01*
X117142857Y-125832142D01*
X117071428Y-125760714D01*
X116928571Y-125689285D01*
X116642857Y-125617857D01*
X116500000Y-125546428D01*
X116428571Y-125475000D01*
X116357142Y-125332142D01*
X116357142Y-125189285D01*
X116428571Y-125046428D01*
X116500000Y-124975000D01*
X116642857Y-124903571D01*
X117000000Y-124903571D01*
X117214285Y-124975000D01*
X117857142Y-125403571D02*
X117857142Y-126903571D01*
X117857142Y-125475000D02*
X118000000Y-125403571D01*
X118285714Y-125403571D01*
X118428571Y-125475000D01*
X118500000Y-125546428D01*
X118571428Y-125689285D01*
X118571428Y-126117857D01*
X118500000Y-126260714D01*
X118428571Y-126332142D01*
X118285714Y-126403571D01*
X118000000Y-126403571D01*
X117857142Y-126332142D01*
X119857142Y-126403571D02*
X119857142Y-125617857D01*
X119785714Y-125475000D01*
X119642857Y-125403571D01*
X119357142Y-125403571D01*
X119214285Y-125475000D01*
X119857142Y-126332142D02*
X119714285Y-126403571D01*
X119357142Y-126403571D01*
X119214285Y-126332142D01*
X119142857Y-126189285D01*
X119142857Y-126046428D01*
X119214285Y-125903571D01*
X119357142Y-125832142D01*
X119714285Y-125832142D01*
X119857142Y-125760714D01*
X120571428Y-126403571D02*
X120571428Y-125403571D01*
X120571428Y-125689285D02*
X120642857Y-125546428D01*
X120714285Y-125475000D01*
X120857142Y-125403571D01*
X121000000Y-125403571D01*
X121500000Y-126403571D02*
X121500000Y-124903571D01*
X121642857Y-125832142D02*
X122071428Y-126403571D01*
X122071428Y-125403571D02*
X121500000Y-125975000D01*
X122500000Y-125403571D02*
X123071428Y-125403571D01*
X122714285Y-126403571D02*
X122714285Y-125117857D01*
X122785714Y-124975000D01*
X122928571Y-124903571D01*
X123071428Y-124903571D01*
X124214285Y-125403571D02*
X124214285Y-126403571D01*
X123571428Y-125403571D02*
X123571428Y-126189285D01*
X123642857Y-126332142D01*
X123785714Y-126403571D01*
X124000000Y-126403571D01*
X124142857Y-126332142D01*
X124214285Y-126260714D01*
X124928571Y-125403571D02*
X124928571Y-126403571D01*
X124928571Y-125546428D02*
X125000000Y-125475000D01*
X125142857Y-125403571D01*
X125357142Y-125403571D01*
X125500000Y-125475000D01*
X125571428Y-125617857D01*
X125571428Y-126403571D01*
X116964285Y-127453571D02*
X117821428Y-127453571D01*
X117392857Y-128953571D02*
X117392857Y-127453571D01*
X118821428Y-128167857D02*
X119035714Y-128239285D01*
X119107142Y-128310714D01*
X119178571Y-128453571D01*
X119178571Y-128667857D01*
X119107142Y-128810714D01*
X119035714Y-128882142D01*
X118892857Y-128953571D01*
X118321428Y-128953571D01*
X118321428Y-127453571D01*
X118821428Y-127453571D01*
X118964285Y-127525000D01*
X119035714Y-127596428D01*
X119107142Y-127739285D01*
X119107142Y-127882142D01*
X119035714Y-128025000D01*
X118964285Y-128096428D01*
X118821428Y-128167857D01*
X118321428Y-128167857D01*
X120464285Y-127453571D02*
X120178571Y-127453571D01*
X120035714Y-127525000D01*
X119964285Y-127596428D01*
X119821428Y-127810714D01*
X119750000Y-128096428D01*
X119750000Y-128667857D01*
X119821428Y-128810714D01*
X119892857Y-128882142D01*
X120035714Y-128953571D01*
X120321428Y-128953571D01*
X120464285Y-128882142D01*
X120535714Y-128810714D01*
X120607142Y-128667857D01*
X120607142Y-128310714D01*
X120535714Y-128167857D01*
X120464285Y-128096428D01*
X120321428Y-128025000D01*
X120035714Y-128025000D01*
X119892857Y-128096428D01*
X119821428Y-128167857D01*
X119750000Y-128310714D01*
X121892857Y-127453571D02*
X121607142Y-127453571D01*
X121464285Y-127525000D01*
X121392857Y-127596428D01*
X121250000Y-127810714D01*
X121178571Y-128096428D01*
X121178571Y-128667857D01*
X121250000Y-128810714D01*
X121321428Y-128882142D01*
X121464285Y-128953571D01*
X121750000Y-128953571D01*
X121892857Y-128882142D01*
X121964285Y-128810714D01*
X122035714Y-128667857D01*
X122035714Y-128310714D01*
X121964285Y-128167857D01*
X121892857Y-128096428D01*
X121750000Y-128025000D01*
X121464285Y-128025000D01*
X121321428Y-128096428D01*
X121250000Y-128167857D01*
X121178571Y-128310714D01*
X123464285Y-128953571D02*
X122607142Y-128953571D01*
X123035714Y-128953571D02*
X123035714Y-127453571D01*
X122892857Y-127667857D01*
X122750000Y-127810714D01*
X122607142Y-127882142D01*
X124035714Y-127596428D02*
X124107142Y-127525000D01*
X124250000Y-127453571D01*
X124607142Y-127453571D01*
X124750000Y-127525000D01*
X124821428Y-127596428D01*
X124892857Y-127739285D01*
X124892857Y-127882142D01*
X124821428Y-128096428D01*
X123964285Y-128953571D01*
X124892857Y-128953571D01*
X103678571Y-109750000D02*
X102178571Y-109750000D01*
X103250000Y-109250000D01*
X102178571Y-108750000D01*
X103678571Y-108750000D01*
X103678571Y-107821428D02*
X103607142Y-107964285D01*
X103535714Y-108035714D01*
X103392857Y-108107142D01*
X102964285Y-108107142D01*
X102821428Y-108035714D01*
X102750000Y-107964285D01*
X102678571Y-107821428D01*
X102678571Y-107607142D01*
X102750000Y-107464285D01*
X102821428Y-107392857D01*
X102964285Y-107321428D01*
X103392857Y-107321428D01*
X103535714Y-107392857D01*
X103607142Y-107464285D01*
X103678571Y-107607142D01*
X103678571Y-107821428D01*
X102678571Y-106892857D02*
X102678571Y-106321428D01*
X102178571Y-106678571D02*
X103464285Y-106678571D01*
X103607142Y-106607142D01*
X103678571Y-106464285D01*
X103678571Y-106321428D01*
X103678571Y-105607142D02*
X103607142Y-105750000D01*
X103535714Y-105821428D01*
X103392857Y-105892857D01*
X102964285Y-105892857D01*
X102821428Y-105821428D01*
X102750000Y-105750000D01*
X102678571Y-105607142D01*
X102678571Y-105392857D01*
X102750000Y-105250000D01*
X102821428Y-105178571D01*
X102964285Y-105107142D01*
X103392857Y-105107142D01*
X103535714Y-105178571D01*
X103607142Y-105250000D01*
X103678571Y-105392857D01*
X103678571Y-105607142D01*
X103678571Y-104464285D02*
X102678571Y-104464285D01*
X102964285Y-104464285D02*
X102821428Y-104392857D01*
X102750000Y-104321428D01*
X102678571Y-104178571D01*
X102678571Y-104035714D01*
D10*
X121404761Y-77214285D02*
X121452380Y-77071428D01*
X121452380Y-76833333D01*
X121404761Y-76738095D01*
X121357142Y-76690476D01*
X121261904Y-76642857D01*
X121166666Y-76642857D01*
X121071428Y-76690476D01*
X121023809Y-76738095D01*
X120976190Y-76833333D01*
X120928571Y-77023809D01*
X120880952Y-77119047D01*
X120833333Y-77166666D01*
X120738095Y-77214285D01*
X120642857Y-77214285D01*
X120547619Y-77166666D01*
X120500000Y-77119047D01*
X120452380Y-77023809D01*
X120452380Y-76785714D01*
X120500000Y-76642857D01*
X120785714Y-76309523D02*
X121452380Y-76119047D01*
X120976190Y-75928571D01*
X121452380Y-75738095D01*
X120785714Y-75547619D01*
X121452380Y-75166666D02*
X120785714Y-75166666D01*
X120452380Y-75166666D02*
X120500000Y-75214285D01*
X120547619Y-75166666D01*
X120500000Y-75119047D01*
X120452380Y-75166666D01*
X120547619Y-75166666D01*
X120785714Y-74833333D02*
X120785714Y-74452380D01*
X120452380Y-74690476D02*
X121309523Y-74690476D01*
X121404761Y-74642857D01*
X121452380Y-74547619D01*
X121452380Y-74452380D01*
X121404761Y-73690476D02*
X121452380Y-73785714D01*
X121452380Y-73976190D01*
X121404761Y-74071428D01*
X121357142Y-74119047D01*
X121261904Y-74166666D01*
X120976190Y-74166666D01*
X120880952Y-74119047D01*
X120833333Y-74071428D01*
X120785714Y-73976190D01*
X120785714Y-73785714D01*
X120833333Y-73690476D01*
X121452380Y-73261904D02*
X120452380Y-73261904D01*
X121452380Y-72833333D02*
X120928571Y-72833333D01*
X120833333Y-72880952D01*
X120785714Y-72976190D01*
X120785714Y-73119047D01*
X120833333Y-73214285D01*
X120880952Y-73261904D01*
D12*
G04 #@! TO.C,BT1*
X110440000Y-71540000D02*
X110440000Y-77510000D01*
X110440000Y-77510000D02*
X118060000Y-77510000D01*
X118060000Y-77510000D02*
X118060000Y-71540000D01*
X118060000Y-71540000D02*
X110440000Y-71540000D01*
X113750000Y-71550000D02*
X113750000Y-72300000D01*
X113750000Y-72300000D02*
X114750000Y-72300000D01*
X114750000Y-72300000D02*
X114750000Y-71550000D01*
X114750000Y-71550000D02*
X113750000Y-71550000D01*
X110450000Y-71550000D02*
X110450000Y-72300000D01*
X110450000Y-72300000D02*
X112250000Y-72300000D01*
X112250000Y-72300000D02*
X112250000Y-71550000D01*
X112250000Y-71550000D02*
X110450000Y-71550000D01*
X116250000Y-71550000D02*
X116250000Y-72300000D01*
X116250000Y-72300000D02*
X118050000Y-72300000D01*
X118050000Y-72300000D02*
X118050000Y-71550000D01*
X118050000Y-71550000D02*
X116250000Y-71550000D01*
X110450000Y-73800000D02*
X111200000Y-73800000D01*
X111200000Y-73800000D02*
X111200000Y-76750000D01*
X111200000Y-76750000D02*
X114250000Y-76750000D01*
X118050000Y-73800000D02*
X117300000Y-73800000D01*
X117300000Y-73800000D02*
X117300000Y-76750000D01*
X117300000Y-76750000D02*
X114250000Y-76750000D01*
X111400000Y-71250000D02*
X110150000Y-71250000D01*
X110150000Y-71250000D02*
X110150000Y-72500000D01*
G04 #@! TO.C,C1*
X129620000Y-83000000D02*
G75*
G03X129620000Y-83000000I-4120000J0D01*
G01*
X125500000Y-78920000D02*
X125500000Y-87080000D01*
X125540000Y-78920000D02*
X125540000Y-87080000D01*
X125580000Y-78920000D02*
X125580000Y-87080000D01*
X125620000Y-78921000D02*
X125620000Y-87079000D01*
X125660000Y-78923000D02*
X125660000Y-87077000D01*
X125700000Y-78924000D02*
X125700000Y-87076000D01*
X125740000Y-78926000D02*
X125740000Y-87074000D01*
X125780000Y-78929000D02*
X125780000Y-87071000D01*
X125820000Y-78932000D02*
X125820000Y-87068000D01*
X125860000Y-78935000D02*
X125860000Y-87065000D01*
X125900000Y-78939000D02*
X125900000Y-87061000D01*
X125940000Y-78943000D02*
X125940000Y-87057000D01*
X125980000Y-78948000D02*
X125980000Y-87052000D01*
X126020000Y-78952000D02*
X126020000Y-87048000D01*
X126060000Y-78958000D02*
X126060000Y-87042000D01*
X126100000Y-78963000D02*
X126100000Y-87037000D01*
X126140000Y-78970000D02*
X126140000Y-87030000D01*
X126180000Y-78976000D02*
X126180000Y-87024000D01*
X126221000Y-78983000D02*
X126221000Y-87017000D01*
X126261000Y-78990000D02*
X126261000Y-87010000D01*
X126301000Y-78998000D02*
X126301000Y-87002000D01*
X126341000Y-79006000D02*
X126341000Y-86994000D01*
X126381000Y-79015000D02*
X126381000Y-86985000D01*
X126421000Y-79024000D02*
X126421000Y-86976000D01*
X126461000Y-79033000D02*
X126461000Y-86967000D01*
X126501000Y-79043000D02*
X126501000Y-86957000D01*
X126541000Y-79053000D02*
X126541000Y-86947000D01*
X126581000Y-79064000D02*
X126581000Y-86936000D01*
X126621000Y-79075000D02*
X126621000Y-86925000D01*
X126661000Y-79086000D02*
X126661000Y-86914000D01*
X126701000Y-79098000D02*
X126701000Y-86902000D01*
X126741000Y-79111000D02*
X126741000Y-86889000D01*
X126781000Y-79123000D02*
X126781000Y-86877000D01*
X126821000Y-79137000D02*
X126821000Y-86863000D01*
X126861000Y-79150000D02*
X126861000Y-86850000D01*
X126901000Y-79165000D02*
X126901000Y-86835000D01*
X126941000Y-79179000D02*
X126941000Y-86821000D01*
X126981000Y-79195000D02*
X126981000Y-81960000D01*
X126981000Y-84040000D02*
X126981000Y-86805000D01*
X127021000Y-79210000D02*
X127021000Y-81960000D01*
X127021000Y-84040000D02*
X127021000Y-86790000D01*
X127061000Y-79226000D02*
X127061000Y-81960000D01*
X127061000Y-84040000D02*
X127061000Y-86774000D01*
X127101000Y-79243000D02*
X127101000Y-81960000D01*
X127101000Y-84040000D02*
X127101000Y-86757000D01*
X127141000Y-79260000D02*
X127141000Y-81960000D01*
X127141000Y-84040000D02*
X127141000Y-86740000D01*
X127181000Y-79278000D02*
X127181000Y-81960000D01*
X127181000Y-84040000D02*
X127181000Y-86722000D01*
X127221000Y-79296000D02*
X127221000Y-81960000D01*
X127221000Y-84040000D02*
X127221000Y-86704000D01*
X127261000Y-79314000D02*
X127261000Y-81960000D01*
X127261000Y-84040000D02*
X127261000Y-86686000D01*
X127301000Y-79334000D02*
X127301000Y-81960000D01*
X127301000Y-84040000D02*
X127301000Y-86666000D01*
X127341000Y-79353000D02*
X127341000Y-81960000D01*
X127341000Y-84040000D02*
X127341000Y-86647000D01*
X127381000Y-79373000D02*
X127381000Y-81960000D01*
X127381000Y-84040000D02*
X127381000Y-86627000D01*
X127421000Y-79394000D02*
X127421000Y-81960000D01*
X127421000Y-84040000D02*
X127421000Y-86606000D01*
X127461000Y-79416000D02*
X127461000Y-81960000D01*
X127461000Y-84040000D02*
X127461000Y-86584000D01*
X127501000Y-79438000D02*
X127501000Y-81960000D01*
X127501000Y-84040000D02*
X127501000Y-86562000D01*
X127541000Y-79460000D02*
X127541000Y-81960000D01*
X127541000Y-84040000D02*
X127541000Y-86540000D01*
X127581000Y-79483000D02*
X127581000Y-81960000D01*
X127581000Y-84040000D02*
X127581000Y-86517000D01*
X127621000Y-79507000D02*
X127621000Y-81960000D01*
X127621000Y-84040000D02*
X127621000Y-86493000D01*
X127661000Y-79531000D02*
X127661000Y-81960000D01*
X127661000Y-84040000D02*
X127661000Y-86469000D01*
X127701000Y-79556000D02*
X127701000Y-81960000D01*
X127701000Y-84040000D02*
X127701000Y-86444000D01*
X127741000Y-79582000D02*
X127741000Y-81960000D01*
X127741000Y-84040000D02*
X127741000Y-86418000D01*
X127781000Y-79608000D02*
X127781000Y-81960000D01*
X127781000Y-84040000D02*
X127781000Y-86392000D01*
X127821000Y-79635000D02*
X127821000Y-81960000D01*
X127821000Y-84040000D02*
X127821000Y-86365000D01*
X127861000Y-79662000D02*
X127861000Y-81960000D01*
X127861000Y-84040000D02*
X127861000Y-86338000D01*
X127901000Y-79691000D02*
X127901000Y-81960000D01*
X127901000Y-84040000D02*
X127901000Y-86309000D01*
X127941000Y-79720000D02*
X127941000Y-81960000D01*
X127941000Y-84040000D02*
X127941000Y-86280000D01*
X127981000Y-79750000D02*
X127981000Y-81960000D01*
X127981000Y-84040000D02*
X127981000Y-86250000D01*
X128021000Y-79780000D02*
X128021000Y-81960000D01*
X128021000Y-84040000D02*
X128021000Y-86220000D01*
X128061000Y-79811000D02*
X128061000Y-81960000D01*
X128061000Y-84040000D02*
X128061000Y-86189000D01*
X128101000Y-79844000D02*
X128101000Y-81960000D01*
X128101000Y-84040000D02*
X128101000Y-86156000D01*
X128141000Y-79876000D02*
X128141000Y-81960000D01*
X128141000Y-84040000D02*
X128141000Y-86124000D01*
X128181000Y-79910000D02*
X128181000Y-81960000D01*
X128181000Y-84040000D02*
X128181000Y-86090000D01*
X128221000Y-79945000D02*
X128221000Y-81960000D01*
X128221000Y-84040000D02*
X128221000Y-86055000D01*
X128261000Y-79981000D02*
X128261000Y-81960000D01*
X128261000Y-84040000D02*
X128261000Y-86019000D01*
X128301000Y-80017000D02*
X128301000Y-81960000D01*
X128301000Y-84040000D02*
X128301000Y-85983000D01*
X128341000Y-80055000D02*
X128341000Y-81960000D01*
X128341000Y-84040000D02*
X128341000Y-85945000D01*
X128381000Y-80093000D02*
X128381000Y-81960000D01*
X128381000Y-84040000D02*
X128381000Y-85907000D01*
X128421000Y-80133000D02*
X128421000Y-81960000D01*
X128421000Y-84040000D02*
X128421000Y-85867000D01*
X128461000Y-80174000D02*
X128461000Y-81960000D01*
X128461000Y-84040000D02*
X128461000Y-85826000D01*
X128501000Y-80216000D02*
X128501000Y-81960000D01*
X128501000Y-84040000D02*
X128501000Y-85784000D01*
X128541000Y-80259000D02*
X128541000Y-81960000D01*
X128541000Y-84040000D02*
X128541000Y-85741000D01*
X128581000Y-80303000D02*
X128581000Y-81960000D01*
X128581000Y-84040000D02*
X128581000Y-85697000D01*
X128621000Y-80349000D02*
X128621000Y-81960000D01*
X128621000Y-84040000D02*
X128621000Y-85651000D01*
X128661000Y-80396000D02*
X128661000Y-81960000D01*
X128661000Y-84040000D02*
X128661000Y-85604000D01*
X128701000Y-80444000D02*
X128701000Y-81960000D01*
X128701000Y-84040000D02*
X128701000Y-85556000D01*
X128741000Y-80495000D02*
X128741000Y-81960000D01*
X128741000Y-84040000D02*
X128741000Y-85505000D01*
X128781000Y-80546000D02*
X128781000Y-81960000D01*
X128781000Y-84040000D02*
X128781000Y-85454000D01*
X128821000Y-80600000D02*
X128821000Y-81960000D01*
X128821000Y-84040000D02*
X128821000Y-85400000D01*
X128861000Y-80655000D02*
X128861000Y-81960000D01*
X128861000Y-84040000D02*
X128861000Y-85345000D01*
X128901000Y-80713000D02*
X128901000Y-81960000D01*
X128901000Y-84040000D02*
X128901000Y-85287000D01*
X128941000Y-80772000D02*
X128941000Y-81960000D01*
X128941000Y-84040000D02*
X128941000Y-85228000D01*
X128981000Y-80834000D02*
X128981000Y-81960000D01*
X128981000Y-84040000D02*
X128981000Y-85166000D01*
X129021000Y-80898000D02*
X129021000Y-81960000D01*
X129021000Y-84040000D02*
X129021000Y-85102000D01*
X129061000Y-80966000D02*
X129061000Y-85034000D01*
X129101000Y-81036000D02*
X129101000Y-84964000D01*
X129141000Y-81110000D02*
X129141000Y-84890000D01*
X129181000Y-81187000D02*
X129181000Y-84813000D01*
X129221000Y-81269000D02*
X129221000Y-84731000D01*
X129261000Y-81355000D02*
X129261000Y-84645000D01*
X129301000Y-81448000D02*
X129301000Y-84552000D01*
X129341000Y-81547000D02*
X129341000Y-84453000D01*
X129381000Y-81654000D02*
X129381000Y-84346000D01*
X129421000Y-81771000D02*
X129421000Y-84229000D01*
X129461000Y-81902000D02*
X129461000Y-84098000D01*
X129501000Y-82052000D02*
X129501000Y-83948000D01*
X129541000Y-82232000D02*
X129541000Y-83768000D01*
X129581000Y-82467000D02*
X129581000Y-83533000D01*
X121090302Y-80685000D02*
X121890302Y-80685000D01*
X121490302Y-80285000D02*
X121490302Y-81085000D01*
G04 #@! TO.C,C2*
X107445225Y-81275000D02*
X107445225Y-81775000D01*
X107195225Y-81525000D02*
X107695225Y-81525000D01*
X112601000Y-82716000D02*
X112601000Y-83284000D01*
X112561000Y-82482000D02*
X112561000Y-83518000D01*
X112521000Y-82323000D02*
X112521000Y-83677000D01*
X112481000Y-82195000D02*
X112481000Y-83805000D01*
X112441000Y-82085000D02*
X112441000Y-83915000D01*
X112401000Y-81989000D02*
X112401000Y-84011000D01*
X112361000Y-81902000D02*
X112361000Y-84098000D01*
X112321000Y-81822000D02*
X112321000Y-84178000D01*
X112281000Y-81749000D02*
X112281000Y-84251000D01*
X112241000Y-81681000D02*
X112241000Y-84319000D01*
X112201000Y-81617000D02*
X112201000Y-84383000D01*
X112161000Y-81557000D02*
X112161000Y-84443000D01*
X112121000Y-81500000D02*
X112121000Y-84500000D01*
X112081000Y-81446000D02*
X112081000Y-84554000D01*
X112041000Y-81395000D02*
X112041000Y-84605000D01*
X112001000Y-84040000D02*
X112001000Y-84653000D01*
X112001000Y-81347000D02*
X112001000Y-81960000D01*
X111961000Y-84040000D02*
X111961000Y-84699000D01*
X111961000Y-81301000D02*
X111961000Y-81960000D01*
X111921000Y-84040000D02*
X111921000Y-84743000D01*
X111921000Y-81257000D02*
X111921000Y-81960000D01*
X111881000Y-84040000D02*
X111881000Y-84785000D01*
X111881000Y-81215000D02*
X111881000Y-81960000D01*
X111841000Y-84040000D02*
X111841000Y-84826000D01*
X111841000Y-81174000D02*
X111841000Y-81960000D01*
X111801000Y-84040000D02*
X111801000Y-84864000D01*
X111801000Y-81136000D02*
X111801000Y-81960000D01*
X111761000Y-84040000D02*
X111761000Y-84901000D01*
X111761000Y-81099000D02*
X111761000Y-81960000D01*
X111721000Y-84040000D02*
X111721000Y-84937000D01*
X111721000Y-81063000D02*
X111721000Y-81960000D01*
X111681000Y-84040000D02*
X111681000Y-84971000D01*
X111681000Y-81029000D02*
X111681000Y-81960000D01*
X111641000Y-84040000D02*
X111641000Y-85004000D01*
X111641000Y-80996000D02*
X111641000Y-81960000D01*
X111601000Y-84040000D02*
X111601000Y-85035000D01*
X111601000Y-80965000D02*
X111601000Y-81960000D01*
X111561000Y-84040000D02*
X111561000Y-85065000D01*
X111561000Y-80935000D02*
X111561000Y-81960000D01*
X111521000Y-84040000D02*
X111521000Y-85095000D01*
X111521000Y-80905000D02*
X111521000Y-81960000D01*
X111481000Y-84040000D02*
X111481000Y-85122000D01*
X111481000Y-80878000D02*
X111481000Y-81960000D01*
X111441000Y-84040000D02*
X111441000Y-85149000D01*
X111441000Y-80851000D02*
X111441000Y-81960000D01*
X111401000Y-84040000D02*
X111401000Y-85175000D01*
X111401000Y-80825000D02*
X111401000Y-81960000D01*
X111361000Y-84040000D02*
X111361000Y-85200000D01*
X111361000Y-80800000D02*
X111361000Y-81960000D01*
X111321000Y-84040000D02*
X111321000Y-85224000D01*
X111321000Y-80776000D02*
X111321000Y-81960000D01*
X111281000Y-84040000D02*
X111281000Y-85247000D01*
X111281000Y-80753000D02*
X111281000Y-81960000D01*
X111241000Y-84040000D02*
X111241000Y-85268000D01*
X111241000Y-80732000D02*
X111241000Y-81960000D01*
X111201000Y-84040000D02*
X111201000Y-85290000D01*
X111201000Y-80710000D02*
X111201000Y-81960000D01*
X111161000Y-84040000D02*
X111161000Y-85310000D01*
X111161000Y-80690000D02*
X111161000Y-81960000D01*
X111121000Y-84040000D02*
X111121000Y-85329000D01*
X111121000Y-80671000D02*
X111121000Y-81960000D01*
X111081000Y-84040000D02*
X111081000Y-85348000D01*
X111081000Y-80652000D02*
X111081000Y-81960000D01*
X111041000Y-84040000D02*
X111041000Y-85365000D01*
X111041000Y-80635000D02*
X111041000Y-81960000D01*
X111001000Y-84040000D02*
X111001000Y-85382000D01*
X111001000Y-80618000D02*
X111001000Y-81960000D01*
X110961000Y-84040000D02*
X110961000Y-85398000D01*
X110961000Y-80602000D02*
X110961000Y-81960000D01*
X110921000Y-84040000D02*
X110921000Y-85414000D01*
X110921000Y-80586000D02*
X110921000Y-81960000D01*
X110881000Y-84040000D02*
X110881000Y-85428000D01*
X110881000Y-80572000D02*
X110881000Y-81960000D01*
X110841000Y-84040000D02*
X110841000Y-85442000D01*
X110841000Y-80558000D02*
X110841000Y-81960000D01*
X110801000Y-84040000D02*
X110801000Y-85455000D01*
X110801000Y-80545000D02*
X110801000Y-81960000D01*
X110761000Y-84040000D02*
X110761000Y-85468000D01*
X110761000Y-80532000D02*
X110761000Y-81960000D01*
X110721000Y-84040000D02*
X110721000Y-85480000D01*
X110721000Y-80520000D02*
X110721000Y-81960000D01*
X110680000Y-84040000D02*
X110680000Y-85491000D01*
X110680000Y-80509000D02*
X110680000Y-81960000D01*
X110640000Y-84040000D02*
X110640000Y-85501000D01*
X110640000Y-80499000D02*
X110640000Y-81960000D01*
X110600000Y-84040000D02*
X110600000Y-85511000D01*
X110600000Y-80489000D02*
X110600000Y-81960000D01*
X110560000Y-84040000D02*
X110560000Y-85520000D01*
X110560000Y-80480000D02*
X110560000Y-81960000D01*
X110520000Y-84040000D02*
X110520000Y-85528000D01*
X110520000Y-80472000D02*
X110520000Y-81960000D01*
X110480000Y-84040000D02*
X110480000Y-85536000D01*
X110480000Y-80464000D02*
X110480000Y-81960000D01*
X110440000Y-84040000D02*
X110440000Y-85543000D01*
X110440000Y-80457000D02*
X110440000Y-81960000D01*
X110400000Y-84040000D02*
X110400000Y-85550000D01*
X110400000Y-80450000D02*
X110400000Y-81960000D01*
X110360000Y-84040000D02*
X110360000Y-85556000D01*
X110360000Y-80444000D02*
X110360000Y-81960000D01*
X110320000Y-84040000D02*
X110320000Y-85561000D01*
X110320000Y-80439000D02*
X110320000Y-81960000D01*
X110280000Y-84040000D02*
X110280000Y-85565000D01*
X110280000Y-80435000D02*
X110280000Y-81960000D01*
X110240000Y-84040000D02*
X110240000Y-85569000D01*
X110240000Y-80431000D02*
X110240000Y-81960000D01*
X110200000Y-84040000D02*
X110200000Y-85573000D01*
X110200000Y-80427000D02*
X110200000Y-81960000D01*
X110160000Y-84040000D02*
X110160000Y-85576000D01*
X110160000Y-80424000D02*
X110160000Y-81960000D01*
X110120000Y-84040000D02*
X110120000Y-85578000D01*
X110120000Y-80422000D02*
X110120000Y-81960000D01*
X110080000Y-84040000D02*
X110080000Y-85579000D01*
X110080000Y-80421000D02*
X110080000Y-81960000D01*
X110040000Y-80420000D02*
X110040000Y-81960000D01*
X110040000Y-84040000D02*
X110040000Y-85580000D01*
X110000000Y-80420000D02*
X110000000Y-81960000D01*
X110000000Y-84040000D02*
X110000000Y-85580000D01*
X112620000Y-83000000D02*
G75*
G03X112620000Y-83000000I-2620000J0D01*
G01*
G04 #@! TO.C,C3*
X118620000Y-83000000D02*
G75*
G03X118620000Y-83000000I-2620000J0D01*
G01*
X116000000Y-84040000D02*
X116000000Y-85580000D01*
X116000000Y-80420000D02*
X116000000Y-81960000D01*
X116040000Y-84040000D02*
X116040000Y-85580000D01*
X116040000Y-80420000D02*
X116040000Y-81960000D01*
X116080000Y-80421000D02*
X116080000Y-81960000D01*
X116080000Y-84040000D02*
X116080000Y-85579000D01*
X116120000Y-80422000D02*
X116120000Y-81960000D01*
X116120000Y-84040000D02*
X116120000Y-85578000D01*
X116160000Y-80424000D02*
X116160000Y-81960000D01*
X116160000Y-84040000D02*
X116160000Y-85576000D01*
X116200000Y-80427000D02*
X116200000Y-81960000D01*
X116200000Y-84040000D02*
X116200000Y-85573000D01*
X116240000Y-80431000D02*
X116240000Y-81960000D01*
X116240000Y-84040000D02*
X116240000Y-85569000D01*
X116280000Y-80435000D02*
X116280000Y-81960000D01*
X116280000Y-84040000D02*
X116280000Y-85565000D01*
X116320000Y-80439000D02*
X116320000Y-81960000D01*
X116320000Y-84040000D02*
X116320000Y-85561000D01*
X116360000Y-80444000D02*
X116360000Y-81960000D01*
X116360000Y-84040000D02*
X116360000Y-85556000D01*
X116400000Y-80450000D02*
X116400000Y-81960000D01*
X116400000Y-84040000D02*
X116400000Y-85550000D01*
X116440000Y-80457000D02*
X116440000Y-81960000D01*
X116440000Y-84040000D02*
X116440000Y-85543000D01*
X116480000Y-80464000D02*
X116480000Y-81960000D01*
X116480000Y-84040000D02*
X116480000Y-85536000D01*
X116520000Y-80472000D02*
X116520000Y-81960000D01*
X116520000Y-84040000D02*
X116520000Y-85528000D01*
X116560000Y-80480000D02*
X116560000Y-81960000D01*
X116560000Y-84040000D02*
X116560000Y-85520000D01*
X116600000Y-80489000D02*
X116600000Y-81960000D01*
X116600000Y-84040000D02*
X116600000Y-85511000D01*
X116640000Y-80499000D02*
X116640000Y-81960000D01*
X116640000Y-84040000D02*
X116640000Y-85501000D01*
X116680000Y-80509000D02*
X116680000Y-81960000D01*
X116680000Y-84040000D02*
X116680000Y-85491000D01*
X116721000Y-80520000D02*
X116721000Y-81960000D01*
X116721000Y-84040000D02*
X116721000Y-85480000D01*
X116761000Y-80532000D02*
X116761000Y-81960000D01*
X116761000Y-84040000D02*
X116761000Y-85468000D01*
X116801000Y-80545000D02*
X116801000Y-81960000D01*
X116801000Y-84040000D02*
X116801000Y-85455000D01*
X116841000Y-80558000D02*
X116841000Y-81960000D01*
X116841000Y-84040000D02*
X116841000Y-85442000D01*
X116881000Y-80572000D02*
X116881000Y-81960000D01*
X116881000Y-84040000D02*
X116881000Y-85428000D01*
X116921000Y-80586000D02*
X116921000Y-81960000D01*
X116921000Y-84040000D02*
X116921000Y-85414000D01*
X116961000Y-80602000D02*
X116961000Y-81960000D01*
X116961000Y-84040000D02*
X116961000Y-85398000D01*
X117001000Y-80618000D02*
X117001000Y-81960000D01*
X117001000Y-84040000D02*
X117001000Y-85382000D01*
X117041000Y-80635000D02*
X117041000Y-81960000D01*
X117041000Y-84040000D02*
X117041000Y-85365000D01*
X117081000Y-80652000D02*
X117081000Y-81960000D01*
X117081000Y-84040000D02*
X117081000Y-85348000D01*
X117121000Y-80671000D02*
X117121000Y-81960000D01*
X117121000Y-84040000D02*
X117121000Y-85329000D01*
X117161000Y-80690000D02*
X117161000Y-81960000D01*
X117161000Y-84040000D02*
X117161000Y-85310000D01*
X117201000Y-80710000D02*
X117201000Y-81960000D01*
X117201000Y-84040000D02*
X117201000Y-85290000D01*
X117241000Y-80732000D02*
X117241000Y-81960000D01*
X117241000Y-84040000D02*
X117241000Y-85268000D01*
X117281000Y-80753000D02*
X117281000Y-81960000D01*
X117281000Y-84040000D02*
X117281000Y-85247000D01*
X117321000Y-80776000D02*
X117321000Y-81960000D01*
X117321000Y-84040000D02*
X117321000Y-85224000D01*
X117361000Y-80800000D02*
X117361000Y-81960000D01*
X117361000Y-84040000D02*
X117361000Y-85200000D01*
X117401000Y-80825000D02*
X117401000Y-81960000D01*
X117401000Y-84040000D02*
X117401000Y-85175000D01*
X117441000Y-80851000D02*
X117441000Y-81960000D01*
X117441000Y-84040000D02*
X117441000Y-85149000D01*
X117481000Y-80878000D02*
X117481000Y-81960000D01*
X117481000Y-84040000D02*
X117481000Y-85122000D01*
X117521000Y-80905000D02*
X117521000Y-81960000D01*
X117521000Y-84040000D02*
X117521000Y-85095000D01*
X117561000Y-80935000D02*
X117561000Y-81960000D01*
X117561000Y-84040000D02*
X117561000Y-85065000D01*
X117601000Y-80965000D02*
X117601000Y-81960000D01*
X117601000Y-84040000D02*
X117601000Y-85035000D01*
X117641000Y-80996000D02*
X117641000Y-81960000D01*
X117641000Y-84040000D02*
X117641000Y-85004000D01*
X117681000Y-81029000D02*
X117681000Y-81960000D01*
X117681000Y-84040000D02*
X117681000Y-84971000D01*
X117721000Y-81063000D02*
X117721000Y-81960000D01*
X117721000Y-84040000D02*
X117721000Y-84937000D01*
X117761000Y-81099000D02*
X117761000Y-81960000D01*
X117761000Y-84040000D02*
X117761000Y-84901000D01*
X117801000Y-81136000D02*
X117801000Y-81960000D01*
X117801000Y-84040000D02*
X117801000Y-84864000D01*
X117841000Y-81174000D02*
X117841000Y-81960000D01*
X117841000Y-84040000D02*
X117841000Y-84826000D01*
X117881000Y-81215000D02*
X117881000Y-81960000D01*
X117881000Y-84040000D02*
X117881000Y-84785000D01*
X117921000Y-81257000D02*
X117921000Y-81960000D01*
X117921000Y-84040000D02*
X117921000Y-84743000D01*
X117961000Y-81301000D02*
X117961000Y-81960000D01*
X117961000Y-84040000D02*
X117961000Y-84699000D01*
X118001000Y-81347000D02*
X118001000Y-81960000D01*
X118001000Y-84040000D02*
X118001000Y-84653000D01*
X118041000Y-81395000D02*
X118041000Y-84605000D01*
X118081000Y-81446000D02*
X118081000Y-84554000D01*
X118121000Y-81500000D02*
X118121000Y-84500000D01*
X118161000Y-81557000D02*
X118161000Y-84443000D01*
X118201000Y-81617000D02*
X118201000Y-84383000D01*
X118241000Y-81681000D02*
X118241000Y-84319000D01*
X118281000Y-81749000D02*
X118281000Y-84251000D01*
X118321000Y-81822000D02*
X118321000Y-84178000D01*
X118361000Y-81902000D02*
X118361000Y-84098000D01*
X118401000Y-81989000D02*
X118401000Y-84011000D01*
X118441000Y-82085000D02*
X118441000Y-83915000D01*
X118481000Y-82195000D02*
X118481000Y-83805000D01*
X118521000Y-82323000D02*
X118521000Y-83677000D01*
X118561000Y-82482000D02*
X118561000Y-83518000D01*
X118601000Y-82716000D02*
X118601000Y-83284000D01*
X113195225Y-81525000D02*
X113695225Y-81525000D01*
X113445225Y-81275000D02*
X113445225Y-81775000D01*
G04 #@! TO.C,M1*
X108460000Y-110440000D02*
X102490000Y-110440000D01*
X102490000Y-110440000D02*
X102490000Y-118060000D01*
X102490000Y-118060000D02*
X108460000Y-118060000D01*
X108460000Y-118060000D02*
X108460000Y-110440000D01*
X108450000Y-113750000D02*
X107700000Y-113750000D01*
X107700000Y-113750000D02*
X107700000Y-114750000D01*
X107700000Y-114750000D02*
X108450000Y-114750000D01*
X108450000Y-114750000D02*
X108450000Y-113750000D01*
X108450000Y-110450000D02*
X107700000Y-110450000D01*
X107700000Y-110450000D02*
X107700000Y-112250000D01*
X107700000Y-112250000D02*
X108450000Y-112250000D01*
X108450000Y-112250000D02*
X108450000Y-110450000D01*
X108450000Y-116250000D02*
X107700000Y-116250000D01*
X107700000Y-116250000D02*
X107700000Y-118050000D01*
X107700000Y-118050000D02*
X108450000Y-118050000D01*
X108450000Y-118050000D02*
X108450000Y-116250000D01*
X106200000Y-110450000D02*
X106200000Y-111200000D01*
X106200000Y-111200000D02*
X103250000Y-111200000D01*
X103250000Y-111200000D02*
X103250000Y-114250000D01*
X106200000Y-118050000D02*
X106200000Y-117300000D01*
X106200000Y-117300000D02*
X103250000Y-117300000D01*
X103250000Y-117300000D02*
X103250000Y-114250000D01*
X108750000Y-111400000D02*
X108750000Y-110150000D01*
X108750000Y-110150000D02*
X107500000Y-110150000D01*
G04 #@! TO.C,SW1*
X122150000Y-71250000D02*
X122150000Y-72500000D01*
X123400000Y-71250000D02*
X122150000Y-71250000D01*
X129300000Y-76750000D02*
X126250000Y-76750000D01*
X129300000Y-73800000D02*
X129300000Y-76750000D01*
X130050000Y-73800000D02*
X129300000Y-73800000D01*
X123200000Y-76750000D02*
X126250000Y-76750000D01*
X123200000Y-73800000D02*
X123200000Y-76750000D01*
X122450000Y-73800000D02*
X123200000Y-73800000D01*
X130050000Y-71550000D02*
X128250000Y-71550000D01*
X130050000Y-72300000D02*
X130050000Y-71550000D01*
X128250000Y-72300000D02*
X130050000Y-72300000D01*
X128250000Y-71550000D02*
X128250000Y-72300000D01*
X124250000Y-71550000D02*
X122450000Y-71550000D01*
X124250000Y-72300000D02*
X124250000Y-71550000D01*
X122450000Y-72300000D02*
X124250000Y-72300000D01*
X122450000Y-71550000D02*
X122450000Y-72300000D01*
X126750000Y-71550000D02*
X125750000Y-71550000D01*
X126750000Y-72300000D02*
X126750000Y-71550000D01*
X125750000Y-72300000D02*
X126750000Y-72300000D01*
X125750000Y-71550000D02*
X125750000Y-72300000D01*
X130060000Y-71540000D02*
X122440000Y-71540000D01*
X130060000Y-77510000D02*
X130060000Y-71540000D01*
X122440000Y-77510000D02*
X130060000Y-77510000D01*
X122440000Y-71540000D02*
X122440000Y-77510000D01*
G04 #@! TO.C,U1*
X119080000Y-109670000D02*
G75*
G02X117080000Y-109670000I-1000000J0D01*
G01*
X117080000Y-109670000D02*
X114845000Y-109670000D01*
X114845000Y-109670000D02*
X114845000Y-130110000D01*
X114845000Y-130110000D02*
X126395000Y-130110000D01*
X126395000Y-130110000D02*
X126395000Y-109670000D01*
X126395000Y-109670000D02*
X119080000Y-109670000D01*
G04 #@! TO.C,U2*
X158560000Y-129650000D02*
X158560000Y-70650000D01*
X132560000Y-70650000D02*
X132560000Y-129650000D01*
X132560000Y-129650000D02*
X158560000Y-129650000D01*
X158560000Y-70650000D02*
X132560000Y-70650000D01*
D13*
X154320000Y-129530000D02*
X154320000Y-121910000D01*
X154320000Y-121910000D02*
X149240000Y-121910000D01*
X149240000Y-121910000D02*
X149240000Y-129530000D01*
X149240000Y-129530000D02*
X154320000Y-129530000D01*
X142890000Y-129530000D02*
X142890000Y-124450000D01*
X142890000Y-124450000D02*
X136540000Y-124450000D01*
X136540000Y-124450000D02*
X136540000Y-129530000D01*
D12*
G04 #@! TO.C,Q1*
X130710000Y-92110000D02*
X120210000Y-92110000D01*
X130710000Y-108220000D02*
X120210000Y-108220000D01*
X130710000Y-108220000D02*
X130710000Y-92110000D01*
X120210000Y-108220000D02*
X120210000Y-92110000D01*
X128000000Y-92110000D02*
X128000000Y-90150000D01*
X125460000Y-92110000D02*
X125460000Y-90150000D01*
X122920000Y-92110000D02*
X122920000Y-90150000D01*
G04 #@! TO.C,U3*
X117710000Y-92110000D02*
X107210000Y-92110000D01*
X117710000Y-108220000D02*
X107210000Y-108220000D01*
X117710000Y-108220000D02*
X117710000Y-92110000D01*
X107210000Y-108220000D02*
X107210000Y-92110000D01*
X115000000Y-92110000D02*
X115000000Y-90150000D01*
X112460000Y-92110000D02*
X112460000Y-90150000D01*
X109920000Y-92110000D02*
X109920000Y-90150000D01*
D14*
G04 #@! TO.C,G\002A\002A\002A*
G36*
X165276157Y-111961267D02*
X165520814Y-111954033D01*
X165537658Y-112043817D01*
X165550573Y-112102641D01*
X165560831Y-112132624D01*
X165562138Y-112133600D01*
X165587958Y-112127416D01*
X165654693Y-112110281D01*
X165754174Y-112084325D01*
X165878228Y-112051678D01*
X165986437Y-112023033D01*
X166130352Y-111984942D01*
X166262189Y-111950231D01*
X166371916Y-111921527D01*
X166449501Y-111901458D01*
X166479030Y-111894023D01*
X166503449Y-111885018D01*
X166501788Y-111873908D01*
X166468777Y-111858534D01*
X166399146Y-111836740D01*
X166287625Y-111806366D01*
X166225030Y-111790013D01*
X166082235Y-111751474D01*
X165908969Y-111702391D01*
X165723067Y-111647946D01*
X165542364Y-111593320D01*
X165463300Y-111568741D01*
X165031500Y-111433036D01*
X165031500Y-110780762D01*
X165598507Y-110607601D01*
X165772866Y-110555045D01*
X165943075Y-110505004D01*
X166099068Y-110460341D01*
X166230780Y-110423920D01*
X166328145Y-110398607D01*
X166355534Y-110392164D01*
X166444280Y-110371267D01*
X166508658Y-110353889D01*
X166537297Y-110343163D01*
X166537642Y-110341976D01*
X166511418Y-110333036D01*
X166445628Y-110314398D01*
X166349980Y-110288723D01*
X166234182Y-110258670D01*
X166225114Y-110256354D01*
X166087853Y-110220573D01*
X165950219Y-110183390D01*
X165829766Y-110149617D01*
X165755400Y-110127616D01*
X165669707Y-110101864D01*
X165603939Y-110083458D01*
X165572400Y-110076395D01*
X165556499Y-110098432D01*
X165540284Y-110152993D01*
X165537658Y-110165984D01*
X165520814Y-110255768D01*
X165031500Y-110241300D01*
X165031500Y-109149100D01*
X165277829Y-109141847D01*
X165524158Y-109134593D01*
X165540259Y-109230747D01*
X165552028Y-109298727D01*
X165560616Y-109344320D01*
X165561655Y-109349027D01*
X165586335Y-109361036D01*
X165654423Y-109385794D01*
X165760630Y-109421590D01*
X165899667Y-109466711D01*
X166066244Y-109519448D01*
X166255071Y-109578088D01*
X166460858Y-109640919D01*
X166505725Y-109654484D01*
X167444500Y-109937813D01*
X167451535Y-110328901D01*
X167452640Y-110465420D01*
X167451050Y-110584027D01*
X167447088Y-110675418D01*
X167441079Y-110730290D01*
X167437157Y-110741403D01*
X167403378Y-110758407D01*
X167328672Y-110786475D01*
X167221070Y-110823114D01*
X167088599Y-110865826D01*
X166939291Y-110912117D01*
X166781174Y-110959490D01*
X166622279Y-111005449D01*
X166470634Y-111047500D01*
X166352300Y-111078594D01*
X166220787Y-111112344D01*
X166133336Y-111136254D01*
X166084698Y-111152694D01*
X166069623Y-111164031D01*
X166082862Y-111172634D01*
X166119166Y-111180871D01*
X166123700Y-111181735D01*
X166175289Y-111193934D01*
X166264179Y-111217511D01*
X166382318Y-111250123D01*
X166521652Y-111289427D01*
X166674130Y-111333080D01*
X166831700Y-111378740D01*
X166986310Y-111424064D01*
X167129907Y-111466708D01*
X167254439Y-111504331D01*
X167351855Y-111534589D01*
X167414101Y-111555140D01*
X167432505Y-111562537D01*
X167443518Y-111593839D01*
X167451430Y-111664849D01*
X167456339Y-111764576D01*
X167458344Y-111882030D01*
X167457543Y-112006218D01*
X167454033Y-112126149D01*
X167447913Y-112230833D01*
X167439281Y-112309279D01*
X167428235Y-112350496D01*
X167425450Y-112353501D01*
X167394601Y-112364906D01*
X167320560Y-112388813D01*
X167208909Y-112423523D01*
X167065229Y-112467334D01*
X166895102Y-112518545D01*
X166704110Y-112575456D01*
X166497835Y-112636365D01*
X166479353Y-112641796D01*
X165565006Y-112910393D01*
X165542993Y-113030882D01*
X165520981Y-113151370D01*
X165276240Y-113144135D01*
X165031500Y-113136900D01*
X165031500Y-111968500D01*
X165276157Y-111961267D01*
X165276157Y-111961267D01*
G37*
X165276157Y-111961267D02*
X165520814Y-111954033D01*
X165537658Y-112043817D01*
X165550573Y-112102641D01*
X165560831Y-112132624D01*
X165562138Y-112133600D01*
X165587958Y-112127416D01*
X165654693Y-112110281D01*
X165754174Y-112084325D01*
X165878228Y-112051678D01*
X165986437Y-112023033D01*
X166130352Y-111984942D01*
X166262189Y-111950231D01*
X166371916Y-111921527D01*
X166449501Y-111901458D01*
X166479030Y-111894023D01*
X166503449Y-111885018D01*
X166501788Y-111873908D01*
X166468777Y-111858534D01*
X166399146Y-111836740D01*
X166287625Y-111806366D01*
X166225030Y-111790013D01*
X166082235Y-111751474D01*
X165908969Y-111702391D01*
X165723067Y-111647946D01*
X165542364Y-111593320D01*
X165463300Y-111568741D01*
X165031500Y-111433036D01*
X165031500Y-110780762D01*
X165598507Y-110607601D01*
X165772866Y-110555045D01*
X165943075Y-110505004D01*
X166099068Y-110460341D01*
X166230780Y-110423920D01*
X166328145Y-110398607D01*
X166355534Y-110392164D01*
X166444280Y-110371267D01*
X166508658Y-110353889D01*
X166537297Y-110343163D01*
X166537642Y-110341976D01*
X166511418Y-110333036D01*
X166445628Y-110314398D01*
X166349980Y-110288723D01*
X166234182Y-110258670D01*
X166225114Y-110256354D01*
X166087853Y-110220573D01*
X165950219Y-110183390D01*
X165829766Y-110149617D01*
X165755400Y-110127616D01*
X165669707Y-110101864D01*
X165603939Y-110083458D01*
X165572400Y-110076395D01*
X165556499Y-110098432D01*
X165540284Y-110152993D01*
X165537658Y-110165984D01*
X165520814Y-110255768D01*
X165031500Y-110241300D01*
X165031500Y-109149100D01*
X165277829Y-109141847D01*
X165524158Y-109134593D01*
X165540259Y-109230747D01*
X165552028Y-109298727D01*
X165560616Y-109344320D01*
X165561655Y-109349027D01*
X165586335Y-109361036D01*
X165654423Y-109385794D01*
X165760630Y-109421590D01*
X165899667Y-109466711D01*
X166066244Y-109519448D01*
X166255071Y-109578088D01*
X166460858Y-109640919D01*
X166505725Y-109654484D01*
X167444500Y-109937813D01*
X167451535Y-110328901D01*
X167452640Y-110465420D01*
X167451050Y-110584027D01*
X167447088Y-110675418D01*
X167441079Y-110730290D01*
X167437157Y-110741403D01*
X167403378Y-110758407D01*
X167328672Y-110786475D01*
X167221070Y-110823114D01*
X167088599Y-110865826D01*
X166939291Y-110912117D01*
X166781174Y-110959490D01*
X166622279Y-111005449D01*
X166470634Y-111047500D01*
X166352300Y-111078594D01*
X166220787Y-111112344D01*
X166133336Y-111136254D01*
X166084698Y-111152694D01*
X166069623Y-111164031D01*
X166082862Y-111172634D01*
X166119166Y-111180871D01*
X166123700Y-111181735D01*
X166175289Y-111193934D01*
X166264179Y-111217511D01*
X166382318Y-111250123D01*
X166521652Y-111289427D01*
X166674130Y-111333080D01*
X166831700Y-111378740D01*
X166986310Y-111424064D01*
X167129907Y-111466708D01*
X167254439Y-111504331D01*
X167351855Y-111534589D01*
X167414101Y-111555140D01*
X167432505Y-111562537D01*
X167443518Y-111593839D01*
X167451430Y-111664849D01*
X167456339Y-111764576D01*
X167458344Y-111882030D01*
X167457543Y-112006218D01*
X167454033Y-112126149D01*
X167447913Y-112230833D01*
X167439281Y-112309279D01*
X167428235Y-112350496D01*
X167425450Y-112353501D01*
X167394601Y-112364906D01*
X167320560Y-112388813D01*
X167208909Y-112423523D01*
X167065229Y-112467334D01*
X166895102Y-112518545D01*
X166704110Y-112575456D01*
X166497835Y-112636365D01*
X166479353Y-112641796D01*
X165565006Y-112910393D01*
X165542993Y-113030882D01*
X165520981Y-113151370D01*
X165276240Y-113144135D01*
X165031500Y-113136900D01*
X165031500Y-111968500D01*
X165276157Y-111961267D01*
G36*
X164982689Y-107836462D02*
X164986686Y-107717620D01*
X164995351Y-107624215D01*
X165009951Y-107543590D01*
X165031755Y-107463084D01*
X165036830Y-107446713D01*
X165113855Y-107266349D01*
X165219668Y-107126486D01*
X165356663Y-107024219D01*
X165405045Y-107000054D01*
X165447886Y-106981614D01*
X165489576Y-106967228D01*
X165537074Y-106956301D01*
X165597339Y-106948234D01*
X165677332Y-106942431D01*
X165784012Y-106938295D01*
X165924340Y-106935228D01*
X166105275Y-106932633D01*
X166205023Y-106931422D01*
X166408717Y-106929447D01*
X166567436Y-106927613D01*
X166686962Y-106923957D01*
X166773078Y-106916514D01*
X166831565Y-106903321D01*
X166868205Y-106882412D01*
X166888781Y-106851824D01*
X166899073Y-106809593D01*
X166904865Y-106753755D01*
X166910847Y-106691650D01*
X166927455Y-106545600D01*
X167400050Y-106545600D01*
X167414448Y-106617591D01*
X167420165Y-106666087D01*
X167427000Y-106755447D01*
X167434339Y-106875768D01*
X167441564Y-107017141D01*
X167446830Y-107138291D01*
X167464814Y-107587000D01*
X167089807Y-107587000D01*
X167179274Y-107647795D01*
X167290159Y-107751097D01*
X167381154Y-107890718D01*
X167447965Y-108054629D01*
X167486300Y-108230802D01*
X167491865Y-108407209D01*
X167480840Y-108492669D01*
X167424981Y-108672229D01*
X167333863Y-108815541D01*
X167209058Y-108921345D01*
X167052138Y-108988380D01*
X166864676Y-109015384D01*
X166828402Y-109015898D01*
X166734524Y-109004530D01*
X166734524Y-108323600D01*
X166817062Y-108300681D01*
X166890256Y-108240677D01*
X166932071Y-108171200D01*
X166938926Y-108107215D01*
X166927387Y-108018946D01*
X166901162Y-107927853D01*
X166882814Y-107886220D01*
X166815523Y-107803113D01*
X166713396Y-107732665D01*
X166592311Y-107684555D01*
X166531742Y-107672187D01*
X166408071Y-107655236D01*
X166426035Y-107853473D01*
X166455621Y-108034522D01*
X166507245Y-108172791D01*
X166580127Y-108267093D01*
X166673488Y-108316242D01*
X166734524Y-108323600D01*
X166734524Y-109004530D01*
X166633478Y-108992292D01*
X166460836Y-108924032D01*
X166311663Y-108812675D01*
X166187142Y-108659779D01*
X166088459Y-108466902D01*
X166016799Y-108235601D01*
X165973347Y-107967433D01*
X165966167Y-107882632D01*
X165950715Y-107657564D01*
X165810653Y-107669179D01*
X165717346Y-107682490D01*
X165656057Y-107708138D01*
X165613876Y-107746730D01*
X165558731Y-107848067D01*
X165533321Y-107987278D01*
X165538310Y-108160579D01*
X165539495Y-108171162D01*
X165550728Y-108254072D01*
X165568387Y-108303721D01*
X165604404Y-108331594D01*
X165670713Y-108349176D01*
X165736349Y-108360634D01*
X165831599Y-108376702D01*
X165831599Y-108616851D01*
X165831600Y-108857000D01*
X165096958Y-108857000D01*
X165072520Y-108761750D01*
X165033410Y-108595442D01*
X165006972Y-108444184D01*
X164991052Y-108289673D01*
X164983496Y-108113606D01*
X164982093Y-107993400D01*
X164982689Y-107836462D01*
X164982689Y-107836462D01*
G37*
X164982689Y-107836462D02*
X164986686Y-107717620D01*
X164995351Y-107624215D01*
X165009951Y-107543590D01*
X165031755Y-107463084D01*
X165036830Y-107446713D01*
X165113855Y-107266349D01*
X165219668Y-107126486D01*
X165356663Y-107024219D01*
X165405045Y-107000054D01*
X165447886Y-106981614D01*
X165489576Y-106967228D01*
X165537074Y-106956301D01*
X165597339Y-106948234D01*
X165677332Y-106942431D01*
X165784012Y-106938295D01*
X165924340Y-106935228D01*
X166105275Y-106932633D01*
X166205023Y-106931422D01*
X166408717Y-106929447D01*
X166567436Y-106927613D01*
X166686962Y-106923957D01*
X166773078Y-106916514D01*
X166831565Y-106903321D01*
X166868205Y-106882412D01*
X166888781Y-106851824D01*
X166899073Y-106809593D01*
X166904865Y-106753755D01*
X166910847Y-106691650D01*
X166927455Y-106545600D01*
X167400050Y-106545600D01*
X167414448Y-106617591D01*
X167420165Y-106666087D01*
X167427000Y-106755447D01*
X167434339Y-106875768D01*
X167441564Y-107017141D01*
X167446830Y-107138291D01*
X167464814Y-107587000D01*
X167089807Y-107587000D01*
X167179274Y-107647795D01*
X167290159Y-107751097D01*
X167381154Y-107890718D01*
X167447965Y-108054629D01*
X167486300Y-108230802D01*
X167491865Y-108407209D01*
X167480840Y-108492669D01*
X167424981Y-108672229D01*
X167333863Y-108815541D01*
X167209058Y-108921345D01*
X167052138Y-108988380D01*
X166864676Y-109015384D01*
X166828402Y-109015898D01*
X166734524Y-109004530D01*
X166734524Y-108323600D01*
X166817062Y-108300681D01*
X166890256Y-108240677D01*
X166932071Y-108171200D01*
X166938926Y-108107215D01*
X166927387Y-108018946D01*
X166901162Y-107927853D01*
X166882814Y-107886220D01*
X166815523Y-107803113D01*
X166713396Y-107732665D01*
X166592311Y-107684555D01*
X166531742Y-107672187D01*
X166408071Y-107655236D01*
X166426035Y-107853473D01*
X166455621Y-108034522D01*
X166507245Y-108172791D01*
X166580127Y-108267093D01*
X166673488Y-108316242D01*
X166734524Y-108323600D01*
X166734524Y-109004530D01*
X166633478Y-108992292D01*
X166460836Y-108924032D01*
X166311663Y-108812675D01*
X166187142Y-108659779D01*
X166088459Y-108466902D01*
X166016799Y-108235601D01*
X165973347Y-107967433D01*
X165966167Y-107882632D01*
X165950715Y-107657564D01*
X165810653Y-107669179D01*
X165717346Y-107682490D01*
X165656057Y-107708138D01*
X165613876Y-107746730D01*
X165558731Y-107848067D01*
X165533321Y-107987278D01*
X165538310Y-108160579D01*
X165539495Y-108171162D01*
X165550728Y-108254072D01*
X165568387Y-108303721D01*
X165604404Y-108331594D01*
X165670713Y-108349176D01*
X165736349Y-108360634D01*
X165831599Y-108376702D01*
X165831599Y-108616851D01*
X165831600Y-108857000D01*
X165096958Y-108857000D01*
X165072520Y-108761750D01*
X165033410Y-108595442D01*
X165006972Y-108444184D01*
X164991052Y-108289673D01*
X164983496Y-108113606D01*
X164982093Y-107993400D01*
X164982689Y-107836462D01*
G36*
X164986244Y-114351997D02*
X165024771Y-114135233D01*
X165075220Y-113982033D01*
X165125059Y-113893712D01*
X165195199Y-113802670D01*
X165235164Y-113761484D01*
X165294442Y-113710689D01*
X165354262Y-113670349D01*
X165421221Y-113639283D01*
X165501917Y-113616309D01*
X165602944Y-113600248D01*
X165730901Y-113589917D01*
X165892383Y-113584136D01*
X166093987Y-113581723D01*
X166240898Y-113581400D01*
X166438675Y-113581900D01*
X166591630Y-113581933D01*
X166705712Y-113579305D01*
X166786869Y-113571819D01*
X166841049Y-113557279D01*
X166874202Y-113533490D01*
X166892277Y-113498256D01*
X166901220Y-113449381D01*
X166906982Y-113384668D01*
X166911766Y-113333750D01*
X166928787Y-113175000D01*
X167399907Y-113175000D01*
X167414891Y-113270250D01*
X167420897Y-113327222D01*
X167427981Y-113424238D01*
X167435486Y-113550571D01*
X167442760Y-113695494D01*
X167447420Y-113803650D01*
X167464965Y-114241800D01*
X167129419Y-114241800D01*
X167251570Y-114363952D01*
X167369656Y-114517007D01*
X167449256Y-114697701D01*
X167487960Y-114897909D01*
X167483357Y-115109507D01*
X167479964Y-115134060D01*
X167431229Y-115308484D01*
X167344082Y-115451126D01*
X167221684Y-115559399D01*
X167067194Y-115630716D01*
X166883775Y-115662489D01*
X166832606Y-115663952D01*
X166751824Y-115654697D01*
X166751824Y-114967938D01*
X166780737Y-114961606D01*
X166860523Y-114914392D01*
X166904710Y-114850838D01*
X166936288Y-114782895D01*
X166946714Y-114732815D01*
X166938194Y-114675285D01*
X166924406Y-114624916D01*
X166868169Y-114513849D01*
X166774997Y-114419382D01*
X166658289Y-114351263D01*
X166531445Y-114319237D01*
X166502429Y-114318000D01*
X166409236Y-114318000D01*
X166426571Y-114502150D01*
X166455443Y-114673954D01*
X166504868Y-114809631D01*
X166572382Y-114905985D01*
X166655522Y-114959819D01*
X166751824Y-114967938D01*
X166751824Y-115654697D01*
X166637132Y-115641555D01*
X166464721Y-115574232D01*
X166316016Y-115462644D01*
X166191661Y-115307448D01*
X166092297Y-115109304D01*
X166018567Y-114868871D01*
X166007306Y-114817479D01*
X165985225Y-114695701D01*
X165968410Y-114574865D01*
X165959610Y-114475779D01*
X165958933Y-114451350D01*
X165958600Y-114318000D01*
X165829646Y-114318000D01*
X165708107Y-114337951D01*
X165618045Y-114397648D01*
X165559590Y-114496860D01*
X165532876Y-114635358D01*
X165538034Y-114812908D01*
X165539424Y-114825348D01*
X165556823Y-114975262D01*
X165687861Y-114996063D01*
X165818900Y-115016864D01*
X165833506Y-115486400D01*
X165096958Y-115486400D01*
X165071713Y-115391150D01*
X165014361Y-115125039D01*
X164981014Y-114856646D01*
X164971650Y-114595717D01*
X164986244Y-114351997D01*
X164986244Y-114351997D01*
G37*
X164986244Y-114351997D02*
X165024771Y-114135233D01*
X165075220Y-113982033D01*
X165125059Y-113893712D01*
X165195199Y-113802670D01*
X165235164Y-113761484D01*
X165294442Y-113710689D01*
X165354262Y-113670349D01*
X165421221Y-113639283D01*
X165501917Y-113616309D01*
X165602944Y-113600248D01*
X165730901Y-113589917D01*
X165892383Y-113584136D01*
X166093987Y-113581723D01*
X166240898Y-113581400D01*
X166438675Y-113581900D01*
X166591630Y-113581933D01*
X166705712Y-113579305D01*
X166786869Y-113571819D01*
X166841049Y-113557279D01*
X166874202Y-113533490D01*
X166892277Y-113498256D01*
X166901220Y-113449381D01*
X166906982Y-113384668D01*
X166911766Y-113333750D01*
X166928787Y-113175000D01*
X167399907Y-113175000D01*
X167414891Y-113270250D01*
X167420897Y-113327222D01*
X167427981Y-113424238D01*
X167435486Y-113550571D01*
X167442760Y-113695494D01*
X167447420Y-113803650D01*
X167464965Y-114241800D01*
X167129419Y-114241800D01*
X167251570Y-114363952D01*
X167369656Y-114517007D01*
X167449256Y-114697701D01*
X167487960Y-114897909D01*
X167483357Y-115109507D01*
X167479964Y-115134060D01*
X167431229Y-115308484D01*
X167344082Y-115451126D01*
X167221684Y-115559399D01*
X167067194Y-115630716D01*
X166883775Y-115662489D01*
X166832606Y-115663952D01*
X166751824Y-115654697D01*
X166751824Y-114967938D01*
X166780737Y-114961606D01*
X166860523Y-114914392D01*
X166904710Y-114850838D01*
X166936288Y-114782895D01*
X166946714Y-114732815D01*
X166938194Y-114675285D01*
X166924406Y-114624916D01*
X166868169Y-114513849D01*
X166774997Y-114419382D01*
X166658289Y-114351263D01*
X166531445Y-114319237D01*
X166502429Y-114318000D01*
X166409236Y-114318000D01*
X166426571Y-114502150D01*
X166455443Y-114673954D01*
X166504868Y-114809631D01*
X166572382Y-114905985D01*
X166655522Y-114959819D01*
X166751824Y-114967938D01*
X166751824Y-115654697D01*
X166637132Y-115641555D01*
X166464721Y-115574232D01*
X166316016Y-115462644D01*
X166191661Y-115307448D01*
X166092297Y-115109304D01*
X166018567Y-114868871D01*
X166007306Y-114817479D01*
X165985225Y-114695701D01*
X165968410Y-114574865D01*
X165959610Y-114475779D01*
X165958933Y-114451350D01*
X165958600Y-114318000D01*
X165829646Y-114318000D01*
X165708107Y-114337951D01*
X165618045Y-114397648D01*
X165559590Y-114496860D01*
X165532876Y-114635358D01*
X165538034Y-114812908D01*
X165539424Y-114825348D01*
X165556823Y-114975262D01*
X165687861Y-114996063D01*
X165818900Y-115016864D01*
X165833506Y-115486400D01*
X165096958Y-115486400D01*
X165071713Y-115391150D01*
X165014361Y-115125039D01*
X164981014Y-114856646D01*
X164971650Y-114595717D01*
X164986244Y-114351997D01*
G36*
X165017890Y-116823789D02*
X165049859Y-116712480D01*
X165136220Y-116528583D01*
X165264533Y-116371706D01*
X165432195Y-116244463D01*
X165594516Y-116165129D01*
X165709656Y-116131552D01*
X165856486Y-116105426D01*
X166016172Y-116088929D01*
X166169878Y-116084240D01*
X166257050Y-116088500D01*
X166415800Y-116103056D01*
X166415800Y-116823428D01*
X166416284Y-117043370D01*
X166417867Y-117216932D01*
X166420743Y-117348526D01*
X166425106Y-117442563D01*
X166431151Y-117503456D01*
X166439073Y-117535617D01*
X166447550Y-117543659D01*
X166543802Y-117526705D01*
X166651496Y-117483263D01*
X166746753Y-117423357D01*
X166759468Y-117412718D01*
X166837920Y-117311981D01*
X166890810Y-117174863D01*
X166917525Y-117009238D01*
X166917454Y-116822977D01*
X166889984Y-116623950D01*
X166836283Y-116425267D01*
X166807149Y-116336760D01*
X166786646Y-116269811D01*
X166778353Y-116236248D01*
X166778564Y-116234483D01*
X166809769Y-116227233D01*
X166877920Y-116217833D01*
X166969874Y-116207511D01*
X167072487Y-116197495D01*
X167172616Y-116189015D01*
X167257117Y-116183299D01*
X167312846Y-116181576D01*
X167327406Y-116183174D01*
X167345740Y-116214969D01*
X167370092Y-116284631D01*
X167397332Y-116380061D01*
X167424332Y-116489155D01*
X167447962Y-116599813D01*
X167465094Y-116699934D01*
X167469061Y-116731000D01*
X167483584Y-116865982D01*
X167492133Y-116966434D01*
X167495141Y-117048224D01*
X167493043Y-117127216D01*
X167486271Y-117219276D01*
X167483321Y-117252604D01*
X167441686Y-117505179D01*
X167365246Y-117721138D01*
X167253258Y-117901556D01*
X167104978Y-118047505D01*
X166919663Y-118160060D01*
X166828346Y-118198481D01*
X166679450Y-118239360D01*
X166498352Y-118266364D01*
X166301944Y-118278685D01*
X166107114Y-118275513D01*
X165930753Y-118256041D01*
X165872316Y-118244252D01*
X165868438Y-118242959D01*
X165868438Y-117518400D01*
X165933200Y-117518400D01*
X165933200Y-116807200D01*
X165868884Y-116807200D01*
X165758795Y-116828164D01*
X165651842Y-116882992D01*
X165581864Y-116947248D01*
X165535988Y-117043054D01*
X165524415Y-117157695D01*
X165546713Y-117272938D01*
X165591613Y-117357280D01*
X165683226Y-117448183D01*
X165787591Y-117504183D01*
X165868438Y-117518400D01*
X165868438Y-118242959D01*
X165636637Y-118165624D01*
X165433216Y-118050233D01*
X165264337Y-117902328D01*
X165132279Y-117726157D01*
X165039324Y-117525969D01*
X164987754Y-117306013D01*
X164979849Y-117070536D01*
X165017890Y-116823789D01*
X165017890Y-116823789D01*
G37*
X165017890Y-116823789D02*
X165049859Y-116712480D01*
X165136220Y-116528583D01*
X165264533Y-116371706D01*
X165432195Y-116244463D01*
X165594516Y-116165129D01*
X165709656Y-116131552D01*
X165856486Y-116105426D01*
X166016172Y-116088929D01*
X166169878Y-116084240D01*
X166257050Y-116088500D01*
X166415800Y-116103056D01*
X166415800Y-116823428D01*
X166416284Y-117043370D01*
X166417867Y-117216932D01*
X166420743Y-117348526D01*
X166425106Y-117442563D01*
X166431151Y-117503456D01*
X166439073Y-117535617D01*
X166447550Y-117543659D01*
X166543802Y-117526705D01*
X166651496Y-117483263D01*
X166746753Y-117423357D01*
X166759468Y-117412718D01*
X166837920Y-117311981D01*
X166890810Y-117174863D01*
X166917525Y-117009238D01*
X166917454Y-116822977D01*
X166889984Y-116623950D01*
X166836283Y-116425267D01*
X166807149Y-116336760D01*
X166786646Y-116269811D01*
X166778353Y-116236248D01*
X166778564Y-116234483D01*
X166809769Y-116227233D01*
X166877920Y-116217833D01*
X166969874Y-116207511D01*
X167072487Y-116197495D01*
X167172616Y-116189015D01*
X167257117Y-116183299D01*
X167312846Y-116181576D01*
X167327406Y-116183174D01*
X167345740Y-116214969D01*
X167370092Y-116284631D01*
X167397332Y-116380061D01*
X167424332Y-116489155D01*
X167447962Y-116599813D01*
X167465094Y-116699934D01*
X167469061Y-116731000D01*
X167483584Y-116865982D01*
X167492133Y-116966434D01*
X167495141Y-117048224D01*
X167493043Y-117127216D01*
X167486271Y-117219276D01*
X167483321Y-117252604D01*
X167441686Y-117505179D01*
X167365246Y-117721138D01*
X167253258Y-117901556D01*
X167104978Y-118047505D01*
X166919663Y-118160060D01*
X166828346Y-118198481D01*
X166679450Y-118239360D01*
X166498352Y-118266364D01*
X166301944Y-118278685D01*
X166107114Y-118275513D01*
X165930753Y-118256041D01*
X165872316Y-118244252D01*
X165868438Y-118242959D01*
X165868438Y-117518400D01*
X165933200Y-117518400D01*
X165933200Y-116807200D01*
X165868884Y-116807200D01*
X165758795Y-116828164D01*
X165651842Y-116882992D01*
X165581864Y-116947248D01*
X165535988Y-117043054D01*
X165524415Y-117157695D01*
X165546713Y-117272938D01*
X165591613Y-117357280D01*
X165683226Y-117448183D01*
X165787591Y-117504183D01*
X165868438Y-117518400D01*
X165868438Y-118242959D01*
X165636637Y-118165624D01*
X165433216Y-118050233D01*
X165264337Y-117902328D01*
X165132279Y-117726157D01*
X165039324Y-117525969D01*
X164987754Y-117306013D01*
X164979849Y-117070536D01*
X165017890Y-116823789D01*
G36*
X167817047Y-115185372D02*
X167838593Y-115160874D01*
X167889000Y-115156200D01*
X167940195Y-115161156D01*
X167961194Y-115186293D01*
X167965200Y-115245100D01*
X167960952Y-115304829D01*
X167939406Y-115329327D01*
X167889000Y-115334000D01*
X167837804Y-115329045D01*
X167816805Y-115303908D01*
X167812800Y-115245100D01*
X167817047Y-115185372D01*
X167817047Y-115185372D01*
G37*
X167817047Y-115185372D02*
X167838593Y-115160874D01*
X167889000Y-115156200D01*
X167940195Y-115161156D01*
X167961194Y-115186293D01*
X167965200Y-115245100D01*
X167960952Y-115304829D01*
X167939406Y-115329327D01*
X167889000Y-115334000D01*
X167837804Y-115329045D01*
X167816805Y-115303908D01*
X167812800Y-115245100D01*
X167817047Y-115185372D01*
G36*
X168114636Y-100742107D02*
X168175837Y-100632134D01*
X168266763Y-100548013D01*
X168378278Y-100495514D01*
X168501246Y-100480412D01*
X168626531Y-100508476D01*
X168650493Y-100519490D01*
X168750281Y-100596209D01*
X168819726Y-100703727D01*
X168854185Y-100829021D01*
X168849015Y-100959070D01*
X168829843Y-101022489D01*
X168798382Y-101070353D01*
X168743542Y-101130489D01*
X168716269Y-101155839D01*
X168609222Y-101219858D01*
X168491895Y-101241625D01*
X168482650Y-101240366D01*
X168482650Y-101133798D01*
X168583261Y-101105535D01*
X168603378Y-101095657D01*
X168674991Y-101034439D01*
X168728550Y-100944145D01*
X168751505Y-100846198D01*
X168751605Y-100842602D01*
X168738242Y-100784208D01*
X168709315Y-100728302D01*
X168645756Y-100652471D01*
X168577166Y-100614285D01*
X168483468Y-100602872D01*
X168477596Y-100602808D01*
X168364915Y-100623690D01*
X168280141Y-100683740D01*
X168230032Y-100776320D01*
X168219200Y-100856587D01*
X168227119Y-100934196D01*
X168258174Y-100996022D01*
X168305560Y-101049040D01*
X168393628Y-101115521D01*
X168482650Y-101133798D01*
X168482650Y-101240366D01*
X168374037Y-101225572D01*
X168265399Y-101176131D01*
X168175729Y-101097736D01*
X168114778Y-100994818D01*
X168092294Y-100872159D01*
X168114636Y-100742107D01*
X168114636Y-100742107D01*
G37*
X168114636Y-100742107D02*
X168175837Y-100632134D01*
X168266763Y-100548013D01*
X168378278Y-100495514D01*
X168501246Y-100480412D01*
X168626531Y-100508476D01*
X168650493Y-100519490D01*
X168750281Y-100596209D01*
X168819726Y-100703727D01*
X168854185Y-100829021D01*
X168849015Y-100959070D01*
X168829843Y-101022489D01*
X168798382Y-101070353D01*
X168743542Y-101130489D01*
X168716269Y-101155839D01*
X168609222Y-101219858D01*
X168491895Y-101241625D01*
X168482650Y-101240366D01*
X168482650Y-101133798D01*
X168583261Y-101105535D01*
X168603378Y-101095657D01*
X168674991Y-101034439D01*
X168728550Y-100944145D01*
X168751505Y-100846198D01*
X168751605Y-100842602D01*
X168738242Y-100784208D01*
X168709315Y-100728302D01*
X168645756Y-100652471D01*
X168577166Y-100614285D01*
X168483468Y-100602872D01*
X168477596Y-100602808D01*
X168364915Y-100623690D01*
X168280141Y-100683740D01*
X168230032Y-100776320D01*
X168219200Y-100856587D01*
X168227119Y-100934196D01*
X168258174Y-100996022D01*
X168305560Y-101049040D01*
X168393628Y-101115521D01*
X168482650Y-101133798D01*
X168482650Y-101240366D01*
X168374037Y-101225572D01*
X168265399Y-101176131D01*
X168175729Y-101097736D01*
X168114778Y-100994818D01*
X168092294Y-100872159D01*
X168114636Y-100742107D01*
G36*
X168100423Y-101930302D02*
X168134523Y-101825541D01*
X168194717Y-101733081D01*
X168277349Y-101660326D01*
X168378764Y-101614684D01*
X168495305Y-101603562D01*
X168623318Y-101634365D01*
X168635914Y-101639729D01*
X168735030Y-101700596D01*
X168802627Y-101775023D01*
X168842606Y-101880293D01*
X168853867Y-102003405D01*
X168836182Y-102122324D01*
X168806879Y-102190587D01*
X168717848Y-102291969D01*
X168604469Y-102353466D01*
X168479327Y-102372037D01*
X168479327Y-102255648D01*
X168579676Y-102233457D01*
X168636990Y-102198692D01*
X168717392Y-102110387D01*
X168748309Y-102011766D01*
X168729355Y-101904462D01*
X168714645Y-101872281D01*
X168641895Y-101778039D01*
X168547895Y-101728275D01*
X168439388Y-101725080D01*
X168345691Y-101757963D01*
X168271367Y-101812443D01*
X168231431Y-101887418D01*
X168219208Y-101995623D01*
X168219200Y-101999285D01*
X168240974Y-102104612D01*
X168298943Y-102185959D01*
X168382072Y-102238059D01*
X168479327Y-102255648D01*
X168479327Y-102372037D01*
X168476996Y-102372383D01*
X168345685Y-102346028D01*
X168298075Y-102324207D01*
X168191243Y-102244314D01*
X168125127Y-102147095D01*
X168096073Y-102039955D01*
X168100423Y-101930302D01*
X168100423Y-101930302D01*
G37*
X168100423Y-101930302D02*
X168134523Y-101825541D01*
X168194717Y-101733081D01*
X168277349Y-101660326D01*
X168378764Y-101614684D01*
X168495305Y-101603562D01*
X168623318Y-101634365D01*
X168635914Y-101639729D01*
X168735030Y-101700596D01*
X168802627Y-101775023D01*
X168842606Y-101880293D01*
X168853867Y-102003405D01*
X168836182Y-102122324D01*
X168806879Y-102190587D01*
X168717848Y-102291969D01*
X168604469Y-102353466D01*
X168479327Y-102372037D01*
X168479327Y-102255648D01*
X168579676Y-102233457D01*
X168636990Y-102198692D01*
X168717392Y-102110387D01*
X168748309Y-102011766D01*
X168729355Y-101904462D01*
X168714645Y-101872281D01*
X168641895Y-101778039D01*
X168547895Y-101728275D01*
X168439388Y-101725080D01*
X168345691Y-101757963D01*
X168271367Y-101812443D01*
X168231431Y-101887418D01*
X168219208Y-101995623D01*
X168219200Y-101999285D01*
X168240974Y-102104612D01*
X168298943Y-102185959D01*
X168382072Y-102238059D01*
X168479327Y-102255648D01*
X168479327Y-102372037D01*
X168476996Y-102372383D01*
X168345685Y-102346028D01*
X168298075Y-102324207D01*
X168191243Y-102244314D01*
X168125127Y-102147095D01*
X168096073Y-102039955D01*
X168100423Y-101930302D01*
G36*
X168132974Y-102986491D02*
X168149767Y-102954145D01*
X168232717Y-102851947D01*
X168334920Y-102789137D01*
X168447425Y-102763320D01*
X168561279Y-102772101D01*
X168667529Y-102813085D01*
X168757223Y-102883878D01*
X168821409Y-102982086D01*
X168851134Y-103105314D01*
X168852099Y-103142000D01*
X168847945Y-103220567D01*
X168839803Y-103281241D01*
X168836261Y-103294400D01*
X168777090Y-103388085D01*
X168682155Y-103463029D01*
X168565492Y-103510522D01*
X168468111Y-103522906D01*
X168421896Y-103515050D01*
X168421896Y-103408590D01*
X168517011Y-103406373D01*
X168612727Y-103367628D01*
X168689400Y-103302375D01*
X168716557Y-103258308D01*
X168746835Y-103165456D01*
X168743374Y-103086868D01*
X168712812Y-103011738D01*
X168650182Y-102938837D01*
X168560157Y-102889605D01*
X168463009Y-102873571D01*
X168428536Y-102878142D01*
X168362006Y-102906982D01*
X168293990Y-102955041D01*
X168289050Y-102959525D01*
X168234585Y-103041138D01*
X168218695Y-103137714D01*
X168237537Y-103236262D01*
X168287269Y-103323793D01*
X168364046Y-103387316D01*
X168421896Y-103408590D01*
X168421896Y-103515050D01*
X168337010Y-103500620D01*
X168229485Y-103439834D01*
X168150427Y-103349289D01*
X168104729Y-103237723D01*
X168097280Y-103113877D01*
X168132974Y-102986491D01*
X168132974Y-102986491D01*
G37*
X168132974Y-102986491D02*
X168149767Y-102954145D01*
X168232717Y-102851947D01*
X168334920Y-102789137D01*
X168447425Y-102763320D01*
X168561279Y-102772101D01*
X168667529Y-102813085D01*
X168757223Y-102883878D01*
X168821409Y-102982086D01*
X168851134Y-103105314D01*
X168852099Y-103142000D01*
X168847945Y-103220567D01*
X168839803Y-103281241D01*
X168836261Y-103294400D01*
X168777090Y-103388085D01*
X168682155Y-103463029D01*
X168565492Y-103510522D01*
X168468111Y-103522906D01*
X168421896Y-103515050D01*
X168421896Y-103408590D01*
X168517011Y-103406373D01*
X168612727Y-103367628D01*
X168689400Y-103302375D01*
X168716557Y-103258308D01*
X168746835Y-103165456D01*
X168743374Y-103086868D01*
X168712812Y-103011738D01*
X168650182Y-102938837D01*
X168560157Y-102889605D01*
X168463009Y-102873571D01*
X168428536Y-102878142D01*
X168362006Y-102906982D01*
X168293990Y-102955041D01*
X168289050Y-102959525D01*
X168234585Y-103041138D01*
X168218695Y-103137714D01*
X168237537Y-103236262D01*
X168287269Y-103323793D01*
X168364046Y-103387316D01*
X168421896Y-103408590D01*
X168421896Y-103515050D01*
X168337010Y-103500620D01*
X168229485Y-103439834D01*
X168150427Y-103349289D01*
X168104729Y-103237723D01*
X168097280Y-103113877D01*
X168132974Y-102986491D01*
G36*
X167814906Y-107568444D02*
X167828068Y-107549613D01*
X167862555Y-107540060D01*
X167928631Y-107536639D01*
X168019936Y-107536200D01*
X168121156Y-107535627D01*
X168179617Y-107532350D01*
X168203360Y-107524033D01*
X168200425Y-107508341D01*
X168183950Y-107488551D01*
X168137798Y-107406842D01*
X168122429Y-107309529D01*
X168135898Y-107212159D01*
X168176258Y-107130280D01*
X168234811Y-107082295D01*
X168285662Y-107070466D01*
X168373688Y-107061007D01*
X168485280Y-107055063D01*
X168575995Y-107053600D01*
X168697672Y-107053948D01*
X168777412Y-107056292D01*
X168824075Y-107062583D01*
X168846524Y-107074772D01*
X168853621Y-107094811D01*
X168854200Y-107114853D01*
X168852428Y-107141567D01*
X168841244Y-107159434D01*
X168811844Y-107170638D01*
X168755425Y-107177365D01*
X168663185Y-107181798D01*
X168572706Y-107184703D01*
X168446402Y-107189634D01*
X168361072Y-107196456D01*
X168306891Y-107206960D01*
X168274034Y-107222938D01*
X168255206Y-107242605D01*
X168221808Y-107326090D01*
X168236975Y-107411689D01*
X168281545Y-107473855D01*
X168313833Y-107502424D01*
X168349499Y-107520636D01*
X168400295Y-107530797D01*
X168477976Y-107535215D01*
X168594295Y-107536200D01*
X168854200Y-107536200D01*
X168854200Y-107663200D01*
X167812800Y-107663200D01*
X167812800Y-107599700D01*
X167814906Y-107568444D01*
X167814906Y-107568444D01*
G37*
X167814906Y-107568444D02*
X167828068Y-107549613D01*
X167862555Y-107540060D01*
X167928631Y-107536639D01*
X168019936Y-107536200D01*
X168121156Y-107535627D01*
X168179617Y-107532350D01*
X168203360Y-107524033D01*
X168200425Y-107508341D01*
X168183950Y-107488551D01*
X168137798Y-107406842D01*
X168122429Y-107309529D01*
X168135898Y-107212159D01*
X168176258Y-107130280D01*
X168234811Y-107082295D01*
X168285662Y-107070466D01*
X168373688Y-107061007D01*
X168485280Y-107055063D01*
X168575995Y-107053600D01*
X168697672Y-107053948D01*
X168777412Y-107056292D01*
X168824075Y-107062583D01*
X168846524Y-107074772D01*
X168853621Y-107094811D01*
X168854200Y-107114853D01*
X168852428Y-107141567D01*
X168841244Y-107159434D01*
X168811844Y-107170638D01*
X168755425Y-107177365D01*
X168663185Y-107181798D01*
X168572706Y-107184703D01*
X168446402Y-107189634D01*
X168361072Y-107196456D01*
X168306891Y-107206960D01*
X168274034Y-107222938D01*
X168255206Y-107242605D01*
X168221808Y-107326090D01*
X168236975Y-107411689D01*
X168281545Y-107473855D01*
X168313833Y-107502424D01*
X168349499Y-107520636D01*
X168400295Y-107530797D01*
X168477976Y-107535215D01*
X168594295Y-107536200D01*
X168854200Y-107536200D01*
X168854200Y-107663200D01*
X167812800Y-107663200D01*
X167812800Y-107599700D01*
X167814906Y-107568444D01*
G36*
X168135424Y-108733790D02*
X168173445Y-108730000D01*
X168217950Y-108739732D01*
X168245047Y-108777913D01*
X168259170Y-108824620D01*
X168285036Y-108891750D01*
X168328918Y-108937674D01*
X168399118Y-108965931D01*
X168503935Y-108980063D01*
X168631950Y-108983626D01*
X168738345Y-108984351D01*
X168803853Y-108987988D01*
X168838389Y-108997385D01*
X168851866Y-109015391D01*
X168854198Y-109044856D01*
X168854200Y-109047500D01*
X168854200Y-109111000D01*
X168484133Y-109111000D01*
X168340358Y-109110794D01*
X168239869Y-109109383D01*
X168175150Y-109105582D01*
X168138687Y-109098204D01*
X168122965Y-109086062D01*
X168120470Y-109067970D01*
X168122183Y-109053850D01*
X168151045Y-109002574D01*
X168187994Y-108988513D01*
X168227901Y-108980534D01*
X168225540Y-108964919D01*
X168194420Y-108937713D01*
X168153023Y-108882427D01*
X168127201Y-108812550D01*
X168120285Y-108756255D01*
X168135424Y-108733790D01*
X168135424Y-108733790D01*
G37*
X168135424Y-108733790D02*
X168173445Y-108730000D01*
X168217950Y-108739732D01*
X168245047Y-108777913D01*
X168259170Y-108824620D01*
X168285036Y-108891750D01*
X168328918Y-108937674D01*
X168399118Y-108965931D01*
X168503935Y-108980063D01*
X168631950Y-108983626D01*
X168738345Y-108984351D01*
X168803853Y-108987988D01*
X168838389Y-108997385D01*
X168851866Y-109015391D01*
X168854198Y-109044856D01*
X168854200Y-109047500D01*
X168854200Y-109111000D01*
X168484133Y-109111000D01*
X168340358Y-109110794D01*
X168239869Y-109109383D01*
X168175150Y-109105582D01*
X168138687Y-109098204D01*
X168122965Y-109086062D01*
X168120470Y-109067970D01*
X168122183Y-109053850D01*
X168151045Y-109002574D01*
X168187994Y-108988513D01*
X168227901Y-108980534D01*
X168225540Y-108964919D01*
X168194420Y-108937713D01*
X168153023Y-108882427D01*
X168127201Y-108812550D01*
X168120285Y-108756255D01*
X168135424Y-108733790D01*
G36*
X168127017Y-113293127D02*
X168165445Y-113276835D01*
X168187450Y-113275793D01*
X168233152Y-113272206D01*
X168234206Y-113258739D01*
X168216998Y-113244043D01*
X168157923Y-113175004D01*
X168122179Y-113088099D01*
X168117600Y-113049670D01*
X168131678Y-113008762D01*
X168181100Y-112997200D01*
X168231125Y-113009326D01*
X168244600Y-113046805D01*
X168259866Y-113126859D01*
X168298352Y-113196440D01*
X168349087Y-113236764D01*
X168356904Y-113239090D01*
X168406112Y-113245414D01*
X168490331Y-113251572D01*
X168593778Y-113256481D01*
X168625600Y-113257531D01*
X168730200Y-113261197D01*
X168794451Y-113266996D01*
X168828783Y-113278477D01*
X168843627Y-113299191D01*
X168849414Y-113332688D01*
X168849537Y-113333750D01*
X168857574Y-113403600D01*
X168117600Y-113403600D01*
X168117600Y-113340100D01*
X168127017Y-113293127D01*
X168127017Y-113293127D01*
G37*
X168127017Y-113293127D02*
X168165445Y-113276835D01*
X168187450Y-113275793D01*
X168233152Y-113272206D01*
X168234206Y-113258739D01*
X168216998Y-113244043D01*
X168157923Y-113175004D01*
X168122179Y-113088099D01*
X168117600Y-113049670D01*
X168131678Y-113008762D01*
X168181100Y-112997200D01*
X168231125Y-113009326D01*
X168244600Y-113046805D01*
X168259866Y-113126859D01*
X168298352Y-113196440D01*
X168349087Y-113236764D01*
X168356904Y-113239090D01*
X168406112Y-113245414D01*
X168490331Y-113251572D01*
X168593778Y-113256481D01*
X168625600Y-113257531D01*
X168730200Y-113261197D01*
X168794451Y-113266996D01*
X168828783Y-113278477D01*
X168843627Y-113299191D01*
X168849414Y-113332688D01*
X168849537Y-113333750D01*
X168857574Y-113403600D01*
X168117600Y-113403600D01*
X168117600Y-113340100D01*
X168127017Y-113293127D01*
G36*
X168854200Y-115181600D02*
X168854200Y-115308600D01*
X168117600Y-115308600D01*
X168117600Y-115181600D01*
X168854200Y-115181600D01*
X168854200Y-115181600D01*
G37*
X168854200Y-115181600D02*
X168854200Y-115308600D01*
X168117600Y-115308600D01*
X168117600Y-115181600D01*
X168854200Y-115181600D01*
G36*
X167983228Y-115767389D02*
X168025982Y-115765800D01*
X168086896Y-115761869D01*
X168112360Y-115741635D01*
X168117596Y-115692440D01*
X168117600Y-115689600D01*
X168125583Y-115633824D01*
X168155286Y-115614187D01*
X168168400Y-115613400D01*
X168205584Y-115625375D01*
X168218675Y-115669930D01*
X168219200Y-115689600D01*
X168219200Y-115765800D01*
X168445722Y-115765800D01*
X168576087Y-115764147D01*
X168663823Y-115757573D01*
X168717043Y-115743657D01*
X168743857Y-115719978D01*
X168752375Y-115684113D01*
X168752600Y-115674183D01*
X168765646Y-115625786D01*
X168803400Y-115613400D01*
X168836869Y-115622097D01*
X168851495Y-115657090D01*
X168854200Y-115713186D01*
X168843886Y-115791799D01*
X168817871Y-115848939D01*
X168814285Y-115852886D01*
X168784374Y-115871534D01*
X168733174Y-115883625D01*
X168651559Y-115890306D01*
X168530401Y-115892726D01*
X168496785Y-115892800D01*
X168219200Y-115892800D01*
X168219200Y-115956300D01*
X168207293Y-116006095D01*
X168168400Y-116019800D01*
X168128564Y-116004918D01*
X168117600Y-115956300D01*
X168109398Y-115910919D01*
X168074536Y-115894317D01*
X168041400Y-115892800D01*
X167987888Y-115886042D01*
X167965205Y-115869760D01*
X167965200Y-115869478D01*
X167956821Y-115826911D01*
X167949782Y-115805978D01*
X167949448Y-115778877D01*
X167983228Y-115767389D01*
X167983228Y-115767389D01*
G37*
X167983228Y-115767389D02*
X168025982Y-115765800D01*
X168086896Y-115761869D01*
X168112360Y-115741635D01*
X168117596Y-115692440D01*
X168117600Y-115689600D01*
X168125583Y-115633824D01*
X168155286Y-115614187D01*
X168168400Y-115613400D01*
X168205584Y-115625375D01*
X168218675Y-115669930D01*
X168219200Y-115689600D01*
X168219200Y-115765800D01*
X168445722Y-115765800D01*
X168576087Y-115764147D01*
X168663823Y-115757573D01*
X168717043Y-115743657D01*
X168743857Y-115719978D01*
X168752375Y-115684113D01*
X168752600Y-115674183D01*
X168765646Y-115625786D01*
X168803400Y-115613400D01*
X168836869Y-115622097D01*
X168851495Y-115657090D01*
X168854200Y-115713186D01*
X168843886Y-115791799D01*
X168817871Y-115848939D01*
X168814285Y-115852886D01*
X168784374Y-115871534D01*
X168733174Y-115883625D01*
X168651559Y-115890306D01*
X168530401Y-115892726D01*
X168496785Y-115892800D01*
X168219200Y-115892800D01*
X168219200Y-115956300D01*
X168207293Y-116006095D01*
X168168400Y-116019800D01*
X168128564Y-116004918D01*
X168117600Y-115956300D01*
X168109398Y-115910919D01*
X168074536Y-115894317D01*
X168041400Y-115892800D01*
X167987888Y-115886042D01*
X167965205Y-115869760D01*
X167965200Y-115869478D01*
X167956821Y-115826911D01*
X167949782Y-115805978D01*
X167949448Y-115778877D01*
X167983228Y-115767389D01*
G36*
X168130856Y-117735968D02*
X168161983Y-117726634D01*
X168223022Y-117722467D01*
X168323010Y-117721310D01*
X168363483Y-117721226D01*
X168526427Y-117714847D01*
X168643094Y-117694753D01*
X168716700Y-117658671D01*
X168750464Y-117604325D01*
X168747604Y-117529440D01*
X168726067Y-117464866D01*
X168705581Y-117425023D01*
X168676831Y-117397506D01*
X168630618Y-117379678D01*
X168557743Y-117368902D01*
X168449008Y-117362544D01*
X168358900Y-117359645D01*
X168250685Y-117356082D01*
X168183488Y-117350728D01*
X168147539Y-117340599D01*
X168133068Y-117322710D01*
X168130308Y-117294076D01*
X168130300Y-117289800D01*
X168130300Y-117226300D01*
X168854200Y-117212206D01*
X168854200Y-117277200D01*
X168841110Y-117331477D01*
X168816728Y-117356574D01*
X168793715Y-117372321D01*
X168797361Y-117402713D01*
X168816728Y-117443416D01*
X168849797Y-117558875D01*
X168839768Y-117680355D01*
X168828556Y-117713770D01*
X168796665Y-117770308D01*
X168748849Y-117809004D01*
X168676766Y-117832418D01*
X168572069Y-117843105D01*
X168426416Y-117843624D01*
X168406448Y-117843141D01*
X168285031Y-117839411D01*
X168205262Y-117834458D01*
X168157996Y-117826211D01*
X168134089Y-117812599D01*
X168124395Y-117791550D01*
X168122183Y-117778750D01*
X168120602Y-117752622D01*
X168130856Y-117735968D01*
X168130856Y-117735968D01*
G37*
X168130856Y-117735968D02*
X168161983Y-117726634D01*
X168223022Y-117722467D01*
X168323010Y-117721310D01*
X168363483Y-117721226D01*
X168526427Y-117714847D01*
X168643094Y-117694753D01*
X168716700Y-117658671D01*
X168750464Y-117604325D01*
X168747604Y-117529440D01*
X168726067Y-117464866D01*
X168705581Y-117425023D01*
X168676831Y-117397506D01*
X168630618Y-117379678D01*
X168557743Y-117368902D01*
X168449008Y-117362544D01*
X168358900Y-117359645D01*
X168250685Y-117356082D01*
X168183488Y-117350728D01*
X168147539Y-117340599D01*
X168133068Y-117322710D01*
X168130308Y-117294076D01*
X168130300Y-117289800D01*
X168130300Y-117226300D01*
X168854200Y-117212206D01*
X168854200Y-117277200D01*
X168841110Y-117331477D01*
X168816728Y-117356574D01*
X168793715Y-117372321D01*
X168797361Y-117402713D01*
X168816728Y-117443416D01*
X168849797Y-117558875D01*
X168839768Y-117680355D01*
X168828556Y-117713770D01*
X168796665Y-117770308D01*
X168748849Y-117809004D01*
X168676766Y-117832418D01*
X168572069Y-117843105D01*
X168426416Y-117843624D01*
X168406448Y-117843141D01*
X168285031Y-117839411D01*
X168205262Y-117834458D01*
X168157996Y-117826211D01*
X168134089Y-117812599D01*
X168124395Y-117791550D01*
X168122183Y-117778750D01*
X168120602Y-117752622D01*
X168130856Y-117735968D01*
G36*
X168142262Y-108047795D02*
X168153795Y-108022484D01*
X168197215Y-107967167D01*
X168256497Y-107923354D01*
X168314616Y-107901279D01*
X168348103Y-107905677D01*
X168372303Y-107944570D01*
X168360345Y-107995201D01*
X168317794Y-108040327D01*
X168301750Y-108049345D01*
X168250402Y-108086917D01*
X168227612Y-108146594D01*
X168224107Y-108176200D01*
X168234453Y-108259588D01*
X168283370Y-108315918D01*
X168373325Y-108346858D01*
X168487824Y-108354410D01*
X168614656Y-108342095D01*
X168698657Y-108306392D01*
X168743153Y-108245139D01*
X168752600Y-108182134D01*
X168743098Y-108112657D01*
X168705283Y-108067524D01*
X168676560Y-108049369D01*
X168614471Y-107994487D01*
X168600360Y-107946197D01*
X168606585Y-107904885D01*
X168635813Y-107896800D01*
X168669907Y-107903789D01*
X168755556Y-107938437D01*
X168813772Y-107999527D01*
X168845434Y-108062435D01*
X168870528Y-108132099D01*
X168875343Y-108188615D01*
X168859982Y-108256376D01*
X168846416Y-108297321D01*
X168789909Y-108390247D01*
X168700910Y-108456120D01*
X168590575Y-108493882D01*
X168470060Y-108502470D01*
X168350519Y-108480826D01*
X168243108Y-108427889D01*
X168172664Y-108361353D01*
X168129208Y-108269244D01*
X168118695Y-108157924D01*
X168142262Y-108047795D01*
X168142262Y-108047795D01*
G37*
X168142262Y-108047795D02*
X168153795Y-108022484D01*
X168197215Y-107967167D01*
X168256497Y-107923354D01*
X168314616Y-107901279D01*
X168348103Y-107905677D01*
X168372303Y-107944570D01*
X168360345Y-107995201D01*
X168317794Y-108040327D01*
X168301750Y-108049345D01*
X168250402Y-108086917D01*
X168227612Y-108146594D01*
X168224107Y-108176200D01*
X168234453Y-108259588D01*
X168283370Y-108315918D01*
X168373325Y-108346858D01*
X168487824Y-108354410D01*
X168614656Y-108342095D01*
X168698657Y-108306392D01*
X168743153Y-108245139D01*
X168752600Y-108182134D01*
X168743098Y-108112657D01*
X168705283Y-108067524D01*
X168676560Y-108049369D01*
X168614471Y-107994487D01*
X168600360Y-107946197D01*
X168606585Y-107904885D01*
X168635813Y-107896800D01*
X168669907Y-107903789D01*
X168755556Y-107938437D01*
X168813772Y-107999527D01*
X168845434Y-108062435D01*
X168870528Y-108132099D01*
X168875343Y-108188615D01*
X168859982Y-108256376D01*
X168846416Y-108297321D01*
X168789909Y-108390247D01*
X168700910Y-108456120D01*
X168590575Y-108493882D01*
X168470060Y-108502470D01*
X168350519Y-108480826D01*
X168243108Y-108427889D01*
X168172664Y-108361353D01*
X168129208Y-108269244D01*
X168118695Y-108157924D01*
X168142262Y-108047795D01*
G36*
X168119310Y-109680188D02*
X168150365Y-109589034D01*
X168170243Y-109558926D01*
X168193930Y-109531100D01*
X168219682Y-109512304D01*
X168257240Y-109500766D01*
X168316347Y-109494716D01*
X168406745Y-109492385D01*
X168538178Y-109492001D01*
X168538543Y-109492000D01*
X168669813Y-109492449D01*
X168758569Y-109494696D01*
X168813097Y-109500098D01*
X168841681Y-109510009D01*
X168852607Y-109525784D01*
X168854200Y-109543619D01*
X168832037Y-109594146D01*
X168797050Y-109618209D01*
X168765793Y-109635555D01*
X168772946Y-109642790D01*
X168801688Y-109665301D01*
X168835127Y-109718376D01*
X168863995Y-109783734D01*
X168879028Y-109843096D01*
X168879560Y-109853135D01*
X168868670Y-109895796D01*
X168841848Y-109959454D01*
X168835110Y-109973088D01*
X168770369Y-110054579D01*
X168685466Y-110091454D01*
X168662922Y-110089035D01*
X168662922Y-109947122D01*
X168722120Y-109918720D01*
X168746269Y-109865422D01*
X168750898Y-109789759D01*
X168736150Y-109716206D01*
X168720766Y-109686775D01*
X168675546Y-109653985D01*
X168605874Y-109630061D01*
X168593766Y-109627797D01*
X168498600Y-109612354D01*
X168498600Y-109724325D01*
X168507529Y-109807748D01*
X168529786Y-109878292D01*
X168538140Y-109892749D01*
X168594421Y-109937656D01*
X168662922Y-109947122D01*
X168662922Y-110089035D01*
X168587532Y-110080942D01*
X168572311Y-110075170D01*
X168492359Y-110016385D01*
X168437118Y-109915657D01*
X168405735Y-109771366D01*
X168404016Y-109755843D01*
X168393242Y-109676081D01*
X168378053Y-109634929D01*
X168352218Y-109620230D01*
X168333883Y-109619000D01*
X168265917Y-109641540D01*
X168213859Y-109697714D01*
X168193800Y-109768263D01*
X168211717Y-109824011D01*
X168255057Y-109881362D01*
X168257300Y-109883476D01*
X168296437Y-109934092D01*
X168318493Y-109989380D01*
X168319675Y-110033540D01*
X168297477Y-110050800D01*
X168227720Y-110027985D01*
X168171924Y-109967531D01*
X168133190Y-109881423D01*
X168114619Y-109781646D01*
X168119310Y-109680188D01*
X168119310Y-109680188D01*
G37*
X168119310Y-109680188D02*
X168150365Y-109589034D01*
X168170243Y-109558926D01*
X168193930Y-109531100D01*
X168219682Y-109512304D01*
X168257240Y-109500766D01*
X168316347Y-109494716D01*
X168406745Y-109492385D01*
X168538178Y-109492001D01*
X168538543Y-109492000D01*
X168669813Y-109492449D01*
X168758569Y-109494696D01*
X168813097Y-109500098D01*
X168841681Y-109510009D01*
X168852607Y-109525784D01*
X168854200Y-109543619D01*
X168832037Y-109594146D01*
X168797050Y-109618209D01*
X168765793Y-109635555D01*
X168772946Y-109642790D01*
X168801688Y-109665301D01*
X168835127Y-109718376D01*
X168863995Y-109783734D01*
X168879028Y-109843096D01*
X168879560Y-109853135D01*
X168868670Y-109895796D01*
X168841848Y-109959454D01*
X168835110Y-109973088D01*
X168770369Y-110054579D01*
X168685466Y-110091454D01*
X168662922Y-110089035D01*
X168662922Y-109947122D01*
X168722120Y-109918720D01*
X168746269Y-109865422D01*
X168750898Y-109789759D01*
X168736150Y-109716206D01*
X168720766Y-109686775D01*
X168675546Y-109653985D01*
X168605874Y-109630061D01*
X168593766Y-109627797D01*
X168498600Y-109612354D01*
X168498600Y-109724325D01*
X168507529Y-109807748D01*
X168529786Y-109878292D01*
X168538140Y-109892749D01*
X168594421Y-109937656D01*
X168662922Y-109947122D01*
X168662922Y-110089035D01*
X168587532Y-110080942D01*
X168572311Y-110075170D01*
X168492359Y-110016385D01*
X168437118Y-109915657D01*
X168405735Y-109771366D01*
X168404016Y-109755843D01*
X168393242Y-109676081D01*
X168378053Y-109634929D01*
X168352218Y-109620230D01*
X168333883Y-109619000D01*
X168265917Y-109641540D01*
X168213859Y-109697714D01*
X168193800Y-109768263D01*
X168211717Y-109824011D01*
X168255057Y-109881362D01*
X168257300Y-109883476D01*
X168296437Y-109934092D01*
X168318493Y-109989380D01*
X168319675Y-110033540D01*
X168297477Y-110050800D01*
X168227720Y-110027985D01*
X168171924Y-109967531D01*
X168133190Y-109881423D01*
X168114619Y-109781646D01*
X168119310Y-109680188D01*
G36*
X168123362Y-110650273D02*
X168141181Y-110538827D01*
X168182025Y-110463374D01*
X168255604Y-110412386D01*
X168351266Y-110379636D01*
X168423991Y-110362649D01*
X168472806Y-110362861D01*
X168502461Y-110387349D01*
X168517706Y-110443190D01*
X168523291Y-110537460D01*
X168524000Y-110636957D01*
X168524000Y-110894508D01*
X168593850Y-110878098D01*
X168671771Y-110840332D01*
X168736931Y-110775552D01*
X168774248Y-110700666D01*
X168778000Y-110671684D01*
X168761607Y-110612891D01*
X168722300Y-110554188D01*
X168674884Y-110514658D01*
X168651000Y-110508000D01*
X168631906Y-110486264D01*
X168625600Y-110444500D01*
X168638964Y-110393437D01*
X168678032Y-110385180D01*
X168741267Y-110419659D01*
X168780096Y-110451674D01*
X168847139Y-110543497D01*
X168874941Y-110656123D01*
X168861496Y-110775796D01*
X168836535Y-110838200D01*
X168764230Y-110927354D01*
X168662582Y-110986120D01*
X168543411Y-111013881D01*
X168418540Y-111010019D01*
X168362836Y-110993085D01*
X168362836Y-110863600D01*
X168393981Y-110860468D01*
X168411809Y-110843708D01*
X168420020Y-110802281D01*
X168422311Y-110725144D01*
X168422400Y-110685800D01*
X168421202Y-110592663D01*
X168415339Y-110539330D01*
X168401406Y-110514824D01*
X168375995Y-110508164D01*
X168367250Y-110508000D01*
X168290856Y-110530496D01*
X168238679Y-110591359D01*
X168219201Y-110680655D01*
X168219200Y-110681387D01*
X168237098Y-110773567D01*
X168285594Y-110837559D01*
X168356885Y-110863468D01*
X168362836Y-110863600D01*
X168362836Y-110993085D01*
X168299787Y-110973916D01*
X168198973Y-110904955D01*
X168170183Y-110873028D01*
X168136894Y-110821786D01*
X168121899Y-110766095D01*
X168121107Y-110686485D01*
X168123362Y-110650273D01*
X168123362Y-110650273D01*
G37*
X168123362Y-110650273D02*
X168141181Y-110538827D01*
X168182025Y-110463374D01*
X168255604Y-110412386D01*
X168351266Y-110379636D01*
X168423991Y-110362649D01*
X168472806Y-110362861D01*
X168502461Y-110387349D01*
X168517706Y-110443190D01*
X168523291Y-110537460D01*
X168524000Y-110636957D01*
X168524000Y-110894508D01*
X168593850Y-110878098D01*
X168671771Y-110840332D01*
X168736931Y-110775552D01*
X168774248Y-110700666D01*
X168778000Y-110671684D01*
X168761607Y-110612891D01*
X168722300Y-110554188D01*
X168674884Y-110514658D01*
X168651000Y-110508000D01*
X168631906Y-110486264D01*
X168625600Y-110444500D01*
X168638964Y-110393437D01*
X168678032Y-110385180D01*
X168741267Y-110419659D01*
X168780096Y-110451674D01*
X168847139Y-110543497D01*
X168874941Y-110656123D01*
X168861496Y-110775796D01*
X168836535Y-110838200D01*
X168764230Y-110927354D01*
X168662582Y-110986120D01*
X168543411Y-111013881D01*
X168418540Y-111010019D01*
X168362836Y-110993085D01*
X168362836Y-110863600D01*
X168393981Y-110860468D01*
X168411809Y-110843708D01*
X168420020Y-110802281D01*
X168422311Y-110725144D01*
X168422400Y-110685800D01*
X168421202Y-110592663D01*
X168415339Y-110539330D01*
X168401406Y-110514824D01*
X168375995Y-110508164D01*
X168367250Y-110508000D01*
X168290856Y-110530496D01*
X168238679Y-110591359D01*
X168219201Y-110680655D01*
X168219200Y-110681387D01*
X168237098Y-110773567D01*
X168285594Y-110837559D01*
X168356885Y-110863468D01*
X168362836Y-110863600D01*
X168362836Y-110993085D01*
X168299787Y-110973916D01*
X168198973Y-110904955D01*
X168170183Y-110873028D01*
X168136894Y-110821786D01*
X168121899Y-110766095D01*
X168121107Y-110686485D01*
X168123362Y-110650273D01*
G36*
X168123162Y-111540487D02*
X168134699Y-111444739D01*
X168155802Y-111383993D01*
X168191916Y-111342619D01*
X168192157Y-111342423D01*
X168245852Y-111308061D01*
X168285513Y-111295400D01*
X168314374Y-111314405D01*
X168320452Y-111358684D01*
X168305692Y-111409137D01*
X168272038Y-111446663D01*
X168270000Y-111447800D01*
X168231114Y-111493940D01*
X168216157Y-111564010D01*
X168224996Y-111637199D01*
X168257499Y-111692698D01*
X168271623Y-111702669D01*
X168325272Y-111716397D01*
X168367378Y-111690019D01*
X168401658Y-111619584D01*
X168423027Y-111541792D01*
X168447015Y-111455100D01*
X168474076Y-111381749D01*
X168487300Y-111355670D01*
X168548244Y-111300313D01*
X168628854Y-111281097D01*
X168714183Y-111296982D01*
X168789284Y-111346928D01*
X168814613Y-111378467D01*
X168852815Y-111471491D01*
X168868615Y-111585203D01*
X168859962Y-111694631D01*
X168844540Y-111742838D01*
X168806101Y-111795015D01*
X168749638Y-111838974D01*
X168691191Y-111865457D01*
X168646802Y-111865211D01*
X168640459Y-111860593D01*
X168624801Y-111813903D01*
X168646284Y-111758096D01*
X168689100Y-111716836D01*
X168734902Y-111672290D01*
X168751726Y-111607727D01*
X168752600Y-111579295D01*
X168738399Y-111485628D01*
X168695685Y-111433869D01*
X168645375Y-111422400D01*
X168609262Y-111434885D01*
X168578151Y-111477304D01*
X168547981Y-111557108D01*
X168523527Y-111645990D01*
X168479093Y-111756722D01*
X168415936Y-111827410D01*
X168340822Y-111855550D01*
X168260516Y-111838638D01*
X168181782Y-111774173D01*
X168180676Y-111772865D01*
X168141859Y-111720541D01*
X168123163Y-111670396D01*
X168119672Y-111602568D01*
X168123162Y-111540487D01*
X168123162Y-111540487D01*
G37*
X168123162Y-111540487D02*
X168134699Y-111444739D01*
X168155802Y-111383993D01*
X168191916Y-111342619D01*
X168192157Y-111342423D01*
X168245852Y-111308061D01*
X168285513Y-111295400D01*
X168314374Y-111314405D01*
X168320452Y-111358684D01*
X168305692Y-111409137D01*
X168272038Y-111446663D01*
X168270000Y-111447800D01*
X168231114Y-111493940D01*
X168216157Y-111564010D01*
X168224996Y-111637199D01*
X168257499Y-111692698D01*
X168271623Y-111702669D01*
X168325272Y-111716397D01*
X168367378Y-111690019D01*
X168401658Y-111619584D01*
X168423027Y-111541792D01*
X168447015Y-111455100D01*
X168474076Y-111381749D01*
X168487300Y-111355670D01*
X168548244Y-111300313D01*
X168628854Y-111281097D01*
X168714183Y-111296982D01*
X168789284Y-111346928D01*
X168814613Y-111378467D01*
X168852815Y-111471491D01*
X168868615Y-111585203D01*
X168859962Y-111694631D01*
X168844540Y-111742838D01*
X168806101Y-111795015D01*
X168749638Y-111838974D01*
X168691191Y-111865457D01*
X168646802Y-111865211D01*
X168640459Y-111860593D01*
X168624801Y-111813903D01*
X168646284Y-111758096D01*
X168689100Y-111716836D01*
X168734902Y-111672290D01*
X168751726Y-111607727D01*
X168752600Y-111579295D01*
X168738399Y-111485628D01*
X168695685Y-111433869D01*
X168645375Y-111422400D01*
X168609262Y-111434885D01*
X168578151Y-111477304D01*
X168547981Y-111557108D01*
X168523527Y-111645990D01*
X168479093Y-111756722D01*
X168415936Y-111827410D01*
X168340822Y-111855550D01*
X168260516Y-111838638D01*
X168181782Y-111774173D01*
X168180676Y-111772865D01*
X168141859Y-111720541D01*
X168123163Y-111670396D01*
X168119672Y-111602568D01*
X168123162Y-111540487D01*
G36*
X168141578Y-112309382D02*
X168188958Y-112232338D01*
X168246155Y-112180045D01*
X168311459Y-112152186D01*
X168392158Y-112139806D01*
X168524000Y-112127137D01*
X168524000Y-112384369D01*
X168525252Y-112508323D01*
X168531675Y-112588167D01*
X168547264Y-112630576D01*
X168576014Y-112642227D01*
X168621921Y-112629795D01*
X168660788Y-112612906D01*
X168722769Y-112561239D01*
X168762402Y-112484405D01*
X168769423Y-112404333D01*
X168765679Y-112388796D01*
X168732134Y-112335180D01*
X168687173Y-112295103D01*
X168647867Y-112253172D01*
X168627172Y-112201032D01*
X168628141Y-112155609D01*
X168653825Y-112133827D01*
X168658048Y-112133600D01*
X168719977Y-112154974D01*
X168784549Y-112209747D01*
X168836192Y-112283897D01*
X168844183Y-112301204D01*
X168871805Y-112397087D01*
X168871287Y-112499410D01*
X168862132Y-112555552D01*
X168837426Y-112607387D01*
X168789589Y-112667964D01*
X168776717Y-112680929D01*
X168686269Y-112737067D01*
X168571210Y-112765718D01*
X168446171Y-112767813D01*
X168387659Y-112756379D01*
X168387659Y-112640371D01*
X168410500Y-112610932D01*
X168420577Y-112538808D01*
X168422400Y-112451100D01*
X168420932Y-112352958D01*
X168414909Y-112295328D01*
X168401904Y-112267966D01*
X168379490Y-112260629D01*
X168377251Y-112260600D01*
X168299645Y-112281764D01*
X168245500Y-112336277D01*
X168218553Y-112410677D01*
X168222541Y-112491498D01*
X168261200Y-112565278D01*
X168286125Y-112588957D01*
X168347664Y-112631566D01*
X168387659Y-112640371D01*
X168387659Y-112756379D01*
X168325785Y-112744286D01*
X168224684Y-112696068D01*
X168168827Y-112642201D01*
X168124042Y-112539870D01*
X168115267Y-112422655D01*
X168141578Y-112309382D01*
X168141578Y-112309382D01*
G37*
X168141578Y-112309382D02*
X168188958Y-112232338D01*
X168246155Y-112180045D01*
X168311459Y-112152186D01*
X168392158Y-112139806D01*
X168524000Y-112127137D01*
X168524000Y-112384369D01*
X168525252Y-112508323D01*
X168531675Y-112588167D01*
X168547264Y-112630576D01*
X168576014Y-112642227D01*
X168621921Y-112629795D01*
X168660788Y-112612906D01*
X168722769Y-112561239D01*
X168762402Y-112484405D01*
X168769423Y-112404333D01*
X168765679Y-112388796D01*
X168732134Y-112335180D01*
X168687173Y-112295103D01*
X168647867Y-112253172D01*
X168627172Y-112201032D01*
X168628141Y-112155609D01*
X168653825Y-112133827D01*
X168658048Y-112133600D01*
X168719977Y-112154974D01*
X168784549Y-112209747D01*
X168836192Y-112283897D01*
X168844183Y-112301204D01*
X168871805Y-112397087D01*
X168871287Y-112499410D01*
X168862132Y-112555552D01*
X168837426Y-112607387D01*
X168789589Y-112667964D01*
X168776717Y-112680929D01*
X168686269Y-112737067D01*
X168571210Y-112765718D01*
X168446171Y-112767813D01*
X168387659Y-112756379D01*
X168387659Y-112640371D01*
X168410500Y-112610932D01*
X168420577Y-112538808D01*
X168422400Y-112451100D01*
X168420932Y-112352958D01*
X168414909Y-112295328D01*
X168401904Y-112267966D01*
X168379490Y-112260629D01*
X168377251Y-112260600D01*
X168299645Y-112281764D01*
X168245500Y-112336277D01*
X168218553Y-112410677D01*
X168222541Y-112491498D01*
X168261200Y-112565278D01*
X168286125Y-112588957D01*
X168347664Y-112631566D01*
X168387659Y-112640371D01*
X168387659Y-112756379D01*
X168325785Y-112744286D01*
X168224684Y-112696068D01*
X168168827Y-112642201D01*
X168124042Y-112539870D01*
X168115267Y-112422655D01*
X168141578Y-112309382D01*
G36*
X168136653Y-114406416D02*
X168192999Y-114318691D01*
X168264174Y-114268999D01*
X168316827Y-114251943D01*
X168346724Y-114254825D01*
X168371948Y-114294277D01*
X168360453Y-114345195D01*
X168317551Y-114390511D01*
X168301750Y-114399345D01*
X168250102Y-114437326D01*
X168227378Y-114497756D01*
X168224160Y-114525317D01*
X168231555Y-114604917D01*
X168272521Y-114658316D01*
X168351742Y-114688623D01*
X168473901Y-114698945D01*
X168485900Y-114699000D01*
X168611346Y-114689841D01*
X168694166Y-114660198D01*
X168739519Y-114606829D01*
X168752600Y-114531279D01*
X168742803Y-114461921D01*
X168703985Y-114416604D01*
X168676560Y-114399369D01*
X168615782Y-114346386D01*
X168600360Y-114298950D01*
X168615517Y-114253500D01*
X168654726Y-114241315D01*
X168708058Y-114257896D01*
X168765586Y-114298746D01*
X168817381Y-114359369D01*
X168844183Y-114409404D01*
X168870218Y-114481338D01*
X168875296Y-114538703D01*
X168859653Y-114606584D01*
X168846416Y-114645821D01*
X168786245Y-114746094D01*
X168688508Y-114812882D01*
X168554725Y-114845149D01*
X168554253Y-114845194D01*
X168403707Y-114841537D01*
X168279993Y-114801771D01*
X168188024Y-114729498D01*
X168132714Y-114628318D01*
X168118164Y-114525602D01*
X168136653Y-114406416D01*
X168136653Y-114406416D01*
G37*
X168136653Y-114406416D02*
X168192999Y-114318691D01*
X168264174Y-114268999D01*
X168316827Y-114251943D01*
X168346724Y-114254825D01*
X168371948Y-114294277D01*
X168360453Y-114345195D01*
X168317551Y-114390511D01*
X168301750Y-114399345D01*
X168250102Y-114437326D01*
X168227378Y-114497756D01*
X168224160Y-114525317D01*
X168231555Y-114604917D01*
X168272521Y-114658316D01*
X168351742Y-114688623D01*
X168473901Y-114698945D01*
X168485900Y-114699000D01*
X168611346Y-114689841D01*
X168694166Y-114660198D01*
X168739519Y-114606829D01*
X168752600Y-114531279D01*
X168742803Y-114461921D01*
X168703985Y-114416604D01*
X168676560Y-114399369D01*
X168615782Y-114346386D01*
X168600360Y-114298950D01*
X168615517Y-114253500D01*
X168654726Y-114241315D01*
X168708058Y-114257896D01*
X168765586Y-114298746D01*
X168817381Y-114359369D01*
X168844183Y-114409404D01*
X168870218Y-114481338D01*
X168875296Y-114538703D01*
X168859653Y-114606584D01*
X168846416Y-114645821D01*
X168786245Y-114746094D01*
X168688508Y-114812882D01*
X168554725Y-114845149D01*
X168554253Y-114845194D01*
X168403707Y-114841537D01*
X168279993Y-114801771D01*
X168188024Y-114729498D01*
X168132714Y-114628318D01*
X168118164Y-114525602D01*
X168136653Y-114406416D01*
G36*
X168118518Y-116468850D02*
X168146189Y-116381052D01*
X168194579Y-116318862D01*
X168227263Y-116298968D01*
X168273489Y-116285769D01*
X168343168Y-116278017D01*
X168446210Y-116274463D01*
X168552213Y-116273800D01*
X168854200Y-116273800D01*
X168854200Y-116337300D01*
X168842946Y-116386416D01*
X168802001Y-116400773D01*
X168798972Y-116400800D01*
X168743744Y-116400800D01*
X168798581Y-116459172D01*
X168856825Y-116554497D01*
X168866742Y-116661076D01*
X168836146Y-116756128D01*
X168771100Y-116837874D01*
X168686199Y-116877865D01*
X168673847Y-116877070D01*
X168673847Y-116741954D01*
X168705906Y-116728803D01*
X168740176Y-116685104D01*
X168753489Y-116615421D01*
X168745668Y-116540127D01*
X168716536Y-116479595D01*
X168708150Y-116471064D01*
X168651545Y-116437790D01*
X168581150Y-116414309D01*
X168528463Y-116405595D01*
X168504940Y-116417778D01*
X168498814Y-116462956D01*
X168498600Y-116499187D01*
X168511981Y-116613153D01*
X168548888Y-116695189D01*
X168604462Y-116739916D01*
X168673847Y-116741954D01*
X168673847Y-116877070D01*
X168591159Y-116871746D01*
X168583744Y-116869254D01*
X168497444Y-116814341D01*
X168438907Y-116719845D01*
X168406921Y-116583659D01*
X168404116Y-116557089D01*
X168393706Y-116469333D01*
X168379820Y-116421496D01*
X168358181Y-116402704D01*
X168342672Y-116400800D01*
X168281978Y-116422223D01*
X168226870Y-116473854D01*
X168195725Y-116536738D01*
X168193800Y-116554355D01*
X168211017Y-116607053D01*
X168252908Y-116665295D01*
X168257300Y-116669810D01*
X168303806Y-116731674D01*
X168319911Y-116786893D01*
X168304427Y-116823838D01*
X168273936Y-116832600D01*
X168209883Y-116810022D01*
X168160455Y-116750316D01*
X168127511Y-116665524D01*
X168112912Y-116567688D01*
X168118518Y-116468850D01*
X168118518Y-116468850D01*
G37*
X168118518Y-116468850D02*
X168146189Y-116381052D01*
X168194579Y-116318862D01*
X168227263Y-116298968D01*
X168273489Y-116285769D01*
X168343168Y-116278017D01*
X168446210Y-116274463D01*
X168552213Y-116273800D01*
X168854200Y-116273800D01*
X168854200Y-116337300D01*
X168842946Y-116386416D01*
X168802001Y-116400773D01*
X168798972Y-116400800D01*
X168743744Y-116400800D01*
X168798581Y-116459172D01*
X168856825Y-116554497D01*
X168866742Y-116661076D01*
X168836146Y-116756128D01*
X168771100Y-116837874D01*
X168686199Y-116877865D01*
X168673847Y-116877070D01*
X168673847Y-116741954D01*
X168705906Y-116728803D01*
X168740176Y-116685104D01*
X168753489Y-116615421D01*
X168745668Y-116540127D01*
X168716536Y-116479595D01*
X168708150Y-116471064D01*
X168651545Y-116437790D01*
X168581150Y-116414309D01*
X168528463Y-116405595D01*
X168504940Y-116417778D01*
X168498814Y-116462956D01*
X168498600Y-116499187D01*
X168511981Y-116613153D01*
X168548888Y-116695189D01*
X168604462Y-116739916D01*
X168673847Y-116741954D01*
X168673847Y-116877070D01*
X168591159Y-116871746D01*
X168583744Y-116869254D01*
X168497444Y-116814341D01*
X168438907Y-116719845D01*
X168406921Y-116583659D01*
X168404116Y-116557089D01*
X168393706Y-116469333D01*
X168379820Y-116421496D01*
X168358181Y-116402704D01*
X168342672Y-116400800D01*
X168281978Y-116422223D01*
X168226870Y-116473854D01*
X168195725Y-116536738D01*
X168193800Y-116554355D01*
X168211017Y-116607053D01*
X168252908Y-116665295D01*
X168257300Y-116669810D01*
X168303806Y-116731674D01*
X168319911Y-116786893D01*
X168304427Y-116823838D01*
X168273936Y-116832600D01*
X168209883Y-116810022D01*
X168160455Y-116750316D01*
X168127511Y-116665524D01*
X168112912Y-116567688D01*
X168118518Y-116468850D01*
G36*
X168135808Y-119329536D02*
X168181722Y-119251692D01*
X168194579Y-119239862D01*
X168227263Y-119219968D01*
X168273489Y-119206769D01*
X168343168Y-119199017D01*
X168446210Y-119195463D01*
X168552213Y-119194800D01*
X168854200Y-119194800D01*
X168854200Y-119258300D01*
X168842946Y-119307416D01*
X168802001Y-119321773D01*
X168798972Y-119321800D01*
X168743744Y-119321800D01*
X168798581Y-119380172D01*
X168856825Y-119475497D01*
X168866742Y-119582076D01*
X168836146Y-119677128D01*
X168771100Y-119758874D01*
X168686199Y-119798865D01*
X168673847Y-119798070D01*
X168673847Y-119662954D01*
X168705906Y-119649803D01*
X168740176Y-119606104D01*
X168753489Y-119536421D01*
X168745668Y-119461127D01*
X168716536Y-119400595D01*
X168708150Y-119392064D01*
X168651545Y-119358790D01*
X168581150Y-119335309D01*
X168528463Y-119326595D01*
X168504940Y-119338778D01*
X168498814Y-119383956D01*
X168498600Y-119420187D01*
X168511981Y-119534153D01*
X168548888Y-119616189D01*
X168604462Y-119660916D01*
X168673847Y-119662954D01*
X168673847Y-119798070D01*
X168591159Y-119792746D01*
X168583744Y-119790254D01*
X168497444Y-119735341D01*
X168438907Y-119640845D01*
X168406921Y-119504659D01*
X168404116Y-119478089D01*
X168393706Y-119390333D01*
X168379820Y-119342496D01*
X168358181Y-119323704D01*
X168342672Y-119321800D01*
X168281978Y-119343223D01*
X168226870Y-119394854D01*
X168195725Y-119457738D01*
X168193800Y-119475355D01*
X168211017Y-119528053D01*
X168252908Y-119586295D01*
X168257300Y-119590810D01*
X168307280Y-119657052D01*
X168321489Y-119710983D01*
X168304679Y-119743761D01*
X168261603Y-119746542D01*
X168197012Y-119710485D01*
X168194195Y-119708229D01*
X168143264Y-119637706D01*
X168116566Y-119539667D01*
X168114085Y-119431236D01*
X168135808Y-119329536D01*
X168135808Y-119329536D01*
G37*
X168135808Y-119329536D02*
X168181722Y-119251692D01*
X168194579Y-119239862D01*
X168227263Y-119219968D01*
X168273489Y-119206769D01*
X168343168Y-119199017D01*
X168446210Y-119195463D01*
X168552213Y-119194800D01*
X168854200Y-119194800D01*
X168854200Y-119258300D01*
X168842946Y-119307416D01*
X168802001Y-119321773D01*
X168798972Y-119321800D01*
X168743744Y-119321800D01*
X168798581Y-119380172D01*
X168856825Y-119475497D01*
X168866742Y-119582076D01*
X168836146Y-119677128D01*
X168771100Y-119758874D01*
X168686199Y-119798865D01*
X168673847Y-119798070D01*
X168673847Y-119662954D01*
X168705906Y-119649803D01*
X168740176Y-119606104D01*
X168753489Y-119536421D01*
X168745668Y-119461127D01*
X168716536Y-119400595D01*
X168708150Y-119392064D01*
X168651545Y-119358790D01*
X168581150Y-119335309D01*
X168528463Y-119326595D01*
X168504940Y-119338778D01*
X168498814Y-119383956D01*
X168498600Y-119420187D01*
X168511981Y-119534153D01*
X168548888Y-119616189D01*
X168604462Y-119660916D01*
X168673847Y-119662954D01*
X168673847Y-119798070D01*
X168591159Y-119792746D01*
X168583744Y-119790254D01*
X168497444Y-119735341D01*
X168438907Y-119640845D01*
X168406921Y-119504659D01*
X168404116Y-119478089D01*
X168393706Y-119390333D01*
X168379820Y-119342496D01*
X168358181Y-119323704D01*
X168342672Y-119321800D01*
X168281978Y-119343223D01*
X168226870Y-119394854D01*
X168195725Y-119457738D01*
X168193800Y-119475355D01*
X168211017Y-119528053D01*
X168252908Y-119586295D01*
X168257300Y-119590810D01*
X168307280Y-119657052D01*
X168321489Y-119710983D01*
X168304679Y-119743761D01*
X168261603Y-119746542D01*
X168197012Y-119710485D01*
X168194195Y-119708229D01*
X168143264Y-119637706D01*
X168116566Y-119539667D01*
X168114085Y-119431236D01*
X168135808Y-119329536D01*
G36*
X164988806Y-105206404D02*
X164991340Y-105076613D01*
X164995514Y-104918852D01*
X165001021Y-104744512D01*
X165007553Y-104564984D01*
X165009081Y-104526300D01*
X165031500Y-103967500D01*
X165615700Y-103967500D01*
X165623383Y-104101030D01*
X165629250Y-104177656D01*
X165639061Y-104213351D01*
X165658455Y-104217960D01*
X165683747Y-104206367D01*
X165737415Y-104192782D01*
X165824827Y-104186337D01*
X165917364Y-104187685D01*
X166118443Y-104220323D01*
X166291648Y-104294663D01*
X166435809Y-104409193D01*
X166549758Y-104562398D01*
X166632324Y-104752768D01*
X166682338Y-104978789D01*
X166698386Y-105197999D01*
X166702747Y-105300924D01*
X166711411Y-105385852D01*
X166722771Y-105438784D01*
X166726997Y-105447050D01*
X166774402Y-105474074D01*
X166837640Y-105476881D01*
X166892808Y-105457108D01*
X166912422Y-105434350D01*
X166919934Y-105394837D01*
X166928208Y-105314137D01*
X166936502Y-105201840D01*
X166944073Y-105067536D01*
X166948340Y-104970800D01*
X166959088Y-104769556D01*
X166975430Y-104610522D01*
X167000041Y-104485197D01*
X167035600Y-104385074D01*
X167084782Y-104301649D01*
X167150266Y-104226418D01*
X167196058Y-104183814D01*
X167318718Y-104094622D01*
X167451877Y-104038373D01*
X167607377Y-104011592D01*
X167787076Y-104010301D01*
X167911319Y-104019337D01*
X168006415Y-104035932D01*
X168093956Y-104065256D01*
X168178551Y-104104050D01*
X168387948Y-104233896D01*
X168569848Y-104400704D01*
X168717785Y-104596770D01*
X168825297Y-104814386D01*
X168857872Y-104914045D01*
X168889511Y-105076799D01*
X168903159Y-105259268D01*
X168898835Y-105442451D01*
X168876558Y-105607347D01*
X168857102Y-105682000D01*
X168771295Y-105895378D01*
X168663326Y-106067276D01*
X168528254Y-106204007D01*
X168366117Y-106309292D01*
X168285500Y-106347003D01*
X168210638Y-106368520D01*
X168121238Y-106378095D01*
X168028700Y-106380009D01*
X167919179Y-106377999D01*
X167890262Y-106374379D01*
X167890262Y-105672604D01*
X168032546Y-105670535D01*
X168159712Y-105626303D01*
X168263872Y-105541852D01*
X168300296Y-105492587D01*
X168327353Y-105436712D01*
X168340473Y-105369134D01*
X168342232Y-105273326D01*
X168340773Y-105233015D01*
X168333389Y-105129945D01*
X168318553Y-105059000D01*
X168290581Y-105001534D01*
X168255626Y-104953615D01*
X168187657Y-104886138D01*
X168097617Y-104819192D01*
X168041921Y-104786650D01*
X167901977Y-104731652D01*
X167782332Y-104718539D01*
X167686219Y-104746586D01*
X167616870Y-104815068D01*
X167585328Y-104888999D01*
X167572886Y-104960366D01*
X167564504Y-105061259D01*
X167560226Y-105178026D01*
X167560098Y-105297011D01*
X167564167Y-105404560D01*
X167572478Y-105487019D01*
X167583186Y-105527706D01*
X167619138Y-105562600D01*
X167685755Y-105603995D01*
X167740748Y-105630563D01*
X167890262Y-105672604D01*
X167890262Y-106374379D01*
X167839354Y-106368005D01*
X167768208Y-106345034D01*
X167684723Y-106304094D01*
X167665444Y-106293716D01*
X167574287Y-106238492D01*
X167493104Y-106179328D01*
X167442594Y-106132304D01*
X167379799Y-106057676D01*
X167327356Y-106124346D01*
X167226991Y-106213035D01*
X167099121Y-106259091D01*
X167013145Y-106266200D01*
X166863961Y-106246939D01*
X166739775Y-106186121D01*
X166643253Y-106094455D01*
X166558136Y-105993071D01*
X166488817Y-106088763D01*
X166386883Y-106189290D01*
X166249786Y-106266467D01*
X166088888Y-106317336D01*
X165915556Y-106338937D01*
X165870150Y-106336171D01*
X165870150Y-105630848D01*
X165989999Y-105609831D01*
X166062793Y-105573171D01*
X166145931Y-105488399D01*
X166195400Y-105375118D01*
X166208949Y-105244738D01*
X166184328Y-105108668D01*
X166164464Y-105057774D01*
X166095700Y-104960438D01*
X166001002Y-104898624D01*
X165891096Y-104872689D01*
X165776709Y-104882990D01*
X165668568Y-104929884D01*
X165577400Y-105013728D01*
X165560353Y-105037675D01*
X165526462Y-105125675D01*
X165514572Y-105238617D01*
X165524481Y-105355749D01*
X165555991Y-105456319D01*
X165564522Y-105472040D01*
X165643873Y-105559204D01*
X165750262Y-105613056D01*
X165870150Y-105630848D01*
X165870150Y-106336171D01*
X165741152Y-106328311D01*
X165648562Y-106307563D01*
X165456922Y-106226983D01*
X165295176Y-106107056D01*
X165165379Y-105950925D01*
X165069585Y-105761734D01*
X165009847Y-105542628D01*
X164988221Y-105296836D01*
X164988806Y-105206404D01*
X164988806Y-105206404D01*
G37*
X164988806Y-105206404D02*
X164991340Y-105076613D01*
X164995514Y-104918852D01*
X165001021Y-104744512D01*
X165007553Y-104564984D01*
X165009081Y-104526300D01*
X165031500Y-103967500D01*
X165615700Y-103967500D01*
X165623383Y-104101030D01*
X165629250Y-104177656D01*
X165639061Y-104213351D01*
X165658455Y-104217960D01*
X165683747Y-104206367D01*
X165737415Y-104192782D01*
X165824827Y-104186337D01*
X165917364Y-104187685D01*
X166118443Y-104220323D01*
X166291648Y-104294663D01*
X166435809Y-104409193D01*
X166549758Y-104562398D01*
X166632324Y-104752768D01*
X166682338Y-104978789D01*
X166698386Y-105197999D01*
X166702747Y-105300924D01*
X166711411Y-105385852D01*
X166722771Y-105438784D01*
X166726997Y-105447050D01*
X166774402Y-105474074D01*
X166837640Y-105476881D01*
X166892808Y-105457108D01*
X166912422Y-105434350D01*
X166919934Y-105394837D01*
X166928208Y-105314137D01*
X166936502Y-105201840D01*
X166944073Y-105067536D01*
X166948340Y-104970800D01*
X166959088Y-104769556D01*
X166975430Y-104610522D01*
X167000041Y-104485197D01*
X167035600Y-104385074D01*
X167084782Y-104301649D01*
X167150266Y-104226418D01*
X167196058Y-104183814D01*
X167318718Y-104094622D01*
X167451877Y-104038373D01*
X167607377Y-104011592D01*
X167787076Y-104010301D01*
X167911319Y-104019337D01*
X168006415Y-104035932D01*
X168093956Y-104065256D01*
X168178551Y-104104050D01*
X168387948Y-104233896D01*
X168569848Y-104400704D01*
X168717785Y-104596770D01*
X168825297Y-104814386D01*
X168857872Y-104914045D01*
X168889511Y-105076799D01*
X168903159Y-105259268D01*
X168898835Y-105442451D01*
X168876558Y-105607347D01*
X168857102Y-105682000D01*
X168771295Y-105895378D01*
X168663326Y-106067276D01*
X168528254Y-106204007D01*
X168366117Y-106309292D01*
X168285500Y-106347003D01*
X168210638Y-106368520D01*
X168121238Y-106378095D01*
X168028700Y-106380009D01*
X167919179Y-106377999D01*
X167890262Y-106374379D01*
X167890262Y-105672604D01*
X168032546Y-105670535D01*
X168159712Y-105626303D01*
X168263872Y-105541852D01*
X168300296Y-105492587D01*
X168327353Y-105436712D01*
X168340473Y-105369134D01*
X168342232Y-105273326D01*
X168340773Y-105233015D01*
X168333389Y-105129945D01*
X168318553Y-105059000D01*
X168290581Y-105001534D01*
X168255626Y-104953615D01*
X168187657Y-104886138D01*
X168097617Y-104819192D01*
X168041921Y-104786650D01*
X167901977Y-104731652D01*
X167782332Y-104718539D01*
X167686219Y-104746586D01*
X167616870Y-104815068D01*
X167585328Y-104888999D01*
X167572886Y-104960366D01*
X167564504Y-105061259D01*
X167560226Y-105178026D01*
X167560098Y-105297011D01*
X167564167Y-105404560D01*
X167572478Y-105487019D01*
X167583186Y-105527706D01*
X167619138Y-105562600D01*
X167685755Y-105603995D01*
X167740748Y-105630563D01*
X167890262Y-105672604D01*
X167890262Y-106374379D01*
X167839354Y-106368005D01*
X167768208Y-106345034D01*
X167684723Y-106304094D01*
X167665444Y-106293716D01*
X167574287Y-106238492D01*
X167493104Y-106179328D01*
X167442594Y-106132304D01*
X167379799Y-106057676D01*
X167327356Y-106124346D01*
X167226991Y-106213035D01*
X167099121Y-106259091D01*
X167013145Y-106266200D01*
X166863961Y-106246939D01*
X166739775Y-106186121D01*
X166643253Y-106094455D01*
X166558136Y-105993071D01*
X166488817Y-106088763D01*
X166386883Y-106189290D01*
X166249786Y-106266467D01*
X166088888Y-106317336D01*
X165915556Y-106338937D01*
X165870150Y-106336171D01*
X165870150Y-105630848D01*
X165989999Y-105609831D01*
X166062793Y-105573171D01*
X166145931Y-105488399D01*
X166195400Y-105375118D01*
X166208949Y-105244738D01*
X166184328Y-105108668D01*
X166164464Y-105057774D01*
X166095700Y-104960438D01*
X166001002Y-104898624D01*
X165891096Y-104872689D01*
X165776709Y-104882990D01*
X165668568Y-104929884D01*
X165577400Y-105013728D01*
X165560353Y-105037675D01*
X165526462Y-105125675D01*
X165514572Y-105238617D01*
X165524481Y-105355749D01*
X165555991Y-105456319D01*
X165564522Y-105472040D01*
X165643873Y-105559204D01*
X165750262Y-105613056D01*
X165870150Y-105630848D01*
X165870150Y-106336171D01*
X165741152Y-106328311D01*
X165648562Y-106307563D01*
X165456922Y-106226983D01*
X165295176Y-106107056D01*
X165165379Y-105950925D01*
X165069585Y-105761734D01*
X165009847Y-105542628D01*
X164988221Y-105296836D01*
X164988806Y-105206404D01*
G36*
X169108200Y-118204200D02*
X169108200Y-118267700D01*
X169105296Y-118301865D01*
X169088924Y-118320878D01*
X169047595Y-118329168D01*
X168969820Y-118331166D01*
X168943473Y-118331200D01*
X168778746Y-118331200D01*
X168829078Y-118413750D01*
X168870813Y-118507452D01*
X168873838Y-118599700D01*
X168842456Y-118701130D01*
X168781461Y-118786148D01*
X168687787Y-118845919D01*
X168573522Y-118879204D01*
X168450755Y-118884763D01*
X168430481Y-118880782D01*
X168430481Y-118736697D01*
X168513229Y-118732883D01*
X168611866Y-118723418D01*
X168674437Y-118707377D01*
X168715640Y-118680070D01*
X168730593Y-118663517D01*
X168770543Y-118580885D01*
X168771944Y-118491952D01*
X168734945Y-118415565D01*
X168728616Y-118408817D01*
X168646560Y-118357918D01*
X168542261Y-118335416D01*
X168432648Y-118340733D01*
X168334650Y-118373289D01*
X168271100Y-118424470D01*
X168225948Y-118514759D01*
X168228639Y-118603892D01*
X168278836Y-118683138D01*
X168281235Y-118685425D01*
X168321045Y-118716895D01*
X168365414Y-118732886D01*
X168430481Y-118736697D01*
X168430481Y-118880782D01*
X168331575Y-118861359D01*
X168228070Y-118807752D01*
X168185297Y-118768478D01*
X168137477Y-118681704D01*
X168121935Y-118577987D01*
X168139941Y-118478178D01*
X168164835Y-118432189D01*
X168205947Y-118372660D01*
X168214971Y-118342525D01*
X168192249Y-118332076D01*
X168168400Y-118331200D01*
X168128564Y-118316318D01*
X168117600Y-118267700D01*
X168117600Y-118204200D01*
X169108200Y-118204200D01*
X169108200Y-118204200D01*
G37*
X169108200Y-118204200D02*
X169108200Y-118267700D01*
X169105296Y-118301865D01*
X169088924Y-118320878D01*
X169047595Y-118329168D01*
X168969820Y-118331166D01*
X168943473Y-118331200D01*
X168778746Y-118331200D01*
X168829078Y-118413750D01*
X168870813Y-118507452D01*
X168873838Y-118599700D01*
X168842456Y-118701130D01*
X168781461Y-118786148D01*
X168687787Y-118845919D01*
X168573522Y-118879204D01*
X168450755Y-118884763D01*
X168430481Y-118880782D01*
X168430481Y-118736697D01*
X168513229Y-118732883D01*
X168611866Y-118723418D01*
X168674437Y-118707377D01*
X168715640Y-118680070D01*
X168730593Y-118663517D01*
X168770543Y-118580885D01*
X168771944Y-118491952D01*
X168734945Y-118415565D01*
X168728616Y-118408817D01*
X168646560Y-118357918D01*
X168542261Y-118335416D01*
X168432648Y-118340733D01*
X168334650Y-118373289D01*
X168271100Y-118424470D01*
X168225948Y-118514759D01*
X168228639Y-118603892D01*
X168278836Y-118683138D01*
X168281235Y-118685425D01*
X168321045Y-118716895D01*
X168365414Y-118732886D01*
X168430481Y-118736697D01*
X168430481Y-118880782D01*
X168331575Y-118861359D01*
X168228070Y-118807752D01*
X168185297Y-118768478D01*
X168137477Y-118681704D01*
X168121935Y-118577987D01*
X168139941Y-118478178D01*
X168164835Y-118432189D01*
X168205947Y-118372660D01*
X168214971Y-118342525D01*
X168192249Y-118332076D01*
X168168400Y-118331200D01*
X168128564Y-118316318D01*
X168117600Y-118267700D01*
X168117600Y-118204200D01*
X169108200Y-118204200D01*
G04 #@! TO.C,BT1*
D13*
X108928571Y-77071428D02*
X108976190Y-76928571D01*
X109023809Y-76880952D01*
X109119047Y-76833333D01*
X109261904Y-76833333D01*
X109357142Y-76880952D01*
X109404761Y-76928571D01*
X109452380Y-77023809D01*
X109452380Y-77404761D01*
X108452380Y-77404761D01*
X108452380Y-77071428D01*
X108500000Y-76976190D01*
X108547619Y-76928571D01*
X108642857Y-76880952D01*
X108738095Y-76880952D01*
X108833333Y-76928571D01*
X108880952Y-76976190D01*
X108928571Y-77071428D01*
X108928571Y-77404761D01*
X109452380Y-75976190D02*
X108928571Y-75976190D01*
X108833333Y-76023809D01*
X108785714Y-76119047D01*
X108785714Y-76309523D01*
X108833333Y-76404761D01*
X109404761Y-75976190D02*
X109452380Y-76071428D01*
X109452380Y-76309523D01*
X109404761Y-76404761D01*
X109309523Y-76452380D01*
X109214285Y-76452380D01*
X109119047Y-76404761D01*
X109071428Y-76309523D01*
X109071428Y-76071428D01*
X109023809Y-75976190D01*
X108785714Y-75642857D02*
X108785714Y-75261904D01*
X108452380Y-75500000D02*
X109309523Y-75500000D01*
X109404761Y-75452380D01*
X109452380Y-75357142D01*
X109452380Y-75261904D01*
X108785714Y-75071428D02*
X108785714Y-74690476D01*
X108452380Y-74928571D02*
X109309523Y-74928571D01*
X109404761Y-74880952D01*
X109452380Y-74785714D01*
X109452380Y-74690476D01*
X109404761Y-73976190D02*
X109452380Y-74071428D01*
X109452380Y-74261904D01*
X109404761Y-74357142D01*
X109309523Y-74404761D01*
X108928571Y-74404761D01*
X108833333Y-74357142D01*
X108785714Y-74261904D01*
X108785714Y-74071428D01*
X108833333Y-73976190D01*
X108928571Y-73928571D01*
X109023809Y-73928571D01*
X109119047Y-74404761D01*
X109452380Y-73500000D02*
X108785714Y-73500000D01*
X108976190Y-73500000D02*
X108880952Y-73452380D01*
X108833333Y-73404761D01*
X108785714Y-73309523D01*
X108785714Y-73214285D01*
X108785714Y-72976190D02*
X109452380Y-72738095D01*
X108785714Y-72500000D02*
X109452380Y-72738095D01*
X109690476Y-72833333D01*
X109738095Y-72880952D01*
X109785714Y-72976190D01*
G04 #@! TO.C,C1*
X128452380Y-87452380D02*
X127880952Y-87452380D01*
X128166666Y-87452380D02*
X128166666Y-86452380D01*
X128071428Y-86595238D01*
X127976190Y-86690476D01*
X127880952Y-86738095D01*
X129071428Y-86452380D02*
X129166666Y-86452380D01*
X129261904Y-86500000D01*
X129309523Y-86547619D01*
X129357142Y-86642857D01*
X129404761Y-86833333D01*
X129404761Y-87071428D01*
X129357142Y-87261904D01*
X129309523Y-87357142D01*
X129261904Y-87404761D01*
X129166666Y-87452380D01*
X129071428Y-87452380D01*
X128976190Y-87404761D01*
X128928571Y-87357142D01*
X128880952Y-87261904D01*
X128833333Y-87071428D01*
X128833333Y-86833333D01*
X128880952Y-86642857D01*
X128928571Y-86547619D01*
X128976190Y-86500000D01*
X129071428Y-86452380D01*
X130023809Y-86452380D02*
X130119047Y-86452380D01*
X130214285Y-86500000D01*
X130261904Y-86547619D01*
X130309523Y-86642857D01*
X130357142Y-86833333D01*
X130357142Y-87071428D01*
X130309523Y-87261904D01*
X130261904Y-87357142D01*
X130214285Y-87404761D01*
X130119047Y-87452380D01*
X130023809Y-87452380D01*
X129928571Y-87404761D01*
X129880952Y-87357142D01*
X129833333Y-87261904D01*
X129785714Y-87071428D01*
X129785714Y-86833333D01*
X129833333Y-86642857D01*
X129880952Y-86547619D01*
X129928571Y-86500000D01*
X130023809Y-86452380D01*
X131214285Y-86785714D02*
X131214285Y-87452380D01*
X130785714Y-86785714D02*
X130785714Y-87309523D01*
X130833333Y-87404761D01*
X130928571Y-87452380D01*
X131071428Y-87452380D01*
X131166666Y-87404761D01*
X131214285Y-87357142D01*
X132023809Y-86928571D02*
X131690476Y-86928571D01*
X131690476Y-87452380D02*
X131690476Y-86452380D01*
X132166666Y-86452380D01*
G04 #@! TO.C,C2*
X108928571Y-87202380D02*
X108357142Y-87202380D01*
X108642857Y-87202380D02*
X108642857Y-86202380D01*
X108547619Y-86345238D01*
X108452380Y-86440476D01*
X108357142Y-86488095D01*
X109547619Y-86202380D02*
X109642857Y-86202380D01*
X109738095Y-86250000D01*
X109785714Y-86297619D01*
X109833333Y-86392857D01*
X109880952Y-86583333D01*
X109880952Y-86821428D01*
X109833333Y-87011904D01*
X109785714Y-87107142D01*
X109738095Y-87154761D01*
X109642857Y-87202380D01*
X109547619Y-87202380D01*
X109452380Y-87154761D01*
X109404761Y-87107142D01*
X109357142Y-87011904D01*
X109309523Y-86821428D01*
X109309523Y-86583333D01*
X109357142Y-86392857D01*
X109404761Y-86297619D01*
X109452380Y-86250000D01*
X109547619Y-86202380D01*
X110738095Y-86535714D02*
X110738095Y-87202380D01*
X110309523Y-86535714D02*
X110309523Y-87059523D01*
X110357142Y-87154761D01*
X110452380Y-87202380D01*
X110595238Y-87202380D01*
X110690476Y-87154761D01*
X110738095Y-87107142D01*
X111547619Y-86678571D02*
X111214285Y-86678571D01*
X111214285Y-87202380D02*
X111214285Y-86202380D01*
X111690476Y-86202380D01*
G04 #@! TO.C,C3*
X114928571Y-87202380D02*
X114357142Y-87202380D01*
X114642857Y-87202380D02*
X114642857Y-86202380D01*
X114547619Y-86345238D01*
X114452380Y-86440476D01*
X114357142Y-86488095D01*
X115547619Y-86202380D02*
X115642857Y-86202380D01*
X115738095Y-86250000D01*
X115785714Y-86297619D01*
X115833333Y-86392857D01*
X115880952Y-86583333D01*
X115880952Y-86821428D01*
X115833333Y-87011904D01*
X115785714Y-87107142D01*
X115738095Y-87154761D01*
X115642857Y-87202380D01*
X115547619Y-87202380D01*
X115452380Y-87154761D01*
X115404761Y-87107142D01*
X115357142Y-87011904D01*
X115309523Y-86821428D01*
X115309523Y-86583333D01*
X115357142Y-86392857D01*
X115404761Y-86297619D01*
X115452380Y-86250000D01*
X115547619Y-86202380D01*
X116738095Y-86535714D02*
X116738095Y-87202380D01*
X116309523Y-86535714D02*
X116309523Y-87059523D01*
X116357142Y-87154761D01*
X116452380Y-87202380D01*
X116595238Y-87202380D01*
X116690476Y-87154761D01*
X116738095Y-87107142D01*
X117547619Y-86678571D02*
X117214285Y-86678571D01*
X117214285Y-87202380D02*
X117214285Y-86202380D01*
X117690476Y-86202380D01*
G04 #@! TO.C,U2*
D15*
X136358571Y-74864285D02*
X136644285Y-75007142D01*
X137215714Y-75007142D01*
X137501428Y-74864285D01*
X137644285Y-74578571D01*
X137644285Y-74435714D01*
X137501428Y-74150000D01*
X137215714Y-74007142D01*
X136787142Y-74007142D01*
X136501428Y-73864285D01*
X136358571Y-73578571D01*
X136358571Y-73435714D01*
X136501428Y-73150000D01*
X136787142Y-73007142D01*
X137215714Y-73007142D01*
X137501428Y-73150000D01*
X138930000Y-73007142D02*
X138930000Y-76007142D01*
X138930000Y-73150000D02*
X139215714Y-73007142D01*
X139787142Y-73007142D01*
X140072857Y-73150000D01*
X140215714Y-73292857D01*
X140358571Y-73578571D01*
X140358571Y-74435714D01*
X140215714Y-74721428D01*
X140072857Y-74864285D01*
X139787142Y-75007142D01*
X139215714Y-75007142D01*
X138930000Y-74864285D01*
X142930000Y-75007142D02*
X142930000Y-73435714D01*
X142787142Y-73150000D01*
X142501428Y-73007142D01*
X141930000Y-73007142D01*
X141644285Y-73150000D01*
X142930000Y-74864285D02*
X142644285Y-75007142D01*
X141930000Y-75007142D01*
X141644285Y-74864285D01*
X141501428Y-74578571D01*
X141501428Y-74292857D01*
X141644285Y-74007142D01*
X141930000Y-73864285D01*
X142644285Y-73864285D01*
X142930000Y-73721428D01*
X144358571Y-75007142D02*
X144358571Y-73007142D01*
X144358571Y-73578571D02*
X144501428Y-73292857D01*
X144644285Y-73150000D01*
X144930000Y-73007142D01*
X145215714Y-73007142D01*
X146215714Y-75007142D02*
X146215714Y-72007142D01*
X146501428Y-73864285D02*
X147358571Y-75007142D01*
X147358571Y-73007142D02*
X146215714Y-74150000D01*
X148215714Y-73007142D02*
X149358571Y-73007142D01*
X148644285Y-75007142D02*
X148644285Y-72435714D01*
X148787142Y-72150000D01*
X149072857Y-72007142D01*
X149358571Y-72007142D01*
X151644285Y-73007142D02*
X151644285Y-75007142D01*
X150358571Y-73007142D02*
X150358571Y-74578571D01*
X150501428Y-74864285D01*
X150787142Y-75007142D01*
X151215714Y-75007142D01*
X151501428Y-74864285D01*
X151644285Y-74721428D01*
X153072857Y-73007142D02*
X153072857Y-75007142D01*
X153072857Y-73292857D02*
X153215714Y-73150000D01*
X153501428Y-73007142D01*
X153930000Y-73007142D01*
X154215714Y-73150000D01*
X154358571Y-73435714D01*
X154358571Y-75007142D01*
D13*
X140930000Y-76118571D02*
X141263333Y-76118571D01*
X141406190Y-76642380D02*
X140930000Y-76642380D01*
X140930000Y-75642380D01*
X141406190Y-75642380D01*
X141787142Y-76594761D02*
X141930000Y-76642380D01*
X142168095Y-76642380D01*
X142263333Y-76594761D01*
X142310952Y-76547142D01*
X142358571Y-76451904D01*
X142358571Y-76356666D01*
X142310952Y-76261428D01*
X142263333Y-76213809D01*
X142168095Y-76166190D01*
X141977619Y-76118571D01*
X141882380Y-76070952D01*
X141834761Y-76023333D01*
X141787142Y-75928095D01*
X141787142Y-75832857D01*
X141834761Y-75737619D01*
X141882380Y-75690000D01*
X141977619Y-75642380D01*
X142215714Y-75642380D01*
X142358571Y-75690000D01*
X142787142Y-76642380D02*
X142787142Y-75642380D01*
X143168095Y-75642380D01*
X143263333Y-75690000D01*
X143310952Y-75737619D01*
X143358571Y-75832857D01*
X143358571Y-75975714D01*
X143310952Y-76070952D01*
X143263333Y-76118571D01*
X143168095Y-76166190D01*
X142787142Y-76166190D01*
X143691904Y-75642380D02*
X144310952Y-75642380D01*
X143977619Y-76023333D01*
X144120476Y-76023333D01*
X144215714Y-76070952D01*
X144263333Y-76118571D01*
X144310952Y-76213809D01*
X144310952Y-76451904D01*
X144263333Y-76547142D01*
X144215714Y-76594761D01*
X144120476Y-76642380D01*
X143834761Y-76642380D01*
X143739523Y-76594761D01*
X143691904Y-76547142D01*
X144691904Y-75737619D02*
X144739523Y-75690000D01*
X144834761Y-75642380D01*
X145072857Y-75642380D01*
X145168095Y-75690000D01*
X145215714Y-75737619D01*
X145263333Y-75832857D01*
X145263333Y-75928095D01*
X145215714Y-76070952D01*
X144644285Y-76642380D01*
X145263333Y-76642380D01*
X146310952Y-75642380D02*
X146882380Y-75642380D01*
X146596666Y-76642380D02*
X146596666Y-75642380D01*
X147215714Y-76642380D02*
X147215714Y-75642380D01*
X147644285Y-76642380D02*
X147644285Y-76118571D01*
X147596666Y-76023333D01*
X147501428Y-75975714D01*
X147358571Y-75975714D01*
X147263333Y-76023333D01*
X147215714Y-76070952D01*
X148120476Y-76642380D02*
X148120476Y-75975714D01*
X148120476Y-75642380D02*
X148072857Y-75690000D01*
X148120476Y-75737619D01*
X148168095Y-75690000D01*
X148120476Y-75642380D01*
X148120476Y-75737619D01*
X148596666Y-75975714D02*
X148596666Y-76642380D01*
X148596666Y-76070952D02*
X148644285Y-76023333D01*
X148739523Y-75975714D01*
X148882380Y-75975714D01*
X148977619Y-76023333D01*
X149025238Y-76118571D01*
X149025238Y-76642380D01*
X149930000Y-75975714D02*
X149930000Y-76785238D01*
X149882380Y-76880476D01*
X149834761Y-76928095D01*
X149739523Y-76975714D01*
X149596666Y-76975714D01*
X149501428Y-76928095D01*
X149930000Y-76594761D02*
X149834761Y-76642380D01*
X149644285Y-76642380D01*
X149549047Y-76594761D01*
X149501428Y-76547142D01*
X149453809Y-76451904D01*
X149453809Y-76166190D01*
X149501428Y-76070952D01*
X149549047Y-76023333D01*
X149644285Y-75975714D01*
X149834761Y-75975714D01*
X149930000Y-76023333D01*
G04 #@! TO.C,Q1*
X119452380Y-100309523D02*
X118452380Y-100309523D01*
X119452380Y-99261904D02*
X118976190Y-99595238D01*
X119452380Y-99833333D02*
X118452380Y-99833333D01*
X118452380Y-99452380D01*
X118500000Y-99357142D01*
X118547619Y-99309523D01*
X118642857Y-99261904D01*
X118785714Y-99261904D01*
X118880952Y-99309523D01*
X118928571Y-99357142D01*
X118976190Y-99452380D01*
X118976190Y-99833333D01*
X119452380Y-98357142D02*
X119452380Y-98833333D01*
X118452380Y-98833333D01*
X118928571Y-97690476D02*
X118976190Y-97547619D01*
X119023809Y-97500000D01*
X119119047Y-97452380D01*
X119261904Y-97452380D01*
X119357142Y-97500000D01*
X119404761Y-97547619D01*
X119452380Y-97642857D01*
X119452380Y-98023809D01*
X118452380Y-98023809D01*
X118452380Y-97690476D01*
X118500000Y-97595238D01*
X118547619Y-97547619D01*
X118642857Y-97500000D01*
X118738095Y-97500000D01*
X118833333Y-97547619D01*
X118880952Y-97595238D01*
X118928571Y-97690476D01*
X118928571Y-98023809D01*
X118880952Y-96880952D02*
X118833333Y-96976190D01*
X118785714Y-97023809D01*
X118690476Y-97071428D01*
X118642857Y-97071428D01*
X118547619Y-97023809D01*
X118500000Y-96976190D01*
X118452380Y-96880952D01*
X118452380Y-96690476D01*
X118500000Y-96595238D01*
X118547619Y-96547619D01*
X118642857Y-96500000D01*
X118690476Y-96500000D01*
X118785714Y-96547619D01*
X118833333Y-96595238D01*
X118880952Y-96690476D01*
X118880952Y-96880952D01*
X118928571Y-96976190D01*
X118976190Y-97023809D01*
X119071428Y-97071428D01*
X119261904Y-97071428D01*
X119357142Y-97023809D01*
X119404761Y-96976190D01*
X119452380Y-96880952D01*
X119452380Y-96690476D01*
X119404761Y-96595238D01*
X119357142Y-96547619D01*
X119261904Y-96500000D01*
X119071428Y-96500000D01*
X118976190Y-96547619D01*
X118928571Y-96595238D01*
X118880952Y-96690476D01*
X118452380Y-96166666D02*
X118452380Y-95500000D01*
X119452380Y-95928571D01*
X118547619Y-95166666D02*
X118500000Y-95119047D01*
X118452380Y-95023809D01*
X118452380Y-94785714D01*
X118500000Y-94690476D01*
X118547619Y-94642857D01*
X118642857Y-94595238D01*
X118738095Y-94595238D01*
X118880952Y-94642857D01*
X119452380Y-95214285D01*
X119452380Y-94595238D01*
X119452380Y-93642857D02*
X119452380Y-94214285D01*
X119452380Y-93928571D02*
X118452380Y-93928571D01*
X118595238Y-94023809D01*
X118690476Y-94119047D01*
X118738095Y-94214285D01*
G04 #@! TO.C,U3*
X106452380Y-100976190D02*
X106452380Y-101452380D01*
X105452380Y-101452380D01*
X106452380Y-100642857D02*
X105452380Y-100642857D01*
X106166666Y-100309523D01*
X105452380Y-99976190D01*
X106452380Y-99976190D01*
X106452380Y-98976190D02*
X106452380Y-99547619D01*
X106452380Y-99261904D02*
X105452380Y-99261904D01*
X105595238Y-99357142D01*
X105690476Y-99452380D01*
X105738095Y-99547619D01*
X106452380Y-98023809D02*
X106452380Y-98595238D01*
X106452380Y-98309523D02*
X105452380Y-98309523D01*
X105595238Y-98404761D01*
X105690476Y-98500000D01*
X105738095Y-98595238D01*
X106452380Y-97071428D02*
X106452380Y-97642857D01*
X106452380Y-97357142D02*
X105452380Y-97357142D01*
X105595238Y-97452380D01*
X105690476Y-97547619D01*
X105738095Y-97642857D01*
X105452380Y-96738095D02*
X105452380Y-96071428D01*
X106452380Y-96500000D01*
X106071428Y-95690476D02*
X106071428Y-94928571D01*
X105452380Y-94547619D02*
X105452380Y-93928571D01*
X105833333Y-94261904D01*
X105833333Y-94119047D01*
X105880952Y-94023809D01*
X105928571Y-93976190D01*
X106023809Y-93928571D01*
X106261904Y-93928571D01*
X106357142Y-93976190D01*
X106404761Y-94023809D01*
X106452380Y-94119047D01*
X106452380Y-94404761D01*
X106404761Y-94500000D01*
X106357142Y-94547619D01*
X106357142Y-93500000D02*
X106404761Y-93452380D01*
X106452380Y-93500000D01*
X106404761Y-93547619D01*
X106357142Y-93500000D01*
X106452380Y-93500000D01*
X105452380Y-93119047D02*
X105452380Y-92500000D01*
X105833333Y-92833333D01*
X105833333Y-92690476D01*
X105880952Y-92595238D01*
X105928571Y-92547619D01*
X106023809Y-92500000D01*
X106261904Y-92500000D01*
X106357142Y-92547619D01*
X106404761Y-92595238D01*
X106452380Y-92690476D01*
X106452380Y-92976190D01*
X106404761Y-93071428D01*
X106357142Y-93119047D01*
G04 #@! TD*
M02*
