M48
;DRILL file {KiCad (5.0.1-3-g963ef8bb5)} date Sunday, November 18, 2018 at 12:10:46 AM
;FORMAT={-:-/ absolute / inch / decimal}
FMAT,2
INCH,TZ
T1C0.0315
T2C0.0394
T3C0.0472
%
G90
G05
M72
T1
X5.2756Y-3.1496
X5.2756Y-3.2496
X5.2756Y-3.3496
X5.2756Y-3.4496
X5.2756Y-3.5496
X5.2756Y-3.6496
X5.2756Y-3.7496
X5.2756Y-3.8496
X5.2756Y-3.9496
X5.2756Y-4.0496
X5.2756Y-4.1496
X5.2756Y-4.2496
X5.2756Y-4.3496
X5.2756Y-4.4496
X5.2756Y-4.5496
X5.2756Y-4.6496
X5.2756Y-4.7496
X5.2756Y-4.8496
X5.2756Y-4.9496
X5.2756Y-5.0496
X6.1756Y-3.1496
X6.1756Y-3.2496
X6.1756Y-3.3496
X6.1756Y-3.4496
X6.1756Y-3.5496
X6.1756Y-3.6496
X6.1756Y-3.7496
X6.1756Y-3.8496
X6.1756Y-3.9496
X6.1756Y-4.0496
X6.1756Y-4.1496
X6.1756Y-4.2496
X6.1756Y-4.3496
X6.1756Y-4.4496
X6.1756Y-4.5496
X6.1756Y-4.6496
X6.1756Y-4.7496
X6.1756Y-4.8496
X6.1756Y-4.9496
X6.1756Y-5.0496
X4.5276Y-3.2677
X4.6063Y-3.2677
X4.4488Y-4.3701
X4.4488Y-4.4701
X4.4488Y-4.5701
X4.4488Y-4.6701
X4.4488Y-4.7701
X4.4488Y-4.8701
X4.4488Y-4.9701
X4.4488Y-5.0701
X5.0488Y-4.3701
X5.0488Y-4.4701
X5.0488Y-4.5701
X5.0488Y-4.6701
X5.0488Y-4.7701
X5.0488Y-4.8701
X5.0488Y-4.9701
X5.0488Y-5.0701
X4.8425Y-3.2677
X5.0394Y-3.2677
X4.2913Y-3.2677
X4.3701Y-3.2677
T2
X4.1732Y-4.4488
X4.1732Y-4.5488
X4.9213Y-2.9134
X5.0213Y-2.9134
X4.4488Y-2.9134
X4.5488Y-2.9134
T3
X4.8394Y-3.5039
X4.9394Y-3.5039
X5.0394Y-3.5039
X4.3276Y-3.5039
X4.4276Y-3.5039
X4.5276Y-3.5039
T0
M30
