G04 #@! TF.GenerationSoftware,KiCad,Pcbnew,(5.0.1-3-g963ef8bb5)*
G04 #@! TF.CreationDate,2018-11-18T00:10:26+02:00*
G04 #@! TF.ProjectId,winch,77696E63682E6B696361645F70636200,rev?*
G04 #@! TF.SameCoordinates,Original*
G04 #@! TF.FileFunction,Soldermask,Top*
G04 #@! TF.FilePolarity,Negative*
%FSLAX46Y46*%
G04 Gerber Fmt 4.6, Leading zero omitted, Abs format (unit mm)*
G04 Created by KiCad (PCBNEW (5.0.1-3-g963ef8bb5)) date Sunday, November 18, 2018 at 12:10:26 AM*
%MOMM*%
%LPD*%
G01*
G04 APERTURE LIST*
%ADD10C,0.100000*%
G04 APERTURE END LIST*
D10*
G36*
X128806821Y-127941313D02*
X128806824Y-127941314D01*
X128806825Y-127941314D01*
X128967239Y-127989975D01*
X128967241Y-127989976D01*
X128967244Y-127989977D01*
X129115078Y-128068995D01*
X129244659Y-128175341D01*
X129351005Y-128304922D01*
X129430023Y-128452756D01*
X129478687Y-128613179D01*
X129495117Y-128780000D01*
X129478687Y-128946821D01*
X129478686Y-128946824D01*
X129478686Y-128946825D01*
X129432620Y-129098686D01*
X129430023Y-129107244D01*
X129351005Y-129255078D01*
X129244659Y-129384659D01*
X129115078Y-129491005D01*
X128967244Y-129570023D01*
X128967241Y-129570024D01*
X128967239Y-129570025D01*
X128806825Y-129618686D01*
X128806824Y-129618686D01*
X128806821Y-129618687D01*
X128681804Y-129631000D01*
X127798196Y-129631000D01*
X127673179Y-129618687D01*
X127673176Y-129618686D01*
X127673175Y-129618686D01*
X127512761Y-129570025D01*
X127512759Y-129570024D01*
X127512756Y-129570023D01*
X127364922Y-129491005D01*
X127235341Y-129384659D01*
X127128995Y-129255078D01*
X127049977Y-129107244D01*
X127047381Y-129098686D01*
X127001314Y-128946825D01*
X127001314Y-128946824D01*
X127001313Y-128946821D01*
X126984883Y-128780000D01*
X127001313Y-128613179D01*
X127049977Y-128452756D01*
X127128995Y-128304922D01*
X127235341Y-128175341D01*
X127364922Y-128068995D01*
X127512756Y-127989977D01*
X127512759Y-127989976D01*
X127512761Y-127989975D01*
X127673175Y-127941314D01*
X127673176Y-127941314D01*
X127673179Y-127941313D01*
X127798196Y-127929000D01*
X128681804Y-127929000D01*
X128806821Y-127941313D01*
X128806821Y-127941313D01*
G37*
G36*
X113566821Y-127941313D02*
X113566824Y-127941314D01*
X113566825Y-127941314D01*
X113727239Y-127989975D01*
X113727241Y-127989976D01*
X113727244Y-127989977D01*
X113875078Y-128068995D01*
X114004659Y-128175341D01*
X114111005Y-128304922D01*
X114190023Y-128452756D01*
X114238687Y-128613179D01*
X114255117Y-128780000D01*
X114238687Y-128946821D01*
X114238686Y-128946824D01*
X114238686Y-128946825D01*
X114192620Y-129098686D01*
X114190023Y-129107244D01*
X114111005Y-129255078D01*
X114004659Y-129384659D01*
X113875078Y-129491005D01*
X113727244Y-129570023D01*
X113727241Y-129570024D01*
X113727239Y-129570025D01*
X113566825Y-129618686D01*
X113566824Y-129618686D01*
X113566821Y-129618687D01*
X113441804Y-129631000D01*
X112558196Y-129631000D01*
X112433179Y-129618687D01*
X112433176Y-129618686D01*
X112433175Y-129618686D01*
X112272761Y-129570025D01*
X112272759Y-129570024D01*
X112272756Y-129570023D01*
X112124922Y-129491005D01*
X111995341Y-129384659D01*
X111888995Y-129255078D01*
X111809977Y-129107244D01*
X111807381Y-129098686D01*
X111761314Y-128946825D01*
X111761314Y-128946824D01*
X111761313Y-128946821D01*
X111744883Y-128780000D01*
X111761313Y-128613179D01*
X111809977Y-128452756D01*
X111888995Y-128304922D01*
X111995341Y-128175341D01*
X112124922Y-128068995D01*
X112272756Y-127989977D01*
X112272759Y-127989976D01*
X112272761Y-127989975D01*
X112433175Y-127941314D01*
X112433176Y-127941314D01*
X112433179Y-127941313D01*
X112558196Y-127929000D01*
X113441804Y-127929000D01*
X113566821Y-127941313D01*
X113566821Y-127941313D01*
G37*
G36*
X157426821Y-127421313D02*
X157426824Y-127421314D01*
X157426825Y-127421314D01*
X157587239Y-127469975D01*
X157587241Y-127469976D01*
X157587244Y-127469977D01*
X157735078Y-127548995D01*
X157864659Y-127655341D01*
X157971005Y-127784922D01*
X158050023Y-127932756D01*
X158050024Y-127932759D01*
X158050025Y-127932761D01*
X158067381Y-127989977D01*
X158098687Y-128093179D01*
X158115117Y-128260000D01*
X158098687Y-128426821D01*
X158050023Y-128587244D01*
X157971005Y-128735078D01*
X157864659Y-128864659D01*
X157735078Y-128971005D01*
X157587244Y-129050023D01*
X157587241Y-129050024D01*
X157587239Y-129050025D01*
X157426825Y-129098686D01*
X157426824Y-129098686D01*
X157426821Y-129098687D01*
X157301804Y-129111000D01*
X156418196Y-129111000D01*
X156293179Y-129098687D01*
X156293176Y-129098686D01*
X156293175Y-129098686D01*
X156132761Y-129050025D01*
X156132759Y-129050024D01*
X156132756Y-129050023D01*
X155984922Y-128971005D01*
X155855341Y-128864659D01*
X155748995Y-128735078D01*
X155669977Y-128587244D01*
X155621313Y-128426821D01*
X155604883Y-128260000D01*
X155621313Y-128093179D01*
X155652619Y-127989977D01*
X155669975Y-127932761D01*
X155669976Y-127932759D01*
X155669977Y-127932756D01*
X155748995Y-127784922D01*
X155855341Y-127655341D01*
X155984922Y-127548995D01*
X156132756Y-127469977D01*
X156132759Y-127469976D01*
X156132761Y-127469975D01*
X156293175Y-127421314D01*
X156293176Y-127421314D01*
X156293179Y-127421313D01*
X156418196Y-127409000D01*
X157301804Y-127409000D01*
X157426821Y-127421313D01*
X157426821Y-127421313D01*
G37*
G36*
X134566821Y-127421313D02*
X134566824Y-127421314D01*
X134566825Y-127421314D01*
X134727239Y-127469975D01*
X134727241Y-127469976D01*
X134727244Y-127469977D01*
X134875078Y-127548995D01*
X135004659Y-127655341D01*
X135111005Y-127784922D01*
X135190023Y-127932756D01*
X135190024Y-127932759D01*
X135190025Y-127932761D01*
X135207381Y-127989977D01*
X135238687Y-128093179D01*
X135255117Y-128260000D01*
X135238687Y-128426821D01*
X135190023Y-128587244D01*
X135111005Y-128735078D01*
X135004659Y-128864659D01*
X134875078Y-128971005D01*
X134727244Y-129050023D01*
X134727241Y-129050024D01*
X134727239Y-129050025D01*
X134566825Y-129098686D01*
X134566824Y-129098686D01*
X134566821Y-129098687D01*
X134441804Y-129111000D01*
X133558196Y-129111000D01*
X133433179Y-129098687D01*
X133433176Y-129098686D01*
X133433175Y-129098686D01*
X133272761Y-129050025D01*
X133272759Y-129050024D01*
X133272756Y-129050023D01*
X133124922Y-128971005D01*
X132995341Y-128864659D01*
X132888995Y-128735078D01*
X132809977Y-128587244D01*
X132761313Y-128426821D01*
X132744883Y-128260000D01*
X132761313Y-128093179D01*
X132792619Y-127989977D01*
X132809975Y-127932761D01*
X132809976Y-127932759D01*
X132809977Y-127932756D01*
X132888995Y-127784922D01*
X132995341Y-127655341D01*
X133124922Y-127548995D01*
X133272756Y-127469977D01*
X133272759Y-127469976D01*
X133272761Y-127469975D01*
X133433175Y-127421314D01*
X133433176Y-127421314D01*
X133433179Y-127421313D01*
X133558196Y-127409000D01*
X134441804Y-127409000D01*
X134566821Y-127421313D01*
X134566821Y-127421313D01*
G37*
G36*
X128806821Y-125401313D02*
X128806824Y-125401314D01*
X128806825Y-125401314D01*
X128967239Y-125449975D01*
X128967241Y-125449976D01*
X128967244Y-125449977D01*
X129115078Y-125528995D01*
X129244659Y-125635341D01*
X129351005Y-125764922D01*
X129430023Y-125912756D01*
X129430024Y-125912759D01*
X129430025Y-125912761D01*
X129470818Y-126047239D01*
X129478687Y-126073179D01*
X129495117Y-126240000D01*
X129478687Y-126406821D01*
X129478686Y-126406824D01*
X129478686Y-126406825D01*
X129432620Y-126558686D01*
X129430023Y-126567244D01*
X129351005Y-126715078D01*
X129244659Y-126844659D01*
X129115078Y-126951005D01*
X128967244Y-127030023D01*
X128967241Y-127030024D01*
X128967239Y-127030025D01*
X128806825Y-127078686D01*
X128806824Y-127078686D01*
X128806821Y-127078687D01*
X128681804Y-127091000D01*
X127798196Y-127091000D01*
X127673179Y-127078687D01*
X127673176Y-127078686D01*
X127673175Y-127078686D01*
X127512761Y-127030025D01*
X127512759Y-127030024D01*
X127512756Y-127030023D01*
X127364922Y-126951005D01*
X127235341Y-126844659D01*
X127128995Y-126715078D01*
X127049977Y-126567244D01*
X127047381Y-126558686D01*
X127001314Y-126406825D01*
X127001314Y-126406824D01*
X127001313Y-126406821D01*
X126984883Y-126240000D01*
X127001313Y-126073179D01*
X127009182Y-126047239D01*
X127049975Y-125912761D01*
X127049976Y-125912759D01*
X127049977Y-125912756D01*
X127128995Y-125764922D01*
X127235341Y-125635341D01*
X127364922Y-125528995D01*
X127512756Y-125449977D01*
X127512759Y-125449976D01*
X127512761Y-125449975D01*
X127673175Y-125401314D01*
X127673176Y-125401314D01*
X127673179Y-125401313D01*
X127798196Y-125389000D01*
X128681804Y-125389000D01*
X128806821Y-125401313D01*
X128806821Y-125401313D01*
G37*
G36*
X113566821Y-125401313D02*
X113566824Y-125401314D01*
X113566825Y-125401314D01*
X113727239Y-125449975D01*
X113727241Y-125449976D01*
X113727244Y-125449977D01*
X113875078Y-125528995D01*
X114004659Y-125635341D01*
X114111005Y-125764922D01*
X114190023Y-125912756D01*
X114190024Y-125912759D01*
X114190025Y-125912761D01*
X114230818Y-126047239D01*
X114238687Y-126073179D01*
X114255117Y-126240000D01*
X114238687Y-126406821D01*
X114238686Y-126406824D01*
X114238686Y-126406825D01*
X114192620Y-126558686D01*
X114190023Y-126567244D01*
X114111005Y-126715078D01*
X114004659Y-126844659D01*
X113875078Y-126951005D01*
X113727244Y-127030023D01*
X113727241Y-127030024D01*
X113727239Y-127030025D01*
X113566825Y-127078686D01*
X113566824Y-127078686D01*
X113566821Y-127078687D01*
X113441804Y-127091000D01*
X112558196Y-127091000D01*
X112433179Y-127078687D01*
X112433176Y-127078686D01*
X112433175Y-127078686D01*
X112272761Y-127030025D01*
X112272759Y-127030024D01*
X112272756Y-127030023D01*
X112124922Y-126951005D01*
X111995341Y-126844659D01*
X111888995Y-126715078D01*
X111809977Y-126567244D01*
X111807381Y-126558686D01*
X111761314Y-126406825D01*
X111761314Y-126406824D01*
X111761313Y-126406821D01*
X111744883Y-126240000D01*
X111761313Y-126073179D01*
X111769182Y-126047239D01*
X111809975Y-125912761D01*
X111809976Y-125912759D01*
X111809977Y-125912756D01*
X111888995Y-125764922D01*
X111995341Y-125635341D01*
X112124922Y-125528995D01*
X112272756Y-125449977D01*
X112272759Y-125449976D01*
X112272761Y-125449975D01*
X112433175Y-125401314D01*
X112433176Y-125401314D01*
X112433179Y-125401313D01*
X112558196Y-125389000D01*
X113441804Y-125389000D01*
X113566821Y-125401313D01*
X113566821Y-125401313D01*
G37*
G36*
X105598252Y-123027818D02*
X105598254Y-123027819D01*
X105598255Y-123027819D01*
X105971513Y-123182427D01*
X106256360Y-123372756D01*
X106307439Y-123406886D01*
X106593114Y-123692561D01*
X106593116Y-123692564D01*
X106817573Y-124028487D01*
X106972181Y-124401745D01*
X106972182Y-124401748D01*
X107051000Y-124797993D01*
X107051000Y-125202007D01*
X106981148Y-125553179D01*
X106972181Y-125598255D01*
X106817573Y-125971513D01*
X106817572Y-125971514D01*
X106593114Y-126307439D01*
X106307439Y-126593114D01*
X106307436Y-126593116D01*
X105971513Y-126817573D01*
X105598255Y-126972181D01*
X105598254Y-126972181D01*
X105598252Y-126972182D01*
X105202007Y-127051000D01*
X104797993Y-127051000D01*
X104401748Y-126972182D01*
X104401746Y-126972181D01*
X104401745Y-126972181D01*
X104028487Y-126817573D01*
X103692564Y-126593116D01*
X103692561Y-126593114D01*
X103406886Y-126307439D01*
X103182428Y-125971514D01*
X103182427Y-125971513D01*
X103027819Y-125598255D01*
X103018853Y-125553179D01*
X102949000Y-125202007D01*
X102949000Y-124797993D01*
X103027818Y-124401748D01*
X103027819Y-124401745D01*
X103182427Y-124028487D01*
X103406884Y-123692564D01*
X103406886Y-123692561D01*
X103692561Y-123406886D01*
X103743640Y-123372756D01*
X104028487Y-123182427D01*
X104401745Y-123027819D01*
X104401746Y-123027819D01*
X104401748Y-123027818D01*
X104797993Y-122949000D01*
X105202007Y-122949000D01*
X105598252Y-123027818D01*
X105598252Y-123027818D01*
G37*
G36*
X165598252Y-123027818D02*
X165598254Y-123027819D01*
X165598255Y-123027819D01*
X165971513Y-123182427D01*
X166256360Y-123372756D01*
X166307439Y-123406886D01*
X166593114Y-123692561D01*
X166593116Y-123692564D01*
X166817573Y-124028487D01*
X166972181Y-124401745D01*
X166972182Y-124401748D01*
X167051000Y-124797993D01*
X167051000Y-125202007D01*
X166981148Y-125553179D01*
X166972181Y-125598255D01*
X166817573Y-125971513D01*
X166817572Y-125971514D01*
X166593114Y-126307439D01*
X166307439Y-126593114D01*
X166307436Y-126593116D01*
X165971513Y-126817573D01*
X165598255Y-126972181D01*
X165598254Y-126972181D01*
X165598252Y-126972182D01*
X165202007Y-127051000D01*
X164797993Y-127051000D01*
X164401748Y-126972182D01*
X164401746Y-126972181D01*
X164401745Y-126972181D01*
X164028487Y-126817573D01*
X163692564Y-126593116D01*
X163692561Y-126593114D01*
X163406886Y-126307439D01*
X163182428Y-125971514D01*
X163182427Y-125971513D01*
X163027819Y-125598255D01*
X163018853Y-125553179D01*
X162949000Y-125202007D01*
X162949000Y-124797993D01*
X163027818Y-124401748D01*
X163027819Y-124401745D01*
X163182427Y-124028487D01*
X163406884Y-123692564D01*
X163406886Y-123692561D01*
X163692561Y-123406886D01*
X163743640Y-123372756D01*
X164028487Y-123182427D01*
X164401745Y-123027819D01*
X164401746Y-123027819D01*
X164401748Y-123027818D01*
X164797993Y-122949000D01*
X165202007Y-122949000D01*
X165598252Y-123027818D01*
X165598252Y-123027818D01*
G37*
G36*
X134566821Y-124881313D02*
X134566824Y-124881314D01*
X134566825Y-124881314D01*
X134727239Y-124929975D01*
X134727241Y-124929976D01*
X134727244Y-124929977D01*
X134875078Y-125008995D01*
X135004659Y-125115341D01*
X135111005Y-125244922D01*
X135190023Y-125392756D01*
X135190024Y-125392759D01*
X135190025Y-125392761D01*
X135207381Y-125449977D01*
X135238687Y-125553179D01*
X135255117Y-125720000D01*
X135238687Y-125886821D01*
X135190023Y-126047244D01*
X135111005Y-126195078D01*
X135004659Y-126324659D01*
X134875078Y-126431005D01*
X134727244Y-126510023D01*
X134727241Y-126510024D01*
X134727239Y-126510025D01*
X134566825Y-126558686D01*
X134566824Y-126558686D01*
X134566821Y-126558687D01*
X134441804Y-126571000D01*
X133558196Y-126571000D01*
X133433179Y-126558687D01*
X133433176Y-126558686D01*
X133433175Y-126558686D01*
X133272761Y-126510025D01*
X133272759Y-126510024D01*
X133272756Y-126510023D01*
X133124922Y-126431005D01*
X132995341Y-126324659D01*
X132888995Y-126195078D01*
X132809977Y-126047244D01*
X132761313Y-125886821D01*
X132744883Y-125720000D01*
X132761313Y-125553179D01*
X132792619Y-125449977D01*
X132809975Y-125392761D01*
X132809976Y-125392759D01*
X132809977Y-125392756D01*
X132888995Y-125244922D01*
X132995341Y-125115341D01*
X133124922Y-125008995D01*
X133272756Y-124929977D01*
X133272759Y-124929976D01*
X133272761Y-124929975D01*
X133433175Y-124881314D01*
X133433176Y-124881314D01*
X133433179Y-124881313D01*
X133558196Y-124869000D01*
X134441804Y-124869000D01*
X134566821Y-124881313D01*
X134566821Y-124881313D01*
G37*
G36*
X157426821Y-124881313D02*
X157426824Y-124881314D01*
X157426825Y-124881314D01*
X157587239Y-124929975D01*
X157587241Y-124929976D01*
X157587244Y-124929977D01*
X157735078Y-125008995D01*
X157864659Y-125115341D01*
X157971005Y-125244922D01*
X158050023Y-125392756D01*
X158050024Y-125392759D01*
X158050025Y-125392761D01*
X158067381Y-125449977D01*
X158098687Y-125553179D01*
X158115117Y-125720000D01*
X158098687Y-125886821D01*
X158050023Y-126047244D01*
X157971005Y-126195078D01*
X157864659Y-126324659D01*
X157735078Y-126431005D01*
X157587244Y-126510023D01*
X157587241Y-126510024D01*
X157587239Y-126510025D01*
X157426825Y-126558686D01*
X157426824Y-126558686D01*
X157426821Y-126558687D01*
X157301804Y-126571000D01*
X156418196Y-126571000D01*
X156293179Y-126558687D01*
X156293176Y-126558686D01*
X156293175Y-126558686D01*
X156132761Y-126510025D01*
X156132759Y-126510024D01*
X156132756Y-126510023D01*
X155984922Y-126431005D01*
X155855341Y-126324659D01*
X155748995Y-126195078D01*
X155669977Y-126047244D01*
X155621313Y-125886821D01*
X155604883Y-125720000D01*
X155621313Y-125553179D01*
X155652619Y-125449977D01*
X155669975Y-125392761D01*
X155669976Y-125392759D01*
X155669977Y-125392756D01*
X155748995Y-125244922D01*
X155855341Y-125115341D01*
X155984922Y-125008995D01*
X156132756Y-124929977D01*
X156132759Y-124929976D01*
X156132761Y-124929975D01*
X156293175Y-124881314D01*
X156293176Y-124881314D01*
X156293179Y-124881313D01*
X156418196Y-124869000D01*
X157301804Y-124869000D01*
X157426821Y-124881313D01*
X157426821Y-124881313D01*
G37*
G36*
X113566821Y-122861313D02*
X113566824Y-122861314D01*
X113566825Y-122861314D01*
X113727239Y-122909975D01*
X113727241Y-122909976D01*
X113727244Y-122909977D01*
X113875078Y-122988995D01*
X114004659Y-123095341D01*
X114111005Y-123224922D01*
X114190023Y-123372756D01*
X114190024Y-123372759D01*
X114190025Y-123372761D01*
X114230818Y-123507239D01*
X114238687Y-123533179D01*
X114255117Y-123700000D01*
X114238687Y-123866821D01*
X114238686Y-123866824D01*
X114238686Y-123866825D01*
X114192620Y-124018686D01*
X114190023Y-124027244D01*
X114111005Y-124175078D01*
X114004659Y-124304659D01*
X113875078Y-124411005D01*
X113727244Y-124490023D01*
X113727241Y-124490024D01*
X113727239Y-124490025D01*
X113566825Y-124538686D01*
X113566824Y-124538686D01*
X113566821Y-124538687D01*
X113441804Y-124551000D01*
X112558196Y-124551000D01*
X112433179Y-124538687D01*
X112433176Y-124538686D01*
X112433175Y-124538686D01*
X112272761Y-124490025D01*
X112272759Y-124490024D01*
X112272756Y-124490023D01*
X112124922Y-124411005D01*
X111995341Y-124304659D01*
X111888995Y-124175078D01*
X111809977Y-124027244D01*
X111807381Y-124018686D01*
X111761314Y-123866825D01*
X111761314Y-123866824D01*
X111761313Y-123866821D01*
X111744883Y-123700000D01*
X111761313Y-123533179D01*
X111769182Y-123507239D01*
X111809975Y-123372761D01*
X111809976Y-123372759D01*
X111809977Y-123372756D01*
X111888995Y-123224922D01*
X111995341Y-123095341D01*
X112124922Y-122988995D01*
X112272756Y-122909977D01*
X112272759Y-122909976D01*
X112272761Y-122909975D01*
X112433175Y-122861314D01*
X112433176Y-122861314D01*
X112433179Y-122861313D01*
X112558196Y-122849000D01*
X113441804Y-122849000D01*
X113566821Y-122861313D01*
X113566821Y-122861313D01*
G37*
G36*
X128806821Y-122861313D02*
X128806824Y-122861314D01*
X128806825Y-122861314D01*
X128967239Y-122909975D01*
X128967241Y-122909976D01*
X128967244Y-122909977D01*
X129115078Y-122988995D01*
X129244659Y-123095341D01*
X129351005Y-123224922D01*
X129430023Y-123372756D01*
X129430024Y-123372759D01*
X129430025Y-123372761D01*
X129470818Y-123507239D01*
X129478687Y-123533179D01*
X129495117Y-123700000D01*
X129478687Y-123866821D01*
X129478686Y-123866824D01*
X129478686Y-123866825D01*
X129432620Y-124018686D01*
X129430023Y-124027244D01*
X129351005Y-124175078D01*
X129244659Y-124304659D01*
X129115078Y-124411005D01*
X128967244Y-124490023D01*
X128967241Y-124490024D01*
X128967239Y-124490025D01*
X128806825Y-124538686D01*
X128806824Y-124538686D01*
X128806821Y-124538687D01*
X128681804Y-124551000D01*
X127798196Y-124551000D01*
X127673179Y-124538687D01*
X127673176Y-124538686D01*
X127673175Y-124538686D01*
X127512761Y-124490025D01*
X127512759Y-124490024D01*
X127512756Y-124490023D01*
X127364922Y-124411005D01*
X127235341Y-124304659D01*
X127128995Y-124175078D01*
X127049977Y-124027244D01*
X127047381Y-124018686D01*
X127001314Y-123866825D01*
X127001314Y-123866824D01*
X127001313Y-123866821D01*
X126984883Y-123700000D01*
X127001313Y-123533179D01*
X127009182Y-123507239D01*
X127049975Y-123372761D01*
X127049976Y-123372759D01*
X127049977Y-123372756D01*
X127128995Y-123224922D01*
X127235341Y-123095341D01*
X127364922Y-122988995D01*
X127512756Y-122909977D01*
X127512759Y-122909976D01*
X127512761Y-122909975D01*
X127673175Y-122861314D01*
X127673176Y-122861314D01*
X127673179Y-122861313D01*
X127798196Y-122849000D01*
X128681804Y-122849000D01*
X128806821Y-122861313D01*
X128806821Y-122861313D01*
G37*
G36*
X134566821Y-122341313D02*
X134566824Y-122341314D01*
X134566825Y-122341314D01*
X134727239Y-122389975D01*
X134727241Y-122389976D01*
X134727244Y-122389977D01*
X134875078Y-122468995D01*
X135004659Y-122575341D01*
X135111005Y-122704922D01*
X135190023Y-122852756D01*
X135190024Y-122852759D01*
X135190025Y-122852761D01*
X135231351Y-122988995D01*
X135238687Y-123013179D01*
X135255117Y-123180000D01*
X135238687Y-123346821D01*
X135238686Y-123346824D01*
X135238686Y-123346825D01*
X135220467Y-123406886D01*
X135190023Y-123507244D01*
X135111005Y-123655078D01*
X135004659Y-123784659D01*
X134875078Y-123891005D01*
X134727244Y-123970023D01*
X134727241Y-123970024D01*
X134727239Y-123970025D01*
X134566825Y-124018686D01*
X134566824Y-124018686D01*
X134566821Y-124018687D01*
X134441804Y-124031000D01*
X133558196Y-124031000D01*
X133433179Y-124018687D01*
X133433176Y-124018686D01*
X133433175Y-124018686D01*
X133272761Y-123970025D01*
X133272759Y-123970024D01*
X133272756Y-123970023D01*
X133124922Y-123891005D01*
X132995341Y-123784659D01*
X132888995Y-123655078D01*
X132809977Y-123507244D01*
X132779534Y-123406886D01*
X132761314Y-123346825D01*
X132761314Y-123346824D01*
X132761313Y-123346821D01*
X132744883Y-123180000D01*
X132761313Y-123013179D01*
X132768649Y-122988995D01*
X132809975Y-122852761D01*
X132809976Y-122852759D01*
X132809977Y-122852756D01*
X132888995Y-122704922D01*
X132995341Y-122575341D01*
X133124922Y-122468995D01*
X133272756Y-122389977D01*
X133272759Y-122389976D01*
X133272761Y-122389975D01*
X133433175Y-122341314D01*
X133433176Y-122341314D01*
X133433179Y-122341313D01*
X133558196Y-122329000D01*
X134441804Y-122329000D01*
X134566821Y-122341313D01*
X134566821Y-122341313D01*
G37*
G36*
X157426821Y-122341313D02*
X157426824Y-122341314D01*
X157426825Y-122341314D01*
X157587239Y-122389975D01*
X157587241Y-122389976D01*
X157587244Y-122389977D01*
X157735078Y-122468995D01*
X157864659Y-122575341D01*
X157971005Y-122704922D01*
X158050023Y-122852756D01*
X158050024Y-122852759D01*
X158050025Y-122852761D01*
X158091351Y-122988995D01*
X158098687Y-123013179D01*
X158115117Y-123180000D01*
X158098687Y-123346821D01*
X158098686Y-123346824D01*
X158098686Y-123346825D01*
X158080467Y-123406886D01*
X158050023Y-123507244D01*
X157971005Y-123655078D01*
X157864659Y-123784659D01*
X157735078Y-123891005D01*
X157587244Y-123970023D01*
X157587241Y-123970024D01*
X157587239Y-123970025D01*
X157426825Y-124018686D01*
X157426824Y-124018686D01*
X157426821Y-124018687D01*
X157301804Y-124031000D01*
X156418196Y-124031000D01*
X156293179Y-124018687D01*
X156293176Y-124018686D01*
X156293175Y-124018686D01*
X156132761Y-123970025D01*
X156132759Y-123970024D01*
X156132756Y-123970023D01*
X155984922Y-123891005D01*
X155855341Y-123784659D01*
X155748995Y-123655078D01*
X155669977Y-123507244D01*
X155639534Y-123406886D01*
X155621314Y-123346825D01*
X155621314Y-123346824D01*
X155621313Y-123346821D01*
X155604883Y-123180000D01*
X155621313Y-123013179D01*
X155628649Y-122988995D01*
X155669975Y-122852761D01*
X155669976Y-122852759D01*
X155669977Y-122852756D01*
X155748995Y-122704922D01*
X155855341Y-122575341D01*
X155984922Y-122468995D01*
X156132756Y-122389977D01*
X156132759Y-122389976D01*
X156132761Y-122389975D01*
X156293175Y-122341314D01*
X156293176Y-122341314D01*
X156293179Y-122341313D01*
X156418196Y-122329000D01*
X157301804Y-122329000D01*
X157426821Y-122341313D01*
X157426821Y-122341313D01*
G37*
G36*
X113566821Y-120321313D02*
X113566824Y-120321314D01*
X113566825Y-120321314D01*
X113727239Y-120369975D01*
X113727241Y-120369976D01*
X113727244Y-120369977D01*
X113875078Y-120448995D01*
X114004659Y-120555341D01*
X114111005Y-120684922D01*
X114190023Y-120832756D01*
X114238687Y-120993179D01*
X114255117Y-121160000D01*
X114238687Y-121326821D01*
X114238686Y-121326824D01*
X114238686Y-121326825D01*
X114192620Y-121478686D01*
X114190023Y-121487244D01*
X114111005Y-121635078D01*
X114004659Y-121764659D01*
X113875078Y-121871005D01*
X113727244Y-121950023D01*
X113727241Y-121950024D01*
X113727239Y-121950025D01*
X113566825Y-121998686D01*
X113566824Y-121998686D01*
X113566821Y-121998687D01*
X113441804Y-122011000D01*
X112558196Y-122011000D01*
X112433179Y-121998687D01*
X112433176Y-121998686D01*
X112433175Y-121998686D01*
X112272761Y-121950025D01*
X112272759Y-121950024D01*
X112272756Y-121950023D01*
X112124922Y-121871005D01*
X111995341Y-121764659D01*
X111888995Y-121635078D01*
X111809977Y-121487244D01*
X111807381Y-121478686D01*
X111761314Y-121326825D01*
X111761314Y-121326824D01*
X111761313Y-121326821D01*
X111744883Y-121160000D01*
X111761313Y-120993179D01*
X111809977Y-120832756D01*
X111888995Y-120684922D01*
X111995341Y-120555341D01*
X112124922Y-120448995D01*
X112272756Y-120369977D01*
X112272759Y-120369976D01*
X112272761Y-120369975D01*
X112433175Y-120321314D01*
X112433176Y-120321314D01*
X112433179Y-120321313D01*
X112558196Y-120309000D01*
X113441804Y-120309000D01*
X113566821Y-120321313D01*
X113566821Y-120321313D01*
G37*
G36*
X128806821Y-120321313D02*
X128806824Y-120321314D01*
X128806825Y-120321314D01*
X128967239Y-120369975D01*
X128967241Y-120369976D01*
X128967244Y-120369977D01*
X129115078Y-120448995D01*
X129244659Y-120555341D01*
X129351005Y-120684922D01*
X129430023Y-120832756D01*
X129478687Y-120993179D01*
X129495117Y-121160000D01*
X129478687Y-121326821D01*
X129478686Y-121326824D01*
X129478686Y-121326825D01*
X129432620Y-121478686D01*
X129430023Y-121487244D01*
X129351005Y-121635078D01*
X129244659Y-121764659D01*
X129115078Y-121871005D01*
X128967244Y-121950023D01*
X128967241Y-121950024D01*
X128967239Y-121950025D01*
X128806825Y-121998686D01*
X128806824Y-121998686D01*
X128806821Y-121998687D01*
X128681804Y-122011000D01*
X127798196Y-122011000D01*
X127673179Y-121998687D01*
X127673176Y-121998686D01*
X127673175Y-121998686D01*
X127512761Y-121950025D01*
X127512759Y-121950024D01*
X127512756Y-121950023D01*
X127364922Y-121871005D01*
X127235341Y-121764659D01*
X127128995Y-121635078D01*
X127049977Y-121487244D01*
X127047381Y-121478686D01*
X127001314Y-121326825D01*
X127001314Y-121326824D01*
X127001313Y-121326821D01*
X126984883Y-121160000D01*
X127001313Y-120993179D01*
X127049977Y-120832756D01*
X127128995Y-120684922D01*
X127235341Y-120555341D01*
X127364922Y-120448995D01*
X127512756Y-120369977D01*
X127512759Y-120369976D01*
X127512761Y-120369975D01*
X127673175Y-120321314D01*
X127673176Y-120321314D01*
X127673179Y-120321313D01*
X127798196Y-120309000D01*
X128681804Y-120309000D01*
X128806821Y-120321313D01*
X128806821Y-120321313D01*
G37*
G36*
X134566821Y-119801313D02*
X134566824Y-119801314D01*
X134566825Y-119801314D01*
X134727239Y-119849975D01*
X134727241Y-119849976D01*
X134727244Y-119849977D01*
X134875078Y-119928995D01*
X135004659Y-120035341D01*
X135111005Y-120164922D01*
X135190023Y-120312756D01*
X135190024Y-120312759D01*
X135190025Y-120312761D01*
X135207381Y-120369977D01*
X135238687Y-120473179D01*
X135255117Y-120640000D01*
X135238687Y-120806821D01*
X135190023Y-120967244D01*
X135111005Y-121115078D01*
X135004659Y-121244659D01*
X134875078Y-121351005D01*
X134727244Y-121430023D01*
X134727241Y-121430024D01*
X134727239Y-121430025D01*
X134566825Y-121478686D01*
X134566824Y-121478686D01*
X134566821Y-121478687D01*
X134441804Y-121491000D01*
X133558196Y-121491000D01*
X133433179Y-121478687D01*
X133433176Y-121478686D01*
X133433175Y-121478686D01*
X133272761Y-121430025D01*
X133272759Y-121430024D01*
X133272756Y-121430023D01*
X133124922Y-121351005D01*
X132995341Y-121244659D01*
X132888995Y-121115078D01*
X132809977Y-120967244D01*
X132761313Y-120806821D01*
X132744883Y-120640000D01*
X132761313Y-120473179D01*
X132792619Y-120369977D01*
X132809975Y-120312761D01*
X132809976Y-120312759D01*
X132809977Y-120312756D01*
X132888995Y-120164922D01*
X132995341Y-120035341D01*
X133124922Y-119928995D01*
X133272756Y-119849977D01*
X133272759Y-119849976D01*
X133272761Y-119849975D01*
X133433175Y-119801314D01*
X133433176Y-119801314D01*
X133433179Y-119801313D01*
X133558196Y-119789000D01*
X134441804Y-119789000D01*
X134566821Y-119801313D01*
X134566821Y-119801313D01*
G37*
G36*
X157426821Y-119801313D02*
X157426824Y-119801314D01*
X157426825Y-119801314D01*
X157587239Y-119849975D01*
X157587241Y-119849976D01*
X157587244Y-119849977D01*
X157735078Y-119928995D01*
X157864659Y-120035341D01*
X157971005Y-120164922D01*
X158050023Y-120312756D01*
X158050024Y-120312759D01*
X158050025Y-120312761D01*
X158067381Y-120369977D01*
X158098687Y-120473179D01*
X158115117Y-120640000D01*
X158098687Y-120806821D01*
X158050023Y-120967244D01*
X157971005Y-121115078D01*
X157864659Y-121244659D01*
X157735078Y-121351005D01*
X157587244Y-121430023D01*
X157587241Y-121430024D01*
X157587239Y-121430025D01*
X157426825Y-121478686D01*
X157426824Y-121478686D01*
X157426821Y-121478687D01*
X157301804Y-121491000D01*
X156418196Y-121491000D01*
X156293179Y-121478687D01*
X156293176Y-121478686D01*
X156293175Y-121478686D01*
X156132761Y-121430025D01*
X156132759Y-121430024D01*
X156132756Y-121430023D01*
X155984922Y-121351005D01*
X155855341Y-121244659D01*
X155748995Y-121115078D01*
X155669977Y-120967244D01*
X155621313Y-120806821D01*
X155604883Y-120640000D01*
X155621313Y-120473179D01*
X155652619Y-120369977D01*
X155669975Y-120312761D01*
X155669976Y-120312759D01*
X155669977Y-120312756D01*
X155748995Y-120164922D01*
X155855341Y-120035341D01*
X155984922Y-119928995D01*
X156132756Y-119849977D01*
X156132759Y-119849976D01*
X156132761Y-119849975D01*
X156293175Y-119801314D01*
X156293176Y-119801314D01*
X156293179Y-119801313D01*
X156418196Y-119789000D01*
X157301804Y-119789000D01*
X157426821Y-119801313D01*
X157426821Y-119801313D01*
G37*
G36*
X128806821Y-117781313D02*
X128806824Y-117781314D01*
X128806825Y-117781314D01*
X128967239Y-117829975D01*
X128967241Y-117829976D01*
X128967244Y-117829977D01*
X129115078Y-117908995D01*
X129244659Y-118015341D01*
X129351005Y-118144922D01*
X129430023Y-118292756D01*
X129478687Y-118453179D01*
X129495117Y-118620000D01*
X129478687Y-118786821D01*
X129478686Y-118786824D01*
X129478686Y-118786825D01*
X129432620Y-118938686D01*
X129430023Y-118947244D01*
X129351005Y-119095078D01*
X129244659Y-119224659D01*
X129115078Y-119331005D01*
X128967244Y-119410023D01*
X128967241Y-119410024D01*
X128967239Y-119410025D01*
X128806825Y-119458686D01*
X128806824Y-119458686D01*
X128806821Y-119458687D01*
X128681804Y-119471000D01*
X127798196Y-119471000D01*
X127673179Y-119458687D01*
X127673176Y-119458686D01*
X127673175Y-119458686D01*
X127512761Y-119410025D01*
X127512759Y-119410024D01*
X127512756Y-119410023D01*
X127364922Y-119331005D01*
X127235341Y-119224659D01*
X127128995Y-119095078D01*
X127049977Y-118947244D01*
X127047381Y-118938686D01*
X127001314Y-118786825D01*
X127001314Y-118786824D01*
X127001313Y-118786821D01*
X126984883Y-118620000D01*
X127001313Y-118453179D01*
X127049977Y-118292756D01*
X127128995Y-118144922D01*
X127235341Y-118015341D01*
X127364922Y-117908995D01*
X127512756Y-117829977D01*
X127512759Y-117829976D01*
X127512761Y-117829975D01*
X127673175Y-117781314D01*
X127673176Y-117781314D01*
X127673179Y-117781313D01*
X127798196Y-117769000D01*
X128681804Y-117769000D01*
X128806821Y-117781313D01*
X128806821Y-117781313D01*
G37*
G36*
X113566821Y-117781313D02*
X113566824Y-117781314D01*
X113566825Y-117781314D01*
X113727239Y-117829975D01*
X113727241Y-117829976D01*
X113727244Y-117829977D01*
X113875078Y-117908995D01*
X114004659Y-118015341D01*
X114111005Y-118144922D01*
X114190023Y-118292756D01*
X114238687Y-118453179D01*
X114255117Y-118620000D01*
X114238687Y-118786821D01*
X114238686Y-118786824D01*
X114238686Y-118786825D01*
X114192620Y-118938686D01*
X114190023Y-118947244D01*
X114111005Y-119095078D01*
X114004659Y-119224659D01*
X113875078Y-119331005D01*
X113727244Y-119410023D01*
X113727241Y-119410024D01*
X113727239Y-119410025D01*
X113566825Y-119458686D01*
X113566824Y-119458686D01*
X113566821Y-119458687D01*
X113441804Y-119471000D01*
X112558196Y-119471000D01*
X112433179Y-119458687D01*
X112433176Y-119458686D01*
X112433175Y-119458686D01*
X112272761Y-119410025D01*
X112272759Y-119410024D01*
X112272756Y-119410023D01*
X112124922Y-119331005D01*
X111995341Y-119224659D01*
X111888995Y-119095078D01*
X111809977Y-118947244D01*
X111807381Y-118938686D01*
X111761314Y-118786825D01*
X111761314Y-118786824D01*
X111761313Y-118786821D01*
X111744883Y-118620000D01*
X111761313Y-118453179D01*
X111809977Y-118292756D01*
X111888995Y-118144922D01*
X111995341Y-118015341D01*
X112124922Y-117908995D01*
X112272756Y-117829977D01*
X112272759Y-117829976D01*
X112272761Y-117829975D01*
X112433175Y-117781314D01*
X112433176Y-117781314D01*
X112433179Y-117781313D01*
X112558196Y-117769000D01*
X113441804Y-117769000D01*
X113566821Y-117781313D01*
X113566821Y-117781313D01*
G37*
G36*
X134566821Y-117261313D02*
X134566824Y-117261314D01*
X134566825Y-117261314D01*
X134727239Y-117309975D01*
X134727241Y-117309976D01*
X134727244Y-117309977D01*
X134875078Y-117388995D01*
X135004659Y-117495341D01*
X135111005Y-117624922D01*
X135190023Y-117772756D01*
X135190024Y-117772759D01*
X135190025Y-117772761D01*
X135207381Y-117829977D01*
X135238687Y-117933179D01*
X135255117Y-118100000D01*
X135238687Y-118266821D01*
X135190023Y-118427244D01*
X135111005Y-118575078D01*
X135004659Y-118704659D01*
X134875078Y-118811005D01*
X134727244Y-118890023D01*
X134727241Y-118890024D01*
X134727239Y-118890025D01*
X134566825Y-118938686D01*
X134566824Y-118938686D01*
X134566821Y-118938687D01*
X134441804Y-118951000D01*
X133558196Y-118951000D01*
X133433179Y-118938687D01*
X133433176Y-118938686D01*
X133433175Y-118938686D01*
X133272761Y-118890025D01*
X133272759Y-118890024D01*
X133272756Y-118890023D01*
X133124922Y-118811005D01*
X132995341Y-118704659D01*
X132888995Y-118575078D01*
X132809977Y-118427244D01*
X132761313Y-118266821D01*
X132744883Y-118100000D01*
X132761313Y-117933179D01*
X132792619Y-117829977D01*
X132809975Y-117772761D01*
X132809976Y-117772759D01*
X132809977Y-117772756D01*
X132888995Y-117624922D01*
X132995341Y-117495341D01*
X133124922Y-117388995D01*
X133272756Y-117309977D01*
X133272759Y-117309976D01*
X133272761Y-117309975D01*
X133433175Y-117261314D01*
X133433176Y-117261314D01*
X133433179Y-117261313D01*
X133558196Y-117249000D01*
X134441804Y-117249000D01*
X134566821Y-117261313D01*
X134566821Y-117261313D01*
G37*
G36*
X157426821Y-117261313D02*
X157426824Y-117261314D01*
X157426825Y-117261314D01*
X157587239Y-117309975D01*
X157587241Y-117309976D01*
X157587244Y-117309977D01*
X157735078Y-117388995D01*
X157864659Y-117495341D01*
X157971005Y-117624922D01*
X158050023Y-117772756D01*
X158050024Y-117772759D01*
X158050025Y-117772761D01*
X158067381Y-117829977D01*
X158098687Y-117933179D01*
X158115117Y-118100000D01*
X158098687Y-118266821D01*
X158050023Y-118427244D01*
X157971005Y-118575078D01*
X157864659Y-118704659D01*
X157735078Y-118811005D01*
X157587244Y-118890023D01*
X157587241Y-118890024D01*
X157587239Y-118890025D01*
X157426825Y-118938686D01*
X157426824Y-118938686D01*
X157426821Y-118938687D01*
X157301804Y-118951000D01*
X156418196Y-118951000D01*
X156293179Y-118938687D01*
X156293176Y-118938686D01*
X156293175Y-118938686D01*
X156132761Y-118890025D01*
X156132759Y-118890024D01*
X156132756Y-118890023D01*
X155984922Y-118811005D01*
X155855341Y-118704659D01*
X155748995Y-118575078D01*
X155669977Y-118427244D01*
X155621313Y-118266821D01*
X155604883Y-118100000D01*
X155621313Y-117933179D01*
X155652619Y-117829977D01*
X155669975Y-117772761D01*
X155669976Y-117772759D01*
X155669977Y-117772756D01*
X155748995Y-117624922D01*
X155855341Y-117495341D01*
X155984922Y-117388995D01*
X156132756Y-117309977D01*
X156132759Y-117309976D01*
X156132761Y-117309975D01*
X156293175Y-117261314D01*
X156293176Y-117261314D01*
X156293179Y-117261313D01*
X156418196Y-117249000D01*
X157301804Y-117249000D01*
X157426821Y-117261313D01*
X157426821Y-117261313D01*
G37*
G36*
X128806821Y-115241313D02*
X128806824Y-115241314D01*
X128806825Y-115241314D01*
X128967239Y-115289975D01*
X128967241Y-115289976D01*
X128967244Y-115289977D01*
X129115078Y-115368995D01*
X129244659Y-115475341D01*
X129351005Y-115604922D01*
X129430023Y-115752756D01*
X129478687Y-115913179D01*
X129495117Y-116080000D01*
X129478687Y-116246821D01*
X129478686Y-116246824D01*
X129478686Y-116246825D01*
X129432620Y-116398686D01*
X129430023Y-116407244D01*
X129351005Y-116555078D01*
X129244659Y-116684659D01*
X129115078Y-116791005D01*
X128967244Y-116870023D01*
X128967241Y-116870024D01*
X128967239Y-116870025D01*
X128806825Y-116918686D01*
X128806824Y-116918686D01*
X128806821Y-116918687D01*
X128681804Y-116931000D01*
X127798196Y-116931000D01*
X127673179Y-116918687D01*
X127673176Y-116918686D01*
X127673175Y-116918686D01*
X127512761Y-116870025D01*
X127512759Y-116870024D01*
X127512756Y-116870023D01*
X127364922Y-116791005D01*
X127235341Y-116684659D01*
X127128995Y-116555078D01*
X127049977Y-116407244D01*
X127047381Y-116398686D01*
X127001314Y-116246825D01*
X127001314Y-116246824D01*
X127001313Y-116246821D01*
X126984883Y-116080000D01*
X127001313Y-115913179D01*
X127049977Y-115752756D01*
X127128995Y-115604922D01*
X127235341Y-115475341D01*
X127364922Y-115368995D01*
X127512756Y-115289977D01*
X127512759Y-115289976D01*
X127512761Y-115289975D01*
X127673175Y-115241314D01*
X127673176Y-115241314D01*
X127673179Y-115241313D01*
X127798196Y-115229000D01*
X128681804Y-115229000D01*
X128806821Y-115241313D01*
X128806821Y-115241313D01*
G37*
G36*
X113566821Y-115241313D02*
X113566824Y-115241314D01*
X113566825Y-115241314D01*
X113727239Y-115289975D01*
X113727241Y-115289976D01*
X113727244Y-115289977D01*
X113875078Y-115368995D01*
X114004659Y-115475341D01*
X114111005Y-115604922D01*
X114190023Y-115752756D01*
X114238687Y-115913179D01*
X114255117Y-116080000D01*
X114238687Y-116246821D01*
X114238686Y-116246824D01*
X114238686Y-116246825D01*
X114192620Y-116398686D01*
X114190023Y-116407244D01*
X114111005Y-116555078D01*
X114004659Y-116684659D01*
X113875078Y-116791005D01*
X113727244Y-116870023D01*
X113727241Y-116870024D01*
X113727239Y-116870025D01*
X113566825Y-116918686D01*
X113566824Y-116918686D01*
X113566821Y-116918687D01*
X113441804Y-116931000D01*
X112558196Y-116931000D01*
X112433179Y-116918687D01*
X112433176Y-116918686D01*
X112433175Y-116918686D01*
X112272761Y-116870025D01*
X112272759Y-116870024D01*
X112272756Y-116870023D01*
X112124922Y-116791005D01*
X111995341Y-116684659D01*
X111888995Y-116555078D01*
X111809977Y-116407244D01*
X111807381Y-116398686D01*
X111761314Y-116246825D01*
X111761314Y-116246824D01*
X111761313Y-116246821D01*
X111744883Y-116080000D01*
X111761313Y-115913179D01*
X111809977Y-115752756D01*
X111888995Y-115604922D01*
X111995341Y-115475341D01*
X112124922Y-115368995D01*
X112272756Y-115289977D01*
X112272759Y-115289976D01*
X112272761Y-115289975D01*
X112433175Y-115241314D01*
X112433176Y-115241314D01*
X112433179Y-115241313D01*
X112558196Y-115229000D01*
X113441804Y-115229000D01*
X113566821Y-115241313D01*
X113566821Y-115241313D01*
G37*
G36*
X106260442Y-114645518D02*
X106326627Y-114652037D01*
X106439853Y-114686384D01*
X106496467Y-114703557D01*
X106620724Y-114769975D01*
X106652991Y-114787222D01*
X106688729Y-114816552D01*
X106790186Y-114899814D01*
X106873448Y-115001271D01*
X106902778Y-115037009D01*
X106902779Y-115037011D01*
X106986443Y-115193533D01*
X106998341Y-115232756D01*
X107037963Y-115363373D01*
X107055359Y-115540000D01*
X107037963Y-115716627D01*
X107003616Y-115829853D01*
X106986443Y-115886467D01*
X106912348Y-116025087D01*
X106902778Y-116042991D01*
X106873448Y-116078729D01*
X106790186Y-116180186D01*
X106688729Y-116263448D01*
X106652991Y-116292778D01*
X106652989Y-116292779D01*
X106496467Y-116376443D01*
X106439853Y-116393616D01*
X106326627Y-116427963D01*
X106260443Y-116434481D01*
X106194260Y-116441000D01*
X105805740Y-116441000D01*
X105739557Y-116434481D01*
X105673373Y-116427963D01*
X105560147Y-116393616D01*
X105503533Y-116376443D01*
X105347011Y-116292779D01*
X105347009Y-116292778D01*
X105311271Y-116263448D01*
X105209814Y-116180186D01*
X105126552Y-116078729D01*
X105097222Y-116042991D01*
X105087652Y-116025087D01*
X105013557Y-115886467D01*
X104996384Y-115829853D01*
X104962037Y-115716627D01*
X104944641Y-115540000D01*
X104962037Y-115363373D01*
X105001659Y-115232756D01*
X105013557Y-115193533D01*
X105097221Y-115037011D01*
X105097222Y-115037009D01*
X105126552Y-115001271D01*
X105209814Y-114899814D01*
X105311271Y-114816552D01*
X105347009Y-114787222D01*
X105379276Y-114769975D01*
X105503533Y-114703557D01*
X105560147Y-114686384D01*
X105673373Y-114652037D01*
X105739558Y-114645518D01*
X105805740Y-114639000D01*
X106194260Y-114639000D01*
X106260442Y-114645518D01*
X106260442Y-114645518D01*
G37*
G36*
X134566821Y-114721313D02*
X134566824Y-114721314D01*
X134566825Y-114721314D01*
X134727239Y-114769975D01*
X134727241Y-114769976D01*
X134727244Y-114769977D01*
X134875078Y-114848995D01*
X135004659Y-114955341D01*
X135111005Y-115084922D01*
X135190023Y-115232756D01*
X135190024Y-115232759D01*
X135190025Y-115232761D01*
X135229646Y-115363375D01*
X135238687Y-115393179D01*
X135255117Y-115560000D01*
X135238687Y-115726821D01*
X135190023Y-115887244D01*
X135111005Y-116035078D01*
X135004659Y-116164659D01*
X134875078Y-116271005D01*
X134727244Y-116350023D01*
X134727241Y-116350024D01*
X134727239Y-116350025D01*
X134566825Y-116398686D01*
X134566824Y-116398686D01*
X134566821Y-116398687D01*
X134441804Y-116411000D01*
X133558196Y-116411000D01*
X133433179Y-116398687D01*
X133433176Y-116398686D01*
X133433175Y-116398686D01*
X133272761Y-116350025D01*
X133272759Y-116350024D01*
X133272756Y-116350023D01*
X133124922Y-116271005D01*
X132995341Y-116164659D01*
X132888995Y-116035078D01*
X132809977Y-115887244D01*
X132761313Y-115726821D01*
X132744883Y-115560000D01*
X132761313Y-115393179D01*
X132770354Y-115363375D01*
X132809975Y-115232761D01*
X132809976Y-115232759D01*
X132809977Y-115232756D01*
X132888995Y-115084922D01*
X132995341Y-114955341D01*
X133124922Y-114848995D01*
X133272756Y-114769977D01*
X133272759Y-114769976D01*
X133272761Y-114769975D01*
X133433175Y-114721314D01*
X133433176Y-114721314D01*
X133433179Y-114721313D01*
X133558196Y-114709000D01*
X134441804Y-114709000D01*
X134566821Y-114721313D01*
X134566821Y-114721313D01*
G37*
G36*
X157426821Y-114721313D02*
X157426824Y-114721314D01*
X157426825Y-114721314D01*
X157587239Y-114769975D01*
X157587241Y-114769976D01*
X157587244Y-114769977D01*
X157735078Y-114848995D01*
X157864659Y-114955341D01*
X157971005Y-115084922D01*
X158050023Y-115232756D01*
X158050024Y-115232759D01*
X158050025Y-115232761D01*
X158089646Y-115363375D01*
X158098687Y-115393179D01*
X158115117Y-115560000D01*
X158098687Y-115726821D01*
X158050023Y-115887244D01*
X157971005Y-116035078D01*
X157864659Y-116164659D01*
X157735078Y-116271005D01*
X157587244Y-116350023D01*
X157587241Y-116350024D01*
X157587239Y-116350025D01*
X157426825Y-116398686D01*
X157426824Y-116398686D01*
X157426821Y-116398687D01*
X157301804Y-116411000D01*
X156418196Y-116411000D01*
X156293179Y-116398687D01*
X156293176Y-116398686D01*
X156293175Y-116398686D01*
X156132761Y-116350025D01*
X156132759Y-116350024D01*
X156132756Y-116350023D01*
X155984922Y-116271005D01*
X155855341Y-116164659D01*
X155748995Y-116035078D01*
X155669977Y-115887244D01*
X155621313Y-115726821D01*
X155604883Y-115560000D01*
X155621313Y-115393179D01*
X155630354Y-115363375D01*
X155669975Y-115232761D01*
X155669976Y-115232759D01*
X155669977Y-115232756D01*
X155748995Y-115084922D01*
X155855341Y-114955341D01*
X155984922Y-114848995D01*
X156132756Y-114769977D01*
X156132759Y-114769976D01*
X156132761Y-114769975D01*
X156293175Y-114721314D01*
X156293176Y-114721314D01*
X156293179Y-114721313D01*
X156418196Y-114709000D01*
X157301804Y-114709000D01*
X157426821Y-114721313D01*
X157426821Y-114721313D01*
G37*
G36*
X128806821Y-112701313D02*
X128806824Y-112701314D01*
X128806825Y-112701314D01*
X128967239Y-112749975D01*
X128967241Y-112749976D01*
X128967244Y-112749977D01*
X129115078Y-112828995D01*
X129244659Y-112935341D01*
X129351005Y-113064922D01*
X129430023Y-113212756D01*
X129478687Y-113373179D01*
X129495117Y-113540000D01*
X129478687Y-113706821D01*
X129478686Y-113706824D01*
X129478686Y-113706825D01*
X129432620Y-113858686D01*
X129430023Y-113867244D01*
X129351005Y-114015078D01*
X129244659Y-114144659D01*
X129115078Y-114251005D01*
X128967244Y-114330023D01*
X128967241Y-114330024D01*
X128967239Y-114330025D01*
X128806825Y-114378686D01*
X128806824Y-114378686D01*
X128806821Y-114378687D01*
X128681804Y-114391000D01*
X127798196Y-114391000D01*
X127673179Y-114378687D01*
X127673176Y-114378686D01*
X127673175Y-114378686D01*
X127512761Y-114330025D01*
X127512759Y-114330024D01*
X127512756Y-114330023D01*
X127364922Y-114251005D01*
X127235341Y-114144659D01*
X127128995Y-114015078D01*
X127049977Y-113867244D01*
X127047381Y-113858686D01*
X127001314Y-113706825D01*
X127001314Y-113706824D01*
X127001313Y-113706821D01*
X126984883Y-113540000D01*
X127001313Y-113373179D01*
X127049977Y-113212756D01*
X127128995Y-113064922D01*
X127235341Y-112935341D01*
X127364922Y-112828995D01*
X127512756Y-112749977D01*
X127512759Y-112749976D01*
X127512761Y-112749975D01*
X127673175Y-112701314D01*
X127673176Y-112701314D01*
X127673179Y-112701313D01*
X127798196Y-112689000D01*
X128681804Y-112689000D01*
X128806821Y-112701313D01*
X128806821Y-112701313D01*
G37*
G36*
X113566821Y-112701313D02*
X113566824Y-112701314D01*
X113566825Y-112701314D01*
X113727239Y-112749975D01*
X113727241Y-112749976D01*
X113727244Y-112749977D01*
X113875078Y-112828995D01*
X114004659Y-112935341D01*
X114111005Y-113064922D01*
X114190023Y-113212756D01*
X114238687Y-113373179D01*
X114255117Y-113540000D01*
X114238687Y-113706821D01*
X114238686Y-113706824D01*
X114238686Y-113706825D01*
X114192620Y-113858686D01*
X114190023Y-113867244D01*
X114111005Y-114015078D01*
X114004659Y-114144659D01*
X113875078Y-114251005D01*
X113727244Y-114330023D01*
X113727241Y-114330024D01*
X113727239Y-114330025D01*
X113566825Y-114378686D01*
X113566824Y-114378686D01*
X113566821Y-114378687D01*
X113441804Y-114391000D01*
X112558196Y-114391000D01*
X112433179Y-114378687D01*
X112433176Y-114378686D01*
X112433175Y-114378686D01*
X112272761Y-114330025D01*
X112272759Y-114330024D01*
X112272756Y-114330023D01*
X112124922Y-114251005D01*
X111995341Y-114144659D01*
X111888995Y-114015078D01*
X111809977Y-113867244D01*
X111807381Y-113858686D01*
X111761314Y-113706825D01*
X111761314Y-113706824D01*
X111761313Y-113706821D01*
X111744883Y-113540000D01*
X111761313Y-113373179D01*
X111809977Y-113212756D01*
X111888995Y-113064922D01*
X111995341Y-112935341D01*
X112124922Y-112828995D01*
X112272756Y-112749977D01*
X112272759Y-112749976D01*
X112272761Y-112749975D01*
X112433175Y-112701314D01*
X112433176Y-112701314D01*
X112433179Y-112701313D01*
X112558196Y-112689000D01*
X113441804Y-112689000D01*
X113566821Y-112701313D01*
X113566821Y-112701313D01*
G37*
G36*
X106908600Y-112102989D02*
X106941649Y-112113014D01*
X106972106Y-112129294D01*
X106998799Y-112151201D01*
X107020706Y-112177894D01*
X107036986Y-112208351D01*
X107047011Y-112241400D01*
X107051000Y-112281904D01*
X107051000Y-113718096D01*
X107047011Y-113758600D01*
X107036986Y-113791649D01*
X107020706Y-113822106D01*
X106998799Y-113848799D01*
X106972106Y-113870706D01*
X106941649Y-113886986D01*
X106908600Y-113897011D01*
X106868096Y-113901000D01*
X105131904Y-113901000D01*
X105091400Y-113897011D01*
X105058351Y-113886986D01*
X105027894Y-113870706D01*
X105001201Y-113848799D01*
X104979294Y-113822106D01*
X104963014Y-113791649D01*
X104952989Y-113758600D01*
X104949000Y-113718096D01*
X104949000Y-112281904D01*
X104952989Y-112241400D01*
X104963014Y-112208351D01*
X104979294Y-112177894D01*
X105001201Y-112151201D01*
X105027894Y-112129294D01*
X105058351Y-112113014D01*
X105091400Y-112102989D01*
X105131904Y-112099000D01*
X106868096Y-112099000D01*
X106908600Y-112102989D01*
X106908600Y-112102989D01*
G37*
G36*
X157426821Y-112181313D02*
X157426824Y-112181314D01*
X157426825Y-112181314D01*
X157587239Y-112229975D01*
X157587241Y-112229976D01*
X157587244Y-112229977D01*
X157735078Y-112308995D01*
X157864659Y-112415341D01*
X157971005Y-112544922D01*
X158050023Y-112692756D01*
X158050024Y-112692759D01*
X158050025Y-112692761D01*
X158067381Y-112749977D01*
X158098687Y-112853179D01*
X158115117Y-113020000D01*
X158098687Y-113186821D01*
X158050023Y-113347244D01*
X157971005Y-113495078D01*
X157864659Y-113624659D01*
X157735078Y-113731005D01*
X157587244Y-113810023D01*
X157587241Y-113810024D01*
X157587239Y-113810025D01*
X157426825Y-113858686D01*
X157426824Y-113858686D01*
X157426821Y-113858687D01*
X157301804Y-113871000D01*
X156418196Y-113871000D01*
X156293179Y-113858687D01*
X156293176Y-113858686D01*
X156293175Y-113858686D01*
X156132761Y-113810025D01*
X156132759Y-113810024D01*
X156132756Y-113810023D01*
X155984922Y-113731005D01*
X155855341Y-113624659D01*
X155748995Y-113495078D01*
X155669977Y-113347244D01*
X155621313Y-113186821D01*
X155604883Y-113020000D01*
X155621313Y-112853179D01*
X155652619Y-112749977D01*
X155669975Y-112692761D01*
X155669976Y-112692759D01*
X155669977Y-112692756D01*
X155748995Y-112544922D01*
X155855341Y-112415341D01*
X155984922Y-112308995D01*
X156132756Y-112229977D01*
X156132759Y-112229976D01*
X156132761Y-112229975D01*
X156293175Y-112181314D01*
X156293176Y-112181314D01*
X156293179Y-112181313D01*
X156418196Y-112169000D01*
X157301804Y-112169000D01*
X157426821Y-112181313D01*
X157426821Y-112181313D01*
G37*
G36*
X134566821Y-112181313D02*
X134566824Y-112181314D01*
X134566825Y-112181314D01*
X134727239Y-112229975D01*
X134727241Y-112229976D01*
X134727244Y-112229977D01*
X134875078Y-112308995D01*
X135004659Y-112415341D01*
X135111005Y-112544922D01*
X135190023Y-112692756D01*
X135190024Y-112692759D01*
X135190025Y-112692761D01*
X135207381Y-112749977D01*
X135238687Y-112853179D01*
X135255117Y-113020000D01*
X135238687Y-113186821D01*
X135190023Y-113347244D01*
X135111005Y-113495078D01*
X135004659Y-113624659D01*
X134875078Y-113731005D01*
X134727244Y-113810023D01*
X134727241Y-113810024D01*
X134727239Y-113810025D01*
X134566825Y-113858686D01*
X134566824Y-113858686D01*
X134566821Y-113858687D01*
X134441804Y-113871000D01*
X133558196Y-113871000D01*
X133433179Y-113858687D01*
X133433176Y-113858686D01*
X133433175Y-113858686D01*
X133272761Y-113810025D01*
X133272759Y-113810024D01*
X133272756Y-113810023D01*
X133124922Y-113731005D01*
X132995341Y-113624659D01*
X132888995Y-113495078D01*
X132809977Y-113347244D01*
X132761313Y-113186821D01*
X132744883Y-113020000D01*
X132761313Y-112853179D01*
X132792619Y-112749977D01*
X132809975Y-112692761D01*
X132809976Y-112692759D01*
X132809977Y-112692756D01*
X132888995Y-112544922D01*
X132995341Y-112415341D01*
X133124922Y-112308995D01*
X133272756Y-112229977D01*
X133272759Y-112229976D01*
X133272761Y-112229975D01*
X133433175Y-112181314D01*
X133433176Y-112181314D01*
X133433179Y-112181313D01*
X133558196Y-112169000D01*
X134441804Y-112169000D01*
X134566821Y-112181313D01*
X134566821Y-112181313D01*
G37*
G36*
X128806821Y-110161313D02*
X128806824Y-110161314D01*
X128806825Y-110161314D01*
X128967239Y-110209975D01*
X128967241Y-110209976D01*
X128967244Y-110209977D01*
X129115078Y-110288995D01*
X129244659Y-110395341D01*
X129351005Y-110524922D01*
X129430023Y-110672756D01*
X129478687Y-110833179D01*
X129495117Y-111000000D01*
X129478687Y-111166821D01*
X129478686Y-111166824D01*
X129478686Y-111166825D01*
X129432620Y-111318686D01*
X129430023Y-111327244D01*
X129351005Y-111475078D01*
X129244659Y-111604659D01*
X129115078Y-111711005D01*
X128967244Y-111790023D01*
X128967241Y-111790024D01*
X128967239Y-111790025D01*
X128806825Y-111838686D01*
X128806824Y-111838686D01*
X128806821Y-111838687D01*
X128681804Y-111851000D01*
X127798196Y-111851000D01*
X127673179Y-111838687D01*
X127673176Y-111838686D01*
X127673175Y-111838686D01*
X127512761Y-111790025D01*
X127512759Y-111790024D01*
X127512756Y-111790023D01*
X127364922Y-111711005D01*
X127235341Y-111604659D01*
X127128995Y-111475078D01*
X127049977Y-111327244D01*
X127047381Y-111318686D01*
X127001314Y-111166825D01*
X127001314Y-111166824D01*
X127001313Y-111166821D01*
X126984883Y-111000000D01*
X127001313Y-110833179D01*
X127049977Y-110672756D01*
X127128995Y-110524922D01*
X127235341Y-110395341D01*
X127364922Y-110288995D01*
X127512756Y-110209977D01*
X127512759Y-110209976D01*
X127512761Y-110209975D01*
X127673175Y-110161314D01*
X127673176Y-110161314D01*
X127673179Y-110161313D01*
X127798196Y-110149000D01*
X128681804Y-110149000D01*
X128806821Y-110161313D01*
X128806821Y-110161313D01*
G37*
G36*
X114251000Y-111851000D02*
X111749000Y-111851000D01*
X111749000Y-110149000D01*
X114251000Y-110149000D01*
X114251000Y-111851000D01*
X114251000Y-111851000D01*
G37*
G36*
X134566821Y-109641313D02*
X134566824Y-109641314D01*
X134566825Y-109641314D01*
X134727239Y-109689975D01*
X134727241Y-109689976D01*
X134727244Y-109689977D01*
X134875078Y-109768995D01*
X135004659Y-109875341D01*
X135111005Y-110004922D01*
X135190023Y-110152756D01*
X135190024Y-110152759D01*
X135190025Y-110152761D01*
X135207381Y-110209977D01*
X135238687Y-110313179D01*
X135255117Y-110480000D01*
X135238687Y-110646821D01*
X135190023Y-110807244D01*
X135111005Y-110955078D01*
X135004659Y-111084659D01*
X134875078Y-111191005D01*
X134727244Y-111270023D01*
X134727241Y-111270024D01*
X134727239Y-111270025D01*
X134566825Y-111318686D01*
X134566824Y-111318686D01*
X134566821Y-111318687D01*
X134441804Y-111331000D01*
X133558196Y-111331000D01*
X133433179Y-111318687D01*
X133433176Y-111318686D01*
X133433175Y-111318686D01*
X133272761Y-111270025D01*
X133272759Y-111270024D01*
X133272756Y-111270023D01*
X133124922Y-111191005D01*
X132995341Y-111084659D01*
X132888995Y-110955078D01*
X132809977Y-110807244D01*
X132761313Y-110646821D01*
X132744883Y-110480000D01*
X132761313Y-110313179D01*
X132792619Y-110209977D01*
X132809975Y-110152761D01*
X132809976Y-110152759D01*
X132809977Y-110152756D01*
X132888995Y-110004922D01*
X132995341Y-109875341D01*
X133124922Y-109768995D01*
X133272756Y-109689977D01*
X133272759Y-109689976D01*
X133272761Y-109689975D01*
X133433175Y-109641314D01*
X133433176Y-109641314D01*
X133433179Y-109641313D01*
X133558196Y-109629000D01*
X134441804Y-109629000D01*
X134566821Y-109641313D01*
X134566821Y-109641313D01*
G37*
G36*
X157426821Y-109641313D02*
X157426824Y-109641314D01*
X157426825Y-109641314D01*
X157587239Y-109689975D01*
X157587241Y-109689976D01*
X157587244Y-109689977D01*
X157735078Y-109768995D01*
X157864659Y-109875341D01*
X157971005Y-110004922D01*
X158050023Y-110152756D01*
X158050024Y-110152759D01*
X158050025Y-110152761D01*
X158067381Y-110209977D01*
X158098687Y-110313179D01*
X158115117Y-110480000D01*
X158098687Y-110646821D01*
X158050023Y-110807244D01*
X157971005Y-110955078D01*
X157864659Y-111084659D01*
X157735078Y-111191005D01*
X157587244Y-111270023D01*
X157587241Y-111270024D01*
X157587239Y-111270025D01*
X157426825Y-111318686D01*
X157426824Y-111318686D01*
X157426821Y-111318687D01*
X157301804Y-111331000D01*
X156418196Y-111331000D01*
X156293179Y-111318687D01*
X156293176Y-111318686D01*
X156293175Y-111318686D01*
X156132761Y-111270025D01*
X156132759Y-111270024D01*
X156132756Y-111270023D01*
X155984922Y-111191005D01*
X155855341Y-111084659D01*
X155748995Y-110955078D01*
X155669977Y-110807244D01*
X155621313Y-110646821D01*
X155604883Y-110480000D01*
X155621313Y-110313179D01*
X155652619Y-110209977D01*
X155669975Y-110152761D01*
X155669976Y-110152759D01*
X155669977Y-110152756D01*
X155748995Y-110004922D01*
X155855341Y-109875341D01*
X155984922Y-109768995D01*
X156132756Y-109689977D01*
X156132759Y-109689976D01*
X156132761Y-109689975D01*
X156293175Y-109641314D01*
X156293176Y-109641314D01*
X156293179Y-109641313D01*
X156418196Y-109629000D01*
X157301804Y-109629000D01*
X157426821Y-109641313D01*
X157426821Y-109641313D01*
G37*
G36*
X134566821Y-107101313D02*
X134566824Y-107101314D01*
X134566825Y-107101314D01*
X134727239Y-107149975D01*
X134727241Y-107149976D01*
X134727244Y-107149977D01*
X134875078Y-107228995D01*
X135004659Y-107335341D01*
X135111005Y-107464922D01*
X135190023Y-107612756D01*
X135238687Y-107773179D01*
X135255117Y-107940000D01*
X135238687Y-108106821D01*
X135190023Y-108267244D01*
X135111005Y-108415078D01*
X135004659Y-108544659D01*
X134875078Y-108651005D01*
X134727244Y-108730023D01*
X134727241Y-108730024D01*
X134727239Y-108730025D01*
X134566825Y-108778686D01*
X134566824Y-108778686D01*
X134566821Y-108778687D01*
X134441804Y-108791000D01*
X133558196Y-108791000D01*
X133433179Y-108778687D01*
X133433176Y-108778686D01*
X133433175Y-108778686D01*
X133272761Y-108730025D01*
X133272759Y-108730024D01*
X133272756Y-108730023D01*
X133124922Y-108651005D01*
X132995341Y-108544659D01*
X132888995Y-108415078D01*
X132809977Y-108267244D01*
X132761313Y-108106821D01*
X132744883Y-107940000D01*
X132761313Y-107773179D01*
X132809977Y-107612756D01*
X132888995Y-107464922D01*
X132995341Y-107335341D01*
X133124922Y-107228995D01*
X133272756Y-107149977D01*
X133272759Y-107149976D01*
X133272761Y-107149975D01*
X133433175Y-107101314D01*
X133433176Y-107101314D01*
X133433179Y-107101313D01*
X133558196Y-107089000D01*
X134441804Y-107089000D01*
X134566821Y-107101313D01*
X134566821Y-107101313D01*
G37*
G36*
X157426821Y-107101313D02*
X157426824Y-107101314D01*
X157426825Y-107101314D01*
X157587239Y-107149975D01*
X157587241Y-107149976D01*
X157587244Y-107149977D01*
X157735078Y-107228995D01*
X157864659Y-107335341D01*
X157971005Y-107464922D01*
X158050023Y-107612756D01*
X158098687Y-107773179D01*
X158115117Y-107940000D01*
X158098687Y-108106821D01*
X158050023Y-108267244D01*
X157971005Y-108415078D01*
X157864659Y-108544659D01*
X157735078Y-108651005D01*
X157587244Y-108730023D01*
X157587241Y-108730024D01*
X157587239Y-108730025D01*
X157426825Y-108778686D01*
X157426824Y-108778686D01*
X157426821Y-108778687D01*
X157301804Y-108791000D01*
X156418196Y-108791000D01*
X156293179Y-108778687D01*
X156293176Y-108778686D01*
X156293175Y-108778686D01*
X156132761Y-108730025D01*
X156132759Y-108730024D01*
X156132756Y-108730023D01*
X155984922Y-108651005D01*
X155855341Y-108544659D01*
X155748995Y-108415078D01*
X155669977Y-108267244D01*
X155621313Y-108106821D01*
X155604883Y-107940000D01*
X155621313Y-107773179D01*
X155669977Y-107612756D01*
X155748995Y-107464922D01*
X155855341Y-107335341D01*
X155984922Y-107228995D01*
X156132756Y-107149977D01*
X156132759Y-107149976D01*
X156132761Y-107149975D01*
X156293175Y-107101314D01*
X156293176Y-107101314D01*
X156293179Y-107101313D01*
X156418196Y-107089000D01*
X157301804Y-107089000D01*
X157426821Y-107101313D01*
X157426821Y-107101313D01*
G37*
G36*
X112636669Y-103007686D02*
X112813058Y-103025059D01*
X113039385Y-103093714D01*
X113152549Y-103128042D01*
X113465425Y-103295279D01*
X113739661Y-103520339D01*
X113964721Y-103794575D01*
X114131958Y-104107451D01*
X114131958Y-104107452D01*
X114234941Y-104446942D01*
X114269714Y-104800000D01*
X114234941Y-105153058D01*
X114166286Y-105379385D01*
X114131958Y-105492549D01*
X113964721Y-105805425D01*
X113739661Y-106079661D01*
X113465425Y-106304721D01*
X113152549Y-106471958D01*
X113039385Y-106506286D01*
X112813058Y-106574941D01*
X112636669Y-106592314D01*
X112548476Y-106601000D01*
X112371524Y-106601000D01*
X112283331Y-106592314D01*
X112106942Y-106574941D01*
X111880615Y-106506286D01*
X111767451Y-106471958D01*
X111454575Y-106304721D01*
X111180339Y-106079661D01*
X110955279Y-105805425D01*
X110788042Y-105492549D01*
X110753714Y-105379385D01*
X110685059Y-105153058D01*
X110650286Y-104800000D01*
X110685059Y-104446942D01*
X110788042Y-104107452D01*
X110788042Y-104107451D01*
X110955279Y-103794575D01*
X111180339Y-103520339D01*
X111454575Y-103295279D01*
X111767451Y-103128042D01*
X111880615Y-103093714D01*
X112106942Y-103025059D01*
X112283331Y-103007686D01*
X112371524Y-102999000D01*
X112548476Y-102999000D01*
X112636669Y-103007686D01*
X112636669Y-103007686D01*
G37*
G36*
X125636669Y-103007686D02*
X125813058Y-103025059D01*
X126039385Y-103093714D01*
X126152549Y-103128042D01*
X126465425Y-103295279D01*
X126739661Y-103520339D01*
X126964721Y-103794575D01*
X127131958Y-104107451D01*
X127131958Y-104107452D01*
X127234941Y-104446942D01*
X127269714Y-104800000D01*
X127234941Y-105153058D01*
X127166286Y-105379385D01*
X127131958Y-105492549D01*
X126964721Y-105805425D01*
X126739661Y-106079661D01*
X126465425Y-106304721D01*
X126152549Y-106471958D01*
X126039385Y-106506286D01*
X125813058Y-106574941D01*
X125636669Y-106592314D01*
X125548476Y-106601000D01*
X125371524Y-106601000D01*
X125283331Y-106592314D01*
X125106942Y-106574941D01*
X124880615Y-106506286D01*
X124767451Y-106471958D01*
X124454575Y-106304721D01*
X124180339Y-106079661D01*
X123955279Y-105805425D01*
X123788042Y-105492549D01*
X123753714Y-105379385D01*
X123685059Y-105153058D01*
X123650286Y-104800000D01*
X123685059Y-104446942D01*
X123788042Y-104107452D01*
X123788042Y-104107451D01*
X123955279Y-103794575D01*
X124180339Y-103520339D01*
X124454575Y-103295279D01*
X124767451Y-103128042D01*
X124880615Y-103093714D01*
X125106942Y-103025059D01*
X125283331Y-103007686D01*
X125371524Y-102999000D01*
X125548476Y-102999000D01*
X125636669Y-103007686D01*
X125636669Y-103007686D01*
G37*
G36*
X134566821Y-104561313D02*
X134566824Y-104561314D01*
X134566825Y-104561314D01*
X134727239Y-104609975D01*
X134727241Y-104609976D01*
X134727244Y-104609977D01*
X134875078Y-104688995D01*
X135004659Y-104795341D01*
X135111005Y-104924922D01*
X135190023Y-105072756D01*
X135190024Y-105072759D01*
X135190025Y-105072761D01*
X135238686Y-105233175D01*
X135238687Y-105233179D01*
X135255117Y-105400000D01*
X135238687Y-105566821D01*
X135190023Y-105727244D01*
X135111005Y-105875078D01*
X135004659Y-106004659D01*
X134875078Y-106111005D01*
X134727244Y-106190023D01*
X134727241Y-106190024D01*
X134727239Y-106190025D01*
X134566825Y-106238686D01*
X134566824Y-106238686D01*
X134566821Y-106238687D01*
X134441804Y-106251000D01*
X133558196Y-106251000D01*
X133433179Y-106238687D01*
X133433176Y-106238686D01*
X133433175Y-106238686D01*
X133272761Y-106190025D01*
X133272759Y-106190024D01*
X133272756Y-106190023D01*
X133124922Y-106111005D01*
X132995341Y-106004659D01*
X132888995Y-105875078D01*
X132809977Y-105727244D01*
X132761313Y-105566821D01*
X132744883Y-105400000D01*
X132761313Y-105233179D01*
X132761314Y-105233175D01*
X132809975Y-105072761D01*
X132809976Y-105072759D01*
X132809977Y-105072756D01*
X132888995Y-104924922D01*
X132995341Y-104795341D01*
X133124922Y-104688995D01*
X133272756Y-104609977D01*
X133272759Y-104609976D01*
X133272761Y-104609975D01*
X133433175Y-104561314D01*
X133433176Y-104561314D01*
X133433179Y-104561313D01*
X133558196Y-104549000D01*
X134441804Y-104549000D01*
X134566821Y-104561313D01*
X134566821Y-104561313D01*
G37*
G36*
X157426821Y-104561313D02*
X157426824Y-104561314D01*
X157426825Y-104561314D01*
X157587239Y-104609975D01*
X157587241Y-104609976D01*
X157587244Y-104609977D01*
X157735078Y-104688995D01*
X157864659Y-104795341D01*
X157971005Y-104924922D01*
X158050023Y-105072756D01*
X158050024Y-105072759D01*
X158050025Y-105072761D01*
X158098686Y-105233175D01*
X158098687Y-105233179D01*
X158115117Y-105400000D01*
X158098687Y-105566821D01*
X158050023Y-105727244D01*
X157971005Y-105875078D01*
X157864659Y-106004659D01*
X157735078Y-106111005D01*
X157587244Y-106190023D01*
X157587241Y-106190024D01*
X157587239Y-106190025D01*
X157426825Y-106238686D01*
X157426824Y-106238686D01*
X157426821Y-106238687D01*
X157301804Y-106251000D01*
X156418196Y-106251000D01*
X156293179Y-106238687D01*
X156293176Y-106238686D01*
X156293175Y-106238686D01*
X156132761Y-106190025D01*
X156132759Y-106190024D01*
X156132756Y-106190023D01*
X155984922Y-106111005D01*
X155855341Y-106004659D01*
X155748995Y-105875078D01*
X155669977Y-105727244D01*
X155621313Y-105566821D01*
X155604883Y-105400000D01*
X155621313Y-105233179D01*
X155621314Y-105233175D01*
X155669975Y-105072761D01*
X155669976Y-105072759D01*
X155669977Y-105072756D01*
X155748995Y-104924922D01*
X155855341Y-104795341D01*
X155984922Y-104688995D01*
X156132756Y-104609977D01*
X156132759Y-104609976D01*
X156132761Y-104609975D01*
X156293175Y-104561314D01*
X156293176Y-104561314D01*
X156293179Y-104561313D01*
X156418196Y-104549000D01*
X157301804Y-104549000D01*
X157426821Y-104561313D01*
X157426821Y-104561313D01*
G37*
G36*
X157426821Y-102021313D02*
X157426824Y-102021314D01*
X157426825Y-102021314D01*
X157587239Y-102069975D01*
X157587241Y-102069976D01*
X157587244Y-102069977D01*
X157735078Y-102148995D01*
X157864659Y-102255341D01*
X157971005Y-102384922D01*
X158050023Y-102532756D01*
X158098687Y-102693179D01*
X158115117Y-102860000D01*
X158098687Y-103026821D01*
X158050023Y-103187244D01*
X157971005Y-103335078D01*
X157864659Y-103464659D01*
X157735078Y-103571005D01*
X157587244Y-103650023D01*
X157587241Y-103650024D01*
X157587239Y-103650025D01*
X157426825Y-103698686D01*
X157426824Y-103698686D01*
X157426821Y-103698687D01*
X157301804Y-103711000D01*
X156418196Y-103711000D01*
X156293179Y-103698687D01*
X156293176Y-103698686D01*
X156293175Y-103698686D01*
X156132761Y-103650025D01*
X156132759Y-103650024D01*
X156132756Y-103650023D01*
X155984922Y-103571005D01*
X155855341Y-103464659D01*
X155748995Y-103335078D01*
X155669977Y-103187244D01*
X155621313Y-103026821D01*
X155604883Y-102860000D01*
X155621313Y-102693179D01*
X155669977Y-102532756D01*
X155748995Y-102384922D01*
X155855341Y-102255341D01*
X155984922Y-102148995D01*
X156132756Y-102069977D01*
X156132759Y-102069976D01*
X156132761Y-102069975D01*
X156293175Y-102021314D01*
X156293176Y-102021314D01*
X156293179Y-102021313D01*
X156418196Y-102009000D01*
X157301804Y-102009000D01*
X157426821Y-102021313D01*
X157426821Y-102021313D01*
G37*
G36*
X134566821Y-102021313D02*
X134566824Y-102021314D01*
X134566825Y-102021314D01*
X134727239Y-102069975D01*
X134727241Y-102069976D01*
X134727244Y-102069977D01*
X134875078Y-102148995D01*
X135004659Y-102255341D01*
X135111005Y-102384922D01*
X135190023Y-102532756D01*
X135238687Y-102693179D01*
X135255117Y-102860000D01*
X135238687Y-103026821D01*
X135190023Y-103187244D01*
X135111005Y-103335078D01*
X135004659Y-103464659D01*
X134875078Y-103571005D01*
X134727244Y-103650023D01*
X134727241Y-103650024D01*
X134727239Y-103650025D01*
X134566825Y-103698686D01*
X134566824Y-103698686D01*
X134566821Y-103698687D01*
X134441804Y-103711000D01*
X133558196Y-103711000D01*
X133433179Y-103698687D01*
X133433176Y-103698686D01*
X133433175Y-103698686D01*
X133272761Y-103650025D01*
X133272759Y-103650024D01*
X133272756Y-103650023D01*
X133124922Y-103571005D01*
X132995341Y-103464659D01*
X132888995Y-103335078D01*
X132809977Y-103187244D01*
X132761313Y-103026821D01*
X132744883Y-102860000D01*
X132761313Y-102693179D01*
X132809977Y-102532756D01*
X132888995Y-102384922D01*
X132995341Y-102255341D01*
X133124922Y-102148995D01*
X133272756Y-102069977D01*
X133272759Y-102069976D01*
X133272761Y-102069975D01*
X133433175Y-102021314D01*
X133433176Y-102021314D01*
X133433179Y-102021313D01*
X133558196Y-102009000D01*
X134441804Y-102009000D01*
X134566821Y-102021313D01*
X134566821Y-102021313D01*
G37*
G36*
X157426821Y-99481313D02*
X157426824Y-99481314D01*
X157426825Y-99481314D01*
X157587239Y-99529975D01*
X157587241Y-99529976D01*
X157587244Y-99529977D01*
X157735078Y-99608995D01*
X157864659Y-99715341D01*
X157971005Y-99844922D01*
X158050023Y-99992756D01*
X158098687Y-100153179D01*
X158115117Y-100320000D01*
X158098687Y-100486821D01*
X158050023Y-100647244D01*
X157971005Y-100795078D01*
X157864659Y-100924659D01*
X157735078Y-101031005D01*
X157587244Y-101110023D01*
X157587241Y-101110024D01*
X157587239Y-101110025D01*
X157426825Y-101158686D01*
X157426824Y-101158686D01*
X157426821Y-101158687D01*
X157301804Y-101171000D01*
X156418196Y-101171000D01*
X156293179Y-101158687D01*
X156293176Y-101158686D01*
X156293175Y-101158686D01*
X156132761Y-101110025D01*
X156132759Y-101110024D01*
X156132756Y-101110023D01*
X155984922Y-101031005D01*
X155855341Y-100924659D01*
X155748995Y-100795078D01*
X155669977Y-100647244D01*
X155621313Y-100486821D01*
X155604883Y-100320000D01*
X155621313Y-100153179D01*
X155669977Y-99992756D01*
X155748995Y-99844922D01*
X155855341Y-99715341D01*
X155984922Y-99608995D01*
X156132756Y-99529977D01*
X156132759Y-99529976D01*
X156132761Y-99529975D01*
X156293175Y-99481314D01*
X156293176Y-99481314D01*
X156293179Y-99481313D01*
X156418196Y-99469000D01*
X157301804Y-99469000D01*
X157426821Y-99481313D01*
X157426821Y-99481313D01*
G37*
G36*
X134566821Y-99481313D02*
X134566824Y-99481314D01*
X134566825Y-99481314D01*
X134727239Y-99529975D01*
X134727241Y-99529976D01*
X134727244Y-99529977D01*
X134875078Y-99608995D01*
X135004659Y-99715341D01*
X135111005Y-99844922D01*
X135190023Y-99992756D01*
X135238687Y-100153179D01*
X135255117Y-100320000D01*
X135238687Y-100486821D01*
X135190023Y-100647244D01*
X135111005Y-100795078D01*
X135004659Y-100924659D01*
X134875078Y-101031005D01*
X134727244Y-101110023D01*
X134727241Y-101110024D01*
X134727239Y-101110025D01*
X134566825Y-101158686D01*
X134566824Y-101158686D01*
X134566821Y-101158687D01*
X134441804Y-101171000D01*
X133558196Y-101171000D01*
X133433179Y-101158687D01*
X133433176Y-101158686D01*
X133433175Y-101158686D01*
X133272761Y-101110025D01*
X133272759Y-101110024D01*
X133272756Y-101110023D01*
X133124922Y-101031005D01*
X132995341Y-100924659D01*
X132888995Y-100795078D01*
X132809977Y-100647244D01*
X132761313Y-100486821D01*
X132744883Y-100320000D01*
X132761313Y-100153179D01*
X132809977Y-99992756D01*
X132888995Y-99844922D01*
X132995341Y-99715341D01*
X133124922Y-99608995D01*
X133272756Y-99529977D01*
X133272759Y-99529976D01*
X133272761Y-99529975D01*
X133433175Y-99481314D01*
X133433176Y-99481314D01*
X133433179Y-99481313D01*
X133558196Y-99469000D01*
X134441804Y-99469000D01*
X134566821Y-99481313D01*
X134566821Y-99481313D01*
G37*
G36*
X134566821Y-96941313D02*
X134566824Y-96941314D01*
X134566825Y-96941314D01*
X134727239Y-96989975D01*
X134727241Y-96989976D01*
X134727244Y-96989977D01*
X134875078Y-97068995D01*
X135004659Y-97175341D01*
X135111005Y-97304922D01*
X135190023Y-97452756D01*
X135238687Y-97613179D01*
X135255117Y-97780000D01*
X135238687Y-97946821D01*
X135190023Y-98107244D01*
X135111005Y-98255078D01*
X135004659Y-98384659D01*
X134875078Y-98491005D01*
X134727244Y-98570023D01*
X134727241Y-98570024D01*
X134727239Y-98570025D01*
X134566825Y-98618686D01*
X134566824Y-98618686D01*
X134566821Y-98618687D01*
X134441804Y-98631000D01*
X133558196Y-98631000D01*
X133433179Y-98618687D01*
X133433176Y-98618686D01*
X133433175Y-98618686D01*
X133272761Y-98570025D01*
X133272759Y-98570024D01*
X133272756Y-98570023D01*
X133124922Y-98491005D01*
X132995341Y-98384659D01*
X132888995Y-98255078D01*
X132809977Y-98107244D01*
X132761313Y-97946821D01*
X132744883Y-97780000D01*
X132761313Y-97613179D01*
X132809977Y-97452756D01*
X132888995Y-97304922D01*
X132995341Y-97175341D01*
X133124922Y-97068995D01*
X133272756Y-96989977D01*
X133272759Y-96989976D01*
X133272761Y-96989975D01*
X133433175Y-96941314D01*
X133433176Y-96941314D01*
X133433179Y-96941313D01*
X133558196Y-96929000D01*
X134441804Y-96929000D01*
X134566821Y-96941313D01*
X134566821Y-96941313D01*
G37*
G36*
X157426821Y-96941313D02*
X157426824Y-96941314D01*
X157426825Y-96941314D01*
X157587239Y-96989975D01*
X157587241Y-96989976D01*
X157587244Y-96989977D01*
X157735078Y-97068995D01*
X157864659Y-97175341D01*
X157971005Y-97304922D01*
X158050023Y-97452756D01*
X158098687Y-97613179D01*
X158115117Y-97780000D01*
X158098687Y-97946821D01*
X158050023Y-98107244D01*
X157971005Y-98255078D01*
X157864659Y-98384659D01*
X157735078Y-98491005D01*
X157587244Y-98570023D01*
X157587241Y-98570024D01*
X157587239Y-98570025D01*
X157426825Y-98618686D01*
X157426824Y-98618686D01*
X157426821Y-98618687D01*
X157301804Y-98631000D01*
X156418196Y-98631000D01*
X156293179Y-98618687D01*
X156293176Y-98618686D01*
X156293175Y-98618686D01*
X156132761Y-98570025D01*
X156132759Y-98570024D01*
X156132756Y-98570023D01*
X155984922Y-98491005D01*
X155855341Y-98384659D01*
X155748995Y-98255078D01*
X155669977Y-98107244D01*
X155621313Y-97946821D01*
X155604883Y-97780000D01*
X155621313Y-97613179D01*
X155669977Y-97452756D01*
X155748995Y-97304922D01*
X155855341Y-97175341D01*
X155984922Y-97068995D01*
X156132756Y-96989977D01*
X156132759Y-96989976D01*
X156132761Y-96989975D01*
X156293175Y-96941314D01*
X156293176Y-96941314D01*
X156293179Y-96941313D01*
X156418196Y-96929000D01*
X157301804Y-96929000D01*
X157426821Y-96941313D01*
X157426821Y-96941313D01*
G37*
G36*
X134566821Y-94401313D02*
X134566824Y-94401314D01*
X134566825Y-94401314D01*
X134727239Y-94449975D01*
X134727241Y-94449976D01*
X134727244Y-94449977D01*
X134875078Y-94528995D01*
X135004659Y-94635341D01*
X135111005Y-94764922D01*
X135190023Y-94912756D01*
X135238687Y-95073179D01*
X135255117Y-95240000D01*
X135238687Y-95406821D01*
X135190023Y-95567244D01*
X135111005Y-95715078D01*
X135004659Y-95844659D01*
X134875078Y-95951005D01*
X134727244Y-96030023D01*
X134727241Y-96030024D01*
X134727239Y-96030025D01*
X134566825Y-96078686D01*
X134566824Y-96078686D01*
X134566821Y-96078687D01*
X134441804Y-96091000D01*
X133558196Y-96091000D01*
X133433179Y-96078687D01*
X133433176Y-96078686D01*
X133433175Y-96078686D01*
X133272761Y-96030025D01*
X133272759Y-96030024D01*
X133272756Y-96030023D01*
X133124922Y-95951005D01*
X132995341Y-95844659D01*
X132888995Y-95715078D01*
X132809977Y-95567244D01*
X132761313Y-95406821D01*
X132744883Y-95240000D01*
X132761313Y-95073179D01*
X132809977Y-94912756D01*
X132888995Y-94764922D01*
X132995341Y-94635341D01*
X133124922Y-94528995D01*
X133272756Y-94449977D01*
X133272759Y-94449976D01*
X133272761Y-94449975D01*
X133433175Y-94401314D01*
X133433176Y-94401314D01*
X133433179Y-94401313D01*
X133558196Y-94389000D01*
X134441804Y-94389000D01*
X134566821Y-94401313D01*
X134566821Y-94401313D01*
G37*
G36*
X157426821Y-94401313D02*
X157426824Y-94401314D01*
X157426825Y-94401314D01*
X157587239Y-94449975D01*
X157587241Y-94449976D01*
X157587244Y-94449977D01*
X157735078Y-94528995D01*
X157864659Y-94635341D01*
X157971005Y-94764922D01*
X158050023Y-94912756D01*
X158098687Y-95073179D01*
X158115117Y-95240000D01*
X158098687Y-95406821D01*
X158050023Y-95567244D01*
X157971005Y-95715078D01*
X157864659Y-95844659D01*
X157735078Y-95951005D01*
X157587244Y-96030023D01*
X157587241Y-96030024D01*
X157587239Y-96030025D01*
X157426825Y-96078686D01*
X157426824Y-96078686D01*
X157426821Y-96078687D01*
X157301804Y-96091000D01*
X156418196Y-96091000D01*
X156293179Y-96078687D01*
X156293176Y-96078686D01*
X156293175Y-96078686D01*
X156132761Y-96030025D01*
X156132759Y-96030024D01*
X156132756Y-96030023D01*
X155984922Y-95951005D01*
X155855341Y-95844659D01*
X155748995Y-95715078D01*
X155669977Y-95567244D01*
X155621313Y-95406821D01*
X155604883Y-95240000D01*
X155621313Y-95073179D01*
X155669977Y-94912756D01*
X155748995Y-94764922D01*
X155855341Y-94635341D01*
X155984922Y-94528995D01*
X156132756Y-94449977D01*
X156132759Y-94449976D01*
X156132761Y-94449975D01*
X156293175Y-94401314D01*
X156293176Y-94401314D01*
X156293179Y-94401313D01*
X156418196Y-94389000D01*
X157301804Y-94389000D01*
X157426821Y-94401313D01*
X157426821Y-94401313D01*
G37*
G36*
X157426821Y-91861313D02*
X157426824Y-91861314D01*
X157426825Y-91861314D01*
X157587239Y-91909975D01*
X157587241Y-91909976D01*
X157587244Y-91909977D01*
X157735078Y-91988995D01*
X157864659Y-92095341D01*
X157971005Y-92224922D01*
X158050023Y-92372756D01*
X158098687Y-92533179D01*
X158115117Y-92700000D01*
X158098687Y-92866821D01*
X158050023Y-93027244D01*
X157971005Y-93175078D01*
X157864659Y-93304659D01*
X157735078Y-93411005D01*
X157587244Y-93490023D01*
X157587241Y-93490024D01*
X157587239Y-93490025D01*
X157426825Y-93538686D01*
X157426824Y-93538686D01*
X157426821Y-93538687D01*
X157301804Y-93551000D01*
X156418196Y-93551000D01*
X156293179Y-93538687D01*
X156293176Y-93538686D01*
X156293175Y-93538686D01*
X156132761Y-93490025D01*
X156132759Y-93490024D01*
X156132756Y-93490023D01*
X155984922Y-93411005D01*
X155855341Y-93304659D01*
X155748995Y-93175078D01*
X155669977Y-93027244D01*
X155621313Y-92866821D01*
X155604883Y-92700000D01*
X155621313Y-92533179D01*
X155669977Y-92372756D01*
X155748995Y-92224922D01*
X155855341Y-92095341D01*
X155984922Y-91988995D01*
X156132756Y-91909977D01*
X156132759Y-91909976D01*
X156132761Y-91909975D01*
X156293175Y-91861314D01*
X156293176Y-91861314D01*
X156293179Y-91861313D01*
X156418196Y-91849000D01*
X157301804Y-91849000D01*
X157426821Y-91861313D01*
X157426821Y-91861313D01*
G37*
G36*
X134566821Y-91861313D02*
X134566824Y-91861314D01*
X134566825Y-91861314D01*
X134727239Y-91909975D01*
X134727241Y-91909976D01*
X134727244Y-91909977D01*
X134875078Y-91988995D01*
X135004659Y-92095341D01*
X135111005Y-92224922D01*
X135190023Y-92372756D01*
X135238687Y-92533179D01*
X135255117Y-92700000D01*
X135238687Y-92866821D01*
X135190023Y-93027244D01*
X135111005Y-93175078D01*
X135004659Y-93304659D01*
X134875078Y-93411005D01*
X134727244Y-93490023D01*
X134727241Y-93490024D01*
X134727239Y-93490025D01*
X134566825Y-93538686D01*
X134566824Y-93538686D01*
X134566821Y-93538687D01*
X134441804Y-93551000D01*
X133558196Y-93551000D01*
X133433179Y-93538687D01*
X133433176Y-93538686D01*
X133433175Y-93538686D01*
X133272761Y-93490025D01*
X133272759Y-93490024D01*
X133272756Y-93490023D01*
X133124922Y-93411005D01*
X132995341Y-93304659D01*
X132888995Y-93175078D01*
X132809977Y-93027244D01*
X132761313Y-92866821D01*
X132744883Y-92700000D01*
X132761313Y-92533179D01*
X132809977Y-92372756D01*
X132888995Y-92224922D01*
X132995341Y-92095341D01*
X133124922Y-91988995D01*
X133272756Y-91909977D01*
X133272759Y-91909976D01*
X133272761Y-91909975D01*
X133433175Y-91861314D01*
X133433176Y-91861314D01*
X133433179Y-91861313D01*
X133558196Y-91849000D01*
X134441804Y-91849000D01*
X134566821Y-91861313D01*
X134566821Y-91861313D01*
G37*
G36*
X157426821Y-89321313D02*
X157426824Y-89321314D01*
X157426825Y-89321314D01*
X157587239Y-89369975D01*
X157587241Y-89369976D01*
X157587244Y-89369977D01*
X157735078Y-89448995D01*
X157864659Y-89555341D01*
X157971005Y-89684922D01*
X158050023Y-89832756D01*
X158050024Y-89832759D01*
X158050025Y-89832761D01*
X158066150Y-89885919D01*
X158098687Y-89993179D01*
X158115117Y-90160000D01*
X158098687Y-90326821D01*
X158050023Y-90487244D01*
X157971005Y-90635078D01*
X157864659Y-90764659D01*
X157735078Y-90871005D01*
X157587244Y-90950023D01*
X157587241Y-90950024D01*
X157587239Y-90950025D01*
X157426825Y-90998686D01*
X157426824Y-90998686D01*
X157426821Y-90998687D01*
X157301804Y-91011000D01*
X156418196Y-91011000D01*
X156293179Y-90998687D01*
X156293176Y-90998686D01*
X156293175Y-90998686D01*
X156132761Y-90950025D01*
X156132759Y-90950024D01*
X156132756Y-90950023D01*
X155984922Y-90871005D01*
X155855341Y-90764659D01*
X155748995Y-90635078D01*
X155669977Y-90487244D01*
X155621313Y-90326821D01*
X155604883Y-90160000D01*
X155621313Y-89993179D01*
X155653850Y-89885919D01*
X155669975Y-89832761D01*
X155669976Y-89832759D01*
X155669977Y-89832756D01*
X155748995Y-89684922D01*
X155855341Y-89555341D01*
X155984922Y-89448995D01*
X156132756Y-89369977D01*
X156132759Y-89369976D01*
X156132761Y-89369975D01*
X156293175Y-89321314D01*
X156293176Y-89321314D01*
X156293179Y-89321313D01*
X156418196Y-89309000D01*
X157301804Y-89309000D01*
X157426821Y-89321313D01*
X157426821Y-89321313D01*
G37*
G36*
X134566821Y-89321313D02*
X134566824Y-89321314D01*
X134566825Y-89321314D01*
X134727239Y-89369975D01*
X134727241Y-89369976D01*
X134727244Y-89369977D01*
X134875078Y-89448995D01*
X135004659Y-89555341D01*
X135111005Y-89684922D01*
X135190023Y-89832756D01*
X135190024Y-89832759D01*
X135190025Y-89832761D01*
X135206150Y-89885919D01*
X135238687Y-89993179D01*
X135255117Y-90160000D01*
X135238687Y-90326821D01*
X135190023Y-90487244D01*
X135111005Y-90635078D01*
X135004659Y-90764659D01*
X134875078Y-90871005D01*
X134727244Y-90950023D01*
X134727241Y-90950024D01*
X134727239Y-90950025D01*
X134566825Y-90998686D01*
X134566824Y-90998686D01*
X134566821Y-90998687D01*
X134441804Y-91011000D01*
X133558196Y-91011000D01*
X133433179Y-90998687D01*
X133433176Y-90998686D01*
X133433175Y-90998686D01*
X133272761Y-90950025D01*
X133272759Y-90950024D01*
X133272756Y-90950023D01*
X133124922Y-90871005D01*
X132995341Y-90764659D01*
X132888995Y-90635078D01*
X132809977Y-90487244D01*
X132761313Y-90326821D01*
X132744883Y-90160000D01*
X132761313Y-89993179D01*
X132793850Y-89885919D01*
X132809975Y-89832761D01*
X132809976Y-89832759D01*
X132809977Y-89832756D01*
X132888995Y-89684922D01*
X132995341Y-89555341D01*
X133124922Y-89448995D01*
X133272756Y-89369977D01*
X133272759Y-89369976D01*
X133272761Y-89369975D01*
X133433175Y-89321314D01*
X133433176Y-89321314D01*
X133433179Y-89321313D01*
X133558196Y-89309000D01*
X134441804Y-89309000D01*
X134566821Y-89321313D01*
X134566821Y-89321313D01*
G37*
G36*
X125656720Y-87963520D02*
X125845881Y-88020901D01*
X126020212Y-88114083D01*
X126173015Y-88239485D01*
X126298417Y-88392288D01*
X126391599Y-88566620D01*
X126448980Y-88755781D01*
X126463500Y-88903207D01*
X126463500Y-89096794D01*
X126448980Y-89244220D01*
X126391599Y-89433381D01*
X126298417Y-89607712D01*
X126173015Y-89760515D01*
X126020212Y-89885917D01*
X125845880Y-89979099D01*
X125656719Y-90036480D01*
X125460000Y-90055855D01*
X125263280Y-90036480D01*
X125074119Y-89979099D01*
X124899788Y-89885917D01*
X124746985Y-89760515D01*
X124621583Y-89607712D01*
X124528401Y-89433380D01*
X124471020Y-89244219D01*
X124456500Y-89096793D01*
X124456500Y-88903206D01*
X124471020Y-88755780D01*
X124528401Y-88566619D01*
X124621583Y-88392288D01*
X124746985Y-88239485D01*
X124899788Y-88114083D01*
X125074120Y-88020901D01*
X125263281Y-87963520D01*
X125460000Y-87944145D01*
X125656720Y-87963520D01*
X125656720Y-87963520D01*
G37*
G36*
X123116720Y-87963520D02*
X123305881Y-88020901D01*
X123480212Y-88114083D01*
X123633015Y-88239485D01*
X123758417Y-88392288D01*
X123851599Y-88566620D01*
X123908980Y-88755781D01*
X123923500Y-88903207D01*
X123923500Y-89096794D01*
X123908980Y-89244220D01*
X123851599Y-89433381D01*
X123758417Y-89607712D01*
X123633015Y-89760515D01*
X123480212Y-89885917D01*
X123305880Y-89979099D01*
X123116719Y-90036480D01*
X122920000Y-90055855D01*
X122723280Y-90036480D01*
X122534119Y-89979099D01*
X122359788Y-89885917D01*
X122206985Y-89760515D01*
X122081583Y-89607712D01*
X121988401Y-89433380D01*
X121931020Y-89244219D01*
X121916500Y-89096793D01*
X121916500Y-88903206D01*
X121931020Y-88755780D01*
X121988401Y-88566619D01*
X122081583Y-88392288D01*
X122206985Y-88239485D01*
X122359788Y-88114083D01*
X122534120Y-88020901D01*
X122723281Y-87963520D01*
X122920000Y-87944145D01*
X123116720Y-87963520D01*
X123116720Y-87963520D01*
G37*
G36*
X112656720Y-87963520D02*
X112845881Y-88020901D01*
X113020212Y-88114083D01*
X113173015Y-88239485D01*
X113298417Y-88392288D01*
X113391599Y-88566620D01*
X113448980Y-88755781D01*
X113463500Y-88903207D01*
X113463500Y-89096794D01*
X113448980Y-89244220D01*
X113391599Y-89433381D01*
X113298417Y-89607712D01*
X113173015Y-89760515D01*
X113020212Y-89885917D01*
X112845880Y-89979099D01*
X112656719Y-90036480D01*
X112460000Y-90055855D01*
X112263280Y-90036480D01*
X112074119Y-89979099D01*
X111899788Y-89885917D01*
X111746985Y-89760515D01*
X111621583Y-89607712D01*
X111528401Y-89433380D01*
X111471020Y-89244219D01*
X111456500Y-89096793D01*
X111456500Y-88903206D01*
X111471020Y-88755780D01*
X111528401Y-88566619D01*
X111621583Y-88392288D01*
X111746985Y-88239485D01*
X111899788Y-88114083D01*
X112074120Y-88020901D01*
X112263281Y-87963520D01*
X112460000Y-87944145D01*
X112656720Y-87963520D01*
X112656720Y-87963520D01*
G37*
G36*
X110116720Y-87963520D02*
X110305881Y-88020901D01*
X110480212Y-88114083D01*
X110633015Y-88239485D01*
X110758417Y-88392288D01*
X110851599Y-88566620D01*
X110908980Y-88755781D01*
X110923500Y-88903207D01*
X110923500Y-89096794D01*
X110908980Y-89244220D01*
X110851599Y-89433381D01*
X110758417Y-89607712D01*
X110633015Y-89760515D01*
X110480212Y-89885917D01*
X110305880Y-89979099D01*
X110116719Y-90036480D01*
X109920000Y-90055855D01*
X109723280Y-90036480D01*
X109534119Y-89979099D01*
X109359788Y-89885917D01*
X109206985Y-89760515D01*
X109081583Y-89607712D01*
X108988401Y-89433380D01*
X108931020Y-89244219D01*
X108916500Y-89096793D01*
X108916500Y-88903206D01*
X108931020Y-88755780D01*
X108988401Y-88566619D01*
X109081583Y-88392288D01*
X109206985Y-88239485D01*
X109359788Y-88114083D01*
X109534120Y-88020901D01*
X109723281Y-87963520D01*
X109920000Y-87944145D01*
X110116720Y-87963520D01*
X110116720Y-87963520D01*
G37*
G36*
X129003500Y-90051000D02*
X126996500Y-90051000D01*
X126996500Y-87949000D01*
X129003500Y-87949000D01*
X129003500Y-90051000D01*
X129003500Y-90051000D01*
G37*
G36*
X116003500Y-90051000D02*
X113996500Y-90051000D01*
X113996500Y-87949000D01*
X116003500Y-87949000D01*
X116003500Y-90051000D01*
X116003500Y-90051000D01*
G37*
G36*
X134566821Y-86781313D02*
X134566824Y-86781314D01*
X134566825Y-86781314D01*
X134727239Y-86829975D01*
X134727241Y-86829976D01*
X134727244Y-86829977D01*
X134875078Y-86908995D01*
X135004659Y-87015341D01*
X135111005Y-87144922D01*
X135190023Y-87292756D01*
X135238687Y-87453179D01*
X135255117Y-87620000D01*
X135238687Y-87786821D01*
X135238686Y-87786824D01*
X135238686Y-87786825D01*
X135190964Y-87944145D01*
X135190023Y-87947244D01*
X135111005Y-88095078D01*
X135004659Y-88224659D01*
X134875078Y-88331005D01*
X134727244Y-88410023D01*
X134727241Y-88410024D01*
X134727239Y-88410025D01*
X134566825Y-88458686D01*
X134566824Y-88458686D01*
X134566821Y-88458687D01*
X134441804Y-88471000D01*
X133558196Y-88471000D01*
X133433179Y-88458687D01*
X133433176Y-88458686D01*
X133433175Y-88458686D01*
X133272761Y-88410025D01*
X133272759Y-88410024D01*
X133272756Y-88410023D01*
X133124922Y-88331005D01*
X132995341Y-88224659D01*
X132888995Y-88095078D01*
X132809977Y-87947244D01*
X132809037Y-87944145D01*
X132761314Y-87786825D01*
X132761314Y-87786824D01*
X132761313Y-87786821D01*
X132744883Y-87620000D01*
X132761313Y-87453179D01*
X132809977Y-87292756D01*
X132888995Y-87144922D01*
X132995341Y-87015341D01*
X133124922Y-86908995D01*
X133272756Y-86829977D01*
X133272759Y-86829976D01*
X133272761Y-86829975D01*
X133433175Y-86781314D01*
X133433176Y-86781314D01*
X133433179Y-86781313D01*
X133558196Y-86769000D01*
X134441804Y-86769000D01*
X134566821Y-86781313D01*
X134566821Y-86781313D01*
G37*
G36*
X157426821Y-86781313D02*
X157426824Y-86781314D01*
X157426825Y-86781314D01*
X157587239Y-86829975D01*
X157587241Y-86829976D01*
X157587244Y-86829977D01*
X157735078Y-86908995D01*
X157864659Y-87015341D01*
X157971005Y-87144922D01*
X158050023Y-87292756D01*
X158098687Y-87453179D01*
X158115117Y-87620000D01*
X158098687Y-87786821D01*
X158098686Y-87786824D01*
X158098686Y-87786825D01*
X158050964Y-87944145D01*
X158050023Y-87947244D01*
X157971005Y-88095078D01*
X157864659Y-88224659D01*
X157735078Y-88331005D01*
X157587244Y-88410023D01*
X157587241Y-88410024D01*
X157587239Y-88410025D01*
X157426825Y-88458686D01*
X157426824Y-88458686D01*
X157426821Y-88458687D01*
X157301804Y-88471000D01*
X156418196Y-88471000D01*
X156293179Y-88458687D01*
X156293176Y-88458686D01*
X156293175Y-88458686D01*
X156132761Y-88410025D01*
X156132759Y-88410024D01*
X156132756Y-88410023D01*
X155984922Y-88331005D01*
X155855341Y-88224659D01*
X155748995Y-88095078D01*
X155669977Y-87947244D01*
X155669037Y-87944145D01*
X155621314Y-87786825D01*
X155621314Y-87786824D01*
X155621313Y-87786821D01*
X155604883Y-87620000D01*
X155621313Y-87453179D01*
X155669977Y-87292756D01*
X155748995Y-87144922D01*
X155855341Y-87015341D01*
X155984922Y-86908995D01*
X156132756Y-86829977D01*
X156132759Y-86829976D01*
X156132761Y-86829975D01*
X156293175Y-86781314D01*
X156293176Y-86781314D01*
X156293179Y-86781313D01*
X156418196Y-86769000D01*
X157301804Y-86769000D01*
X157426821Y-86781313D01*
X157426821Y-86781313D01*
G37*
G36*
X134566821Y-84241313D02*
X134566824Y-84241314D01*
X134566825Y-84241314D01*
X134727239Y-84289975D01*
X134727241Y-84289976D01*
X134727244Y-84289977D01*
X134875078Y-84368995D01*
X135004659Y-84475341D01*
X135111005Y-84604922D01*
X135190023Y-84752756D01*
X135238687Y-84913179D01*
X135255117Y-85080000D01*
X135238687Y-85246821D01*
X135190023Y-85407244D01*
X135111005Y-85555078D01*
X135004659Y-85684659D01*
X134875078Y-85791005D01*
X134727244Y-85870023D01*
X134727241Y-85870024D01*
X134727239Y-85870025D01*
X134566825Y-85918686D01*
X134566824Y-85918686D01*
X134566821Y-85918687D01*
X134441804Y-85931000D01*
X133558196Y-85931000D01*
X133433179Y-85918687D01*
X133433176Y-85918686D01*
X133433175Y-85918686D01*
X133272761Y-85870025D01*
X133272759Y-85870024D01*
X133272756Y-85870023D01*
X133124922Y-85791005D01*
X132995341Y-85684659D01*
X132888995Y-85555078D01*
X132809977Y-85407244D01*
X132761313Y-85246821D01*
X132744883Y-85080000D01*
X132761313Y-84913179D01*
X132809977Y-84752756D01*
X132888995Y-84604922D01*
X132995341Y-84475341D01*
X133124922Y-84368995D01*
X133272756Y-84289977D01*
X133272759Y-84289976D01*
X133272761Y-84289975D01*
X133433175Y-84241314D01*
X133433176Y-84241314D01*
X133433179Y-84241313D01*
X133558196Y-84229000D01*
X134441804Y-84229000D01*
X134566821Y-84241313D01*
X134566821Y-84241313D01*
G37*
G36*
X157426821Y-84241313D02*
X157426824Y-84241314D01*
X157426825Y-84241314D01*
X157587239Y-84289975D01*
X157587241Y-84289976D01*
X157587244Y-84289977D01*
X157735078Y-84368995D01*
X157864659Y-84475341D01*
X157971005Y-84604922D01*
X158050023Y-84752756D01*
X158098687Y-84913179D01*
X158115117Y-85080000D01*
X158098687Y-85246821D01*
X158050023Y-85407244D01*
X157971005Y-85555078D01*
X157864659Y-85684659D01*
X157735078Y-85791005D01*
X157587244Y-85870023D01*
X157587241Y-85870024D01*
X157587239Y-85870025D01*
X157426825Y-85918686D01*
X157426824Y-85918686D01*
X157426821Y-85918687D01*
X157301804Y-85931000D01*
X156418196Y-85931000D01*
X156293179Y-85918687D01*
X156293176Y-85918686D01*
X156293175Y-85918686D01*
X156132761Y-85870025D01*
X156132759Y-85870024D01*
X156132756Y-85870023D01*
X155984922Y-85791005D01*
X155855341Y-85684659D01*
X155748995Y-85555078D01*
X155669977Y-85407244D01*
X155621313Y-85246821D01*
X155604883Y-85080000D01*
X155621313Y-84913179D01*
X155669977Y-84752756D01*
X155748995Y-84604922D01*
X155855341Y-84475341D01*
X155984922Y-84368995D01*
X156132756Y-84289977D01*
X156132759Y-84289976D01*
X156132761Y-84289975D01*
X156293175Y-84241314D01*
X156293176Y-84241314D01*
X156293179Y-84241313D01*
X156418196Y-84229000D01*
X157301804Y-84229000D01*
X157426821Y-84241313D01*
X157426821Y-84241313D01*
G37*
G36*
X115851000Y-83851000D02*
X114149000Y-83851000D01*
X114149000Y-82149000D01*
X115851000Y-82149000D01*
X115851000Y-83851000D01*
X115851000Y-83851000D01*
G37*
G36*
X128248228Y-82181703D02*
X128403100Y-82245853D01*
X128542481Y-82338985D01*
X128661015Y-82457519D01*
X128754147Y-82596900D01*
X128818297Y-82751772D01*
X128851000Y-82916184D01*
X128851000Y-83083816D01*
X128818297Y-83248228D01*
X128754147Y-83403100D01*
X128661015Y-83542481D01*
X128542481Y-83661015D01*
X128403100Y-83754147D01*
X128248228Y-83818297D01*
X128083816Y-83851000D01*
X127916184Y-83851000D01*
X127751772Y-83818297D01*
X127596900Y-83754147D01*
X127457519Y-83661015D01*
X127338985Y-83542481D01*
X127245853Y-83403100D01*
X127181703Y-83248228D01*
X127149000Y-83083816D01*
X127149000Y-82916184D01*
X127181703Y-82751772D01*
X127245853Y-82596900D01*
X127338985Y-82457519D01*
X127457519Y-82338985D01*
X127596900Y-82245853D01*
X127751772Y-82181703D01*
X127916184Y-82149000D01*
X128083816Y-82149000D01*
X128248228Y-82181703D01*
X128248228Y-82181703D01*
G37*
G36*
X117248228Y-82181703D02*
X117403100Y-82245853D01*
X117542481Y-82338985D01*
X117661015Y-82457519D01*
X117754147Y-82596900D01*
X117818297Y-82751772D01*
X117851000Y-82916184D01*
X117851000Y-83083816D01*
X117818297Y-83248228D01*
X117754147Y-83403100D01*
X117661015Y-83542481D01*
X117542481Y-83661015D01*
X117403100Y-83754147D01*
X117248228Y-83818297D01*
X117083816Y-83851000D01*
X116916184Y-83851000D01*
X116751772Y-83818297D01*
X116596900Y-83754147D01*
X116457519Y-83661015D01*
X116338985Y-83542481D01*
X116245853Y-83403100D01*
X116181703Y-83248228D01*
X116149000Y-83083816D01*
X116149000Y-82916184D01*
X116181703Y-82751772D01*
X116245853Y-82596900D01*
X116338985Y-82457519D01*
X116457519Y-82338985D01*
X116596900Y-82245853D01*
X116751772Y-82181703D01*
X116916184Y-82149000D01*
X117083816Y-82149000D01*
X117248228Y-82181703D01*
X117248228Y-82181703D01*
G37*
G36*
X109851000Y-83851000D02*
X108149000Y-83851000D01*
X108149000Y-82149000D01*
X109851000Y-82149000D01*
X109851000Y-83851000D01*
X109851000Y-83851000D01*
G37*
G36*
X111248228Y-82181703D02*
X111403100Y-82245853D01*
X111542481Y-82338985D01*
X111661015Y-82457519D01*
X111754147Y-82596900D01*
X111818297Y-82751772D01*
X111851000Y-82916184D01*
X111851000Y-83083816D01*
X111818297Y-83248228D01*
X111754147Y-83403100D01*
X111661015Y-83542481D01*
X111542481Y-83661015D01*
X111403100Y-83754147D01*
X111248228Y-83818297D01*
X111083816Y-83851000D01*
X110916184Y-83851000D01*
X110751772Y-83818297D01*
X110596900Y-83754147D01*
X110457519Y-83661015D01*
X110338985Y-83542481D01*
X110245853Y-83403100D01*
X110181703Y-83248228D01*
X110149000Y-83083816D01*
X110149000Y-82916184D01*
X110181703Y-82751772D01*
X110245853Y-82596900D01*
X110338985Y-82457519D01*
X110457519Y-82338985D01*
X110596900Y-82245853D01*
X110751772Y-82181703D01*
X110916184Y-82149000D01*
X111083816Y-82149000D01*
X111248228Y-82181703D01*
X111248228Y-82181703D01*
G37*
G36*
X123851000Y-83851000D02*
X122149000Y-83851000D01*
X122149000Y-82149000D01*
X123851000Y-82149000D01*
X123851000Y-83851000D01*
X123851000Y-83851000D01*
G37*
G36*
X157426821Y-81701313D02*
X157426824Y-81701314D01*
X157426825Y-81701314D01*
X157587239Y-81749975D01*
X157587241Y-81749976D01*
X157587244Y-81749977D01*
X157735078Y-81828995D01*
X157864659Y-81935341D01*
X157971005Y-82064922D01*
X158050023Y-82212756D01*
X158050024Y-82212759D01*
X158050025Y-82212761D01*
X158088315Y-82338986D01*
X158098687Y-82373179D01*
X158115117Y-82540000D01*
X158098687Y-82706821D01*
X158050023Y-82867244D01*
X157971005Y-83015078D01*
X157864659Y-83144659D01*
X157735078Y-83251005D01*
X157587244Y-83330023D01*
X157587241Y-83330024D01*
X157587239Y-83330025D01*
X157426825Y-83378686D01*
X157426824Y-83378686D01*
X157426821Y-83378687D01*
X157301804Y-83391000D01*
X156418196Y-83391000D01*
X156293179Y-83378687D01*
X156293176Y-83378686D01*
X156293175Y-83378686D01*
X156132761Y-83330025D01*
X156132759Y-83330024D01*
X156132756Y-83330023D01*
X155984922Y-83251005D01*
X155855341Y-83144659D01*
X155748995Y-83015078D01*
X155669977Y-82867244D01*
X155621313Y-82706821D01*
X155604883Y-82540000D01*
X155621313Y-82373179D01*
X155631685Y-82338986D01*
X155669975Y-82212761D01*
X155669976Y-82212759D01*
X155669977Y-82212756D01*
X155748995Y-82064922D01*
X155855341Y-81935341D01*
X155984922Y-81828995D01*
X156132756Y-81749977D01*
X156132759Y-81749976D01*
X156132761Y-81749975D01*
X156293175Y-81701314D01*
X156293176Y-81701314D01*
X156293179Y-81701313D01*
X156418196Y-81689000D01*
X157301804Y-81689000D01*
X157426821Y-81701313D01*
X157426821Y-81701313D01*
G37*
G36*
X134566821Y-81701313D02*
X134566824Y-81701314D01*
X134566825Y-81701314D01*
X134727239Y-81749975D01*
X134727241Y-81749976D01*
X134727244Y-81749977D01*
X134875078Y-81828995D01*
X135004659Y-81935341D01*
X135111005Y-82064922D01*
X135190023Y-82212756D01*
X135190024Y-82212759D01*
X135190025Y-82212761D01*
X135228315Y-82338986D01*
X135238687Y-82373179D01*
X135255117Y-82540000D01*
X135238687Y-82706821D01*
X135190023Y-82867244D01*
X135111005Y-83015078D01*
X135004659Y-83144659D01*
X134875078Y-83251005D01*
X134727244Y-83330023D01*
X134727241Y-83330024D01*
X134727239Y-83330025D01*
X134566825Y-83378686D01*
X134566824Y-83378686D01*
X134566821Y-83378687D01*
X134441804Y-83391000D01*
X133558196Y-83391000D01*
X133433179Y-83378687D01*
X133433176Y-83378686D01*
X133433175Y-83378686D01*
X133272761Y-83330025D01*
X133272759Y-83330024D01*
X133272756Y-83330023D01*
X133124922Y-83251005D01*
X132995341Y-83144659D01*
X132888995Y-83015078D01*
X132809977Y-82867244D01*
X132761313Y-82706821D01*
X132744883Y-82540000D01*
X132761313Y-82373179D01*
X132771685Y-82338986D01*
X132809975Y-82212761D01*
X132809976Y-82212759D01*
X132809977Y-82212756D01*
X132888995Y-82064922D01*
X132995341Y-81935341D01*
X133124922Y-81828995D01*
X133272756Y-81749977D01*
X133272759Y-81749976D01*
X133272761Y-81749975D01*
X133433175Y-81701314D01*
X133433176Y-81701314D01*
X133433179Y-81701313D01*
X133558196Y-81689000D01*
X134441804Y-81689000D01*
X134566821Y-81701313D01*
X134566821Y-81701313D01*
G37*
G36*
X134566821Y-79161313D02*
X134566824Y-79161314D01*
X134566825Y-79161314D01*
X134727239Y-79209975D01*
X134727241Y-79209976D01*
X134727244Y-79209977D01*
X134875078Y-79288995D01*
X135004659Y-79395341D01*
X135111005Y-79524922D01*
X135190023Y-79672756D01*
X135238687Y-79833179D01*
X135255117Y-80000000D01*
X135238687Y-80166821D01*
X135190023Y-80327244D01*
X135111005Y-80475078D01*
X135004659Y-80604659D01*
X134875078Y-80711005D01*
X134727244Y-80790023D01*
X134727241Y-80790024D01*
X134727239Y-80790025D01*
X134566825Y-80838686D01*
X134566824Y-80838686D01*
X134566821Y-80838687D01*
X134441804Y-80851000D01*
X133558196Y-80851000D01*
X133433179Y-80838687D01*
X133433176Y-80838686D01*
X133433175Y-80838686D01*
X133272761Y-80790025D01*
X133272759Y-80790024D01*
X133272756Y-80790023D01*
X133124922Y-80711005D01*
X132995341Y-80604659D01*
X132888995Y-80475078D01*
X132809977Y-80327244D01*
X132761313Y-80166821D01*
X132744883Y-80000000D01*
X132761313Y-79833179D01*
X132809977Y-79672756D01*
X132888995Y-79524922D01*
X132995341Y-79395341D01*
X133124922Y-79288995D01*
X133272756Y-79209977D01*
X133272759Y-79209976D01*
X133272761Y-79209975D01*
X133433175Y-79161314D01*
X133433176Y-79161314D01*
X133433179Y-79161313D01*
X133558196Y-79149000D01*
X134441804Y-79149000D01*
X134566821Y-79161313D01*
X134566821Y-79161313D01*
G37*
G36*
X157426821Y-79161313D02*
X157426824Y-79161314D01*
X157426825Y-79161314D01*
X157587239Y-79209975D01*
X157587241Y-79209976D01*
X157587244Y-79209977D01*
X157735078Y-79288995D01*
X157864659Y-79395341D01*
X157971005Y-79524922D01*
X158050023Y-79672756D01*
X158098687Y-79833179D01*
X158115117Y-80000000D01*
X158098687Y-80166821D01*
X158050023Y-80327244D01*
X157971005Y-80475078D01*
X157864659Y-80604659D01*
X157735078Y-80711005D01*
X157587244Y-80790023D01*
X157587241Y-80790024D01*
X157587239Y-80790025D01*
X157426825Y-80838686D01*
X157426824Y-80838686D01*
X157426821Y-80838687D01*
X157301804Y-80851000D01*
X156418196Y-80851000D01*
X156293179Y-80838687D01*
X156293176Y-80838686D01*
X156293175Y-80838686D01*
X156132761Y-80790025D01*
X156132759Y-80790024D01*
X156132756Y-80790023D01*
X155984922Y-80711005D01*
X155855341Y-80604659D01*
X155748995Y-80475078D01*
X155669977Y-80327244D01*
X155621313Y-80166821D01*
X155604883Y-80000000D01*
X155621313Y-79833179D01*
X155669977Y-79672756D01*
X155748995Y-79524922D01*
X155855341Y-79395341D01*
X155984922Y-79288995D01*
X156132756Y-79209977D01*
X156132759Y-79209976D01*
X156132761Y-79209975D01*
X156293175Y-79161314D01*
X156293176Y-79161314D01*
X156293179Y-79161313D01*
X156418196Y-79149000D01*
X157301804Y-79149000D01*
X157426821Y-79161313D01*
X157426821Y-79161313D01*
G37*
G36*
X165598252Y-73027818D02*
X165598254Y-73027819D01*
X165598255Y-73027819D01*
X165971513Y-73182427D01*
X165971514Y-73182428D01*
X166307439Y-73406886D01*
X166593114Y-73692561D01*
X166593116Y-73692564D01*
X166817573Y-74028487D01*
X166941066Y-74326627D01*
X166972182Y-74401748D01*
X167048614Y-74786000D01*
X167051000Y-74797994D01*
X167051000Y-75202006D01*
X166972181Y-75598255D01*
X166817573Y-75971513D01*
X166817572Y-75971514D01*
X166593114Y-76307439D01*
X166307439Y-76593114D01*
X166307436Y-76593116D01*
X165971513Y-76817573D01*
X165598255Y-76972181D01*
X165598254Y-76972181D01*
X165598252Y-76972182D01*
X165202007Y-77051000D01*
X164797993Y-77051000D01*
X164401748Y-76972182D01*
X164401746Y-76972181D01*
X164401745Y-76972181D01*
X164028487Y-76817573D01*
X163692564Y-76593116D01*
X163692561Y-76593114D01*
X163406886Y-76307439D01*
X163182428Y-75971514D01*
X163182427Y-75971513D01*
X163027819Y-75598255D01*
X162949000Y-75202006D01*
X162949000Y-74797994D01*
X162951386Y-74786000D01*
X163027818Y-74401748D01*
X163058934Y-74326627D01*
X163182427Y-74028487D01*
X163406884Y-73692564D01*
X163406886Y-73692561D01*
X163692561Y-73406886D01*
X164028486Y-73182428D01*
X164028487Y-73182427D01*
X164401745Y-73027819D01*
X164401746Y-73027819D01*
X164401748Y-73027818D01*
X164797993Y-72949000D01*
X165202007Y-72949000D01*
X165598252Y-73027818D01*
X165598252Y-73027818D01*
G37*
G36*
X105598252Y-73027818D02*
X105598254Y-73027819D01*
X105598255Y-73027819D01*
X105971513Y-73182427D01*
X105971514Y-73182428D01*
X106307439Y-73406886D01*
X106593114Y-73692561D01*
X106593116Y-73692564D01*
X106817573Y-74028487D01*
X106941066Y-74326627D01*
X106972182Y-74401748D01*
X107048614Y-74786000D01*
X107051000Y-74797994D01*
X107051000Y-75202006D01*
X106972181Y-75598255D01*
X106817573Y-75971513D01*
X106817572Y-75971514D01*
X106593114Y-76307439D01*
X106307439Y-76593114D01*
X106307436Y-76593116D01*
X105971513Y-76817573D01*
X105598255Y-76972181D01*
X105598254Y-76972181D01*
X105598252Y-76972182D01*
X105202007Y-77051000D01*
X104797993Y-77051000D01*
X104401748Y-76972182D01*
X104401746Y-76972181D01*
X104401745Y-76972181D01*
X104028487Y-76817573D01*
X103692564Y-76593116D01*
X103692561Y-76593114D01*
X103406886Y-76307439D01*
X103182428Y-75971514D01*
X103182427Y-75971513D01*
X103027819Y-75598255D01*
X102949000Y-75202006D01*
X102949000Y-74797994D01*
X102951386Y-74786000D01*
X103027818Y-74401748D01*
X103058934Y-74326627D01*
X103182427Y-74028487D01*
X103406884Y-73692564D01*
X103406886Y-73692561D01*
X103692561Y-73406886D01*
X104028486Y-73182428D01*
X104028487Y-73182427D01*
X104401745Y-73027819D01*
X104401746Y-73027819D01*
X104401748Y-73027818D01*
X104797993Y-72949000D01*
X105202007Y-72949000D01*
X105598252Y-73027818D01*
X105598252Y-73027818D01*
G37*
G36*
X115716626Y-72962037D02*
X115829852Y-72996384D01*
X115886466Y-73013557D01*
X116042989Y-73097221D01*
X116180186Y-73209814D01*
X116263448Y-73311271D01*
X116292778Y-73347009D01*
X116292779Y-73347011D01*
X116376443Y-73503533D01*
X116393616Y-73560147D01*
X116427963Y-73673373D01*
X116441000Y-73805742D01*
X116441000Y-74194257D01*
X116427963Y-74326626D01*
X116376443Y-74496466D01*
X116292778Y-74652991D01*
X116292777Y-74652992D01*
X116180186Y-74790186D01*
X116085251Y-74868096D01*
X116042991Y-74902778D01*
X116042989Y-74902779D01*
X115886467Y-74986443D01*
X115845734Y-74998799D01*
X115716627Y-75037963D01*
X115540000Y-75055359D01*
X115363374Y-75037963D01*
X115234267Y-74998799D01*
X115193534Y-74986443D01*
X115037012Y-74902779D01*
X115037010Y-74902778D01*
X114899816Y-74790186D01*
X114899812Y-74790183D01*
X114787222Y-74652992D01*
X114703557Y-74496467D01*
X114674824Y-74401745D01*
X114652037Y-74326627D01*
X114639000Y-74194258D01*
X114639000Y-73805743D01*
X114652037Y-73673374D01*
X114703557Y-73503535D01*
X114703557Y-73503534D01*
X114787221Y-73347011D01*
X114899814Y-73209814D01*
X115001271Y-73126552D01*
X115037009Y-73097222D01*
X115054913Y-73087652D01*
X115193533Y-73013557D01*
X115250147Y-72996384D01*
X115363373Y-72962037D01*
X115540000Y-72944641D01*
X115716626Y-72962037D01*
X115716626Y-72962037D01*
G37*
G36*
X127716626Y-72962037D02*
X127829852Y-72996384D01*
X127886466Y-73013557D01*
X128042989Y-73097221D01*
X128180186Y-73209814D01*
X128263448Y-73311271D01*
X128292778Y-73347009D01*
X128292779Y-73347011D01*
X128376443Y-73503533D01*
X128393616Y-73560147D01*
X128427963Y-73673373D01*
X128441000Y-73805742D01*
X128441000Y-74194257D01*
X128427963Y-74326626D01*
X128376443Y-74496466D01*
X128292778Y-74652991D01*
X128292777Y-74652992D01*
X128180186Y-74790186D01*
X128085251Y-74868096D01*
X128042991Y-74902778D01*
X128042989Y-74902779D01*
X127886467Y-74986443D01*
X127845734Y-74998799D01*
X127716627Y-75037963D01*
X127540000Y-75055359D01*
X127363374Y-75037963D01*
X127234267Y-74998799D01*
X127193534Y-74986443D01*
X127037012Y-74902779D01*
X127037010Y-74902778D01*
X126899816Y-74790186D01*
X126899812Y-74790183D01*
X126787222Y-74652992D01*
X126703557Y-74496467D01*
X126674824Y-74401745D01*
X126652037Y-74326627D01*
X126639000Y-74194258D01*
X126639000Y-73805743D01*
X126652037Y-73673374D01*
X126703557Y-73503535D01*
X126703557Y-73503534D01*
X126787221Y-73347011D01*
X126899814Y-73209814D01*
X127001271Y-73126552D01*
X127037009Y-73097222D01*
X127054913Y-73087652D01*
X127193533Y-73013557D01*
X127250147Y-72996384D01*
X127363373Y-72962037D01*
X127540000Y-72944641D01*
X127716626Y-72962037D01*
X127716626Y-72962037D01*
G37*
G36*
X125758600Y-72952989D02*
X125791649Y-72963014D01*
X125822106Y-72979294D01*
X125848799Y-73001201D01*
X125870706Y-73027894D01*
X125886986Y-73058351D01*
X125897011Y-73091400D01*
X125901000Y-73131904D01*
X125901000Y-74868096D01*
X125897011Y-74908600D01*
X125886986Y-74941649D01*
X125870706Y-74972106D01*
X125848799Y-74998799D01*
X125822106Y-75020706D01*
X125791649Y-75036986D01*
X125758600Y-75047011D01*
X125718096Y-75051000D01*
X124281904Y-75051000D01*
X124241400Y-75047011D01*
X124208351Y-75036986D01*
X124177894Y-75020706D01*
X124151201Y-74998799D01*
X124129294Y-74972106D01*
X124113014Y-74941649D01*
X124102989Y-74908600D01*
X124099000Y-74868096D01*
X124099000Y-73131904D01*
X124102989Y-73091400D01*
X124113014Y-73058351D01*
X124129294Y-73027894D01*
X124151201Y-73001201D01*
X124177894Y-72979294D01*
X124208351Y-72963014D01*
X124241400Y-72952989D01*
X124281904Y-72949000D01*
X125718096Y-72949000D01*
X125758600Y-72952989D01*
X125758600Y-72952989D01*
G37*
G36*
X113758600Y-72952989D02*
X113791649Y-72963014D01*
X113822106Y-72979294D01*
X113848799Y-73001201D01*
X113870706Y-73027894D01*
X113886986Y-73058351D01*
X113897011Y-73091400D01*
X113901000Y-73131904D01*
X113901000Y-74868096D01*
X113897011Y-74908600D01*
X113886986Y-74941649D01*
X113870706Y-74972106D01*
X113848799Y-74998799D01*
X113822106Y-75020706D01*
X113791649Y-75036986D01*
X113758600Y-75047011D01*
X113718096Y-75051000D01*
X112281904Y-75051000D01*
X112241400Y-75047011D01*
X112208351Y-75036986D01*
X112177894Y-75020706D01*
X112151201Y-74998799D01*
X112129294Y-74972106D01*
X112113014Y-74941649D01*
X112102989Y-74908600D01*
X112099000Y-74868096D01*
X112099000Y-73131904D01*
X112102989Y-73091400D01*
X112113014Y-73058351D01*
X112129294Y-73027894D01*
X112151201Y-73001201D01*
X112177894Y-72979294D01*
X112208351Y-72963014D01*
X112241400Y-72952989D01*
X112281904Y-72949000D01*
X113718096Y-72949000D01*
X113758600Y-72952989D01*
X113758600Y-72952989D01*
G37*
M02*
