G04 #@! TF.GenerationSoftware,KiCad,Pcbnew,(5.0.1-3-g963ef8bb5)*
G04 #@! TF.CreationDate,2018-11-18T00:16:37+02:00*
G04 #@! TF.ProjectId,volaser,766F6C617365722E6B696361645F7063,rev?*
G04 #@! TF.SameCoordinates,Original*
G04 #@! TF.FileFunction,Soldermask,Bot*
G04 #@! TF.FilePolarity,Negative*
%FSLAX46Y46*%
G04 Gerber Fmt 4.6, Leading zero omitted, Abs format (unit mm)*
G04 Created by KiCad (PCBNEW (5.0.1-3-g963ef8bb5)) date Sunday, November 18, 2018 at 12:16:37 AM*
%MOMM*%
%LPD*%
G01*
G04 APERTURE LIST*
%ADD10C,0.100000*%
G04 APERTURE END LIST*
D10*
G36*
X115599560Y-149483205D02*
X115634711Y-149493869D01*
X115667109Y-149511186D01*
X115695508Y-149534492D01*
X115718814Y-149562891D01*
X115736131Y-149595289D01*
X115746795Y-149630440D01*
X115751000Y-149673140D01*
X115751000Y-150286860D01*
X115746795Y-150329560D01*
X115736131Y-150364711D01*
X115718814Y-150397109D01*
X115695508Y-150425508D01*
X115667109Y-150448814D01*
X115634711Y-150466131D01*
X115599560Y-150476795D01*
X115556860Y-150481000D01*
X115301049Y-150481000D01*
X115276663Y-150483402D01*
X115253214Y-150490515D01*
X115231603Y-150502066D01*
X115212661Y-150517612D01*
X115197115Y-150536554D01*
X115185564Y-150558165D01*
X115178451Y-150581614D01*
X115176049Y-150606000D01*
X115178451Y-150630386D01*
X115185564Y-150653835D01*
X115197115Y-150675446D01*
X115212661Y-150694388D01*
X115231603Y-150709934D01*
X115253214Y-150721485D01*
X115288789Y-150730396D01*
X115348213Y-150736249D01*
X115442652Y-150764897D01*
X115529687Y-150811418D01*
X115605975Y-150874025D01*
X115668582Y-150950313D01*
X115715103Y-151037348D01*
X115743751Y-151131787D01*
X115753424Y-151230000D01*
X115743751Y-151328213D01*
X115715103Y-151422652D01*
X115668582Y-151509687D01*
X115605975Y-151585975D01*
X115529687Y-151648582D01*
X115442652Y-151695103D01*
X115348213Y-151723751D01*
X115278633Y-151730604D01*
X115254610Y-151735383D01*
X115231971Y-151744760D01*
X115211596Y-151758374D01*
X115194269Y-151775701D01*
X115180656Y-151796076D01*
X115171278Y-151818715D01*
X115166498Y-151842748D01*
X115166498Y-151867253D01*
X115171279Y-151891286D01*
X115180656Y-151913925D01*
X115194270Y-151934300D01*
X115211597Y-151951627D01*
X115231972Y-151965240D01*
X115254611Y-151974618D01*
X115278633Y-151979396D01*
X115348213Y-151986249D01*
X115442652Y-152014897D01*
X115529687Y-152061418D01*
X115605975Y-152124025D01*
X115668582Y-152200313D01*
X115715103Y-152287348D01*
X115743751Y-152381787D01*
X115753424Y-152480000D01*
X115743751Y-152578213D01*
X115715103Y-152672652D01*
X115668582Y-152759687D01*
X115605975Y-152835975D01*
X115529687Y-152898582D01*
X115442652Y-152945103D01*
X115348213Y-152973751D01*
X115278633Y-152980604D01*
X115254610Y-152985383D01*
X115231971Y-152994760D01*
X115211596Y-153008374D01*
X115194269Y-153025701D01*
X115180656Y-153046076D01*
X115171278Y-153068715D01*
X115166498Y-153092748D01*
X115166498Y-153117253D01*
X115171279Y-153141286D01*
X115180656Y-153163925D01*
X115194270Y-153184300D01*
X115211597Y-153201627D01*
X115231972Y-153215240D01*
X115254611Y-153224618D01*
X115278633Y-153229396D01*
X115348213Y-153236249D01*
X115442652Y-153264897D01*
X115529687Y-153311418D01*
X115605975Y-153374025D01*
X115668582Y-153450313D01*
X115715103Y-153537348D01*
X115743751Y-153631787D01*
X115753424Y-153730000D01*
X115743751Y-153828213D01*
X115715103Y-153922652D01*
X115668582Y-154009687D01*
X115605975Y-154085975D01*
X115529687Y-154148582D01*
X115442652Y-154195103D01*
X115348213Y-154223751D01*
X115274612Y-154231000D01*
X114725388Y-154231000D01*
X114651787Y-154223751D01*
X114557348Y-154195103D01*
X114470313Y-154148582D01*
X114394025Y-154085975D01*
X114331418Y-154009687D01*
X114284897Y-153922652D01*
X114256249Y-153828213D01*
X114246576Y-153730000D01*
X114256249Y-153631787D01*
X114284897Y-153537348D01*
X114331418Y-153450313D01*
X114394025Y-153374025D01*
X114470313Y-153311418D01*
X114557348Y-153264897D01*
X114651787Y-153236249D01*
X114721367Y-153229396D01*
X114745390Y-153224617D01*
X114768029Y-153215240D01*
X114788404Y-153201626D01*
X114805731Y-153184299D01*
X114819344Y-153163924D01*
X114828722Y-153141285D01*
X114833502Y-153117252D01*
X114833502Y-153092747D01*
X114828721Y-153068714D01*
X114819344Y-153046075D01*
X114805730Y-153025700D01*
X114788403Y-153008373D01*
X114768028Y-152994760D01*
X114745389Y-152985382D01*
X114721367Y-152980604D01*
X114651787Y-152973751D01*
X114557348Y-152945103D01*
X114470313Y-152898582D01*
X114394025Y-152835975D01*
X114331418Y-152759687D01*
X114284897Y-152672652D01*
X114256249Y-152578213D01*
X114246576Y-152480000D01*
X114256249Y-152381787D01*
X114284897Y-152287348D01*
X114331418Y-152200313D01*
X114394025Y-152124025D01*
X114470313Y-152061418D01*
X114557348Y-152014897D01*
X114651787Y-151986249D01*
X114721367Y-151979396D01*
X114745390Y-151974617D01*
X114768029Y-151965240D01*
X114788404Y-151951626D01*
X114805731Y-151934299D01*
X114819344Y-151913924D01*
X114828722Y-151891285D01*
X114833502Y-151867252D01*
X114833502Y-151842747D01*
X114828721Y-151818714D01*
X114819344Y-151796075D01*
X114805730Y-151775700D01*
X114788403Y-151758373D01*
X114768028Y-151744760D01*
X114745389Y-151735382D01*
X114721367Y-151730604D01*
X114651787Y-151723751D01*
X114557348Y-151695103D01*
X114470313Y-151648582D01*
X114394025Y-151585975D01*
X114331418Y-151509687D01*
X114284897Y-151422652D01*
X114256249Y-151328213D01*
X114246576Y-151230000D01*
X114256249Y-151131787D01*
X114284897Y-151037348D01*
X114331418Y-150950313D01*
X114394025Y-150874025D01*
X114470313Y-150811418D01*
X114557348Y-150764897D01*
X114651787Y-150736249D01*
X114711214Y-150730396D01*
X114735237Y-150725617D01*
X114757876Y-150716240D01*
X114778251Y-150702626D01*
X114795578Y-150685299D01*
X114809191Y-150664924D01*
X114818569Y-150642285D01*
X114823349Y-150618252D01*
X114823349Y-150593747D01*
X114818568Y-150569714D01*
X114809191Y-150547075D01*
X114795577Y-150526700D01*
X114778250Y-150509373D01*
X114757875Y-150495760D01*
X114735236Y-150486382D01*
X114698951Y-150481000D01*
X114443140Y-150481000D01*
X114400440Y-150476795D01*
X114365289Y-150466131D01*
X114332891Y-150448814D01*
X114304492Y-150425508D01*
X114281186Y-150397109D01*
X114263869Y-150364711D01*
X114253205Y-150329560D01*
X114249000Y-150286860D01*
X114249000Y-149673140D01*
X114253205Y-149630440D01*
X114263869Y-149595289D01*
X114281186Y-149562891D01*
X114304492Y-149534492D01*
X114332891Y-149511186D01*
X114365289Y-149493869D01*
X114400440Y-149483205D01*
X114443140Y-149479000D01*
X115556860Y-149479000D01*
X115599560Y-149483205D01*
X115599560Y-149483205D01*
G37*
G36*
X95348213Y-149332249D02*
X95442652Y-149360897D01*
X95529687Y-149407418D01*
X95605975Y-149470025D01*
X95668582Y-149546313D01*
X95715103Y-149633348D01*
X95743751Y-149727787D01*
X95753424Y-149826000D01*
X95743751Y-149924213D01*
X95715103Y-150018652D01*
X95668582Y-150105687D01*
X95605975Y-150181975D01*
X95529687Y-150244582D01*
X95442652Y-150291103D01*
X95348213Y-150319751D01*
X95278633Y-150326604D01*
X95254610Y-150331383D01*
X95231971Y-150340760D01*
X95211596Y-150354374D01*
X95194269Y-150371701D01*
X95180656Y-150392076D01*
X95171278Y-150414715D01*
X95166498Y-150438748D01*
X95166498Y-150463253D01*
X95171279Y-150487286D01*
X95180656Y-150509925D01*
X95194270Y-150530300D01*
X95211597Y-150547627D01*
X95231972Y-150561240D01*
X95254611Y-150570618D01*
X95278633Y-150575396D01*
X95348213Y-150582249D01*
X95442652Y-150610897D01*
X95529687Y-150657418D01*
X95605975Y-150720025D01*
X95668582Y-150796313D01*
X95715103Y-150883348D01*
X95743751Y-150977787D01*
X95753424Y-151076000D01*
X95743751Y-151174213D01*
X95715103Y-151268652D01*
X95668582Y-151355687D01*
X95605975Y-151431975D01*
X95529687Y-151494582D01*
X95442652Y-151541103D01*
X95348213Y-151569751D01*
X95278633Y-151576604D01*
X95254610Y-151581383D01*
X95231971Y-151590760D01*
X95211596Y-151604374D01*
X95194269Y-151621701D01*
X95180656Y-151642076D01*
X95171278Y-151664715D01*
X95166498Y-151688748D01*
X95166498Y-151713253D01*
X95171279Y-151737286D01*
X95180656Y-151759925D01*
X95194270Y-151780300D01*
X95211597Y-151797627D01*
X95231972Y-151811240D01*
X95254611Y-151820618D01*
X95278633Y-151825396D01*
X95348213Y-151832249D01*
X95442652Y-151860897D01*
X95529687Y-151907418D01*
X95605975Y-151970025D01*
X95668582Y-152046313D01*
X95715103Y-152133348D01*
X95743751Y-152227787D01*
X95753424Y-152326000D01*
X95743751Y-152424213D01*
X95715103Y-152518652D01*
X95668582Y-152605687D01*
X95605975Y-152681975D01*
X95529687Y-152744582D01*
X95442652Y-152791103D01*
X95348213Y-152819751D01*
X95288786Y-152825604D01*
X95264763Y-152830383D01*
X95242124Y-152839760D01*
X95221749Y-152853374D01*
X95204422Y-152870701D01*
X95190809Y-152891076D01*
X95181431Y-152913715D01*
X95176651Y-152937748D01*
X95176651Y-152962253D01*
X95181432Y-152986286D01*
X95190809Y-153008925D01*
X95204423Y-153029300D01*
X95221750Y-153046627D01*
X95242125Y-153060240D01*
X95264764Y-153069618D01*
X95301049Y-153075000D01*
X95556860Y-153075000D01*
X95599560Y-153079205D01*
X95634711Y-153089869D01*
X95667109Y-153107186D01*
X95695508Y-153130492D01*
X95718814Y-153158891D01*
X95736131Y-153191289D01*
X95746795Y-153226440D01*
X95751000Y-153269140D01*
X95751000Y-153882860D01*
X95746795Y-153925560D01*
X95736131Y-153960711D01*
X95718814Y-153993109D01*
X95695508Y-154021508D01*
X95667109Y-154044814D01*
X95634711Y-154062131D01*
X95599560Y-154072795D01*
X95556860Y-154077000D01*
X94443140Y-154077000D01*
X94400440Y-154072795D01*
X94365289Y-154062131D01*
X94332891Y-154044814D01*
X94304492Y-154021508D01*
X94281186Y-153993109D01*
X94263869Y-153960711D01*
X94253205Y-153925560D01*
X94249000Y-153882860D01*
X94249000Y-153269140D01*
X94253205Y-153226440D01*
X94263869Y-153191289D01*
X94281186Y-153158891D01*
X94304492Y-153130492D01*
X94332891Y-153107186D01*
X94365289Y-153089869D01*
X94400440Y-153079205D01*
X94443140Y-153075000D01*
X94698951Y-153075000D01*
X94723337Y-153072598D01*
X94746786Y-153065485D01*
X94768397Y-153053934D01*
X94787339Y-153038388D01*
X94802885Y-153019446D01*
X94814436Y-152997835D01*
X94821549Y-152974386D01*
X94823951Y-152950000D01*
X94821549Y-152925614D01*
X94814436Y-152902165D01*
X94802885Y-152880554D01*
X94787339Y-152861612D01*
X94768397Y-152846066D01*
X94746786Y-152834515D01*
X94711211Y-152825604D01*
X94651787Y-152819751D01*
X94557348Y-152791103D01*
X94470313Y-152744582D01*
X94394025Y-152681975D01*
X94331418Y-152605687D01*
X94284897Y-152518652D01*
X94256249Y-152424213D01*
X94246576Y-152326000D01*
X94256249Y-152227787D01*
X94284897Y-152133348D01*
X94331418Y-152046313D01*
X94394025Y-151970025D01*
X94470313Y-151907418D01*
X94557348Y-151860897D01*
X94651787Y-151832249D01*
X94721367Y-151825396D01*
X94745390Y-151820617D01*
X94768029Y-151811240D01*
X94788404Y-151797626D01*
X94805731Y-151780299D01*
X94819344Y-151759924D01*
X94828722Y-151737285D01*
X94833502Y-151713252D01*
X94833502Y-151688747D01*
X94828721Y-151664714D01*
X94819344Y-151642075D01*
X94805730Y-151621700D01*
X94788403Y-151604373D01*
X94768028Y-151590760D01*
X94745389Y-151581382D01*
X94721367Y-151576604D01*
X94651787Y-151569751D01*
X94557348Y-151541103D01*
X94470313Y-151494582D01*
X94394025Y-151431975D01*
X94331418Y-151355687D01*
X94284897Y-151268652D01*
X94256249Y-151174213D01*
X94246576Y-151076000D01*
X94256249Y-150977787D01*
X94284897Y-150883348D01*
X94331418Y-150796313D01*
X94394025Y-150720025D01*
X94470313Y-150657418D01*
X94557348Y-150610897D01*
X94651787Y-150582249D01*
X94721367Y-150575396D01*
X94745390Y-150570617D01*
X94768029Y-150561240D01*
X94788404Y-150547626D01*
X94805731Y-150530299D01*
X94819344Y-150509924D01*
X94828722Y-150487285D01*
X94833502Y-150463252D01*
X94833502Y-150438747D01*
X94828721Y-150414714D01*
X94819344Y-150392075D01*
X94805730Y-150371700D01*
X94788403Y-150354373D01*
X94768028Y-150340760D01*
X94745389Y-150331382D01*
X94721367Y-150326604D01*
X94651787Y-150319751D01*
X94557348Y-150291103D01*
X94470313Y-150244582D01*
X94394025Y-150181975D01*
X94331418Y-150105687D01*
X94284897Y-150018652D01*
X94256249Y-149924213D01*
X94246576Y-149826000D01*
X94256249Y-149727787D01*
X94284897Y-149633348D01*
X94331418Y-149546313D01*
X94394025Y-149470025D01*
X94470313Y-149407418D01*
X94557348Y-149360897D01*
X94651787Y-149332249D01*
X94725388Y-149325000D01*
X95274612Y-149325000D01*
X95348213Y-149332249D01*
X95348213Y-149332249D01*
G37*
G36*
X109235442Y-151725518D02*
X109301627Y-151732037D01*
X109414853Y-151766384D01*
X109471467Y-151783557D01*
X109580625Y-151841904D01*
X109627991Y-151867222D01*
X109657312Y-151891285D01*
X109765186Y-151979814D01*
X109832157Y-152061420D01*
X109877778Y-152117009D01*
X109877779Y-152117011D01*
X109961443Y-152273533D01*
X109977358Y-152326000D01*
X110012963Y-152443373D01*
X110030359Y-152620000D01*
X110012963Y-152796627D01*
X109997966Y-152846066D01*
X109961443Y-152966467D01*
X109908516Y-153065485D01*
X109877778Y-153122991D01*
X109856950Y-153148370D01*
X109765186Y-153260186D01*
X109694007Y-153318600D01*
X109627991Y-153372778D01*
X109627989Y-153372779D01*
X109471467Y-153456443D01*
X109456444Y-153461000D01*
X109301627Y-153507963D01*
X109235442Y-153514482D01*
X109169260Y-153521000D01*
X108830740Y-153521000D01*
X108764558Y-153514482D01*
X108698373Y-153507963D01*
X108543556Y-153461000D01*
X108528533Y-153456443D01*
X108372011Y-153372779D01*
X108372009Y-153372778D01*
X108305993Y-153318600D01*
X108234814Y-153260186D01*
X108143050Y-153148370D01*
X108122222Y-153122991D01*
X108091484Y-153065485D01*
X108038557Y-152966467D01*
X108002034Y-152846066D01*
X107987037Y-152796627D01*
X107969641Y-152620000D01*
X107987037Y-152443373D01*
X108022642Y-152326000D01*
X108038557Y-152273533D01*
X108122221Y-152117011D01*
X108122222Y-152117009D01*
X108167843Y-152061420D01*
X108234814Y-151979814D01*
X108342688Y-151891285D01*
X108372009Y-151867222D01*
X108419375Y-151841904D01*
X108528533Y-151783557D01*
X108585147Y-151766384D01*
X108698373Y-151732037D01*
X108764558Y-151725518D01*
X108830740Y-151719000D01*
X109169260Y-151719000D01*
X109235442Y-151725518D01*
X109235442Y-151725518D01*
G37*
G36*
X101883600Y-151662989D02*
X101916649Y-151673014D01*
X101947106Y-151689294D01*
X101973799Y-151711201D01*
X101995706Y-151737894D01*
X102011986Y-151768351D01*
X102022011Y-151801400D01*
X102026000Y-151841904D01*
X102026000Y-153278096D01*
X102022011Y-153318600D01*
X102011986Y-153351649D01*
X101995706Y-153382106D01*
X101973799Y-153408799D01*
X101947106Y-153430706D01*
X101916649Y-153446986D01*
X101883600Y-153457011D01*
X101843096Y-153461000D01*
X100156904Y-153461000D01*
X100116400Y-153457011D01*
X100083351Y-153446986D01*
X100052894Y-153430706D01*
X100026201Y-153408799D01*
X100004294Y-153382106D01*
X99988014Y-153351649D01*
X99977989Y-153318600D01*
X99974000Y-153278096D01*
X99974000Y-151841904D01*
X99977989Y-151801400D01*
X99988014Y-151768351D01*
X100004294Y-151737894D01*
X100026201Y-151711201D01*
X100052894Y-151689294D01*
X100083351Y-151673014D01*
X100116400Y-151662989D01*
X100156904Y-151659000D01*
X101843096Y-151659000D01*
X101883600Y-151662989D01*
X101883600Y-151662989D01*
G37*
G36*
X109215527Y-149183557D02*
X109301627Y-149192037D01*
X109414853Y-149226384D01*
X109471467Y-149243557D01*
X109515740Y-149267222D01*
X109627991Y-149327222D01*
X109663729Y-149356552D01*
X109765186Y-149439814D01*
X109842885Y-149534492D01*
X109877778Y-149577009D01*
X109877779Y-149577011D01*
X109961443Y-149733533D01*
X109961443Y-149733534D01*
X110012963Y-149903373D01*
X110030359Y-150080000D01*
X110012963Y-150256627D01*
X109983312Y-150354373D01*
X109961443Y-150426467D01*
X109905943Y-150530299D01*
X109877778Y-150582991D01*
X109858895Y-150606000D01*
X109765186Y-150720186D01*
X109663729Y-150803448D01*
X109627991Y-150832778D01*
X109627989Y-150832779D01*
X109471467Y-150916443D01*
X109456444Y-150921000D01*
X109301627Y-150967963D01*
X109235442Y-150974482D01*
X109169260Y-150981000D01*
X108830740Y-150981000D01*
X108764558Y-150974482D01*
X108698373Y-150967963D01*
X108543556Y-150921000D01*
X108528533Y-150916443D01*
X108372011Y-150832779D01*
X108372009Y-150832778D01*
X108336271Y-150803448D01*
X108234814Y-150720186D01*
X108141105Y-150606000D01*
X108122222Y-150582991D01*
X108094057Y-150530299D01*
X108038557Y-150426467D01*
X108016688Y-150354373D01*
X107987037Y-150256627D01*
X107969641Y-150080000D01*
X107987037Y-149903373D01*
X108038557Y-149733534D01*
X108038557Y-149733533D01*
X108122221Y-149577011D01*
X108122222Y-149577009D01*
X108157115Y-149534492D01*
X108234814Y-149439814D01*
X108336271Y-149356552D01*
X108372009Y-149327222D01*
X108484260Y-149267222D01*
X108528533Y-149243557D01*
X108585147Y-149226384D01*
X108698373Y-149192037D01*
X108784473Y-149183557D01*
X108830740Y-149179000D01*
X109169260Y-149179000D01*
X109215527Y-149183557D01*
X109215527Y-149183557D01*
G37*
G36*
X101235443Y-149125519D02*
X101301627Y-149132037D01*
X101414853Y-149166384D01*
X101471467Y-149183557D01*
X101583717Y-149243557D01*
X101627991Y-149267222D01*
X101663729Y-149296552D01*
X101765186Y-149379814D01*
X101839219Y-149470025D01*
X101877778Y-149517009D01*
X101877779Y-149517011D01*
X101961443Y-149673533D01*
X101961443Y-149673534D01*
X102012963Y-149843373D01*
X102030359Y-150020000D01*
X102012963Y-150196627D01*
X101998416Y-150244582D01*
X101961443Y-150366467D01*
X101900223Y-150481000D01*
X101877778Y-150522991D01*
X101848911Y-150558165D01*
X101765186Y-150660186D01*
X101672500Y-150736250D01*
X101627991Y-150772778D01*
X101627989Y-150772779D01*
X101471467Y-150856443D01*
X101414853Y-150873616D01*
X101301627Y-150907963D01*
X101235442Y-150914482D01*
X101169260Y-150921000D01*
X100830740Y-150921000D01*
X100764558Y-150914482D01*
X100698373Y-150907963D01*
X100585147Y-150873616D01*
X100528533Y-150856443D01*
X100372011Y-150772779D01*
X100372009Y-150772778D01*
X100327500Y-150736250D01*
X100234814Y-150660186D01*
X100151089Y-150558165D01*
X100122222Y-150522991D01*
X100099777Y-150481000D01*
X100038557Y-150366467D01*
X100001584Y-150244582D01*
X99987037Y-150196627D01*
X99969641Y-150020000D01*
X99987037Y-149843373D01*
X100038557Y-149673534D01*
X100038557Y-149673533D01*
X100122221Y-149517011D01*
X100122222Y-149517009D01*
X100160781Y-149470025D01*
X100234814Y-149379814D01*
X100336271Y-149296552D01*
X100372009Y-149267222D01*
X100416283Y-149243557D01*
X100528533Y-149183557D01*
X100585147Y-149166384D01*
X100698373Y-149132037D01*
X100764557Y-149125519D01*
X100830740Y-149119000D01*
X101169260Y-149119000D01*
X101235443Y-149125519D01*
X101235443Y-149125519D01*
G37*
G36*
X109215527Y-146643557D02*
X109301627Y-146652037D01*
X109414853Y-146686384D01*
X109471467Y-146703557D01*
X109515740Y-146727222D01*
X109627991Y-146787222D01*
X109663729Y-146816552D01*
X109765186Y-146899814D01*
X109828537Y-146977009D01*
X109877778Y-147037009D01*
X109877779Y-147037011D01*
X109961443Y-147193533D01*
X109961443Y-147193534D01*
X110012963Y-147363373D01*
X110030359Y-147540000D01*
X110012963Y-147716627D01*
X109979644Y-147826466D01*
X109961443Y-147886467D01*
X109909850Y-147982989D01*
X109877778Y-148042991D01*
X109848448Y-148078729D01*
X109765186Y-148180186D01*
X109663729Y-148263448D01*
X109627991Y-148292778D01*
X109627989Y-148292779D01*
X109471467Y-148376443D01*
X109456444Y-148381000D01*
X109301627Y-148427963D01*
X109235443Y-148434481D01*
X109169260Y-148441000D01*
X108830740Y-148441000D01*
X108764557Y-148434481D01*
X108698373Y-148427963D01*
X108543556Y-148381000D01*
X108528533Y-148376443D01*
X108372011Y-148292779D01*
X108372009Y-148292778D01*
X108336271Y-148263448D01*
X108234814Y-148180186D01*
X108151552Y-148078729D01*
X108122222Y-148042991D01*
X108090150Y-147982989D01*
X108038557Y-147886467D01*
X108020356Y-147826466D01*
X107987037Y-147716627D01*
X107969641Y-147540000D01*
X107987037Y-147363373D01*
X108038557Y-147193534D01*
X108038557Y-147193533D01*
X108122221Y-147037011D01*
X108122222Y-147037009D01*
X108171463Y-146977009D01*
X108234814Y-146899814D01*
X108336271Y-146816552D01*
X108372009Y-146787222D01*
X108484260Y-146727222D01*
X108528533Y-146703557D01*
X108585147Y-146686384D01*
X108698373Y-146652037D01*
X108784473Y-146643557D01*
X108830740Y-146639000D01*
X109169260Y-146639000D01*
X109215527Y-146643557D01*
X109215527Y-146643557D01*
G37*
G36*
X101235443Y-146585519D02*
X101301627Y-146592037D01*
X101414853Y-146626384D01*
X101471467Y-146643557D01*
X101583717Y-146703557D01*
X101627991Y-146727222D01*
X101663729Y-146756552D01*
X101765186Y-146839814D01*
X101848448Y-146941271D01*
X101877778Y-146977009D01*
X101877779Y-146977011D01*
X101961443Y-147133533D01*
X101961443Y-147133534D01*
X102012963Y-147303373D01*
X102030359Y-147480000D01*
X102012963Y-147656627D01*
X101994763Y-147716625D01*
X101961443Y-147826467D01*
X101929372Y-147886466D01*
X101877778Y-147982991D01*
X101848448Y-148018729D01*
X101765186Y-148120186D01*
X101663729Y-148203448D01*
X101627991Y-148232778D01*
X101627989Y-148232779D01*
X101471467Y-148316443D01*
X101414853Y-148333616D01*
X101301627Y-148367963D01*
X101235443Y-148374481D01*
X101169260Y-148381000D01*
X100830740Y-148381000D01*
X100764557Y-148374481D01*
X100698373Y-148367963D01*
X100585147Y-148333616D01*
X100528533Y-148316443D01*
X100372011Y-148232779D01*
X100372009Y-148232778D01*
X100336271Y-148203448D01*
X100234814Y-148120186D01*
X100151552Y-148018729D01*
X100122222Y-147982991D01*
X100070628Y-147886466D01*
X100038557Y-147826467D01*
X100005237Y-147716625D01*
X99987037Y-147656627D01*
X99969641Y-147480000D01*
X99987037Y-147303373D01*
X100038557Y-147133534D01*
X100038557Y-147133533D01*
X100122221Y-146977011D01*
X100122222Y-146977009D01*
X100151552Y-146941271D01*
X100234814Y-146839814D01*
X100336271Y-146756552D01*
X100372009Y-146727222D01*
X100416283Y-146703557D01*
X100528533Y-146643557D01*
X100585147Y-146626384D01*
X100698373Y-146592037D01*
X100764557Y-146585519D01*
X100830740Y-146579000D01*
X101169260Y-146579000D01*
X101235443Y-146585519D01*
X101235443Y-146585519D01*
G37*
G36*
X109883600Y-144102989D02*
X109916649Y-144113014D01*
X109947106Y-144129294D01*
X109973799Y-144151201D01*
X109995706Y-144177894D01*
X110011986Y-144208351D01*
X110022011Y-144241400D01*
X110026000Y-144281904D01*
X110026000Y-145718096D01*
X110022011Y-145758600D01*
X110011986Y-145791649D01*
X109995706Y-145822106D01*
X109973799Y-145848799D01*
X109947106Y-145870706D01*
X109916649Y-145886986D01*
X109883600Y-145897011D01*
X109843096Y-145901000D01*
X108156904Y-145901000D01*
X108116400Y-145897011D01*
X108083351Y-145886986D01*
X108052894Y-145870706D01*
X108026201Y-145848799D01*
X108004294Y-145822106D01*
X107988014Y-145791649D01*
X107977989Y-145758600D01*
X107974000Y-145718096D01*
X107974000Y-144281904D01*
X107977989Y-144241400D01*
X107988014Y-144208351D01*
X108004294Y-144177894D01*
X108026201Y-144151201D01*
X108052894Y-144129294D01*
X108083351Y-144113014D01*
X108116400Y-144102989D01*
X108156904Y-144099000D01*
X109843096Y-144099000D01*
X109883600Y-144102989D01*
X109883600Y-144102989D01*
G37*
G36*
X101235443Y-144045519D02*
X101301627Y-144052037D01*
X101414853Y-144086384D01*
X101471467Y-144103557D01*
X101546495Y-144143661D01*
X101627991Y-144187222D01*
X101663729Y-144216552D01*
X101765186Y-144299814D01*
X101817861Y-144364000D01*
X101877778Y-144437009D01*
X101877779Y-144437011D01*
X101961443Y-144593533D01*
X101961443Y-144593534D01*
X102012963Y-144763373D01*
X102030359Y-144940000D01*
X102012963Y-145116627D01*
X101978616Y-145229853D01*
X101961443Y-145286467D01*
X101929001Y-145347161D01*
X101877778Y-145442991D01*
X101848448Y-145478729D01*
X101765186Y-145580186D01*
X101697175Y-145636000D01*
X101627991Y-145692778D01*
X101627989Y-145692779D01*
X101471467Y-145776443D01*
X101414853Y-145793616D01*
X101301627Y-145827963D01*
X101235443Y-145834481D01*
X101169260Y-145841000D01*
X100830740Y-145841000D01*
X100764557Y-145834481D01*
X100698373Y-145827963D01*
X100585147Y-145793616D01*
X100528533Y-145776443D01*
X100372011Y-145692779D01*
X100372009Y-145692778D01*
X100302825Y-145636000D01*
X100234814Y-145580186D01*
X100151552Y-145478729D01*
X100122222Y-145442991D01*
X100070999Y-145347161D01*
X100038557Y-145286467D01*
X100021384Y-145229853D01*
X99987037Y-145116627D01*
X99969641Y-144940000D01*
X99987037Y-144763373D01*
X100038557Y-144593534D01*
X100038557Y-144593533D01*
X100122221Y-144437011D01*
X100122222Y-144437009D01*
X100182139Y-144364000D01*
X100234814Y-144299814D01*
X100336271Y-144216552D01*
X100372009Y-144187222D01*
X100453505Y-144143661D01*
X100528533Y-144103557D01*
X100585147Y-144086384D01*
X100698373Y-144052037D01*
X100764557Y-144045519D01*
X100830740Y-144039000D01*
X101169260Y-144039000D01*
X101235443Y-144045519D01*
X101235443Y-144045519D01*
G37*
G36*
X115318433Y-142634893D02*
X115408657Y-142652839D01*
X115514267Y-142696585D01*
X115663621Y-142758449D01*
X115893089Y-142911774D01*
X116088226Y-143106911D01*
X116241551Y-143336379D01*
X116347161Y-143591344D01*
X116401000Y-143862012D01*
X116401000Y-144137988D01*
X116347161Y-144408656D01*
X116241551Y-144663621D01*
X116088226Y-144893089D01*
X115893089Y-145088226D01*
X115663621Y-145241551D01*
X115555184Y-145286467D01*
X115408657Y-145347161D01*
X115318433Y-145365107D01*
X115137988Y-145401000D01*
X114862012Y-145401000D01*
X114681567Y-145365107D01*
X114591343Y-145347161D01*
X114444816Y-145286467D01*
X114336379Y-145241551D01*
X114106911Y-145088226D01*
X113911774Y-144893089D01*
X113758449Y-144663621D01*
X113652839Y-144408656D01*
X113599000Y-144137988D01*
X113599000Y-143862012D01*
X113652839Y-143591344D01*
X113758449Y-143336379D01*
X113911774Y-143106911D01*
X114106911Y-142911774D01*
X114336379Y-142758449D01*
X114485733Y-142696585D01*
X114591343Y-142652839D01*
X114681567Y-142634893D01*
X114862012Y-142599000D01*
X115137988Y-142599000D01*
X115318433Y-142634893D01*
X115318433Y-142634893D01*
G37*
G36*
X95318433Y-142634893D02*
X95408657Y-142652839D01*
X95514267Y-142696585D01*
X95663621Y-142758449D01*
X95893089Y-142911774D01*
X96088226Y-143106911D01*
X96241551Y-143336379D01*
X96347161Y-143591344D01*
X96401000Y-143862012D01*
X96401000Y-144137988D01*
X96347161Y-144408656D01*
X96241551Y-144663621D01*
X96088226Y-144893089D01*
X95893089Y-145088226D01*
X95663621Y-145241551D01*
X95555184Y-145286467D01*
X95408657Y-145347161D01*
X95318433Y-145365107D01*
X95137988Y-145401000D01*
X94862012Y-145401000D01*
X94681567Y-145365107D01*
X94591343Y-145347161D01*
X94444816Y-145286467D01*
X94336379Y-145241551D01*
X94106911Y-145088226D01*
X93911774Y-144893089D01*
X93758449Y-144663621D01*
X93652839Y-144408656D01*
X93599000Y-144137988D01*
X93599000Y-143862012D01*
X93652839Y-143591344D01*
X93758449Y-143336379D01*
X93911774Y-143106911D01*
X94106911Y-142911774D01*
X94336379Y-142758449D01*
X94485733Y-142696585D01*
X94591343Y-142652839D01*
X94681567Y-142634893D01*
X94862012Y-142599000D01*
X95137988Y-142599000D01*
X95318433Y-142634893D01*
X95318433Y-142634893D01*
G37*
G36*
X103716627Y-136987037D02*
X103829853Y-137021384D01*
X103886467Y-137038557D01*
X104025087Y-137112652D01*
X104042991Y-137122222D01*
X104078729Y-137151552D01*
X104180186Y-137234814D01*
X104263448Y-137336271D01*
X104292778Y-137372009D01*
X104376443Y-137528534D01*
X104427963Y-137698374D01*
X104441000Y-137830743D01*
X104441000Y-138169258D01*
X104427963Y-138301627D01*
X104393616Y-138414853D01*
X104376443Y-138471467D01*
X104302348Y-138610087D01*
X104292778Y-138627991D01*
X104263448Y-138663729D01*
X104180186Y-138765186D01*
X104042989Y-138877779D01*
X103886466Y-138961443D01*
X103845733Y-138973799D01*
X103716626Y-139012963D01*
X103540000Y-139030359D01*
X103363373Y-139012963D01*
X103234266Y-138973799D01*
X103193533Y-138961443D01*
X103037011Y-138877779D01*
X103037009Y-138877778D01*
X102994749Y-138843096D01*
X102899814Y-138765186D01*
X102787221Y-138627989D01*
X102703557Y-138471466D01*
X102686384Y-138414852D01*
X102652037Y-138301626D01*
X102639000Y-138169257D01*
X102639000Y-137830742D01*
X102652037Y-137698373D01*
X102703557Y-137528534D01*
X102703557Y-137528533D01*
X102787222Y-137372008D01*
X102899812Y-137234817D01*
X102994750Y-137156904D01*
X103037010Y-137122222D01*
X103054914Y-137112652D01*
X103193534Y-137038557D01*
X103250148Y-137021384D01*
X103363374Y-136987037D01*
X103540000Y-136969641D01*
X103716627Y-136987037D01*
X103716627Y-136987037D01*
G37*
G36*
X98436627Y-136987037D02*
X98549853Y-137021384D01*
X98606467Y-137038557D01*
X98745087Y-137112652D01*
X98762991Y-137122222D01*
X98798729Y-137151552D01*
X98900186Y-137234814D01*
X98983448Y-137336271D01*
X99012778Y-137372009D01*
X99096443Y-137528534D01*
X99147963Y-137698374D01*
X99161000Y-137830743D01*
X99161000Y-138169258D01*
X99147963Y-138301627D01*
X99113616Y-138414853D01*
X99096443Y-138471467D01*
X99022348Y-138610087D01*
X99012778Y-138627991D01*
X98983448Y-138663729D01*
X98900186Y-138765186D01*
X98762989Y-138877779D01*
X98606466Y-138961443D01*
X98565733Y-138973799D01*
X98436626Y-139012963D01*
X98260000Y-139030359D01*
X98083373Y-139012963D01*
X97954266Y-138973799D01*
X97913533Y-138961443D01*
X97757011Y-138877779D01*
X97757009Y-138877778D01*
X97714749Y-138843096D01*
X97619814Y-138765186D01*
X97507221Y-138627989D01*
X97423557Y-138471466D01*
X97406384Y-138414852D01*
X97372037Y-138301626D01*
X97359000Y-138169257D01*
X97359000Y-137830742D01*
X97372037Y-137698373D01*
X97423557Y-137528534D01*
X97423557Y-137528533D01*
X97507222Y-137372008D01*
X97619812Y-137234817D01*
X97714750Y-137156904D01*
X97757010Y-137122222D01*
X97774914Y-137112652D01*
X97913534Y-137038557D01*
X97970148Y-137021384D01*
X98083374Y-136987037D01*
X98260000Y-136969641D01*
X98436627Y-136987037D01*
X98436627Y-136987037D01*
G37*
G36*
X101176627Y-136987037D02*
X101289853Y-137021384D01*
X101346467Y-137038557D01*
X101485087Y-137112652D01*
X101502991Y-137122222D01*
X101538729Y-137151552D01*
X101640186Y-137234814D01*
X101723448Y-137336271D01*
X101752778Y-137372009D01*
X101836443Y-137528534D01*
X101887963Y-137698374D01*
X101901000Y-137830743D01*
X101901000Y-138169258D01*
X101887963Y-138301627D01*
X101853616Y-138414853D01*
X101836443Y-138471467D01*
X101762348Y-138610087D01*
X101752778Y-138627991D01*
X101723448Y-138663729D01*
X101640186Y-138765186D01*
X101502989Y-138877779D01*
X101346466Y-138961443D01*
X101305733Y-138973799D01*
X101176626Y-139012963D01*
X101000000Y-139030359D01*
X100823373Y-139012963D01*
X100694266Y-138973799D01*
X100653533Y-138961443D01*
X100497011Y-138877779D01*
X100497009Y-138877778D01*
X100454749Y-138843096D01*
X100359814Y-138765186D01*
X100247221Y-138627989D01*
X100163557Y-138471466D01*
X100146384Y-138414852D01*
X100112037Y-138301626D01*
X100099000Y-138169257D01*
X100099000Y-137830742D01*
X100112037Y-137698373D01*
X100163557Y-137528534D01*
X100163557Y-137528533D01*
X100247222Y-137372008D01*
X100359812Y-137234817D01*
X100454750Y-137156904D01*
X100497010Y-137122222D01*
X100514914Y-137112652D01*
X100653534Y-137038557D01*
X100710148Y-137021384D01*
X100823374Y-136987037D01*
X101000000Y-136969641D01*
X101176627Y-136987037D01*
X101176627Y-136987037D01*
G37*
G36*
X106256627Y-136987037D02*
X106369853Y-137021384D01*
X106426467Y-137038557D01*
X106565087Y-137112652D01*
X106582991Y-137122222D01*
X106618729Y-137151552D01*
X106720186Y-137234814D01*
X106803448Y-137336271D01*
X106832778Y-137372009D01*
X106916443Y-137528534D01*
X106967963Y-137698374D01*
X106981000Y-137830743D01*
X106981000Y-138169258D01*
X106967963Y-138301627D01*
X106933616Y-138414853D01*
X106916443Y-138471467D01*
X106842348Y-138610087D01*
X106832778Y-138627991D01*
X106803448Y-138663729D01*
X106720186Y-138765186D01*
X106582989Y-138877779D01*
X106426466Y-138961443D01*
X106385733Y-138973799D01*
X106256626Y-139012963D01*
X106080000Y-139030359D01*
X105903373Y-139012963D01*
X105774266Y-138973799D01*
X105733533Y-138961443D01*
X105577011Y-138877779D01*
X105577009Y-138877778D01*
X105534749Y-138843096D01*
X105439814Y-138765186D01*
X105327221Y-138627989D01*
X105243557Y-138471466D01*
X105226384Y-138414852D01*
X105192037Y-138301626D01*
X105179000Y-138169257D01*
X105179000Y-137830742D01*
X105192037Y-137698373D01*
X105243557Y-137528534D01*
X105243557Y-137528533D01*
X105327222Y-137372008D01*
X105439812Y-137234817D01*
X105534750Y-137156904D01*
X105577010Y-137122222D01*
X105594914Y-137112652D01*
X105733534Y-137038557D01*
X105790148Y-137021384D01*
X105903374Y-136987037D01*
X106080000Y-136969641D01*
X106256627Y-136987037D01*
X106256627Y-136987037D01*
G37*
G36*
X108796627Y-136987037D02*
X108909853Y-137021384D01*
X108966467Y-137038557D01*
X109105087Y-137112652D01*
X109122991Y-137122222D01*
X109158729Y-137151552D01*
X109260186Y-137234814D01*
X109343448Y-137336271D01*
X109372778Y-137372009D01*
X109456443Y-137528534D01*
X109507963Y-137698374D01*
X109521000Y-137830743D01*
X109521000Y-138169258D01*
X109507963Y-138301627D01*
X109473616Y-138414853D01*
X109456443Y-138471467D01*
X109382348Y-138610087D01*
X109372778Y-138627991D01*
X109343448Y-138663729D01*
X109260186Y-138765186D01*
X109122989Y-138877779D01*
X108966466Y-138961443D01*
X108925733Y-138973799D01*
X108796626Y-139012963D01*
X108620000Y-139030359D01*
X108443373Y-139012963D01*
X108314266Y-138973799D01*
X108273533Y-138961443D01*
X108117011Y-138877779D01*
X108117009Y-138877778D01*
X108074749Y-138843096D01*
X107979814Y-138765186D01*
X107867221Y-138627989D01*
X107783557Y-138471466D01*
X107766384Y-138414852D01*
X107732037Y-138301626D01*
X107719000Y-138169257D01*
X107719000Y-137830742D01*
X107732037Y-137698373D01*
X107783557Y-137528534D01*
X107783557Y-137528533D01*
X107867222Y-137372008D01*
X107979812Y-137234817D01*
X108074750Y-137156904D01*
X108117010Y-137122222D01*
X108134914Y-137112652D01*
X108273534Y-137038557D01*
X108330148Y-137021384D01*
X108443374Y-136987037D01*
X108620000Y-136969641D01*
X108796627Y-136987037D01*
X108796627Y-136987037D01*
G37*
G36*
X111918600Y-136977989D02*
X111951649Y-136988014D01*
X111982106Y-137004294D01*
X112008799Y-137026201D01*
X112030706Y-137052894D01*
X112046986Y-137083351D01*
X112057011Y-137116400D01*
X112061000Y-137156904D01*
X112061000Y-138843096D01*
X112057011Y-138883600D01*
X112046986Y-138916649D01*
X112030706Y-138947106D01*
X112008799Y-138973799D01*
X111982106Y-138995706D01*
X111951649Y-139011986D01*
X111918600Y-139022011D01*
X111878096Y-139026000D01*
X110441904Y-139026000D01*
X110401400Y-139022011D01*
X110368351Y-139011986D01*
X110337894Y-138995706D01*
X110311201Y-138973799D01*
X110289294Y-138947106D01*
X110273014Y-138916649D01*
X110262989Y-138883600D01*
X110259000Y-138843096D01*
X110259000Y-137156904D01*
X110262989Y-137116400D01*
X110273014Y-137083351D01*
X110289294Y-137052894D01*
X110311201Y-137026201D01*
X110337894Y-137004294D01*
X110368351Y-136988014D01*
X110401400Y-136977989D01*
X110441904Y-136974000D01*
X111878096Y-136974000D01*
X111918600Y-136977989D01*
X111918600Y-136977989D01*
G37*
G36*
X108636627Y-121987037D02*
X108749853Y-122021384D01*
X108806467Y-122038557D01*
X108945087Y-122112652D01*
X108962991Y-122122222D01*
X108998729Y-122151552D01*
X109100186Y-122234814D01*
X109183448Y-122336271D01*
X109212778Y-122372009D01*
X109296443Y-122528534D01*
X109347963Y-122698374D01*
X109361000Y-122830743D01*
X109361000Y-123169258D01*
X109347963Y-123301627D01*
X109313616Y-123414853D01*
X109296443Y-123471467D01*
X109222348Y-123610087D01*
X109212778Y-123627991D01*
X109183448Y-123663729D01*
X109100186Y-123765186D01*
X108962989Y-123877779D01*
X108806466Y-123961443D01*
X108765733Y-123973799D01*
X108636626Y-124012963D01*
X108460000Y-124030359D01*
X108283373Y-124012963D01*
X108154266Y-123973799D01*
X108113533Y-123961443D01*
X107957011Y-123877779D01*
X107957009Y-123877778D01*
X107914749Y-123843096D01*
X107819814Y-123765186D01*
X107707221Y-123627989D01*
X107623557Y-123471466D01*
X107606384Y-123414852D01*
X107572037Y-123301626D01*
X107559000Y-123169257D01*
X107559000Y-122830742D01*
X107572037Y-122698373D01*
X107623557Y-122528534D01*
X107623557Y-122528533D01*
X107707222Y-122372008D01*
X107819812Y-122234817D01*
X107914750Y-122156904D01*
X107957010Y-122122222D01*
X107974914Y-122112652D01*
X108113534Y-122038557D01*
X108170148Y-122021384D01*
X108283374Y-121987037D01*
X108460000Y-121969641D01*
X108636627Y-121987037D01*
X108636627Y-121987037D01*
G37*
G36*
X106096627Y-121987037D02*
X106209853Y-122021384D01*
X106266467Y-122038557D01*
X106405087Y-122112652D01*
X106422991Y-122122222D01*
X106458729Y-122151552D01*
X106560186Y-122234814D01*
X106643448Y-122336271D01*
X106672778Y-122372009D01*
X106756443Y-122528534D01*
X106807963Y-122698374D01*
X106821000Y-122830743D01*
X106821000Y-123169258D01*
X106807963Y-123301627D01*
X106773616Y-123414853D01*
X106756443Y-123471467D01*
X106682348Y-123610087D01*
X106672778Y-123627991D01*
X106643448Y-123663729D01*
X106560186Y-123765186D01*
X106422989Y-123877779D01*
X106266466Y-123961443D01*
X106225733Y-123973799D01*
X106096626Y-124012963D01*
X105920000Y-124030359D01*
X105743373Y-124012963D01*
X105614266Y-123973799D01*
X105573533Y-123961443D01*
X105417011Y-123877779D01*
X105417009Y-123877778D01*
X105374749Y-123843096D01*
X105279814Y-123765186D01*
X105167221Y-123627989D01*
X105083557Y-123471466D01*
X105066384Y-123414852D01*
X105032037Y-123301626D01*
X105019000Y-123169257D01*
X105019000Y-122830742D01*
X105032037Y-122698373D01*
X105083557Y-122528534D01*
X105083557Y-122528533D01*
X105167222Y-122372008D01*
X105279812Y-122234817D01*
X105374750Y-122156904D01*
X105417010Y-122122222D01*
X105434914Y-122112652D01*
X105573534Y-122038557D01*
X105630148Y-122021384D01*
X105743374Y-121987037D01*
X105920000Y-121969641D01*
X106096627Y-121987037D01*
X106096627Y-121987037D01*
G37*
G36*
X101016627Y-121987037D02*
X101129853Y-122021384D01*
X101186467Y-122038557D01*
X101325087Y-122112652D01*
X101342991Y-122122222D01*
X101378729Y-122151552D01*
X101480186Y-122234814D01*
X101563448Y-122336271D01*
X101592778Y-122372009D01*
X101676443Y-122528534D01*
X101727963Y-122698374D01*
X101741000Y-122830743D01*
X101741000Y-123169258D01*
X101727963Y-123301627D01*
X101693616Y-123414853D01*
X101676443Y-123471467D01*
X101602348Y-123610087D01*
X101592778Y-123627991D01*
X101563448Y-123663729D01*
X101480186Y-123765186D01*
X101342989Y-123877779D01*
X101186466Y-123961443D01*
X101145733Y-123973799D01*
X101016626Y-124012963D01*
X100840000Y-124030359D01*
X100663373Y-124012963D01*
X100534266Y-123973799D01*
X100493533Y-123961443D01*
X100337011Y-123877779D01*
X100337009Y-123877778D01*
X100294749Y-123843096D01*
X100199814Y-123765186D01*
X100087221Y-123627989D01*
X100003557Y-123471466D01*
X99986384Y-123414852D01*
X99952037Y-123301626D01*
X99939000Y-123169257D01*
X99939000Y-122830742D01*
X99952037Y-122698373D01*
X100003557Y-122528534D01*
X100003557Y-122528533D01*
X100087222Y-122372008D01*
X100199812Y-122234817D01*
X100294750Y-122156904D01*
X100337010Y-122122222D01*
X100354914Y-122112652D01*
X100493534Y-122038557D01*
X100550148Y-122021384D01*
X100663374Y-121987037D01*
X100840000Y-121969641D01*
X101016627Y-121987037D01*
X101016627Y-121987037D01*
G37*
G36*
X98276627Y-121987037D02*
X98389853Y-122021384D01*
X98446467Y-122038557D01*
X98585087Y-122112652D01*
X98602991Y-122122222D01*
X98638729Y-122151552D01*
X98740186Y-122234814D01*
X98823448Y-122336271D01*
X98852778Y-122372009D01*
X98936443Y-122528534D01*
X98987963Y-122698374D01*
X99001000Y-122830743D01*
X99001000Y-123169258D01*
X98987963Y-123301627D01*
X98953616Y-123414853D01*
X98936443Y-123471467D01*
X98862348Y-123610087D01*
X98852778Y-123627991D01*
X98823448Y-123663729D01*
X98740186Y-123765186D01*
X98602989Y-123877779D01*
X98446466Y-123961443D01*
X98405733Y-123973799D01*
X98276626Y-124012963D01*
X98100000Y-124030359D01*
X97923373Y-124012963D01*
X97794266Y-123973799D01*
X97753533Y-123961443D01*
X97597011Y-123877779D01*
X97597009Y-123877778D01*
X97554749Y-123843096D01*
X97459814Y-123765186D01*
X97347221Y-123627989D01*
X97263557Y-123471466D01*
X97246384Y-123414852D01*
X97212037Y-123301626D01*
X97199000Y-123169257D01*
X97199000Y-122830742D01*
X97212037Y-122698373D01*
X97263557Y-122528534D01*
X97263557Y-122528533D01*
X97347222Y-122372008D01*
X97459812Y-122234817D01*
X97554750Y-122156904D01*
X97597010Y-122122222D01*
X97614914Y-122112652D01*
X97753534Y-122038557D01*
X97810148Y-122021384D01*
X97923374Y-121987037D01*
X98100000Y-121969641D01*
X98276627Y-121987037D01*
X98276627Y-121987037D01*
G37*
G36*
X103556627Y-121987037D02*
X103669853Y-122021384D01*
X103726467Y-122038557D01*
X103865087Y-122112652D01*
X103882991Y-122122222D01*
X103918729Y-122151552D01*
X104020186Y-122234814D01*
X104103448Y-122336271D01*
X104132778Y-122372009D01*
X104216443Y-122528534D01*
X104267963Y-122698374D01*
X104281000Y-122830743D01*
X104281000Y-123169258D01*
X104267963Y-123301627D01*
X104233616Y-123414853D01*
X104216443Y-123471467D01*
X104142348Y-123610087D01*
X104132778Y-123627991D01*
X104103448Y-123663729D01*
X104020186Y-123765186D01*
X103882989Y-123877779D01*
X103726466Y-123961443D01*
X103685733Y-123973799D01*
X103556626Y-124012963D01*
X103380000Y-124030359D01*
X103203373Y-124012963D01*
X103074266Y-123973799D01*
X103033533Y-123961443D01*
X102877011Y-123877779D01*
X102877009Y-123877778D01*
X102834749Y-123843096D01*
X102739814Y-123765186D01*
X102627221Y-123627989D01*
X102543557Y-123471466D01*
X102526384Y-123414852D01*
X102492037Y-123301626D01*
X102479000Y-123169257D01*
X102479000Y-122830742D01*
X102492037Y-122698373D01*
X102543557Y-122528534D01*
X102543557Y-122528533D01*
X102627222Y-122372008D01*
X102739812Y-122234817D01*
X102834750Y-122156904D01*
X102877010Y-122122222D01*
X102894914Y-122112652D01*
X103033534Y-122038557D01*
X103090148Y-122021384D01*
X103203374Y-121987037D01*
X103380000Y-121969641D01*
X103556627Y-121987037D01*
X103556627Y-121987037D01*
G37*
G36*
X111758600Y-121977989D02*
X111791649Y-121988014D01*
X111822106Y-122004294D01*
X111848799Y-122026201D01*
X111870706Y-122052894D01*
X111886986Y-122083351D01*
X111897011Y-122116400D01*
X111901000Y-122156904D01*
X111901000Y-123843096D01*
X111897011Y-123883600D01*
X111886986Y-123916649D01*
X111870706Y-123947106D01*
X111848799Y-123973799D01*
X111822106Y-123995706D01*
X111791649Y-124011986D01*
X111758600Y-124022011D01*
X111718096Y-124026000D01*
X110281904Y-124026000D01*
X110241400Y-124022011D01*
X110208351Y-124011986D01*
X110177894Y-123995706D01*
X110151201Y-123973799D01*
X110129294Y-123947106D01*
X110113014Y-123916649D01*
X110102989Y-123883600D01*
X110099000Y-123843096D01*
X110099000Y-122156904D01*
X110102989Y-122116400D01*
X110113014Y-122083351D01*
X110129294Y-122052894D01*
X110151201Y-122026201D01*
X110177894Y-122004294D01*
X110208351Y-121988014D01*
X110241400Y-121977989D01*
X110281904Y-121974000D01*
X111718096Y-121974000D01*
X111758600Y-121977989D01*
X111758600Y-121977989D01*
G37*
G36*
X85642006Y-117883582D02*
X86042565Y-118049499D01*
X86403059Y-118290373D01*
X86709627Y-118596941D01*
X86950501Y-118957435D01*
X87116418Y-119357994D01*
X87201000Y-119783219D01*
X87201000Y-120216781D01*
X87116418Y-120642006D01*
X86950501Y-121042565D01*
X86709627Y-121403059D01*
X86403059Y-121709627D01*
X86042565Y-121950501D01*
X85642006Y-122116418D01*
X85216781Y-122201000D01*
X84783219Y-122201000D01*
X84357994Y-122116418D01*
X83957435Y-121950501D01*
X83596941Y-121709627D01*
X83290373Y-121403059D01*
X83049499Y-121042565D01*
X82883582Y-120642006D01*
X82799000Y-120216781D01*
X82799000Y-119783219D01*
X82883582Y-119357994D01*
X83049499Y-118957435D01*
X83290373Y-118596941D01*
X83596941Y-118290373D01*
X83957435Y-118049499D01*
X84357994Y-117883582D01*
X84783219Y-117799000D01*
X85216781Y-117799000D01*
X85642006Y-117883582D01*
X85642006Y-117883582D01*
G37*
G36*
X125642006Y-117883582D02*
X126042565Y-118049499D01*
X126403059Y-118290373D01*
X126709627Y-118596941D01*
X126950501Y-118957435D01*
X127116418Y-119357994D01*
X127201000Y-119783219D01*
X127201000Y-120216781D01*
X127116418Y-120642006D01*
X126950501Y-121042565D01*
X126709627Y-121403059D01*
X126403059Y-121709627D01*
X126042565Y-121950501D01*
X125642006Y-122116418D01*
X125216781Y-122201000D01*
X124783219Y-122201000D01*
X124357994Y-122116418D01*
X123957435Y-121950501D01*
X123596941Y-121709627D01*
X123290373Y-121403059D01*
X123049499Y-121042565D01*
X122883582Y-120642006D01*
X122799000Y-120216781D01*
X122799000Y-119783219D01*
X122883582Y-119357994D01*
X123049499Y-118957435D01*
X123290373Y-118596941D01*
X123596941Y-118290373D01*
X123957435Y-118049499D01*
X124357994Y-117883582D01*
X124783219Y-117799000D01*
X125216781Y-117799000D01*
X125642006Y-117883582D01*
X125642006Y-117883582D01*
G37*
G36*
X102096626Y-110987037D02*
X102209852Y-111021384D01*
X102266466Y-111038557D01*
X102422989Y-111122221D01*
X102560186Y-111234814D01*
X102643448Y-111336271D01*
X102672778Y-111372009D01*
X102672779Y-111372011D01*
X102756443Y-111528533D01*
X102773616Y-111585147D01*
X102807963Y-111698373D01*
X102821000Y-111830742D01*
X102821000Y-112169257D01*
X102807963Y-112301626D01*
X102756443Y-112471466D01*
X102672778Y-112627991D01*
X102672777Y-112627992D01*
X102560186Y-112765186D01*
X102465251Y-112843096D01*
X102422991Y-112877778D01*
X102422989Y-112877779D01*
X102266467Y-112961443D01*
X102225734Y-112973799D01*
X102096627Y-113012963D01*
X101920000Y-113030359D01*
X101743374Y-113012963D01*
X101614267Y-112973799D01*
X101573534Y-112961443D01*
X101417012Y-112877779D01*
X101417010Y-112877778D01*
X101279816Y-112765186D01*
X101279812Y-112765183D01*
X101167222Y-112627992D01*
X101083557Y-112471467D01*
X101066384Y-112414853D01*
X101032037Y-112301627D01*
X101019000Y-112169258D01*
X101019000Y-111830743D01*
X101032037Y-111698374D01*
X101083557Y-111528535D01*
X101083557Y-111528534D01*
X101167221Y-111372011D01*
X101279814Y-111234814D01*
X101381271Y-111151552D01*
X101417009Y-111122222D01*
X101434913Y-111112652D01*
X101573533Y-111038557D01*
X101630147Y-111021384D01*
X101743373Y-110987037D01*
X101920000Y-110969641D01*
X102096626Y-110987037D01*
X102096626Y-110987037D01*
G37*
G36*
X104636627Y-110987037D02*
X104749853Y-111021384D01*
X104806467Y-111038557D01*
X104945087Y-111112652D01*
X104962991Y-111122222D01*
X104998729Y-111151552D01*
X105100186Y-111234814D01*
X105183448Y-111336271D01*
X105212778Y-111372009D01*
X105296443Y-111528534D01*
X105347963Y-111698374D01*
X105361000Y-111830743D01*
X105361000Y-112169258D01*
X105347963Y-112301627D01*
X105313616Y-112414853D01*
X105296443Y-112471467D01*
X105222348Y-112610087D01*
X105212778Y-112627991D01*
X105212777Y-112627992D01*
X105100186Y-112765186D01*
X104962989Y-112877779D01*
X104806466Y-112961443D01*
X104765733Y-112973799D01*
X104636626Y-113012963D01*
X104460000Y-113030359D01*
X104283373Y-113012963D01*
X104154266Y-112973799D01*
X104113533Y-112961443D01*
X103957011Y-112877779D01*
X103957009Y-112877778D01*
X103914749Y-112843096D01*
X103819814Y-112765186D01*
X103707221Y-112627989D01*
X103623557Y-112471466D01*
X103606384Y-112414852D01*
X103572037Y-112301626D01*
X103559000Y-112169257D01*
X103559000Y-111830742D01*
X103572037Y-111698373D01*
X103606384Y-111585147D01*
X103623557Y-111528533D01*
X103707222Y-111372008D01*
X103819812Y-111234817D01*
X103914750Y-111156904D01*
X103957010Y-111122222D01*
X103974914Y-111112652D01*
X104113534Y-111038557D01*
X104170148Y-111021384D01*
X104283374Y-110987037D01*
X104460000Y-110969641D01*
X104636627Y-110987037D01*
X104636627Y-110987037D01*
G37*
G36*
X107176627Y-110987037D02*
X107289853Y-111021384D01*
X107346467Y-111038557D01*
X107485087Y-111112652D01*
X107502991Y-111122222D01*
X107538729Y-111151552D01*
X107640186Y-111234814D01*
X107723448Y-111336271D01*
X107752778Y-111372009D01*
X107836443Y-111528534D01*
X107887963Y-111698374D01*
X107901000Y-111830743D01*
X107901000Y-112169258D01*
X107887963Y-112301627D01*
X107853616Y-112414853D01*
X107836443Y-112471467D01*
X107762348Y-112610087D01*
X107752778Y-112627991D01*
X107752777Y-112627992D01*
X107640186Y-112765186D01*
X107502989Y-112877779D01*
X107346466Y-112961443D01*
X107305733Y-112973799D01*
X107176626Y-113012963D01*
X107000000Y-113030359D01*
X106823373Y-113012963D01*
X106694266Y-112973799D01*
X106653533Y-112961443D01*
X106497011Y-112877779D01*
X106497009Y-112877778D01*
X106454749Y-112843096D01*
X106359814Y-112765186D01*
X106247221Y-112627989D01*
X106163557Y-112471466D01*
X106146384Y-112414852D01*
X106112037Y-112301626D01*
X106099000Y-112169257D01*
X106099000Y-111830742D01*
X106112037Y-111698373D01*
X106146384Y-111585147D01*
X106163557Y-111528533D01*
X106247222Y-111372008D01*
X106359812Y-111234817D01*
X106454750Y-111156904D01*
X106497010Y-111122222D01*
X106514914Y-111112652D01*
X106653534Y-111038557D01*
X106710148Y-111021384D01*
X106823374Y-110987037D01*
X107000000Y-110969641D01*
X107176627Y-110987037D01*
X107176627Y-110987037D01*
G37*
G36*
X110298600Y-110977989D02*
X110331649Y-110988014D01*
X110362106Y-111004294D01*
X110388799Y-111026201D01*
X110410706Y-111052894D01*
X110426986Y-111083351D01*
X110437011Y-111116400D01*
X110441000Y-111156904D01*
X110441000Y-112843096D01*
X110437011Y-112883600D01*
X110426986Y-112916649D01*
X110410706Y-112947106D01*
X110388799Y-112973799D01*
X110362106Y-112995706D01*
X110331649Y-113011986D01*
X110298600Y-113022011D01*
X110258096Y-113026000D01*
X108821904Y-113026000D01*
X108781400Y-113022011D01*
X108748351Y-113011986D01*
X108717894Y-112995706D01*
X108691201Y-112973799D01*
X108669294Y-112947106D01*
X108653014Y-112916649D01*
X108642989Y-112883600D01*
X108639000Y-112843096D01*
X108639000Y-111156904D01*
X108642989Y-111116400D01*
X108653014Y-111083351D01*
X108669294Y-111052894D01*
X108691201Y-111026201D01*
X108717894Y-111004294D01*
X108748351Y-110988014D01*
X108781400Y-110977989D01*
X108821904Y-110974000D01*
X110258096Y-110974000D01*
X110298600Y-110977989D01*
X110298600Y-110977989D01*
G37*
G36*
X82636669Y-106877686D02*
X82813058Y-106895059D01*
X83039385Y-106963714D01*
X83152549Y-106998042D01*
X83465425Y-107165279D01*
X83739661Y-107390339D01*
X83964721Y-107664575D01*
X84131958Y-107977451D01*
X84131958Y-107977452D01*
X84234941Y-108316942D01*
X84269714Y-108670000D01*
X84234941Y-109023058D01*
X84166286Y-109249385D01*
X84131958Y-109362549D01*
X83964721Y-109675425D01*
X83739661Y-109949661D01*
X83465425Y-110174721D01*
X83152549Y-110341958D01*
X83039385Y-110376286D01*
X82813058Y-110444941D01*
X82636669Y-110462314D01*
X82548476Y-110471000D01*
X82371524Y-110471000D01*
X82283331Y-110462314D01*
X82106942Y-110444941D01*
X81880615Y-110376286D01*
X81767451Y-110341958D01*
X81454575Y-110174721D01*
X81180339Y-109949661D01*
X80955279Y-109675425D01*
X80788042Y-109362549D01*
X80753714Y-109249385D01*
X80685059Y-109023058D01*
X80650286Y-108670000D01*
X80685059Y-108316942D01*
X80788042Y-107977452D01*
X80788042Y-107977451D01*
X80955279Y-107664575D01*
X81180339Y-107390339D01*
X81454575Y-107165279D01*
X81767451Y-106998042D01*
X81880615Y-106963714D01*
X82106942Y-106895059D01*
X82283331Y-106877686D01*
X82371524Y-106869000D01*
X82548476Y-106869000D01*
X82636669Y-106877686D01*
X82636669Y-106877686D01*
G37*
G36*
X127636669Y-106877686D02*
X127813058Y-106895059D01*
X128039385Y-106963714D01*
X128152549Y-106998042D01*
X128465425Y-107165279D01*
X128739661Y-107390339D01*
X128964721Y-107664575D01*
X129131958Y-107977451D01*
X129131958Y-107977452D01*
X129234941Y-108316942D01*
X129269714Y-108670000D01*
X129234941Y-109023058D01*
X129166286Y-109249385D01*
X129131958Y-109362549D01*
X128964721Y-109675425D01*
X128739661Y-109949661D01*
X128465425Y-110174721D01*
X128152549Y-110341958D01*
X128039385Y-110376286D01*
X127813058Y-110444941D01*
X127636669Y-110462314D01*
X127548476Y-110471000D01*
X127371524Y-110471000D01*
X127283331Y-110462314D01*
X127106942Y-110444941D01*
X126880615Y-110376286D01*
X126767451Y-110341958D01*
X126454575Y-110174721D01*
X126180339Y-109949661D01*
X125955279Y-109675425D01*
X125788042Y-109362549D01*
X125753714Y-109249385D01*
X125685059Y-109023058D01*
X125650286Y-108670000D01*
X125685059Y-108316942D01*
X125788042Y-107977452D01*
X125788042Y-107977451D01*
X125955279Y-107664575D01*
X126180339Y-107390339D01*
X126454575Y-107165279D01*
X126767451Y-106998042D01*
X126880615Y-106963714D01*
X127106942Y-106895059D01*
X127283331Y-106877686D01*
X127371524Y-106869000D01*
X127548476Y-106869000D01*
X127636669Y-106877686D01*
X127636669Y-106877686D01*
G37*
G36*
X117016821Y-93301313D02*
X117016824Y-93301314D01*
X117016825Y-93301314D01*
X117177239Y-93349975D01*
X117177241Y-93349976D01*
X117177244Y-93349977D01*
X117325078Y-93428995D01*
X117454659Y-93535341D01*
X117561005Y-93664922D01*
X117640023Y-93812756D01*
X117640024Y-93812759D01*
X117640025Y-93812761D01*
X117688686Y-93973175D01*
X117688687Y-93973179D01*
X117705117Y-94140000D01*
X117688687Y-94306821D01*
X117640023Y-94467244D01*
X117561005Y-94615078D01*
X117454659Y-94744659D01*
X117325078Y-94851005D01*
X117177244Y-94930023D01*
X117177241Y-94930024D01*
X117177239Y-94930025D01*
X117016825Y-94978686D01*
X117016824Y-94978686D01*
X117016821Y-94978687D01*
X116891804Y-94991000D01*
X116008196Y-94991000D01*
X115883179Y-94978687D01*
X115883176Y-94978686D01*
X115883175Y-94978686D01*
X115722761Y-94930025D01*
X115722759Y-94930024D01*
X115722756Y-94930023D01*
X115574922Y-94851005D01*
X115445341Y-94744659D01*
X115338995Y-94615078D01*
X115259977Y-94467244D01*
X115211313Y-94306821D01*
X115194883Y-94140000D01*
X115211313Y-93973179D01*
X115211314Y-93973175D01*
X115259975Y-93812761D01*
X115259976Y-93812759D01*
X115259977Y-93812756D01*
X115338995Y-93664922D01*
X115445341Y-93535341D01*
X115574922Y-93428995D01*
X115722756Y-93349977D01*
X115722759Y-93349976D01*
X115722761Y-93349975D01*
X115883175Y-93301314D01*
X115883176Y-93301314D01*
X115883179Y-93301313D01*
X116008196Y-93289000D01*
X116891804Y-93289000D01*
X117016821Y-93301313D01*
X117016821Y-93301313D01*
G37*
G36*
X94156821Y-93301313D02*
X94156824Y-93301314D01*
X94156825Y-93301314D01*
X94317239Y-93349975D01*
X94317241Y-93349976D01*
X94317244Y-93349977D01*
X94465078Y-93428995D01*
X94594659Y-93535341D01*
X94701005Y-93664922D01*
X94780023Y-93812756D01*
X94780024Y-93812759D01*
X94780025Y-93812761D01*
X94828686Y-93973175D01*
X94828687Y-93973179D01*
X94845117Y-94140000D01*
X94828687Y-94306821D01*
X94780023Y-94467244D01*
X94701005Y-94615078D01*
X94594659Y-94744659D01*
X94465078Y-94851005D01*
X94317244Y-94930023D01*
X94317241Y-94930024D01*
X94317239Y-94930025D01*
X94156825Y-94978686D01*
X94156824Y-94978686D01*
X94156821Y-94978687D01*
X94031804Y-94991000D01*
X93148196Y-94991000D01*
X93023179Y-94978687D01*
X93023176Y-94978686D01*
X93023175Y-94978686D01*
X92862761Y-94930025D01*
X92862759Y-94930024D01*
X92862756Y-94930023D01*
X92714922Y-94851005D01*
X92585341Y-94744659D01*
X92478995Y-94615078D01*
X92399977Y-94467244D01*
X92351313Y-94306821D01*
X92334883Y-94140000D01*
X92351313Y-93973179D01*
X92351314Y-93973175D01*
X92399975Y-93812761D01*
X92399976Y-93812759D01*
X92399977Y-93812756D01*
X92478995Y-93664922D01*
X92585341Y-93535341D01*
X92714922Y-93428995D01*
X92862756Y-93349977D01*
X92862759Y-93349976D01*
X92862761Y-93349975D01*
X93023175Y-93301314D01*
X93023176Y-93301314D01*
X93023179Y-93301313D01*
X93148196Y-93289000D01*
X94031804Y-93289000D01*
X94156821Y-93301313D01*
X94156821Y-93301313D01*
G37*
G36*
X125116720Y-91833520D02*
X125305881Y-91890901D01*
X125480212Y-91984083D01*
X125633015Y-92109485D01*
X125758417Y-92262288D01*
X125851599Y-92436620D01*
X125908980Y-92625781D01*
X125923500Y-92773207D01*
X125923500Y-92966794D01*
X125908980Y-93114220D01*
X125851599Y-93303381D01*
X125758417Y-93477712D01*
X125633015Y-93630515D01*
X125480212Y-93755917D01*
X125305880Y-93849099D01*
X125116719Y-93906480D01*
X124920000Y-93925855D01*
X124723280Y-93906480D01*
X124534119Y-93849099D01*
X124359788Y-93755917D01*
X124206985Y-93630515D01*
X124081583Y-93477712D01*
X123988401Y-93303380D01*
X123931020Y-93114219D01*
X123916500Y-92966793D01*
X123916500Y-92773206D01*
X123931020Y-92625780D01*
X123988401Y-92436619D01*
X124081583Y-92262288D01*
X124206985Y-92109485D01*
X124359788Y-91984083D01*
X124534120Y-91890901D01*
X124723281Y-91833520D01*
X124920000Y-91814145D01*
X125116720Y-91833520D01*
X125116720Y-91833520D01*
G37*
G36*
X82656720Y-91833520D02*
X82845881Y-91890901D01*
X83020212Y-91984083D01*
X83173015Y-92109485D01*
X83298417Y-92262288D01*
X83391599Y-92436620D01*
X83448980Y-92625781D01*
X83463500Y-92773207D01*
X83463500Y-92966794D01*
X83448980Y-93114220D01*
X83391599Y-93303381D01*
X83298417Y-93477712D01*
X83173015Y-93630515D01*
X83020212Y-93755917D01*
X82845880Y-93849099D01*
X82656719Y-93906480D01*
X82460000Y-93925855D01*
X82263280Y-93906480D01*
X82074119Y-93849099D01*
X81899788Y-93755917D01*
X81746985Y-93630515D01*
X81621583Y-93477712D01*
X81528401Y-93303380D01*
X81471020Y-93114219D01*
X81456500Y-92966793D01*
X81456500Y-92773206D01*
X81471020Y-92625780D01*
X81528401Y-92436619D01*
X81621583Y-92262288D01*
X81746985Y-92109485D01*
X81899788Y-91984083D01*
X82074120Y-91890901D01*
X82263281Y-91833520D01*
X82460000Y-91814145D01*
X82656720Y-91833520D01*
X82656720Y-91833520D01*
G37*
G36*
X80116720Y-91833520D02*
X80305881Y-91890901D01*
X80480212Y-91984083D01*
X80633015Y-92109485D01*
X80758417Y-92262288D01*
X80851599Y-92436620D01*
X80908980Y-92625781D01*
X80923500Y-92773207D01*
X80923500Y-92966794D01*
X80908980Y-93114220D01*
X80851599Y-93303381D01*
X80758417Y-93477712D01*
X80633015Y-93630515D01*
X80480212Y-93755917D01*
X80305880Y-93849099D01*
X80116719Y-93906480D01*
X79920000Y-93925855D01*
X79723280Y-93906480D01*
X79534119Y-93849099D01*
X79359788Y-93755917D01*
X79206985Y-93630515D01*
X79081583Y-93477712D01*
X78988401Y-93303380D01*
X78931020Y-93114219D01*
X78916500Y-92966793D01*
X78916500Y-92773206D01*
X78931020Y-92625780D01*
X78988401Y-92436619D01*
X79081583Y-92262288D01*
X79206985Y-92109485D01*
X79359788Y-91984083D01*
X79534120Y-91890901D01*
X79723281Y-91833520D01*
X79920000Y-91814145D01*
X80116720Y-91833520D01*
X80116720Y-91833520D01*
G37*
G36*
X127656720Y-91833520D02*
X127845881Y-91890901D01*
X128020212Y-91984083D01*
X128173015Y-92109485D01*
X128298417Y-92262288D01*
X128391599Y-92436620D01*
X128448980Y-92625781D01*
X128463500Y-92773207D01*
X128463500Y-92966794D01*
X128448980Y-93114220D01*
X128391599Y-93303381D01*
X128298417Y-93477712D01*
X128173015Y-93630515D01*
X128020212Y-93755917D01*
X127845880Y-93849099D01*
X127656719Y-93906480D01*
X127460000Y-93925855D01*
X127263280Y-93906480D01*
X127074119Y-93849099D01*
X126899788Y-93755917D01*
X126746985Y-93630515D01*
X126621583Y-93477712D01*
X126528401Y-93303380D01*
X126471020Y-93114219D01*
X126456500Y-92966793D01*
X126456500Y-92773206D01*
X126471020Y-92625780D01*
X126528401Y-92436619D01*
X126621583Y-92262288D01*
X126746985Y-92109485D01*
X126899788Y-91984083D01*
X127074120Y-91890901D01*
X127263281Y-91833520D01*
X127460000Y-91814145D01*
X127656720Y-91833520D01*
X127656720Y-91833520D01*
G37*
G36*
X131003500Y-93921000D02*
X128996500Y-93921000D01*
X128996500Y-91819000D01*
X131003500Y-91819000D01*
X131003500Y-93921000D01*
X131003500Y-93921000D01*
G37*
G36*
X86003500Y-93921000D02*
X83996500Y-93921000D01*
X83996500Y-91819000D01*
X86003500Y-91819000D01*
X86003500Y-93921000D01*
X86003500Y-93921000D01*
G37*
G36*
X94156821Y-90761313D02*
X94156824Y-90761314D01*
X94156825Y-90761314D01*
X94317239Y-90809975D01*
X94317241Y-90809976D01*
X94317244Y-90809977D01*
X94465078Y-90888995D01*
X94594659Y-90995341D01*
X94701005Y-91124922D01*
X94780023Y-91272756D01*
X94828687Y-91433179D01*
X94845117Y-91600000D01*
X94828687Y-91766821D01*
X94828686Y-91766824D01*
X94828686Y-91766825D01*
X94814332Y-91814145D01*
X94780023Y-91927244D01*
X94701005Y-92075078D01*
X94594659Y-92204659D01*
X94465078Y-92311005D01*
X94317244Y-92390023D01*
X94317241Y-92390024D01*
X94317239Y-92390025D01*
X94156825Y-92438686D01*
X94156824Y-92438686D01*
X94156821Y-92438687D01*
X94031804Y-92451000D01*
X93148196Y-92451000D01*
X93023179Y-92438687D01*
X93023176Y-92438686D01*
X93023175Y-92438686D01*
X92862761Y-92390025D01*
X92862759Y-92390024D01*
X92862756Y-92390023D01*
X92714922Y-92311005D01*
X92585341Y-92204659D01*
X92478995Y-92075078D01*
X92399977Y-91927244D01*
X92365669Y-91814145D01*
X92351314Y-91766825D01*
X92351314Y-91766824D01*
X92351313Y-91766821D01*
X92334883Y-91600000D01*
X92351313Y-91433179D01*
X92399977Y-91272756D01*
X92478995Y-91124922D01*
X92585341Y-90995341D01*
X92714922Y-90888995D01*
X92862756Y-90809977D01*
X92862759Y-90809976D01*
X92862761Y-90809975D01*
X93023175Y-90761314D01*
X93023176Y-90761314D01*
X93023179Y-90761313D01*
X93148196Y-90749000D01*
X94031804Y-90749000D01*
X94156821Y-90761313D01*
X94156821Y-90761313D01*
G37*
G36*
X117016821Y-90761313D02*
X117016824Y-90761314D01*
X117016825Y-90761314D01*
X117177239Y-90809975D01*
X117177241Y-90809976D01*
X117177244Y-90809977D01*
X117325078Y-90888995D01*
X117454659Y-90995341D01*
X117561005Y-91124922D01*
X117640023Y-91272756D01*
X117688687Y-91433179D01*
X117705117Y-91600000D01*
X117688687Y-91766821D01*
X117688686Y-91766824D01*
X117688686Y-91766825D01*
X117674332Y-91814145D01*
X117640023Y-91927244D01*
X117561005Y-92075078D01*
X117454659Y-92204659D01*
X117325078Y-92311005D01*
X117177244Y-92390023D01*
X117177241Y-92390024D01*
X117177239Y-92390025D01*
X117016825Y-92438686D01*
X117016824Y-92438686D01*
X117016821Y-92438687D01*
X116891804Y-92451000D01*
X116008196Y-92451000D01*
X115883179Y-92438687D01*
X115883176Y-92438686D01*
X115883175Y-92438686D01*
X115722761Y-92390025D01*
X115722759Y-92390024D01*
X115722756Y-92390023D01*
X115574922Y-92311005D01*
X115445341Y-92204659D01*
X115338995Y-92075078D01*
X115259977Y-91927244D01*
X115225669Y-91814145D01*
X115211314Y-91766825D01*
X115211314Y-91766824D01*
X115211313Y-91766821D01*
X115194883Y-91600000D01*
X115211313Y-91433179D01*
X115259977Y-91272756D01*
X115338995Y-91124922D01*
X115445341Y-90995341D01*
X115574922Y-90888995D01*
X115722756Y-90809977D01*
X115722759Y-90809976D01*
X115722761Y-90809975D01*
X115883175Y-90761314D01*
X115883176Y-90761314D01*
X115883179Y-90761313D01*
X116008196Y-90749000D01*
X116891804Y-90749000D01*
X117016821Y-90761313D01*
X117016821Y-90761313D01*
G37*
G36*
X98836821Y-88221313D02*
X98836824Y-88221314D01*
X98836825Y-88221314D01*
X98997239Y-88269975D01*
X98997241Y-88269976D01*
X98997244Y-88269977D01*
X99145078Y-88348995D01*
X99274659Y-88455341D01*
X99381005Y-88584922D01*
X99460023Y-88732756D01*
X99508687Y-88893179D01*
X99525117Y-89060000D01*
X99508687Y-89226821D01*
X99460023Y-89387244D01*
X99381005Y-89535078D01*
X99274659Y-89664659D01*
X99145078Y-89771005D01*
X98997244Y-89850023D01*
X98997241Y-89850024D01*
X98997239Y-89850025D01*
X98836825Y-89898686D01*
X98836824Y-89898686D01*
X98836821Y-89898687D01*
X98711804Y-89911000D01*
X98628196Y-89911000D01*
X98503179Y-89898687D01*
X98503176Y-89898686D01*
X98503175Y-89898686D01*
X98342761Y-89850025D01*
X98342759Y-89850024D01*
X98342756Y-89850023D01*
X98194922Y-89771005D01*
X98065341Y-89664659D01*
X97958995Y-89535078D01*
X97879977Y-89387244D01*
X97831313Y-89226821D01*
X97814883Y-89060000D01*
X97831313Y-88893179D01*
X97879977Y-88732756D01*
X97958995Y-88584922D01*
X98065341Y-88455341D01*
X98194922Y-88348995D01*
X98342756Y-88269977D01*
X98342759Y-88269976D01*
X98342761Y-88269975D01*
X98503175Y-88221314D01*
X98503176Y-88221314D01*
X98503179Y-88221313D01*
X98628196Y-88209000D01*
X98711804Y-88209000D01*
X98836821Y-88221313D01*
X98836821Y-88221313D01*
G37*
G36*
X94156821Y-88221313D02*
X94156824Y-88221314D01*
X94156825Y-88221314D01*
X94317239Y-88269975D01*
X94317241Y-88269976D01*
X94317244Y-88269977D01*
X94465078Y-88348995D01*
X94594659Y-88455341D01*
X94701005Y-88584922D01*
X94780023Y-88732756D01*
X94828687Y-88893179D01*
X94845117Y-89060000D01*
X94828687Y-89226821D01*
X94780023Y-89387244D01*
X94701005Y-89535078D01*
X94594659Y-89664659D01*
X94465078Y-89771005D01*
X94317244Y-89850023D01*
X94317241Y-89850024D01*
X94317239Y-89850025D01*
X94156825Y-89898686D01*
X94156824Y-89898686D01*
X94156821Y-89898687D01*
X94031804Y-89911000D01*
X93148196Y-89911000D01*
X93023179Y-89898687D01*
X93023176Y-89898686D01*
X93023175Y-89898686D01*
X92862761Y-89850025D01*
X92862759Y-89850024D01*
X92862756Y-89850023D01*
X92714922Y-89771005D01*
X92585341Y-89664659D01*
X92478995Y-89535078D01*
X92399977Y-89387244D01*
X92351313Y-89226821D01*
X92334883Y-89060000D01*
X92351313Y-88893179D01*
X92399977Y-88732756D01*
X92478995Y-88584922D01*
X92585341Y-88455341D01*
X92714922Y-88348995D01*
X92862756Y-88269977D01*
X92862759Y-88269976D01*
X92862761Y-88269975D01*
X93023175Y-88221314D01*
X93023176Y-88221314D01*
X93023179Y-88221313D01*
X93148196Y-88209000D01*
X94031804Y-88209000D01*
X94156821Y-88221313D01*
X94156821Y-88221313D01*
G37*
G36*
X112221000Y-89911000D02*
X110519000Y-89911000D01*
X110519000Y-88209000D01*
X112221000Y-88209000D01*
X112221000Y-89911000D01*
X112221000Y-89911000D01*
G37*
G36*
X117016821Y-88221313D02*
X117016824Y-88221314D01*
X117016825Y-88221314D01*
X117177239Y-88269975D01*
X117177241Y-88269976D01*
X117177244Y-88269977D01*
X117325078Y-88348995D01*
X117454659Y-88455341D01*
X117561005Y-88584922D01*
X117640023Y-88732756D01*
X117688687Y-88893179D01*
X117705117Y-89060000D01*
X117688687Y-89226821D01*
X117640023Y-89387244D01*
X117561005Y-89535078D01*
X117454659Y-89664659D01*
X117325078Y-89771005D01*
X117177244Y-89850023D01*
X117177241Y-89850024D01*
X117177239Y-89850025D01*
X117016825Y-89898686D01*
X117016824Y-89898686D01*
X117016821Y-89898687D01*
X116891804Y-89911000D01*
X116008196Y-89911000D01*
X115883179Y-89898687D01*
X115883176Y-89898686D01*
X115883175Y-89898686D01*
X115722761Y-89850025D01*
X115722759Y-89850024D01*
X115722756Y-89850023D01*
X115574922Y-89771005D01*
X115445341Y-89664659D01*
X115338995Y-89535078D01*
X115259977Y-89387244D01*
X115211313Y-89226821D01*
X115194883Y-89060000D01*
X115211313Y-88893179D01*
X115259977Y-88732756D01*
X115338995Y-88584922D01*
X115445341Y-88455341D01*
X115574922Y-88348995D01*
X115722756Y-88269977D01*
X115722759Y-88269976D01*
X115722761Y-88269975D01*
X115883175Y-88221314D01*
X115883176Y-88221314D01*
X115883179Y-88221313D01*
X116008196Y-88209000D01*
X116891804Y-88209000D01*
X117016821Y-88221313D01*
X117016821Y-88221313D01*
G37*
G36*
X111536821Y-85681313D02*
X111536824Y-85681314D01*
X111536825Y-85681314D01*
X111697239Y-85729975D01*
X111697241Y-85729976D01*
X111697244Y-85729977D01*
X111845078Y-85808995D01*
X111974659Y-85915341D01*
X112081005Y-86044922D01*
X112160023Y-86192756D01*
X112160024Y-86192759D01*
X112160025Y-86192761D01*
X112199319Y-86322296D01*
X112208687Y-86353179D01*
X112225117Y-86520000D01*
X112208687Y-86686821D01*
X112160023Y-86847244D01*
X112081005Y-86995078D01*
X111974659Y-87124659D01*
X111845078Y-87231005D01*
X111697244Y-87310023D01*
X111697241Y-87310024D01*
X111697239Y-87310025D01*
X111536825Y-87358686D01*
X111536824Y-87358686D01*
X111536821Y-87358687D01*
X111411804Y-87371000D01*
X111328196Y-87371000D01*
X111203179Y-87358687D01*
X111203176Y-87358686D01*
X111203175Y-87358686D01*
X111042761Y-87310025D01*
X111042759Y-87310024D01*
X111042756Y-87310023D01*
X110894922Y-87231005D01*
X110765341Y-87124659D01*
X110658995Y-86995078D01*
X110579977Y-86847244D01*
X110531313Y-86686821D01*
X110514883Y-86520000D01*
X110531313Y-86353179D01*
X110540681Y-86322296D01*
X110579975Y-86192761D01*
X110579976Y-86192759D01*
X110579977Y-86192756D01*
X110658995Y-86044922D01*
X110765341Y-85915341D01*
X110894922Y-85808995D01*
X111042756Y-85729977D01*
X111042759Y-85729976D01*
X111042761Y-85729975D01*
X111203175Y-85681314D01*
X111203176Y-85681314D01*
X111203179Y-85681313D01*
X111328196Y-85669000D01*
X111411804Y-85669000D01*
X111536821Y-85681313D01*
X111536821Y-85681313D01*
G37*
G36*
X117016821Y-85681313D02*
X117016824Y-85681314D01*
X117016825Y-85681314D01*
X117177239Y-85729975D01*
X117177241Y-85729976D01*
X117177244Y-85729977D01*
X117325078Y-85808995D01*
X117454659Y-85915341D01*
X117561005Y-86044922D01*
X117640023Y-86192756D01*
X117640024Y-86192759D01*
X117640025Y-86192761D01*
X117679319Y-86322296D01*
X117688687Y-86353179D01*
X117705117Y-86520000D01*
X117688687Y-86686821D01*
X117640023Y-86847244D01*
X117561005Y-86995078D01*
X117454659Y-87124659D01*
X117325078Y-87231005D01*
X117177244Y-87310023D01*
X117177241Y-87310024D01*
X117177239Y-87310025D01*
X117016825Y-87358686D01*
X117016824Y-87358686D01*
X117016821Y-87358687D01*
X116891804Y-87371000D01*
X116008196Y-87371000D01*
X115883179Y-87358687D01*
X115883176Y-87358686D01*
X115883175Y-87358686D01*
X115722761Y-87310025D01*
X115722759Y-87310024D01*
X115722756Y-87310023D01*
X115574922Y-87231005D01*
X115445341Y-87124659D01*
X115338995Y-86995078D01*
X115259977Y-86847244D01*
X115211313Y-86686821D01*
X115194883Y-86520000D01*
X115211313Y-86353179D01*
X115220681Y-86322296D01*
X115259975Y-86192761D01*
X115259976Y-86192759D01*
X115259977Y-86192756D01*
X115338995Y-86044922D01*
X115445341Y-85915341D01*
X115574922Y-85808995D01*
X115722756Y-85729977D01*
X115722759Y-85729976D01*
X115722761Y-85729975D01*
X115883175Y-85681314D01*
X115883176Y-85681314D01*
X115883179Y-85681313D01*
X116008196Y-85669000D01*
X116891804Y-85669000D01*
X117016821Y-85681313D01*
X117016821Y-85681313D01*
G37*
G36*
X98836821Y-85681313D02*
X98836824Y-85681314D01*
X98836825Y-85681314D01*
X98997239Y-85729975D01*
X98997241Y-85729976D01*
X98997244Y-85729977D01*
X99145078Y-85808995D01*
X99274659Y-85915341D01*
X99381005Y-86044922D01*
X99460023Y-86192756D01*
X99460024Y-86192759D01*
X99460025Y-86192761D01*
X99499319Y-86322296D01*
X99508687Y-86353179D01*
X99525117Y-86520000D01*
X99508687Y-86686821D01*
X99460023Y-86847244D01*
X99381005Y-86995078D01*
X99274659Y-87124659D01*
X99145078Y-87231005D01*
X98997244Y-87310023D01*
X98997241Y-87310024D01*
X98997239Y-87310025D01*
X98836825Y-87358686D01*
X98836824Y-87358686D01*
X98836821Y-87358687D01*
X98711804Y-87371000D01*
X98628196Y-87371000D01*
X98503179Y-87358687D01*
X98503176Y-87358686D01*
X98503175Y-87358686D01*
X98342761Y-87310025D01*
X98342759Y-87310024D01*
X98342756Y-87310023D01*
X98194922Y-87231005D01*
X98065341Y-87124659D01*
X97958995Y-86995078D01*
X97879977Y-86847244D01*
X97831313Y-86686821D01*
X97814883Y-86520000D01*
X97831313Y-86353179D01*
X97840681Y-86322296D01*
X97879975Y-86192761D01*
X97879976Y-86192759D01*
X97879977Y-86192756D01*
X97958995Y-86044922D01*
X98065341Y-85915341D01*
X98194922Y-85808995D01*
X98342756Y-85729977D01*
X98342759Y-85729976D01*
X98342761Y-85729975D01*
X98503175Y-85681314D01*
X98503176Y-85681314D01*
X98503179Y-85681313D01*
X98628196Y-85669000D01*
X98711804Y-85669000D01*
X98836821Y-85681313D01*
X98836821Y-85681313D01*
G37*
G36*
X94156821Y-85681313D02*
X94156824Y-85681314D01*
X94156825Y-85681314D01*
X94317239Y-85729975D01*
X94317241Y-85729976D01*
X94317244Y-85729977D01*
X94465078Y-85808995D01*
X94594659Y-85915341D01*
X94701005Y-86044922D01*
X94780023Y-86192756D01*
X94780024Y-86192759D01*
X94780025Y-86192761D01*
X94819319Y-86322296D01*
X94828687Y-86353179D01*
X94845117Y-86520000D01*
X94828687Y-86686821D01*
X94780023Y-86847244D01*
X94701005Y-86995078D01*
X94594659Y-87124659D01*
X94465078Y-87231005D01*
X94317244Y-87310023D01*
X94317241Y-87310024D01*
X94317239Y-87310025D01*
X94156825Y-87358686D01*
X94156824Y-87358686D01*
X94156821Y-87358687D01*
X94031804Y-87371000D01*
X93148196Y-87371000D01*
X93023179Y-87358687D01*
X93023176Y-87358686D01*
X93023175Y-87358686D01*
X92862761Y-87310025D01*
X92862759Y-87310024D01*
X92862756Y-87310023D01*
X92714922Y-87231005D01*
X92585341Y-87124659D01*
X92478995Y-86995078D01*
X92399977Y-86847244D01*
X92351313Y-86686821D01*
X92334883Y-86520000D01*
X92351313Y-86353179D01*
X92360681Y-86322296D01*
X92399975Y-86192761D01*
X92399976Y-86192759D01*
X92399977Y-86192756D01*
X92478995Y-86044922D01*
X92585341Y-85915341D01*
X92714922Y-85808995D01*
X92862756Y-85729977D01*
X92862759Y-85729976D01*
X92862761Y-85729975D01*
X93023175Y-85681314D01*
X93023176Y-85681314D01*
X93023179Y-85681313D01*
X93148196Y-85669000D01*
X94031804Y-85669000D01*
X94156821Y-85681313D01*
X94156821Y-85681313D01*
G37*
G36*
X88599000Y-86355000D02*
X86897000Y-86355000D01*
X86897000Y-84653000D01*
X88599000Y-84653000D01*
X88599000Y-86355000D01*
X88599000Y-86355000D01*
G37*
G36*
X85996228Y-84685703D02*
X86151100Y-84749853D01*
X86290481Y-84842985D01*
X86409015Y-84961519D01*
X86502147Y-85100900D01*
X86566297Y-85255772D01*
X86599000Y-85420184D01*
X86599000Y-85587816D01*
X86566297Y-85752228D01*
X86502147Y-85907100D01*
X86409015Y-86046481D01*
X86290481Y-86165015D01*
X86151100Y-86258147D01*
X85996228Y-86322297D01*
X85831816Y-86355000D01*
X85664184Y-86355000D01*
X85499772Y-86322297D01*
X85344900Y-86258147D01*
X85205519Y-86165015D01*
X85086985Y-86046481D01*
X84993853Y-85907100D01*
X84929703Y-85752228D01*
X84897000Y-85587816D01*
X84897000Y-85420184D01*
X84929703Y-85255772D01*
X84993853Y-85100900D01*
X85086985Y-84961519D01*
X85205519Y-84842985D01*
X85344900Y-84749853D01*
X85499772Y-84685703D01*
X85664184Y-84653000D01*
X85831816Y-84653000D01*
X85996228Y-84685703D01*
X85996228Y-84685703D01*
G37*
G36*
X79455000Y-86355000D02*
X77753000Y-86355000D01*
X77753000Y-84653000D01*
X79455000Y-84653000D01*
X79455000Y-86355000D01*
X79455000Y-86355000D01*
G37*
G36*
X76852228Y-84685703D02*
X77007100Y-84749853D01*
X77146481Y-84842985D01*
X77265015Y-84961519D01*
X77358147Y-85100900D01*
X77422297Y-85255772D01*
X77455000Y-85420184D01*
X77455000Y-85587816D01*
X77422297Y-85752228D01*
X77358147Y-85907100D01*
X77265015Y-86046481D01*
X77146481Y-86165015D01*
X77007100Y-86258147D01*
X76852228Y-86322297D01*
X76687816Y-86355000D01*
X76520184Y-86355000D01*
X76355772Y-86322297D01*
X76200900Y-86258147D01*
X76061519Y-86165015D01*
X75942985Y-86046481D01*
X75849853Y-85907100D01*
X75785703Y-85752228D01*
X75753000Y-85587816D01*
X75753000Y-85420184D01*
X75785703Y-85255772D01*
X75849853Y-85100900D01*
X75942985Y-84961519D01*
X76061519Y-84842985D01*
X76200900Y-84749853D01*
X76355772Y-84685703D01*
X76520184Y-84653000D01*
X76687816Y-84653000D01*
X76852228Y-84685703D01*
X76852228Y-84685703D01*
G37*
G36*
X123588228Y-84431703D02*
X123743100Y-84495853D01*
X123882481Y-84588985D01*
X124001015Y-84707519D01*
X124094147Y-84846900D01*
X124158297Y-85001772D01*
X124191000Y-85166184D01*
X124191000Y-85333816D01*
X124158297Y-85498228D01*
X124094147Y-85653100D01*
X124001015Y-85792481D01*
X123882481Y-85911015D01*
X123743100Y-86004147D01*
X123588228Y-86068297D01*
X123423816Y-86101000D01*
X123256184Y-86101000D01*
X123091772Y-86068297D01*
X122936900Y-86004147D01*
X122797519Y-85911015D01*
X122678985Y-85792481D01*
X122585853Y-85653100D01*
X122521703Y-85498228D01*
X122489000Y-85333816D01*
X122489000Y-85166184D01*
X122521703Y-85001772D01*
X122585853Y-84846900D01*
X122678985Y-84707519D01*
X122797519Y-84588985D01*
X122936900Y-84495853D01*
X123091772Y-84431703D01*
X123256184Y-84399000D01*
X123423816Y-84399000D01*
X123588228Y-84431703D01*
X123588228Y-84431703D01*
G37*
G36*
X135081000Y-86101000D02*
X133379000Y-86101000D01*
X133379000Y-84399000D01*
X135081000Y-84399000D01*
X135081000Y-86101000D01*
X135081000Y-86101000D01*
G37*
G36*
X132478228Y-84431703D02*
X132633100Y-84495853D01*
X132772481Y-84588985D01*
X132891015Y-84707519D01*
X132984147Y-84846900D01*
X133048297Y-85001772D01*
X133081000Y-85166184D01*
X133081000Y-85333816D01*
X133048297Y-85498228D01*
X132984147Y-85653100D01*
X132891015Y-85792481D01*
X132772481Y-85911015D01*
X132633100Y-86004147D01*
X132478228Y-86068297D01*
X132313816Y-86101000D01*
X132146184Y-86101000D01*
X131981772Y-86068297D01*
X131826900Y-86004147D01*
X131687519Y-85911015D01*
X131568985Y-85792481D01*
X131475853Y-85653100D01*
X131411703Y-85498228D01*
X131379000Y-85333816D01*
X131379000Y-85166184D01*
X131411703Y-85001772D01*
X131475853Y-84846900D01*
X131568985Y-84707519D01*
X131687519Y-84588985D01*
X131826900Y-84495853D01*
X131981772Y-84431703D01*
X132146184Y-84399000D01*
X132313816Y-84399000D01*
X132478228Y-84431703D01*
X132478228Y-84431703D01*
G37*
G36*
X126191000Y-86101000D02*
X124489000Y-86101000D01*
X124489000Y-84399000D01*
X126191000Y-84399000D01*
X126191000Y-86101000D01*
X126191000Y-86101000D01*
G37*
G36*
X94156821Y-83141313D02*
X94156824Y-83141314D01*
X94156825Y-83141314D01*
X94317239Y-83189975D01*
X94317241Y-83189976D01*
X94317244Y-83189977D01*
X94465078Y-83268995D01*
X94594659Y-83375341D01*
X94701005Y-83504922D01*
X94780023Y-83652756D01*
X94828687Y-83813179D01*
X94845117Y-83980000D01*
X94828687Y-84146821D01*
X94780023Y-84307244D01*
X94701005Y-84455078D01*
X94594659Y-84584659D01*
X94465078Y-84691005D01*
X94317244Y-84770023D01*
X94317241Y-84770024D01*
X94317239Y-84770025D01*
X94156825Y-84818686D01*
X94156824Y-84818686D01*
X94156821Y-84818687D01*
X94031804Y-84831000D01*
X93148196Y-84831000D01*
X93023179Y-84818687D01*
X93023176Y-84818686D01*
X93023175Y-84818686D01*
X92862761Y-84770025D01*
X92862759Y-84770024D01*
X92862756Y-84770023D01*
X92714922Y-84691005D01*
X92585341Y-84584659D01*
X92478995Y-84455078D01*
X92399977Y-84307244D01*
X92351313Y-84146821D01*
X92334883Y-83980000D01*
X92351313Y-83813179D01*
X92399977Y-83652756D01*
X92478995Y-83504922D01*
X92585341Y-83375341D01*
X92714922Y-83268995D01*
X92862756Y-83189977D01*
X92862759Y-83189976D01*
X92862761Y-83189975D01*
X93023175Y-83141314D01*
X93023176Y-83141314D01*
X93023179Y-83141313D01*
X93148196Y-83129000D01*
X94031804Y-83129000D01*
X94156821Y-83141313D01*
X94156821Y-83141313D01*
G37*
G36*
X117016821Y-83141313D02*
X117016824Y-83141314D01*
X117016825Y-83141314D01*
X117177239Y-83189975D01*
X117177241Y-83189976D01*
X117177244Y-83189977D01*
X117325078Y-83268995D01*
X117454659Y-83375341D01*
X117561005Y-83504922D01*
X117640023Y-83652756D01*
X117688687Y-83813179D01*
X117705117Y-83980000D01*
X117688687Y-84146821D01*
X117640023Y-84307244D01*
X117561005Y-84455078D01*
X117454659Y-84584659D01*
X117325078Y-84691005D01*
X117177244Y-84770023D01*
X117177241Y-84770024D01*
X117177239Y-84770025D01*
X117016825Y-84818686D01*
X117016824Y-84818686D01*
X117016821Y-84818687D01*
X116891804Y-84831000D01*
X116008196Y-84831000D01*
X115883179Y-84818687D01*
X115883176Y-84818686D01*
X115883175Y-84818686D01*
X115722761Y-84770025D01*
X115722759Y-84770024D01*
X115722756Y-84770023D01*
X115574922Y-84691005D01*
X115445341Y-84584659D01*
X115338995Y-84455078D01*
X115259977Y-84307244D01*
X115211313Y-84146821D01*
X115194883Y-83980000D01*
X115211313Y-83813179D01*
X115259977Y-83652756D01*
X115338995Y-83504922D01*
X115445341Y-83375341D01*
X115574922Y-83268995D01*
X115722756Y-83189977D01*
X115722759Y-83189976D01*
X115722761Y-83189975D01*
X115883175Y-83141314D01*
X115883176Y-83141314D01*
X115883179Y-83141313D01*
X116008196Y-83129000D01*
X116891804Y-83129000D01*
X117016821Y-83141313D01*
X117016821Y-83141313D01*
G37*
G36*
X111536821Y-83141313D02*
X111536824Y-83141314D01*
X111536825Y-83141314D01*
X111697239Y-83189975D01*
X111697241Y-83189976D01*
X111697244Y-83189977D01*
X111845078Y-83268995D01*
X111974659Y-83375341D01*
X112081005Y-83504922D01*
X112160023Y-83652756D01*
X112208687Y-83813179D01*
X112225117Y-83980000D01*
X112208687Y-84146821D01*
X112160023Y-84307244D01*
X112081005Y-84455078D01*
X111974659Y-84584659D01*
X111845078Y-84691005D01*
X111697244Y-84770023D01*
X111697241Y-84770024D01*
X111697239Y-84770025D01*
X111536825Y-84818686D01*
X111536824Y-84818686D01*
X111536821Y-84818687D01*
X111411804Y-84831000D01*
X111328196Y-84831000D01*
X111203179Y-84818687D01*
X111203176Y-84818686D01*
X111203175Y-84818686D01*
X111042761Y-84770025D01*
X111042759Y-84770024D01*
X111042756Y-84770023D01*
X110894922Y-84691005D01*
X110765341Y-84584659D01*
X110658995Y-84455078D01*
X110579977Y-84307244D01*
X110531313Y-84146821D01*
X110514883Y-83980000D01*
X110531313Y-83813179D01*
X110579977Y-83652756D01*
X110658995Y-83504922D01*
X110765341Y-83375341D01*
X110894922Y-83268995D01*
X111042756Y-83189977D01*
X111042759Y-83189976D01*
X111042761Y-83189975D01*
X111203175Y-83141314D01*
X111203176Y-83141314D01*
X111203179Y-83141313D01*
X111328196Y-83129000D01*
X111411804Y-83129000D01*
X111536821Y-83141313D01*
X111536821Y-83141313D01*
G37*
G36*
X98836821Y-83141313D02*
X98836824Y-83141314D01*
X98836825Y-83141314D01*
X98997239Y-83189975D01*
X98997241Y-83189976D01*
X98997244Y-83189977D01*
X99145078Y-83268995D01*
X99274659Y-83375341D01*
X99381005Y-83504922D01*
X99460023Y-83652756D01*
X99508687Y-83813179D01*
X99525117Y-83980000D01*
X99508687Y-84146821D01*
X99460023Y-84307244D01*
X99381005Y-84455078D01*
X99274659Y-84584659D01*
X99145078Y-84691005D01*
X98997244Y-84770023D01*
X98997241Y-84770024D01*
X98997239Y-84770025D01*
X98836825Y-84818686D01*
X98836824Y-84818686D01*
X98836821Y-84818687D01*
X98711804Y-84831000D01*
X98628196Y-84831000D01*
X98503179Y-84818687D01*
X98503176Y-84818686D01*
X98503175Y-84818686D01*
X98342761Y-84770025D01*
X98342759Y-84770024D01*
X98342756Y-84770023D01*
X98194922Y-84691005D01*
X98065341Y-84584659D01*
X97958995Y-84455078D01*
X97879977Y-84307244D01*
X97831313Y-84146821D01*
X97814883Y-83980000D01*
X97831313Y-83813179D01*
X97879977Y-83652756D01*
X97958995Y-83504922D01*
X98065341Y-83375341D01*
X98194922Y-83268995D01*
X98342756Y-83189977D01*
X98342759Y-83189976D01*
X98342761Y-83189975D01*
X98503175Y-83141314D01*
X98503176Y-83141314D01*
X98503179Y-83141313D01*
X98628196Y-83129000D01*
X98711804Y-83129000D01*
X98836821Y-83141313D01*
X98836821Y-83141313D01*
G37*
G36*
X98836821Y-80601313D02*
X98836824Y-80601314D01*
X98836825Y-80601314D01*
X98997239Y-80649975D01*
X98997241Y-80649976D01*
X98997244Y-80649977D01*
X99145078Y-80728995D01*
X99274659Y-80835341D01*
X99381005Y-80964922D01*
X99460023Y-81112756D01*
X99508687Y-81273179D01*
X99525117Y-81440000D01*
X99508687Y-81606821D01*
X99460023Y-81767244D01*
X99381005Y-81915078D01*
X99274659Y-82044659D01*
X99145078Y-82151005D01*
X98997244Y-82230023D01*
X98997241Y-82230024D01*
X98997239Y-82230025D01*
X98836825Y-82278686D01*
X98836824Y-82278686D01*
X98836821Y-82278687D01*
X98711804Y-82291000D01*
X98628196Y-82291000D01*
X98503179Y-82278687D01*
X98503176Y-82278686D01*
X98503175Y-82278686D01*
X98342761Y-82230025D01*
X98342759Y-82230024D01*
X98342756Y-82230023D01*
X98194922Y-82151005D01*
X98065341Y-82044659D01*
X97958995Y-81915078D01*
X97879977Y-81767244D01*
X97831313Y-81606821D01*
X97814883Y-81440000D01*
X97831313Y-81273179D01*
X97879977Y-81112756D01*
X97958995Y-80964922D01*
X98065341Y-80835341D01*
X98194922Y-80728995D01*
X98342756Y-80649977D01*
X98342759Y-80649976D01*
X98342761Y-80649975D01*
X98503175Y-80601314D01*
X98503176Y-80601314D01*
X98503179Y-80601313D01*
X98628196Y-80589000D01*
X98711804Y-80589000D01*
X98836821Y-80601313D01*
X98836821Y-80601313D01*
G37*
G36*
X117016821Y-80601313D02*
X117016824Y-80601314D01*
X117016825Y-80601314D01*
X117177239Y-80649975D01*
X117177241Y-80649976D01*
X117177244Y-80649977D01*
X117325078Y-80728995D01*
X117454659Y-80835341D01*
X117561005Y-80964922D01*
X117640023Y-81112756D01*
X117688687Y-81273179D01*
X117705117Y-81440000D01*
X117688687Y-81606821D01*
X117640023Y-81767244D01*
X117561005Y-81915078D01*
X117454659Y-82044659D01*
X117325078Y-82151005D01*
X117177244Y-82230023D01*
X117177241Y-82230024D01*
X117177239Y-82230025D01*
X117016825Y-82278686D01*
X117016824Y-82278686D01*
X117016821Y-82278687D01*
X116891804Y-82291000D01*
X116008196Y-82291000D01*
X115883179Y-82278687D01*
X115883176Y-82278686D01*
X115883175Y-82278686D01*
X115722761Y-82230025D01*
X115722759Y-82230024D01*
X115722756Y-82230023D01*
X115574922Y-82151005D01*
X115445341Y-82044659D01*
X115338995Y-81915078D01*
X115259977Y-81767244D01*
X115211313Y-81606821D01*
X115194883Y-81440000D01*
X115211313Y-81273179D01*
X115259977Y-81112756D01*
X115338995Y-80964922D01*
X115445341Y-80835341D01*
X115574922Y-80728995D01*
X115722756Y-80649977D01*
X115722759Y-80649976D01*
X115722761Y-80649975D01*
X115883175Y-80601314D01*
X115883176Y-80601314D01*
X115883179Y-80601313D01*
X116008196Y-80589000D01*
X116891804Y-80589000D01*
X117016821Y-80601313D01*
X117016821Y-80601313D01*
G37*
G36*
X111536821Y-80601313D02*
X111536824Y-80601314D01*
X111536825Y-80601314D01*
X111697239Y-80649975D01*
X111697241Y-80649976D01*
X111697244Y-80649977D01*
X111845078Y-80728995D01*
X111974659Y-80835341D01*
X112081005Y-80964922D01*
X112160023Y-81112756D01*
X112208687Y-81273179D01*
X112225117Y-81440000D01*
X112208687Y-81606821D01*
X112160023Y-81767244D01*
X112081005Y-81915078D01*
X111974659Y-82044659D01*
X111845078Y-82151005D01*
X111697244Y-82230023D01*
X111697241Y-82230024D01*
X111697239Y-82230025D01*
X111536825Y-82278686D01*
X111536824Y-82278686D01*
X111536821Y-82278687D01*
X111411804Y-82291000D01*
X111328196Y-82291000D01*
X111203179Y-82278687D01*
X111203176Y-82278686D01*
X111203175Y-82278686D01*
X111042761Y-82230025D01*
X111042759Y-82230024D01*
X111042756Y-82230023D01*
X110894922Y-82151005D01*
X110765341Y-82044659D01*
X110658995Y-81915078D01*
X110579977Y-81767244D01*
X110531313Y-81606821D01*
X110514883Y-81440000D01*
X110531313Y-81273179D01*
X110579977Y-81112756D01*
X110658995Y-80964922D01*
X110765341Y-80835341D01*
X110894922Y-80728995D01*
X111042756Y-80649977D01*
X111042759Y-80649976D01*
X111042761Y-80649975D01*
X111203175Y-80601314D01*
X111203176Y-80601314D01*
X111203179Y-80601313D01*
X111328196Y-80589000D01*
X111411804Y-80589000D01*
X111536821Y-80601313D01*
X111536821Y-80601313D01*
G37*
G36*
X94156821Y-80601313D02*
X94156824Y-80601314D01*
X94156825Y-80601314D01*
X94317239Y-80649975D01*
X94317241Y-80649976D01*
X94317244Y-80649977D01*
X94465078Y-80728995D01*
X94594659Y-80835341D01*
X94701005Y-80964922D01*
X94780023Y-81112756D01*
X94828687Y-81273179D01*
X94845117Y-81440000D01*
X94828687Y-81606821D01*
X94780023Y-81767244D01*
X94701005Y-81915078D01*
X94594659Y-82044659D01*
X94465078Y-82151005D01*
X94317244Y-82230023D01*
X94317241Y-82230024D01*
X94317239Y-82230025D01*
X94156825Y-82278686D01*
X94156824Y-82278686D01*
X94156821Y-82278687D01*
X94031804Y-82291000D01*
X93148196Y-82291000D01*
X93023179Y-82278687D01*
X93023176Y-82278686D01*
X93023175Y-82278686D01*
X92862761Y-82230025D01*
X92862759Y-82230024D01*
X92862756Y-82230023D01*
X92714922Y-82151005D01*
X92585341Y-82044659D01*
X92478995Y-81915078D01*
X92399977Y-81767244D01*
X92351313Y-81606821D01*
X92334883Y-81440000D01*
X92351313Y-81273179D01*
X92399977Y-81112756D01*
X92478995Y-80964922D01*
X92585341Y-80835341D01*
X92714922Y-80728995D01*
X92862756Y-80649977D01*
X92862759Y-80649976D01*
X92862761Y-80649975D01*
X93023175Y-80601314D01*
X93023176Y-80601314D01*
X93023179Y-80601313D01*
X93148196Y-80589000D01*
X94031804Y-80589000D01*
X94156821Y-80601313D01*
X94156821Y-80601313D01*
G37*
G36*
X117016821Y-78061313D02*
X117016824Y-78061314D01*
X117016825Y-78061314D01*
X117177239Y-78109975D01*
X117177241Y-78109976D01*
X117177244Y-78109977D01*
X117325078Y-78188995D01*
X117454659Y-78295341D01*
X117561005Y-78424922D01*
X117640023Y-78572756D01*
X117688687Y-78733179D01*
X117705117Y-78900000D01*
X117688687Y-79066821D01*
X117640023Y-79227244D01*
X117561005Y-79375078D01*
X117454659Y-79504659D01*
X117325078Y-79611005D01*
X117177244Y-79690023D01*
X117177241Y-79690024D01*
X117177239Y-79690025D01*
X117016825Y-79738686D01*
X117016824Y-79738686D01*
X117016821Y-79738687D01*
X116891804Y-79751000D01*
X116008196Y-79751000D01*
X115883179Y-79738687D01*
X115883176Y-79738686D01*
X115883175Y-79738686D01*
X115722761Y-79690025D01*
X115722759Y-79690024D01*
X115722756Y-79690023D01*
X115574922Y-79611005D01*
X115445341Y-79504659D01*
X115338995Y-79375078D01*
X115259977Y-79227244D01*
X115211313Y-79066821D01*
X115194883Y-78900000D01*
X115211313Y-78733179D01*
X115259977Y-78572756D01*
X115338995Y-78424922D01*
X115445341Y-78295341D01*
X115574922Y-78188995D01*
X115722756Y-78109977D01*
X115722759Y-78109976D01*
X115722761Y-78109975D01*
X115883175Y-78061314D01*
X115883176Y-78061314D01*
X115883179Y-78061313D01*
X116008196Y-78049000D01*
X116891804Y-78049000D01*
X117016821Y-78061313D01*
X117016821Y-78061313D01*
G37*
G36*
X98836821Y-78061313D02*
X98836824Y-78061314D01*
X98836825Y-78061314D01*
X98997239Y-78109975D01*
X98997241Y-78109976D01*
X98997244Y-78109977D01*
X99145078Y-78188995D01*
X99274659Y-78295341D01*
X99381005Y-78424922D01*
X99460023Y-78572756D01*
X99508687Y-78733179D01*
X99525117Y-78900000D01*
X99508687Y-79066821D01*
X99460023Y-79227244D01*
X99381005Y-79375078D01*
X99274659Y-79504659D01*
X99145078Y-79611005D01*
X98997244Y-79690023D01*
X98997241Y-79690024D01*
X98997239Y-79690025D01*
X98836825Y-79738686D01*
X98836824Y-79738686D01*
X98836821Y-79738687D01*
X98711804Y-79751000D01*
X98628196Y-79751000D01*
X98503179Y-79738687D01*
X98503176Y-79738686D01*
X98503175Y-79738686D01*
X98342761Y-79690025D01*
X98342759Y-79690024D01*
X98342756Y-79690023D01*
X98194922Y-79611005D01*
X98065341Y-79504659D01*
X97958995Y-79375078D01*
X97879977Y-79227244D01*
X97831313Y-79066821D01*
X97814883Y-78900000D01*
X97831313Y-78733179D01*
X97879977Y-78572756D01*
X97958995Y-78424922D01*
X98065341Y-78295341D01*
X98194922Y-78188995D01*
X98342756Y-78109977D01*
X98342759Y-78109976D01*
X98342761Y-78109975D01*
X98503175Y-78061314D01*
X98503176Y-78061314D01*
X98503179Y-78061313D01*
X98628196Y-78049000D01*
X98711804Y-78049000D01*
X98836821Y-78061313D01*
X98836821Y-78061313D01*
G37*
G36*
X111536821Y-78061313D02*
X111536824Y-78061314D01*
X111536825Y-78061314D01*
X111697239Y-78109975D01*
X111697241Y-78109976D01*
X111697244Y-78109977D01*
X111845078Y-78188995D01*
X111974659Y-78295341D01*
X112081005Y-78424922D01*
X112160023Y-78572756D01*
X112208687Y-78733179D01*
X112225117Y-78900000D01*
X112208687Y-79066821D01*
X112160023Y-79227244D01*
X112081005Y-79375078D01*
X111974659Y-79504659D01*
X111845078Y-79611005D01*
X111697244Y-79690023D01*
X111697241Y-79690024D01*
X111697239Y-79690025D01*
X111536825Y-79738686D01*
X111536824Y-79738686D01*
X111536821Y-79738687D01*
X111411804Y-79751000D01*
X111328196Y-79751000D01*
X111203179Y-79738687D01*
X111203176Y-79738686D01*
X111203175Y-79738686D01*
X111042761Y-79690025D01*
X111042759Y-79690024D01*
X111042756Y-79690023D01*
X110894922Y-79611005D01*
X110765341Y-79504659D01*
X110658995Y-79375078D01*
X110579977Y-79227244D01*
X110531313Y-79066821D01*
X110514883Y-78900000D01*
X110531313Y-78733179D01*
X110579977Y-78572756D01*
X110658995Y-78424922D01*
X110765341Y-78295341D01*
X110894922Y-78188995D01*
X111042756Y-78109977D01*
X111042759Y-78109976D01*
X111042761Y-78109975D01*
X111203175Y-78061314D01*
X111203176Y-78061314D01*
X111203179Y-78061313D01*
X111328196Y-78049000D01*
X111411804Y-78049000D01*
X111536821Y-78061313D01*
X111536821Y-78061313D01*
G37*
G36*
X94156821Y-78061313D02*
X94156824Y-78061314D01*
X94156825Y-78061314D01*
X94317239Y-78109975D01*
X94317241Y-78109976D01*
X94317244Y-78109977D01*
X94465078Y-78188995D01*
X94594659Y-78295341D01*
X94701005Y-78424922D01*
X94780023Y-78572756D01*
X94828687Y-78733179D01*
X94845117Y-78900000D01*
X94828687Y-79066821D01*
X94780023Y-79227244D01*
X94701005Y-79375078D01*
X94594659Y-79504659D01*
X94465078Y-79611005D01*
X94317244Y-79690023D01*
X94317241Y-79690024D01*
X94317239Y-79690025D01*
X94156825Y-79738686D01*
X94156824Y-79738686D01*
X94156821Y-79738687D01*
X94031804Y-79751000D01*
X93148196Y-79751000D01*
X93023179Y-79738687D01*
X93023176Y-79738686D01*
X93023175Y-79738686D01*
X92862761Y-79690025D01*
X92862759Y-79690024D01*
X92862756Y-79690023D01*
X92714922Y-79611005D01*
X92585341Y-79504659D01*
X92478995Y-79375078D01*
X92399977Y-79227244D01*
X92351313Y-79066821D01*
X92334883Y-78900000D01*
X92351313Y-78733179D01*
X92399977Y-78572756D01*
X92478995Y-78424922D01*
X92585341Y-78295341D01*
X92714922Y-78188995D01*
X92862756Y-78109977D01*
X92862759Y-78109976D01*
X92862761Y-78109975D01*
X93023175Y-78061314D01*
X93023176Y-78061314D01*
X93023179Y-78061313D01*
X93148196Y-78049000D01*
X94031804Y-78049000D01*
X94156821Y-78061313D01*
X94156821Y-78061313D01*
G37*
G36*
X98836821Y-75521313D02*
X98836824Y-75521314D01*
X98836825Y-75521314D01*
X98997239Y-75569975D01*
X98997241Y-75569976D01*
X98997244Y-75569977D01*
X99145078Y-75648995D01*
X99274659Y-75755341D01*
X99381005Y-75884922D01*
X99460023Y-76032756D01*
X99508687Y-76193179D01*
X99525117Y-76360000D01*
X99508687Y-76526821D01*
X99460023Y-76687244D01*
X99381005Y-76835078D01*
X99274659Y-76964659D01*
X99145078Y-77071005D01*
X98997244Y-77150023D01*
X98997241Y-77150024D01*
X98997239Y-77150025D01*
X98836825Y-77198686D01*
X98836824Y-77198686D01*
X98836821Y-77198687D01*
X98711804Y-77211000D01*
X98628196Y-77211000D01*
X98503179Y-77198687D01*
X98503176Y-77198686D01*
X98503175Y-77198686D01*
X98342761Y-77150025D01*
X98342759Y-77150024D01*
X98342756Y-77150023D01*
X98194922Y-77071005D01*
X98065341Y-76964659D01*
X97958995Y-76835078D01*
X97879977Y-76687244D01*
X97831313Y-76526821D01*
X97814883Y-76360000D01*
X97831313Y-76193179D01*
X97879977Y-76032756D01*
X97958995Y-75884922D01*
X98065341Y-75755341D01*
X98194922Y-75648995D01*
X98342756Y-75569977D01*
X98342759Y-75569976D01*
X98342761Y-75569975D01*
X98503175Y-75521314D01*
X98503176Y-75521314D01*
X98503179Y-75521313D01*
X98628196Y-75509000D01*
X98711804Y-75509000D01*
X98836821Y-75521313D01*
X98836821Y-75521313D01*
G37*
G36*
X117016821Y-75521313D02*
X117016824Y-75521314D01*
X117016825Y-75521314D01*
X117177239Y-75569975D01*
X117177241Y-75569976D01*
X117177244Y-75569977D01*
X117325078Y-75648995D01*
X117454659Y-75755341D01*
X117561005Y-75884922D01*
X117640023Y-76032756D01*
X117688687Y-76193179D01*
X117705117Y-76360000D01*
X117688687Y-76526821D01*
X117640023Y-76687244D01*
X117561005Y-76835078D01*
X117454659Y-76964659D01*
X117325078Y-77071005D01*
X117177244Y-77150023D01*
X117177241Y-77150024D01*
X117177239Y-77150025D01*
X117016825Y-77198686D01*
X117016824Y-77198686D01*
X117016821Y-77198687D01*
X116891804Y-77211000D01*
X116008196Y-77211000D01*
X115883179Y-77198687D01*
X115883176Y-77198686D01*
X115883175Y-77198686D01*
X115722761Y-77150025D01*
X115722759Y-77150024D01*
X115722756Y-77150023D01*
X115574922Y-77071005D01*
X115445341Y-76964659D01*
X115338995Y-76835078D01*
X115259977Y-76687244D01*
X115211313Y-76526821D01*
X115194883Y-76360000D01*
X115211313Y-76193179D01*
X115259977Y-76032756D01*
X115338995Y-75884922D01*
X115445341Y-75755341D01*
X115574922Y-75648995D01*
X115722756Y-75569977D01*
X115722759Y-75569976D01*
X115722761Y-75569975D01*
X115883175Y-75521314D01*
X115883176Y-75521314D01*
X115883179Y-75521313D01*
X116008196Y-75509000D01*
X116891804Y-75509000D01*
X117016821Y-75521313D01*
X117016821Y-75521313D01*
G37*
G36*
X111536821Y-75521313D02*
X111536824Y-75521314D01*
X111536825Y-75521314D01*
X111697239Y-75569975D01*
X111697241Y-75569976D01*
X111697244Y-75569977D01*
X111845078Y-75648995D01*
X111974659Y-75755341D01*
X112081005Y-75884922D01*
X112160023Y-76032756D01*
X112208687Y-76193179D01*
X112225117Y-76360000D01*
X112208687Y-76526821D01*
X112160023Y-76687244D01*
X112081005Y-76835078D01*
X111974659Y-76964659D01*
X111845078Y-77071005D01*
X111697244Y-77150023D01*
X111697241Y-77150024D01*
X111697239Y-77150025D01*
X111536825Y-77198686D01*
X111536824Y-77198686D01*
X111536821Y-77198687D01*
X111411804Y-77211000D01*
X111328196Y-77211000D01*
X111203179Y-77198687D01*
X111203176Y-77198686D01*
X111203175Y-77198686D01*
X111042761Y-77150025D01*
X111042759Y-77150024D01*
X111042756Y-77150023D01*
X110894922Y-77071005D01*
X110765341Y-76964659D01*
X110658995Y-76835078D01*
X110579977Y-76687244D01*
X110531313Y-76526821D01*
X110514883Y-76360000D01*
X110531313Y-76193179D01*
X110579977Y-76032756D01*
X110658995Y-75884922D01*
X110765341Y-75755341D01*
X110894922Y-75648995D01*
X111042756Y-75569977D01*
X111042759Y-75569976D01*
X111042761Y-75569975D01*
X111203175Y-75521314D01*
X111203176Y-75521314D01*
X111203179Y-75521313D01*
X111328196Y-75509000D01*
X111411804Y-75509000D01*
X111536821Y-75521313D01*
X111536821Y-75521313D01*
G37*
G36*
X94156821Y-75521313D02*
X94156824Y-75521314D01*
X94156825Y-75521314D01*
X94317239Y-75569975D01*
X94317241Y-75569976D01*
X94317244Y-75569977D01*
X94465078Y-75648995D01*
X94594659Y-75755341D01*
X94701005Y-75884922D01*
X94780023Y-76032756D01*
X94828687Y-76193179D01*
X94845117Y-76360000D01*
X94828687Y-76526821D01*
X94780023Y-76687244D01*
X94701005Y-76835078D01*
X94594659Y-76964659D01*
X94465078Y-77071005D01*
X94317244Y-77150023D01*
X94317241Y-77150024D01*
X94317239Y-77150025D01*
X94156825Y-77198686D01*
X94156824Y-77198686D01*
X94156821Y-77198687D01*
X94031804Y-77211000D01*
X93148196Y-77211000D01*
X93023179Y-77198687D01*
X93023176Y-77198686D01*
X93023175Y-77198686D01*
X92862761Y-77150025D01*
X92862759Y-77150024D01*
X92862756Y-77150023D01*
X92714922Y-77071005D01*
X92585341Y-76964659D01*
X92478995Y-76835078D01*
X92399977Y-76687244D01*
X92351313Y-76526821D01*
X92334883Y-76360000D01*
X92351313Y-76193179D01*
X92399977Y-76032756D01*
X92478995Y-75884922D01*
X92585341Y-75755341D01*
X92714922Y-75648995D01*
X92862756Y-75569977D01*
X92862759Y-75569976D01*
X92862761Y-75569975D01*
X93023175Y-75521314D01*
X93023176Y-75521314D01*
X93023179Y-75521313D01*
X93148196Y-75509000D01*
X94031804Y-75509000D01*
X94156821Y-75521313D01*
X94156821Y-75521313D01*
G37*
G36*
X98836821Y-72981313D02*
X98836824Y-72981314D01*
X98836825Y-72981314D01*
X98997239Y-73029975D01*
X98997241Y-73029976D01*
X98997244Y-73029977D01*
X99145078Y-73108995D01*
X99274659Y-73215341D01*
X99381005Y-73344922D01*
X99460023Y-73492756D01*
X99508687Y-73653179D01*
X99525117Y-73820000D01*
X99508687Y-73986821D01*
X99460023Y-74147244D01*
X99381005Y-74295078D01*
X99274659Y-74424659D01*
X99145078Y-74531005D01*
X98997244Y-74610023D01*
X98997241Y-74610024D01*
X98997239Y-74610025D01*
X98836825Y-74658686D01*
X98836824Y-74658686D01*
X98836821Y-74658687D01*
X98711804Y-74671000D01*
X98628196Y-74671000D01*
X98503179Y-74658687D01*
X98503176Y-74658686D01*
X98503175Y-74658686D01*
X98342761Y-74610025D01*
X98342759Y-74610024D01*
X98342756Y-74610023D01*
X98194922Y-74531005D01*
X98065341Y-74424659D01*
X97958995Y-74295078D01*
X97879977Y-74147244D01*
X97831313Y-73986821D01*
X97814883Y-73820000D01*
X97831313Y-73653179D01*
X97879977Y-73492756D01*
X97958995Y-73344922D01*
X98065341Y-73215341D01*
X98194922Y-73108995D01*
X98342756Y-73029977D01*
X98342759Y-73029976D01*
X98342761Y-73029975D01*
X98503175Y-72981314D01*
X98503176Y-72981314D01*
X98503179Y-72981313D01*
X98628196Y-72969000D01*
X98711804Y-72969000D01*
X98836821Y-72981313D01*
X98836821Y-72981313D01*
G37*
G36*
X111536821Y-72981313D02*
X111536824Y-72981314D01*
X111536825Y-72981314D01*
X111697239Y-73029975D01*
X111697241Y-73029976D01*
X111697244Y-73029977D01*
X111845078Y-73108995D01*
X111974659Y-73215341D01*
X112081005Y-73344922D01*
X112160023Y-73492756D01*
X112208687Y-73653179D01*
X112225117Y-73820000D01*
X112208687Y-73986821D01*
X112160023Y-74147244D01*
X112081005Y-74295078D01*
X111974659Y-74424659D01*
X111845078Y-74531005D01*
X111697244Y-74610023D01*
X111697241Y-74610024D01*
X111697239Y-74610025D01*
X111536825Y-74658686D01*
X111536824Y-74658686D01*
X111536821Y-74658687D01*
X111411804Y-74671000D01*
X111328196Y-74671000D01*
X111203179Y-74658687D01*
X111203176Y-74658686D01*
X111203175Y-74658686D01*
X111042761Y-74610025D01*
X111042759Y-74610024D01*
X111042756Y-74610023D01*
X110894922Y-74531005D01*
X110765341Y-74424659D01*
X110658995Y-74295078D01*
X110579977Y-74147244D01*
X110531313Y-73986821D01*
X110514883Y-73820000D01*
X110531313Y-73653179D01*
X110579977Y-73492756D01*
X110658995Y-73344922D01*
X110765341Y-73215341D01*
X110894922Y-73108995D01*
X111042756Y-73029977D01*
X111042759Y-73029976D01*
X111042761Y-73029975D01*
X111203175Y-72981314D01*
X111203176Y-72981314D01*
X111203179Y-72981313D01*
X111328196Y-72969000D01*
X111411804Y-72969000D01*
X111536821Y-72981313D01*
X111536821Y-72981313D01*
G37*
G36*
X94156821Y-72981313D02*
X94156824Y-72981314D01*
X94156825Y-72981314D01*
X94317239Y-73029975D01*
X94317241Y-73029976D01*
X94317244Y-73029977D01*
X94465078Y-73108995D01*
X94594659Y-73215341D01*
X94701005Y-73344922D01*
X94780023Y-73492756D01*
X94828687Y-73653179D01*
X94845117Y-73820000D01*
X94828687Y-73986821D01*
X94780023Y-74147244D01*
X94701005Y-74295078D01*
X94594659Y-74424659D01*
X94465078Y-74531005D01*
X94317244Y-74610023D01*
X94317241Y-74610024D01*
X94317239Y-74610025D01*
X94156825Y-74658686D01*
X94156824Y-74658686D01*
X94156821Y-74658687D01*
X94031804Y-74671000D01*
X93148196Y-74671000D01*
X93023179Y-74658687D01*
X93023176Y-74658686D01*
X93023175Y-74658686D01*
X92862761Y-74610025D01*
X92862759Y-74610024D01*
X92862756Y-74610023D01*
X92714922Y-74531005D01*
X92585341Y-74424659D01*
X92478995Y-74295078D01*
X92399977Y-74147244D01*
X92351313Y-73986821D01*
X92334883Y-73820000D01*
X92351313Y-73653179D01*
X92399977Y-73492756D01*
X92478995Y-73344922D01*
X92585341Y-73215341D01*
X92714922Y-73108995D01*
X92862756Y-73029977D01*
X92862759Y-73029976D01*
X92862761Y-73029975D01*
X93023175Y-72981314D01*
X93023176Y-72981314D01*
X93023179Y-72981313D01*
X93148196Y-72969000D01*
X94031804Y-72969000D01*
X94156821Y-72981313D01*
X94156821Y-72981313D01*
G37*
G36*
X117016821Y-72981313D02*
X117016824Y-72981314D01*
X117016825Y-72981314D01*
X117177239Y-73029975D01*
X117177241Y-73029976D01*
X117177244Y-73029977D01*
X117325078Y-73108995D01*
X117454659Y-73215341D01*
X117561005Y-73344922D01*
X117640023Y-73492756D01*
X117688687Y-73653179D01*
X117705117Y-73820000D01*
X117688687Y-73986821D01*
X117640023Y-74147244D01*
X117561005Y-74295078D01*
X117454659Y-74424659D01*
X117325078Y-74531005D01*
X117177244Y-74610023D01*
X117177241Y-74610024D01*
X117177239Y-74610025D01*
X117016825Y-74658686D01*
X117016824Y-74658686D01*
X117016821Y-74658687D01*
X116891804Y-74671000D01*
X116008196Y-74671000D01*
X115883179Y-74658687D01*
X115883176Y-74658686D01*
X115883175Y-74658686D01*
X115722761Y-74610025D01*
X115722759Y-74610024D01*
X115722756Y-74610023D01*
X115574922Y-74531005D01*
X115445341Y-74424659D01*
X115338995Y-74295078D01*
X115259977Y-74147244D01*
X115211313Y-73986821D01*
X115194883Y-73820000D01*
X115211313Y-73653179D01*
X115259977Y-73492756D01*
X115338995Y-73344922D01*
X115445341Y-73215341D01*
X115574922Y-73108995D01*
X115722756Y-73029977D01*
X115722759Y-73029976D01*
X115722761Y-73029975D01*
X115883175Y-72981314D01*
X115883176Y-72981314D01*
X115883179Y-72981313D01*
X116008196Y-72969000D01*
X116891804Y-72969000D01*
X117016821Y-72981313D01*
X117016821Y-72981313D01*
G37*
G36*
X117016821Y-70441313D02*
X117016824Y-70441314D01*
X117016825Y-70441314D01*
X117177239Y-70489975D01*
X117177241Y-70489976D01*
X117177244Y-70489977D01*
X117325078Y-70568995D01*
X117454659Y-70675341D01*
X117561005Y-70804922D01*
X117640023Y-70952756D01*
X117688687Y-71113179D01*
X117705117Y-71280000D01*
X117688687Y-71446821D01*
X117640023Y-71607244D01*
X117561005Y-71755078D01*
X117454659Y-71884659D01*
X117325078Y-71991005D01*
X117177244Y-72070023D01*
X117177241Y-72070024D01*
X117177239Y-72070025D01*
X117016825Y-72118686D01*
X117016824Y-72118686D01*
X117016821Y-72118687D01*
X116891804Y-72131000D01*
X116008196Y-72131000D01*
X115883179Y-72118687D01*
X115883176Y-72118686D01*
X115883175Y-72118686D01*
X115722761Y-72070025D01*
X115722759Y-72070024D01*
X115722756Y-72070023D01*
X115574922Y-71991005D01*
X115445341Y-71884659D01*
X115338995Y-71755078D01*
X115259977Y-71607244D01*
X115211313Y-71446821D01*
X115194883Y-71280000D01*
X115211313Y-71113179D01*
X115259977Y-70952756D01*
X115338995Y-70804922D01*
X115445341Y-70675341D01*
X115574922Y-70568995D01*
X115722756Y-70489977D01*
X115722759Y-70489976D01*
X115722761Y-70489975D01*
X115883175Y-70441314D01*
X115883176Y-70441314D01*
X115883179Y-70441313D01*
X116008196Y-70429000D01*
X116891804Y-70429000D01*
X117016821Y-70441313D01*
X117016821Y-70441313D01*
G37*
G36*
X111536821Y-70441313D02*
X111536824Y-70441314D01*
X111536825Y-70441314D01*
X111697239Y-70489975D01*
X111697241Y-70489976D01*
X111697244Y-70489977D01*
X111845078Y-70568995D01*
X111974659Y-70675341D01*
X112081005Y-70804922D01*
X112160023Y-70952756D01*
X112208687Y-71113179D01*
X112225117Y-71280000D01*
X112208687Y-71446821D01*
X112160023Y-71607244D01*
X112081005Y-71755078D01*
X111974659Y-71884659D01*
X111845078Y-71991005D01*
X111697244Y-72070023D01*
X111697241Y-72070024D01*
X111697239Y-72070025D01*
X111536825Y-72118686D01*
X111536824Y-72118686D01*
X111536821Y-72118687D01*
X111411804Y-72131000D01*
X111328196Y-72131000D01*
X111203179Y-72118687D01*
X111203176Y-72118686D01*
X111203175Y-72118686D01*
X111042761Y-72070025D01*
X111042759Y-72070024D01*
X111042756Y-72070023D01*
X110894922Y-71991005D01*
X110765341Y-71884659D01*
X110658995Y-71755078D01*
X110579977Y-71607244D01*
X110531313Y-71446821D01*
X110514883Y-71280000D01*
X110531313Y-71113179D01*
X110579977Y-70952756D01*
X110658995Y-70804922D01*
X110765341Y-70675341D01*
X110894922Y-70568995D01*
X111042756Y-70489977D01*
X111042759Y-70489976D01*
X111042761Y-70489975D01*
X111203175Y-70441314D01*
X111203176Y-70441314D01*
X111203179Y-70441313D01*
X111328196Y-70429000D01*
X111411804Y-70429000D01*
X111536821Y-70441313D01*
X111536821Y-70441313D01*
G37*
G36*
X98836821Y-70441313D02*
X98836824Y-70441314D01*
X98836825Y-70441314D01*
X98997239Y-70489975D01*
X98997241Y-70489976D01*
X98997244Y-70489977D01*
X99145078Y-70568995D01*
X99274659Y-70675341D01*
X99381005Y-70804922D01*
X99460023Y-70952756D01*
X99508687Y-71113179D01*
X99525117Y-71280000D01*
X99508687Y-71446821D01*
X99460023Y-71607244D01*
X99381005Y-71755078D01*
X99274659Y-71884659D01*
X99145078Y-71991005D01*
X98997244Y-72070023D01*
X98997241Y-72070024D01*
X98997239Y-72070025D01*
X98836825Y-72118686D01*
X98836824Y-72118686D01*
X98836821Y-72118687D01*
X98711804Y-72131000D01*
X98628196Y-72131000D01*
X98503179Y-72118687D01*
X98503176Y-72118686D01*
X98503175Y-72118686D01*
X98342761Y-72070025D01*
X98342759Y-72070024D01*
X98342756Y-72070023D01*
X98194922Y-71991005D01*
X98065341Y-71884659D01*
X97958995Y-71755078D01*
X97879977Y-71607244D01*
X97831313Y-71446821D01*
X97814883Y-71280000D01*
X97831313Y-71113179D01*
X97879977Y-70952756D01*
X97958995Y-70804922D01*
X98065341Y-70675341D01*
X98194922Y-70568995D01*
X98342756Y-70489977D01*
X98342759Y-70489976D01*
X98342761Y-70489975D01*
X98503175Y-70441314D01*
X98503176Y-70441314D01*
X98503179Y-70441313D01*
X98628196Y-70429000D01*
X98711804Y-70429000D01*
X98836821Y-70441313D01*
X98836821Y-70441313D01*
G37*
G36*
X94156821Y-70441313D02*
X94156824Y-70441314D01*
X94156825Y-70441314D01*
X94317239Y-70489975D01*
X94317241Y-70489976D01*
X94317244Y-70489977D01*
X94465078Y-70568995D01*
X94594659Y-70675341D01*
X94701005Y-70804922D01*
X94780023Y-70952756D01*
X94828687Y-71113179D01*
X94845117Y-71280000D01*
X94828687Y-71446821D01*
X94780023Y-71607244D01*
X94701005Y-71755078D01*
X94594659Y-71884659D01*
X94465078Y-71991005D01*
X94317244Y-72070023D01*
X94317241Y-72070024D01*
X94317239Y-72070025D01*
X94156825Y-72118686D01*
X94156824Y-72118686D01*
X94156821Y-72118687D01*
X94031804Y-72131000D01*
X93148196Y-72131000D01*
X93023179Y-72118687D01*
X93023176Y-72118686D01*
X93023175Y-72118686D01*
X92862761Y-72070025D01*
X92862759Y-72070024D01*
X92862756Y-72070023D01*
X92714922Y-71991005D01*
X92585341Y-71884659D01*
X92478995Y-71755078D01*
X92399977Y-71607244D01*
X92351313Y-71446821D01*
X92334883Y-71280000D01*
X92351313Y-71113179D01*
X92399977Y-70952756D01*
X92478995Y-70804922D01*
X92585341Y-70675341D01*
X92714922Y-70568995D01*
X92862756Y-70489977D01*
X92862759Y-70489976D01*
X92862761Y-70489975D01*
X93023175Y-70441314D01*
X93023176Y-70441314D01*
X93023179Y-70441313D01*
X93148196Y-70429000D01*
X94031804Y-70429000D01*
X94156821Y-70441313D01*
X94156821Y-70441313D01*
G37*
G36*
X75636669Y-66007686D02*
X75813058Y-66025059D01*
X76039385Y-66093714D01*
X76152549Y-66128042D01*
X76465425Y-66295279D01*
X76739661Y-66520339D01*
X76964721Y-66794575D01*
X77131958Y-67107451D01*
X77131958Y-67107452D01*
X77234941Y-67446942D01*
X77269714Y-67800000D01*
X77234941Y-68153058D01*
X77201007Y-68264922D01*
X77131958Y-68492549D01*
X76964721Y-68805425D01*
X76739661Y-69079661D01*
X76465425Y-69304721D01*
X76152549Y-69471958D01*
X76039385Y-69506286D01*
X75813058Y-69574941D01*
X75650007Y-69591000D01*
X75548476Y-69601000D01*
X75371524Y-69601000D01*
X75269993Y-69591000D01*
X75106942Y-69574941D01*
X74880615Y-69506286D01*
X74767451Y-69471958D01*
X74454575Y-69304721D01*
X74180339Y-69079661D01*
X73955279Y-68805425D01*
X73788042Y-68492549D01*
X73718993Y-68264922D01*
X73685059Y-68153058D01*
X73650286Y-67800000D01*
X73685059Y-67446942D01*
X73788042Y-67107452D01*
X73788042Y-67107451D01*
X73955279Y-66794575D01*
X74180339Y-66520339D01*
X74454575Y-66295279D01*
X74767451Y-66128042D01*
X74880615Y-66093714D01*
X75106942Y-66025059D01*
X75283331Y-66007686D01*
X75371524Y-65999000D01*
X75548476Y-65999000D01*
X75636669Y-66007686D01*
X75636669Y-66007686D01*
G37*
G36*
X117016821Y-67901313D02*
X117016824Y-67901314D01*
X117016825Y-67901314D01*
X117177239Y-67949975D01*
X117177241Y-67949976D01*
X117177244Y-67949977D01*
X117325078Y-68028995D01*
X117454659Y-68135341D01*
X117561005Y-68264922D01*
X117640023Y-68412756D01*
X117688687Y-68573179D01*
X117705117Y-68740000D01*
X117688687Y-68906821D01*
X117640023Y-69067244D01*
X117561005Y-69215078D01*
X117454659Y-69344659D01*
X117325078Y-69451005D01*
X117177244Y-69530023D01*
X117177241Y-69530024D01*
X117177239Y-69530025D01*
X117016825Y-69578686D01*
X117016824Y-69578686D01*
X117016821Y-69578687D01*
X116891804Y-69591000D01*
X116008196Y-69591000D01*
X115883179Y-69578687D01*
X115883176Y-69578686D01*
X115883175Y-69578686D01*
X115722761Y-69530025D01*
X115722759Y-69530024D01*
X115722756Y-69530023D01*
X115574922Y-69451005D01*
X115445341Y-69344659D01*
X115338995Y-69215078D01*
X115259977Y-69067244D01*
X115211313Y-68906821D01*
X115194883Y-68740000D01*
X115211313Y-68573179D01*
X115259977Y-68412756D01*
X115338995Y-68264922D01*
X115445341Y-68135341D01*
X115574922Y-68028995D01*
X115722756Y-67949977D01*
X115722759Y-67949976D01*
X115722761Y-67949975D01*
X115883175Y-67901314D01*
X115883176Y-67901314D01*
X115883179Y-67901313D01*
X116008196Y-67889000D01*
X116891804Y-67889000D01*
X117016821Y-67901313D01*
X117016821Y-67901313D01*
G37*
G36*
X94156821Y-67901313D02*
X94156824Y-67901314D01*
X94156825Y-67901314D01*
X94317239Y-67949975D01*
X94317241Y-67949976D01*
X94317244Y-67949977D01*
X94465078Y-68028995D01*
X94594659Y-68135341D01*
X94701005Y-68264922D01*
X94780023Y-68412756D01*
X94828687Y-68573179D01*
X94845117Y-68740000D01*
X94828687Y-68906821D01*
X94780023Y-69067244D01*
X94701005Y-69215078D01*
X94594659Y-69344659D01*
X94465078Y-69451005D01*
X94317244Y-69530023D01*
X94317241Y-69530024D01*
X94317239Y-69530025D01*
X94156825Y-69578686D01*
X94156824Y-69578686D01*
X94156821Y-69578687D01*
X94031804Y-69591000D01*
X93148196Y-69591000D01*
X93023179Y-69578687D01*
X93023176Y-69578686D01*
X93023175Y-69578686D01*
X92862761Y-69530025D01*
X92862759Y-69530024D01*
X92862756Y-69530023D01*
X92714922Y-69451005D01*
X92585341Y-69344659D01*
X92478995Y-69215078D01*
X92399977Y-69067244D01*
X92351313Y-68906821D01*
X92334883Y-68740000D01*
X92351313Y-68573179D01*
X92399977Y-68412756D01*
X92478995Y-68264922D01*
X92585341Y-68135341D01*
X92714922Y-68028995D01*
X92862756Y-67949977D01*
X92862759Y-67949976D01*
X92862761Y-67949975D01*
X93023175Y-67901314D01*
X93023176Y-67901314D01*
X93023179Y-67901313D01*
X93148196Y-67889000D01*
X94031804Y-67889000D01*
X94156821Y-67901313D01*
X94156821Y-67901313D01*
G37*
G36*
X85642006Y-64883582D02*
X86042565Y-65049499D01*
X86403059Y-65290373D01*
X86709627Y-65596941D01*
X86950501Y-65957435D01*
X87116418Y-66357994D01*
X87201000Y-66783219D01*
X87201000Y-67216781D01*
X87116418Y-67642006D01*
X86950501Y-68042565D01*
X86709627Y-68403059D01*
X86403059Y-68709627D01*
X86042565Y-68950501D01*
X85642006Y-69116418D01*
X85216781Y-69201000D01*
X84783219Y-69201000D01*
X84357994Y-69116418D01*
X83957435Y-68950501D01*
X83596941Y-68709627D01*
X83290373Y-68403059D01*
X83049499Y-68042565D01*
X82883582Y-67642006D01*
X82799000Y-67216781D01*
X82799000Y-66783219D01*
X82883582Y-66357994D01*
X83049499Y-65957435D01*
X83290373Y-65596941D01*
X83596941Y-65290373D01*
X83957435Y-65049499D01*
X84357994Y-64883582D01*
X84783219Y-64799000D01*
X85216781Y-64799000D01*
X85642006Y-64883582D01*
X85642006Y-64883582D01*
G37*
G36*
X125642006Y-64883582D02*
X126042565Y-65049499D01*
X126403059Y-65290373D01*
X126709627Y-65596941D01*
X126950501Y-65957435D01*
X127116418Y-66357994D01*
X127201000Y-66783219D01*
X127201000Y-67216781D01*
X127116418Y-67642006D01*
X126950501Y-68042565D01*
X126709627Y-68403059D01*
X126403059Y-68709627D01*
X126042565Y-68950501D01*
X125642006Y-69116418D01*
X125216781Y-69201000D01*
X124783219Y-69201000D01*
X124357994Y-69116418D01*
X123957435Y-68950501D01*
X123596941Y-68709627D01*
X123290373Y-68403059D01*
X123049499Y-68042565D01*
X122883582Y-67642006D01*
X122799000Y-67216781D01*
X122799000Y-66783219D01*
X122883582Y-66357994D01*
X123049499Y-65957435D01*
X123290373Y-65596941D01*
X123596941Y-65290373D01*
X123957435Y-65049499D01*
X124357994Y-64883582D01*
X124783219Y-64799000D01*
X125216781Y-64799000D01*
X125642006Y-64883582D01*
X125642006Y-64883582D01*
G37*
G36*
X117016821Y-65361313D02*
X117016824Y-65361314D01*
X117016825Y-65361314D01*
X117177239Y-65409975D01*
X117177241Y-65409976D01*
X117177244Y-65409977D01*
X117325078Y-65488995D01*
X117454659Y-65595341D01*
X117561005Y-65724922D01*
X117640023Y-65872756D01*
X117640024Y-65872759D01*
X117640025Y-65872761D01*
X117678319Y-65999000D01*
X117688687Y-66033179D01*
X117705117Y-66200000D01*
X117688687Y-66366821D01*
X117640023Y-66527244D01*
X117561005Y-66675078D01*
X117454659Y-66804659D01*
X117325078Y-66911005D01*
X117177244Y-66990023D01*
X117177241Y-66990024D01*
X117177239Y-66990025D01*
X117016825Y-67038686D01*
X117016824Y-67038686D01*
X117016821Y-67038687D01*
X116891804Y-67051000D01*
X116008196Y-67051000D01*
X115883179Y-67038687D01*
X115883176Y-67038686D01*
X115883175Y-67038686D01*
X115722761Y-66990025D01*
X115722759Y-66990024D01*
X115722756Y-66990023D01*
X115574922Y-66911005D01*
X115445341Y-66804659D01*
X115338995Y-66675078D01*
X115259977Y-66527244D01*
X115211313Y-66366821D01*
X115194883Y-66200000D01*
X115211313Y-66033179D01*
X115221681Y-65999000D01*
X115259975Y-65872761D01*
X115259976Y-65872759D01*
X115259977Y-65872756D01*
X115338995Y-65724922D01*
X115445341Y-65595341D01*
X115574922Y-65488995D01*
X115722756Y-65409977D01*
X115722759Y-65409976D01*
X115722761Y-65409975D01*
X115883175Y-65361314D01*
X115883176Y-65361314D01*
X115883179Y-65361313D01*
X116008196Y-65349000D01*
X116891804Y-65349000D01*
X117016821Y-65361313D01*
X117016821Y-65361313D01*
G37*
G36*
X94156821Y-65361313D02*
X94156824Y-65361314D01*
X94156825Y-65361314D01*
X94317239Y-65409975D01*
X94317241Y-65409976D01*
X94317244Y-65409977D01*
X94465078Y-65488995D01*
X94594659Y-65595341D01*
X94701005Y-65724922D01*
X94780023Y-65872756D01*
X94780024Y-65872759D01*
X94780025Y-65872761D01*
X94818319Y-65999000D01*
X94828687Y-66033179D01*
X94845117Y-66200000D01*
X94828687Y-66366821D01*
X94780023Y-66527244D01*
X94701005Y-66675078D01*
X94594659Y-66804659D01*
X94465078Y-66911005D01*
X94317244Y-66990023D01*
X94317241Y-66990024D01*
X94317239Y-66990025D01*
X94156825Y-67038686D01*
X94156824Y-67038686D01*
X94156821Y-67038687D01*
X94031804Y-67051000D01*
X93148196Y-67051000D01*
X93023179Y-67038687D01*
X93023176Y-67038686D01*
X93023175Y-67038686D01*
X92862761Y-66990025D01*
X92862759Y-66990024D01*
X92862756Y-66990023D01*
X92714922Y-66911005D01*
X92585341Y-66804659D01*
X92478995Y-66675078D01*
X92399977Y-66527244D01*
X92351313Y-66366821D01*
X92334883Y-66200000D01*
X92351313Y-66033179D01*
X92361681Y-65999000D01*
X92399975Y-65872761D01*
X92399976Y-65872759D01*
X92399977Y-65872756D01*
X92478995Y-65724922D01*
X92585341Y-65595341D01*
X92714922Y-65488995D01*
X92862756Y-65409977D01*
X92862759Y-65409976D01*
X92862761Y-65409975D01*
X93023175Y-65361314D01*
X93023176Y-65361314D01*
X93023179Y-65361313D01*
X93148196Y-65349000D01*
X94031804Y-65349000D01*
X94156821Y-65361313D01*
X94156821Y-65361313D01*
G37*
G36*
X117016821Y-62821313D02*
X117016824Y-62821314D01*
X117016825Y-62821314D01*
X117177239Y-62869975D01*
X117177241Y-62869976D01*
X117177244Y-62869977D01*
X117325078Y-62948995D01*
X117454659Y-63055341D01*
X117561005Y-63184922D01*
X117640023Y-63332756D01*
X117640024Y-63332759D01*
X117640025Y-63332761D01*
X117688686Y-63493175D01*
X117688687Y-63493179D01*
X117705117Y-63660000D01*
X117688687Y-63826821D01*
X117688686Y-63826824D01*
X117688686Y-63826825D01*
X117663993Y-63908228D01*
X117640023Y-63987244D01*
X117561005Y-64135078D01*
X117454659Y-64264659D01*
X117325078Y-64371005D01*
X117177244Y-64450023D01*
X117177241Y-64450024D01*
X117177239Y-64450025D01*
X117016825Y-64498686D01*
X117016824Y-64498686D01*
X117016821Y-64498687D01*
X116891804Y-64511000D01*
X116008196Y-64511000D01*
X115883179Y-64498687D01*
X115883176Y-64498686D01*
X115883175Y-64498686D01*
X115722761Y-64450025D01*
X115722759Y-64450024D01*
X115722756Y-64450023D01*
X115574922Y-64371005D01*
X115445341Y-64264659D01*
X115338995Y-64135078D01*
X115259977Y-63987244D01*
X115236008Y-63908228D01*
X115211314Y-63826825D01*
X115211314Y-63826824D01*
X115211313Y-63826821D01*
X115194883Y-63660000D01*
X115211313Y-63493179D01*
X115211314Y-63493175D01*
X115259975Y-63332761D01*
X115259976Y-63332759D01*
X115259977Y-63332756D01*
X115338995Y-63184922D01*
X115445341Y-63055341D01*
X115574922Y-62948995D01*
X115722756Y-62869977D01*
X115722759Y-62869976D01*
X115722761Y-62869975D01*
X115883175Y-62821314D01*
X115883176Y-62821314D01*
X115883179Y-62821313D01*
X116008196Y-62809000D01*
X116891804Y-62809000D01*
X117016821Y-62821313D01*
X117016821Y-62821313D01*
G37*
G36*
X111967000Y-64511000D02*
X110265000Y-64511000D01*
X110265000Y-62809000D01*
X111967000Y-62809000D01*
X111967000Y-64511000D01*
X111967000Y-64511000D01*
G37*
G36*
X107864228Y-62841703D02*
X108019100Y-62905853D01*
X108158481Y-62998985D01*
X108277015Y-63117519D01*
X108370147Y-63256900D01*
X108434297Y-63411772D01*
X108467000Y-63576184D01*
X108467000Y-63743816D01*
X108434297Y-63908228D01*
X108370147Y-64063100D01*
X108277015Y-64202481D01*
X108158481Y-64321015D01*
X108019100Y-64414147D01*
X107864228Y-64478297D01*
X107699816Y-64511000D01*
X107532184Y-64511000D01*
X107367772Y-64478297D01*
X107212900Y-64414147D01*
X107073519Y-64321015D01*
X106954985Y-64202481D01*
X106861853Y-64063100D01*
X106797703Y-63908228D01*
X106765000Y-63743816D01*
X106765000Y-63576184D01*
X106797703Y-63411772D01*
X106861853Y-63256900D01*
X106954985Y-63117519D01*
X107073519Y-62998985D01*
X107212900Y-62905853D01*
X107367772Y-62841703D01*
X107532184Y-62809000D01*
X107699816Y-62809000D01*
X107864228Y-62841703D01*
X107864228Y-62841703D01*
G37*
G36*
X94156821Y-62821313D02*
X94156824Y-62821314D01*
X94156825Y-62821314D01*
X94317239Y-62869975D01*
X94317241Y-62869976D01*
X94317244Y-62869977D01*
X94465078Y-62948995D01*
X94594659Y-63055341D01*
X94701005Y-63184922D01*
X94780023Y-63332756D01*
X94780024Y-63332759D01*
X94780025Y-63332761D01*
X94828686Y-63493175D01*
X94828687Y-63493179D01*
X94845117Y-63660000D01*
X94828687Y-63826821D01*
X94828686Y-63826824D01*
X94828686Y-63826825D01*
X94803993Y-63908228D01*
X94780023Y-63987244D01*
X94701005Y-64135078D01*
X94594659Y-64264659D01*
X94465078Y-64371005D01*
X94317244Y-64450023D01*
X94317241Y-64450024D01*
X94317239Y-64450025D01*
X94156825Y-64498686D01*
X94156824Y-64498686D01*
X94156821Y-64498687D01*
X94031804Y-64511000D01*
X93148196Y-64511000D01*
X93023179Y-64498687D01*
X93023176Y-64498686D01*
X93023175Y-64498686D01*
X92862761Y-64450025D01*
X92862759Y-64450024D01*
X92862756Y-64450023D01*
X92714922Y-64371005D01*
X92585341Y-64264659D01*
X92478995Y-64135078D01*
X92399977Y-63987244D01*
X92376008Y-63908228D01*
X92351314Y-63826825D01*
X92351314Y-63826824D01*
X92351313Y-63826821D01*
X92334883Y-63660000D01*
X92351313Y-63493179D01*
X92351314Y-63493175D01*
X92399975Y-63332761D01*
X92399976Y-63332759D01*
X92399977Y-63332756D01*
X92478995Y-63184922D01*
X92585341Y-63055341D01*
X92714922Y-62948995D01*
X92862756Y-62869977D01*
X92862759Y-62869976D01*
X92862761Y-62869975D01*
X93023175Y-62821314D01*
X93023176Y-62821314D01*
X93023179Y-62821313D01*
X93148196Y-62809000D01*
X94031804Y-62809000D01*
X94156821Y-62821313D01*
X94156821Y-62821313D01*
G37*
G36*
X94156821Y-60281313D02*
X94156824Y-60281314D01*
X94156825Y-60281314D01*
X94317239Y-60329975D01*
X94317241Y-60329976D01*
X94317244Y-60329977D01*
X94465078Y-60408995D01*
X94594659Y-60515341D01*
X94701005Y-60644922D01*
X94780023Y-60792756D01*
X94828687Y-60953179D01*
X94845117Y-61120000D01*
X94828687Y-61286821D01*
X94780023Y-61447244D01*
X94701005Y-61595078D01*
X94594659Y-61724659D01*
X94465078Y-61831005D01*
X94317244Y-61910023D01*
X94317241Y-61910024D01*
X94317239Y-61910025D01*
X94156825Y-61958686D01*
X94156824Y-61958686D01*
X94156821Y-61958687D01*
X94031804Y-61971000D01*
X93148196Y-61971000D01*
X93023179Y-61958687D01*
X93023176Y-61958686D01*
X93023175Y-61958686D01*
X92862761Y-61910025D01*
X92862759Y-61910024D01*
X92862756Y-61910023D01*
X92714922Y-61831005D01*
X92585341Y-61724659D01*
X92478995Y-61595078D01*
X92399977Y-61447244D01*
X92351313Y-61286821D01*
X92334883Y-61120000D01*
X92351313Y-60953179D01*
X92399977Y-60792756D01*
X92478995Y-60644922D01*
X92585341Y-60515341D01*
X92714922Y-60408995D01*
X92862756Y-60329977D01*
X92862759Y-60329976D01*
X92862761Y-60329975D01*
X93023175Y-60281314D01*
X93023176Y-60281314D01*
X93023179Y-60281313D01*
X93148196Y-60269000D01*
X94031804Y-60269000D01*
X94156821Y-60281313D01*
X94156821Y-60281313D01*
G37*
G36*
X117016821Y-60281313D02*
X117016824Y-60281314D01*
X117016825Y-60281314D01*
X117177239Y-60329975D01*
X117177241Y-60329976D01*
X117177244Y-60329977D01*
X117325078Y-60408995D01*
X117454659Y-60515341D01*
X117561005Y-60644922D01*
X117640023Y-60792756D01*
X117688687Y-60953179D01*
X117705117Y-61120000D01*
X117688687Y-61286821D01*
X117640023Y-61447244D01*
X117561005Y-61595078D01*
X117454659Y-61724659D01*
X117325078Y-61831005D01*
X117177244Y-61910023D01*
X117177241Y-61910024D01*
X117177239Y-61910025D01*
X117016825Y-61958686D01*
X117016824Y-61958686D01*
X117016821Y-61958687D01*
X116891804Y-61971000D01*
X116008196Y-61971000D01*
X115883179Y-61958687D01*
X115883176Y-61958686D01*
X115883175Y-61958686D01*
X115722761Y-61910025D01*
X115722759Y-61910024D01*
X115722756Y-61910023D01*
X115574922Y-61831005D01*
X115445341Y-61724659D01*
X115338995Y-61595078D01*
X115259977Y-61447244D01*
X115211313Y-61286821D01*
X115194883Y-61120000D01*
X115211313Y-60953179D01*
X115259977Y-60792756D01*
X115338995Y-60644922D01*
X115445341Y-60515341D01*
X115574922Y-60408995D01*
X115722756Y-60329977D01*
X115722759Y-60329976D01*
X115722761Y-60329975D01*
X115883175Y-60281314D01*
X115883176Y-60281314D01*
X115883179Y-60281313D01*
X116008196Y-60269000D01*
X116891804Y-60269000D01*
X117016821Y-60281313D01*
X117016821Y-60281313D01*
G37*
G36*
X94156821Y-57741313D02*
X94156824Y-57741314D01*
X94156825Y-57741314D01*
X94317239Y-57789975D01*
X94317241Y-57789976D01*
X94317244Y-57789977D01*
X94465078Y-57868995D01*
X94594659Y-57975341D01*
X94701005Y-58104922D01*
X94780023Y-58252756D01*
X94828687Y-58413179D01*
X94845117Y-58580000D01*
X94828687Y-58746821D01*
X94780023Y-58907244D01*
X94701005Y-59055078D01*
X94594659Y-59184659D01*
X94465078Y-59291005D01*
X94317244Y-59370023D01*
X94317241Y-59370024D01*
X94317239Y-59370025D01*
X94156825Y-59418686D01*
X94156824Y-59418686D01*
X94156821Y-59418687D01*
X94031804Y-59431000D01*
X93148196Y-59431000D01*
X93023179Y-59418687D01*
X93023176Y-59418686D01*
X93023175Y-59418686D01*
X92862761Y-59370025D01*
X92862759Y-59370024D01*
X92862756Y-59370023D01*
X92714922Y-59291005D01*
X92585341Y-59184659D01*
X92478995Y-59055078D01*
X92399977Y-58907244D01*
X92351313Y-58746821D01*
X92334883Y-58580000D01*
X92351313Y-58413179D01*
X92399977Y-58252756D01*
X92478995Y-58104922D01*
X92585341Y-57975341D01*
X92714922Y-57868995D01*
X92862756Y-57789977D01*
X92862759Y-57789976D01*
X92862761Y-57789975D01*
X93023175Y-57741314D01*
X93023176Y-57741314D01*
X93023179Y-57741313D01*
X93148196Y-57729000D01*
X94031804Y-57729000D01*
X94156821Y-57741313D01*
X94156821Y-57741313D01*
G37*
G36*
X117016821Y-57741313D02*
X117016824Y-57741314D01*
X117016825Y-57741314D01*
X117177239Y-57789975D01*
X117177241Y-57789976D01*
X117177244Y-57789977D01*
X117325078Y-57868995D01*
X117454659Y-57975341D01*
X117561005Y-58104922D01*
X117640023Y-58252756D01*
X117688687Y-58413179D01*
X117705117Y-58580000D01*
X117688687Y-58746821D01*
X117640023Y-58907244D01*
X117561005Y-59055078D01*
X117454659Y-59184659D01*
X117325078Y-59291005D01*
X117177244Y-59370023D01*
X117177241Y-59370024D01*
X117177239Y-59370025D01*
X117016825Y-59418686D01*
X117016824Y-59418686D01*
X117016821Y-59418687D01*
X116891804Y-59431000D01*
X116008196Y-59431000D01*
X115883179Y-59418687D01*
X115883176Y-59418686D01*
X115883175Y-59418686D01*
X115722761Y-59370025D01*
X115722759Y-59370024D01*
X115722756Y-59370023D01*
X115574922Y-59291005D01*
X115445341Y-59184659D01*
X115338995Y-59055078D01*
X115259977Y-58907244D01*
X115211313Y-58746821D01*
X115194883Y-58580000D01*
X115211313Y-58413179D01*
X115259977Y-58252756D01*
X115338995Y-58104922D01*
X115445341Y-57975341D01*
X115574922Y-57868995D01*
X115722756Y-57789977D01*
X115722759Y-57789976D01*
X115722761Y-57789975D01*
X115883175Y-57741314D01*
X115883176Y-57741314D01*
X115883179Y-57741313D01*
X116008196Y-57729000D01*
X116891804Y-57729000D01*
X117016821Y-57741313D01*
X117016821Y-57741313D01*
G37*
G36*
X94156821Y-55201313D02*
X94156824Y-55201314D01*
X94156825Y-55201314D01*
X94317239Y-55249975D01*
X94317241Y-55249976D01*
X94317244Y-55249977D01*
X94465078Y-55328995D01*
X94594659Y-55435341D01*
X94701005Y-55564922D01*
X94780023Y-55712756D01*
X94780024Y-55712759D01*
X94780025Y-55712761D01*
X94828686Y-55873175D01*
X94828687Y-55873179D01*
X94845117Y-56040000D01*
X94828687Y-56206821D01*
X94828686Y-56206824D01*
X94828686Y-56206825D01*
X94816127Y-56248228D01*
X94780023Y-56367244D01*
X94701005Y-56515078D01*
X94594659Y-56644659D01*
X94465078Y-56751005D01*
X94317244Y-56830023D01*
X94317241Y-56830024D01*
X94317239Y-56830025D01*
X94156825Y-56878686D01*
X94156824Y-56878686D01*
X94156821Y-56878687D01*
X94031804Y-56891000D01*
X93148196Y-56891000D01*
X93023179Y-56878687D01*
X93023176Y-56878686D01*
X93023175Y-56878686D01*
X92862761Y-56830025D01*
X92862759Y-56830024D01*
X92862756Y-56830023D01*
X92714922Y-56751005D01*
X92585341Y-56644659D01*
X92478995Y-56515078D01*
X92399977Y-56367244D01*
X92363874Y-56248228D01*
X92351314Y-56206825D01*
X92351314Y-56206824D01*
X92351313Y-56206821D01*
X92334883Y-56040000D01*
X92351313Y-55873179D01*
X92351314Y-55873175D01*
X92399975Y-55712761D01*
X92399976Y-55712759D01*
X92399977Y-55712756D01*
X92478995Y-55564922D01*
X92585341Y-55435341D01*
X92714922Y-55328995D01*
X92862756Y-55249977D01*
X92862759Y-55249976D01*
X92862761Y-55249975D01*
X93023175Y-55201314D01*
X93023176Y-55201314D01*
X93023179Y-55201313D01*
X93148196Y-55189000D01*
X94031804Y-55189000D01*
X94156821Y-55201313D01*
X94156821Y-55201313D01*
G37*
G36*
X117016821Y-55201313D02*
X117016824Y-55201314D01*
X117016825Y-55201314D01*
X117177239Y-55249975D01*
X117177241Y-55249976D01*
X117177244Y-55249977D01*
X117325078Y-55328995D01*
X117454659Y-55435341D01*
X117561005Y-55564922D01*
X117640023Y-55712756D01*
X117640024Y-55712759D01*
X117640025Y-55712761D01*
X117688686Y-55873175D01*
X117688687Y-55873179D01*
X117705117Y-56040000D01*
X117688687Y-56206821D01*
X117688686Y-56206824D01*
X117688686Y-56206825D01*
X117676127Y-56248228D01*
X117640023Y-56367244D01*
X117561005Y-56515078D01*
X117454659Y-56644659D01*
X117325078Y-56751005D01*
X117177244Y-56830023D01*
X117177241Y-56830024D01*
X117177239Y-56830025D01*
X117016825Y-56878686D01*
X117016824Y-56878686D01*
X117016821Y-56878687D01*
X116891804Y-56891000D01*
X116008196Y-56891000D01*
X115883179Y-56878687D01*
X115883176Y-56878686D01*
X115883175Y-56878686D01*
X115722761Y-56830025D01*
X115722759Y-56830024D01*
X115722756Y-56830023D01*
X115574922Y-56751005D01*
X115445341Y-56644659D01*
X115338995Y-56515078D01*
X115259977Y-56367244D01*
X115223874Y-56248228D01*
X115211314Y-56206825D01*
X115211314Y-56206824D01*
X115211313Y-56206821D01*
X115194883Y-56040000D01*
X115211313Y-55873179D01*
X115211314Y-55873175D01*
X115259975Y-55712761D01*
X115259976Y-55712759D01*
X115259977Y-55712756D01*
X115338995Y-55564922D01*
X115445341Y-55435341D01*
X115574922Y-55328995D01*
X115722756Y-55249977D01*
X115722759Y-55249976D01*
X115722761Y-55249975D01*
X115883175Y-55201314D01*
X115883176Y-55201314D01*
X115883179Y-55201313D01*
X116008196Y-55189000D01*
X116891804Y-55189000D01*
X117016821Y-55201313D01*
X117016821Y-55201313D01*
G37*
G36*
X126851000Y-56851000D02*
X125149000Y-56851000D01*
X125149000Y-55149000D01*
X126851000Y-55149000D01*
X126851000Y-56851000D01*
X126851000Y-56851000D01*
G37*
G36*
X122748228Y-55181703D02*
X122903100Y-55245853D01*
X123042481Y-55338985D01*
X123161015Y-55457519D01*
X123254147Y-55596900D01*
X123318297Y-55751772D01*
X123351000Y-55916184D01*
X123351000Y-56083816D01*
X123318297Y-56248228D01*
X123254147Y-56403100D01*
X123161015Y-56542481D01*
X123042481Y-56661015D01*
X122903100Y-56754147D01*
X122748228Y-56818297D01*
X122583816Y-56851000D01*
X122416184Y-56851000D01*
X122251772Y-56818297D01*
X122096900Y-56754147D01*
X121957519Y-56661015D01*
X121838985Y-56542481D01*
X121745853Y-56403100D01*
X121681703Y-56248228D01*
X121649000Y-56083816D01*
X121649000Y-55916184D01*
X121681703Y-55751772D01*
X121745853Y-55596900D01*
X121838985Y-55457519D01*
X121957519Y-55338985D01*
X122096900Y-55245853D01*
X122251772Y-55181703D01*
X122416184Y-55149000D01*
X122583816Y-55149000D01*
X122748228Y-55181703D01*
X122748228Y-55181703D01*
G37*
G36*
X94156821Y-52661313D02*
X94156824Y-52661314D01*
X94156825Y-52661314D01*
X94317239Y-52709975D01*
X94317241Y-52709976D01*
X94317244Y-52709977D01*
X94465078Y-52788995D01*
X94594659Y-52895341D01*
X94701005Y-53024922D01*
X94780023Y-53172756D01*
X94828687Y-53333179D01*
X94845117Y-53500000D01*
X94828687Y-53666821D01*
X94780023Y-53827244D01*
X94701005Y-53975078D01*
X94594659Y-54104659D01*
X94465078Y-54211005D01*
X94317244Y-54290023D01*
X94317241Y-54290024D01*
X94317239Y-54290025D01*
X94156825Y-54338686D01*
X94156824Y-54338686D01*
X94156821Y-54338687D01*
X94031804Y-54351000D01*
X93148196Y-54351000D01*
X93023179Y-54338687D01*
X93023176Y-54338686D01*
X93023175Y-54338686D01*
X92862761Y-54290025D01*
X92862759Y-54290024D01*
X92862756Y-54290023D01*
X92714922Y-54211005D01*
X92585341Y-54104659D01*
X92478995Y-53975078D01*
X92399977Y-53827244D01*
X92351313Y-53666821D01*
X92334883Y-53500000D01*
X92351313Y-53333179D01*
X92399977Y-53172756D01*
X92478995Y-53024922D01*
X92585341Y-52895341D01*
X92714922Y-52788995D01*
X92862756Y-52709977D01*
X92862759Y-52709976D01*
X92862761Y-52709975D01*
X93023175Y-52661314D01*
X93023176Y-52661314D01*
X93023179Y-52661313D01*
X93148196Y-52649000D01*
X94031804Y-52649000D01*
X94156821Y-52661313D01*
X94156821Y-52661313D01*
G37*
G36*
X117016821Y-52661313D02*
X117016824Y-52661314D01*
X117016825Y-52661314D01*
X117177239Y-52709975D01*
X117177241Y-52709976D01*
X117177244Y-52709977D01*
X117325078Y-52788995D01*
X117454659Y-52895341D01*
X117561005Y-53024922D01*
X117640023Y-53172756D01*
X117688687Y-53333179D01*
X117705117Y-53500000D01*
X117688687Y-53666821D01*
X117640023Y-53827244D01*
X117561005Y-53975078D01*
X117454659Y-54104659D01*
X117325078Y-54211005D01*
X117177244Y-54290023D01*
X117177241Y-54290024D01*
X117177239Y-54290025D01*
X117016825Y-54338686D01*
X117016824Y-54338686D01*
X117016821Y-54338687D01*
X116891804Y-54351000D01*
X116008196Y-54351000D01*
X115883179Y-54338687D01*
X115883176Y-54338686D01*
X115883175Y-54338686D01*
X115722761Y-54290025D01*
X115722759Y-54290024D01*
X115722756Y-54290023D01*
X115574922Y-54211005D01*
X115445341Y-54104659D01*
X115338995Y-53975078D01*
X115259977Y-53827244D01*
X115211313Y-53666821D01*
X115194883Y-53500000D01*
X115211313Y-53333179D01*
X115259977Y-53172756D01*
X115338995Y-53024922D01*
X115445341Y-52895341D01*
X115574922Y-52788995D01*
X115722756Y-52709977D01*
X115722759Y-52709976D01*
X115722761Y-52709975D01*
X115883175Y-52661314D01*
X115883176Y-52661314D01*
X115883179Y-52661313D01*
X116008196Y-52649000D01*
X116891804Y-52649000D01*
X117016821Y-52661313D01*
X117016821Y-52661313D01*
G37*
G36*
X73116720Y-50963520D02*
X73305881Y-51020901D01*
X73480212Y-51114083D01*
X73633015Y-51239485D01*
X73758417Y-51392288D01*
X73851599Y-51566620D01*
X73908980Y-51755781D01*
X73923500Y-51903207D01*
X73923500Y-52096794D01*
X73908980Y-52244220D01*
X73851599Y-52433381D01*
X73758417Y-52607712D01*
X73633015Y-52760515D01*
X73480212Y-52885917D01*
X73305880Y-52979099D01*
X73116719Y-53036480D01*
X72920000Y-53055855D01*
X72723280Y-53036480D01*
X72534119Y-52979099D01*
X72359788Y-52885917D01*
X72206985Y-52760515D01*
X72081583Y-52607712D01*
X71988401Y-52433380D01*
X71931020Y-52244219D01*
X71916500Y-52096793D01*
X71916500Y-51903206D01*
X71931020Y-51755780D01*
X71988401Y-51566619D01*
X72081583Y-51392288D01*
X72206985Y-51239485D01*
X72359788Y-51114083D01*
X72534120Y-51020901D01*
X72723281Y-50963520D01*
X72920000Y-50944145D01*
X73116720Y-50963520D01*
X73116720Y-50963520D01*
G37*
G36*
X75656720Y-50963520D02*
X75845881Y-51020901D01*
X76020212Y-51114083D01*
X76173015Y-51239485D01*
X76298417Y-51392288D01*
X76391599Y-51566620D01*
X76448980Y-51755781D01*
X76463500Y-51903207D01*
X76463500Y-52096794D01*
X76448980Y-52244220D01*
X76391599Y-52433381D01*
X76298417Y-52607712D01*
X76173015Y-52760515D01*
X76020212Y-52885917D01*
X75845880Y-52979099D01*
X75656719Y-53036480D01*
X75460000Y-53055855D01*
X75263280Y-53036480D01*
X75074119Y-52979099D01*
X74899788Y-52885917D01*
X74746985Y-52760515D01*
X74621583Y-52607712D01*
X74528401Y-52433380D01*
X74471020Y-52244219D01*
X74456500Y-52096793D01*
X74456500Y-51903206D01*
X74471020Y-51755780D01*
X74528401Y-51566619D01*
X74621583Y-51392288D01*
X74746985Y-51239485D01*
X74899788Y-51114083D01*
X75074120Y-51020901D01*
X75263281Y-50963520D01*
X75460000Y-50944145D01*
X75656720Y-50963520D01*
X75656720Y-50963520D01*
G37*
G36*
X79003500Y-53051000D02*
X76996500Y-53051000D01*
X76996500Y-50949000D01*
X79003500Y-50949000D01*
X79003500Y-53051000D01*
X79003500Y-53051000D01*
G37*
G36*
X94156821Y-50121313D02*
X94156824Y-50121314D01*
X94156825Y-50121314D01*
X94317239Y-50169975D01*
X94317241Y-50169976D01*
X94317244Y-50169977D01*
X94465078Y-50248995D01*
X94594659Y-50355341D01*
X94701005Y-50484922D01*
X94780023Y-50632756D01*
X94828687Y-50793179D01*
X94845117Y-50960000D01*
X94828687Y-51126821D01*
X94780023Y-51287244D01*
X94701005Y-51435078D01*
X94594659Y-51564659D01*
X94465078Y-51671005D01*
X94317244Y-51750023D01*
X94317241Y-51750024D01*
X94317239Y-51750025D01*
X94156825Y-51798686D01*
X94156824Y-51798686D01*
X94156821Y-51798687D01*
X94031804Y-51811000D01*
X93148196Y-51811000D01*
X93023179Y-51798687D01*
X93023176Y-51798686D01*
X93023175Y-51798686D01*
X92862761Y-51750025D01*
X92862759Y-51750024D01*
X92862756Y-51750023D01*
X92714922Y-51671005D01*
X92585341Y-51564659D01*
X92478995Y-51435078D01*
X92399977Y-51287244D01*
X92351313Y-51126821D01*
X92334883Y-50960000D01*
X92351313Y-50793179D01*
X92399977Y-50632756D01*
X92478995Y-50484922D01*
X92585341Y-50355341D01*
X92714922Y-50248995D01*
X92862756Y-50169977D01*
X92862759Y-50169976D01*
X92862761Y-50169975D01*
X93023175Y-50121314D01*
X93023176Y-50121314D01*
X93023179Y-50121313D01*
X93148196Y-50109000D01*
X94031804Y-50109000D01*
X94156821Y-50121313D01*
X94156821Y-50121313D01*
G37*
G36*
X117016821Y-50121313D02*
X117016824Y-50121314D01*
X117016825Y-50121314D01*
X117177239Y-50169975D01*
X117177241Y-50169976D01*
X117177244Y-50169977D01*
X117325078Y-50248995D01*
X117454659Y-50355341D01*
X117561005Y-50484922D01*
X117640023Y-50632756D01*
X117688687Y-50793179D01*
X117705117Y-50960000D01*
X117688687Y-51126821D01*
X117640023Y-51287244D01*
X117561005Y-51435078D01*
X117454659Y-51564659D01*
X117325078Y-51671005D01*
X117177244Y-51750023D01*
X117177241Y-51750024D01*
X117177239Y-51750025D01*
X117016825Y-51798686D01*
X117016824Y-51798686D01*
X117016821Y-51798687D01*
X116891804Y-51811000D01*
X116008196Y-51811000D01*
X115883179Y-51798687D01*
X115883176Y-51798686D01*
X115883175Y-51798686D01*
X115722761Y-51750025D01*
X115722759Y-51750024D01*
X115722756Y-51750023D01*
X115574922Y-51671005D01*
X115445341Y-51564659D01*
X115338995Y-51435078D01*
X115259977Y-51287244D01*
X115211313Y-51126821D01*
X115194883Y-50960000D01*
X115211313Y-50793179D01*
X115259977Y-50632756D01*
X115338995Y-50484922D01*
X115445341Y-50355341D01*
X115574922Y-50248995D01*
X115722756Y-50169977D01*
X115722759Y-50169976D01*
X115722761Y-50169975D01*
X115883175Y-50121314D01*
X115883176Y-50121314D01*
X115883179Y-50121313D01*
X116008196Y-50109000D01*
X116891804Y-50109000D01*
X117016821Y-50121313D01*
X117016821Y-50121313D01*
G37*
G36*
X136801000Y-51801000D02*
X133199000Y-51801000D01*
X133199000Y-48199000D01*
X136801000Y-48199000D01*
X136801000Y-51801000D01*
X136801000Y-51801000D01*
G37*
G36*
X117016821Y-47581313D02*
X117016824Y-47581314D01*
X117016825Y-47581314D01*
X117177239Y-47629975D01*
X117177241Y-47629976D01*
X117177244Y-47629977D01*
X117325078Y-47708995D01*
X117454659Y-47815341D01*
X117561005Y-47944922D01*
X117640023Y-48092756D01*
X117688687Y-48253179D01*
X117705117Y-48420000D01*
X117688687Y-48586821D01*
X117688686Y-48586824D01*
X117688686Y-48586825D01*
X117643237Y-48736652D01*
X117640023Y-48747244D01*
X117561005Y-48895078D01*
X117454659Y-49024659D01*
X117325078Y-49131005D01*
X117177244Y-49210023D01*
X117177241Y-49210024D01*
X117177239Y-49210025D01*
X117016825Y-49258686D01*
X117016824Y-49258686D01*
X117016821Y-49258687D01*
X116891804Y-49271000D01*
X116008196Y-49271000D01*
X115883179Y-49258687D01*
X115883176Y-49258686D01*
X115883175Y-49258686D01*
X115722761Y-49210025D01*
X115722759Y-49210024D01*
X115722756Y-49210023D01*
X115574922Y-49131005D01*
X115445341Y-49024659D01*
X115338995Y-48895078D01*
X115259977Y-48747244D01*
X115256764Y-48736652D01*
X115211314Y-48586825D01*
X115211314Y-48586824D01*
X115211313Y-48586821D01*
X115194883Y-48420000D01*
X115211313Y-48253179D01*
X115259977Y-48092756D01*
X115338995Y-47944922D01*
X115445341Y-47815341D01*
X115574922Y-47708995D01*
X115722756Y-47629977D01*
X115722759Y-47629976D01*
X115722761Y-47629975D01*
X115883175Y-47581314D01*
X115883176Y-47581314D01*
X115883179Y-47581313D01*
X116008196Y-47569000D01*
X116891804Y-47569000D01*
X117016821Y-47581313D01*
X117016821Y-47581313D01*
G37*
G36*
X94156821Y-47581313D02*
X94156824Y-47581314D01*
X94156825Y-47581314D01*
X94317239Y-47629975D01*
X94317241Y-47629976D01*
X94317244Y-47629977D01*
X94465078Y-47708995D01*
X94594659Y-47815341D01*
X94701005Y-47944922D01*
X94780023Y-48092756D01*
X94828687Y-48253179D01*
X94845117Y-48420000D01*
X94828687Y-48586821D01*
X94828686Y-48586824D01*
X94828686Y-48586825D01*
X94783237Y-48736652D01*
X94780023Y-48747244D01*
X94701005Y-48895078D01*
X94594659Y-49024659D01*
X94465078Y-49131005D01*
X94317244Y-49210023D01*
X94317241Y-49210024D01*
X94317239Y-49210025D01*
X94156825Y-49258686D01*
X94156824Y-49258686D01*
X94156821Y-49258687D01*
X94031804Y-49271000D01*
X93148196Y-49271000D01*
X93023179Y-49258687D01*
X93023176Y-49258686D01*
X93023175Y-49258686D01*
X92862761Y-49210025D01*
X92862759Y-49210024D01*
X92862756Y-49210023D01*
X92714922Y-49131005D01*
X92585341Y-49024659D01*
X92478995Y-48895078D01*
X92399977Y-48747244D01*
X92396764Y-48736652D01*
X92351314Y-48586825D01*
X92351314Y-48586824D01*
X92351313Y-48586821D01*
X92334883Y-48420000D01*
X92351313Y-48253179D01*
X92399977Y-48092756D01*
X92478995Y-47944922D01*
X92585341Y-47815341D01*
X92714922Y-47708995D01*
X92862756Y-47629977D01*
X92862759Y-47629976D01*
X92862761Y-47629975D01*
X93023175Y-47581314D01*
X93023176Y-47581314D01*
X93023179Y-47581313D01*
X93148196Y-47569000D01*
X94031804Y-47569000D01*
X94156821Y-47581313D01*
X94156821Y-47581313D01*
G37*
G36*
X131426366Y-45215695D02*
X131583458Y-45263348D01*
X131728230Y-45340731D01*
X131855128Y-45444872D01*
X131959269Y-45571770D01*
X132036652Y-45716542D01*
X132084305Y-45873634D01*
X132101000Y-46043140D01*
X132101000Y-47956860D01*
X132084305Y-48126366D01*
X132036652Y-48283458D01*
X131959269Y-48428230D01*
X131855128Y-48555128D01*
X131728230Y-48659269D01*
X131583458Y-48736652D01*
X131426366Y-48784305D01*
X131256860Y-48801000D01*
X129343140Y-48801000D01*
X129173634Y-48784305D01*
X129016542Y-48736652D01*
X128871770Y-48659269D01*
X128744872Y-48555128D01*
X128640731Y-48428230D01*
X128563348Y-48283458D01*
X128515695Y-48126366D01*
X128499000Y-47956860D01*
X128499000Y-46043140D01*
X128515695Y-45873634D01*
X128563348Y-45716542D01*
X128640731Y-45571770D01*
X128744872Y-45444872D01*
X128871770Y-45340731D01*
X129016542Y-45263348D01*
X129173634Y-45215695D01*
X129343140Y-45199000D01*
X131256860Y-45199000D01*
X131426366Y-45215695D01*
X131426366Y-45215695D01*
G37*
G36*
X117016821Y-45041313D02*
X117016824Y-45041314D01*
X117016825Y-45041314D01*
X117177239Y-45089975D01*
X117177241Y-45089976D01*
X117177244Y-45089977D01*
X117325078Y-45168995D01*
X117454659Y-45275341D01*
X117561005Y-45404922D01*
X117640023Y-45552756D01*
X117640024Y-45552759D01*
X117640025Y-45552761D01*
X117684273Y-45698627D01*
X117688687Y-45713179D01*
X117705117Y-45880000D01*
X117688687Y-46046821D01*
X117688686Y-46046824D01*
X117688686Y-46046825D01*
X117653692Y-46162186D01*
X117640023Y-46207244D01*
X117561005Y-46355078D01*
X117454659Y-46484659D01*
X117325078Y-46591005D01*
X117177244Y-46670023D01*
X117177241Y-46670024D01*
X117177239Y-46670025D01*
X117016825Y-46718686D01*
X117016824Y-46718686D01*
X117016821Y-46718687D01*
X116891804Y-46731000D01*
X116008196Y-46731000D01*
X115883179Y-46718687D01*
X115883176Y-46718686D01*
X115883175Y-46718686D01*
X115722761Y-46670025D01*
X115722759Y-46670024D01*
X115722756Y-46670023D01*
X115574922Y-46591005D01*
X115445341Y-46484659D01*
X115338995Y-46355078D01*
X115259977Y-46207244D01*
X115246309Y-46162186D01*
X115211314Y-46046825D01*
X115211314Y-46046824D01*
X115211313Y-46046821D01*
X115194883Y-45880000D01*
X115211313Y-45713179D01*
X115215727Y-45698627D01*
X115259975Y-45552761D01*
X115259976Y-45552759D01*
X115259977Y-45552756D01*
X115338995Y-45404922D01*
X115445341Y-45275341D01*
X115574922Y-45168995D01*
X115722756Y-45089977D01*
X115722759Y-45089976D01*
X115722761Y-45089975D01*
X115883175Y-45041314D01*
X115883176Y-45041314D01*
X115883179Y-45041313D01*
X116008196Y-45029000D01*
X116891804Y-45029000D01*
X117016821Y-45041313D01*
X117016821Y-45041313D01*
G37*
G36*
X94156821Y-45041313D02*
X94156824Y-45041314D01*
X94156825Y-45041314D01*
X94317239Y-45089975D01*
X94317241Y-45089976D01*
X94317244Y-45089977D01*
X94465078Y-45168995D01*
X94594659Y-45275341D01*
X94701005Y-45404922D01*
X94780023Y-45552756D01*
X94780024Y-45552759D01*
X94780025Y-45552761D01*
X94824273Y-45698627D01*
X94828687Y-45713179D01*
X94845117Y-45880000D01*
X94828687Y-46046821D01*
X94828686Y-46046824D01*
X94828686Y-46046825D01*
X94793692Y-46162186D01*
X94780023Y-46207244D01*
X94701005Y-46355078D01*
X94594659Y-46484659D01*
X94465078Y-46591005D01*
X94317244Y-46670023D01*
X94317241Y-46670024D01*
X94317239Y-46670025D01*
X94156825Y-46718686D01*
X94156824Y-46718686D01*
X94156821Y-46718687D01*
X94031804Y-46731000D01*
X93148196Y-46731000D01*
X93023179Y-46718687D01*
X93023176Y-46718686D01*
X93023175Y-46718686D01*
X92862761Y-46670025D01*
X92862759Y-46670024D01*
X92862756Y-46670023D01*
X92714922Y-46591005D01*
X92585341Y-46484659D01*
X92478995Y-46355078D01*
X92399977Y-46207244D01*
X92386309Y-46162186D01*
X92351314Y-46046825D01*
X92351314Y-46046824D01*
X92351313Y-46046821D01*
X92334883Y-45880000D01*
X92351313Y-45713179D01*
X92355727Y-45698627D01*
X92399975Y-45552761D01*
X92399976Y-45552759D01*
X92399977Y-45552756D01*
X92478995Y-45404922D01*
X92585341Y-45275341D01*
X92714922Y-45168995D01*
X92862756Y-45089977D01*
X92862759Y-45089976D01*
X92862761Y-45089975D01*
X93023175Y-45041314D01*
X93023176Y-45041314D01*
X93023179Y-45041313D01*
X93148196Y-45029000D01*
X94031804Y-45029000D01*
X94156821Y-45041313D01*
X94156821Y-45041313D01*
G37*
G36*
X79796626Y-44334037D02*
X79909852Y-44368384D01*
X79966466Y-44385557D01*
X80122989Y-44469221D01*
X80260186Y-44581814D01*
X80343448Y-44683271D01*
X80372778Y-44719009D01*
X80372779Y-44719011D01*
X80456443Y-44875533D01*
X80471992Y-44926793D01*
X80507963Y-45045373D01*
X80521000Y-45177742D01*
X80521000Y-45566257D01*
X80507963Y-45698626D01*
X80456443Y-45868466D01*
X80372778Y-46024991D01*
X80372777Y-46024992D01*
X80260186Y-46162186D01*
X80165251Y-46240096D01*
X80122991Y-46274778D01*
X80122989Y-46274779D01*
X79966467Y-46358443D01*
X79925734Y-46370799D01*
X79796627Y-46409963D01*
X79620000Y-46427359D01*
X79443374Y-46409963D01*
X79314267Y-46370799D01*
X79273534Y-46358443D01*
X79117012Y-46274779D01*
X79117010Y-46274778D01*
X78979816Y-46162186D01*
X78979812Y-46162183D01*
X78867222Y-46024992D01*
X78783557Y-45868467D01*
X78766384Y-45811853D01*
X78732037Y-45698627D01*
X78719000Y-45566258D01*
X78719000Y-45177743D01*
X78719862Y-45168995D01*
X78732037Y-45045376D01*
X78732037Y-45045374D01*
X78783557Y-44875535D01*
X78783557Y-44875534D01*
X78867221Y-44719011D01*
X78979814Y-44581814D01*
X79081271Y-44498552D01*
X79117009Y-44469222D01*
X79134913Y-44459652D01*
X79273533Y-44385557D01*
X79330147Y-44368384D01*
X79443373Y-44334037D01*
X79620000Y-44316641D01*
X79796626Y-44334037D01*
X79796626Y-44334037D01*
G37*
G36*
X125516626Y-44334037D02*
X125629852Y-44368384D01*
X125686466Y-44385557D01*
X125842989Y-44469221D01*
X125980186Y-44581814D01*
X126063448Y-44683271D01*
X126092778Y-44719009D01*
X126092779Y-44719011D01*
X126176443Y-44875533D01*
X126191992Y-44926793D01*
X126227963Y-45045373D01*
X126241000Y-45177742D01*
X126241000Y-45566257D01*
X126227963Y-45698626D01*
X126176443Y-45868466D01*
X126092778Y-46024991D01*
X126092777Y-46024992D01*
X125980186Y-46162186D01*
X125885251Y-46240096D01*
X125842991Y-46274778D01*
X125842989Y-46274779D01*
X125686467Y-46358443D01*
X125645734Y-46370799D01*
X125516627Y-46409963D01*
X125340000Y-46427359D01*
X125163374Y-46409963D01*
X125034267Y-46370799D01*
X124993534Y-46358443D01*
X124837012Y-46274779D01*
X124837010Y-46274778D01*
X124699816Y-46162186D01*
X124699812Y-46162183D01*
X124587222Y-46024992D01*
X124503557Y-45868467D01*
X124486384Y-45811853D01*
X124452037Y-45698627D01*
X124439000Y-45566258D01*
X124439000Y-45177743D01*
X124439862Y-45168995D01*
X124452037Y-45045376D01*
X124452037Y-45045374D01*
X124503557Y-44875535D01*
X124503557Y-44875534D01*
X124587221Y-44719011D01*
X124699814Y-44581814D01*
X124801271Y-44498552D01*
X124837009Y-44469222D01*
X124854913Y-44459652D01*
X124993533Y-44385557D01*
X125050147Y-44368384D01*
X125163373Y-44334037D01*
X125340000Y-44316641D01*
X125516626Y-44334037D01*
X125516626Y-44334037D01*
G37*
G36*
X123558600Y-44324989D02*
X123591649Y-44335014D01*
X123622106Y-44351294D01*
X123648799Y-44373201D01*
X123670706Y-44399894D01*
X123686986Y-44430351D01*
X123697011Y-44463400D01*
X123701000Y-44503904D01*
X123701000Y-46240096D01*
X123697011Y-46280600D01*
X123686986Y-46313649D01*
X123670706Y-46344106D01*
X123648799Y-46370799D01*
X123622106Y-46392706D01*
X123591649Y-46408986D01*
X123558600Y-46419011D01*
X123518096Y-46423000D01*
X122081904Y-46423000D01*
X122041400Y-46419011D01*
X122008351Y-46408986D01*
X121977894Y-46392706D01*
X121951201Y-46370799D01*
X121929294Y-46344106D01*
X121913014Y-46313649D01*
X121902989Y-46280600D01*
X121899000Y-46240096D01*
X121899000Y-44503904D01*
X121902989Y-44463400D01*
X121913014Y-44430351D01*
X121929294Y-44399894D01*
X121951201Y-44373201D01*
X121977894Y-44351294D01*
X122008351Y-44335014D01*
X122041400Y-44324989D01*
X122081904Y-44321000D01*
X123518096Y-44321000D01*
X123558600Y-44324989D01*
X123558600Y-44324989D01*
G37*
G36*
X77838600Y-44324989D02*
X77871649Y-44335014D01*
X77902106Y-44351294D01*
X77928799Y-44373201D01*
X77950706Y-44399894D01*
X77966986Y-44430351D01*
X77977011Y-44463400D01*
X77981000Y-44503904D01*
X77981000Y-46240096D01*
X77977011Y-46280600D01*
X77966986Y-46313649D01*
X77950706Y-46344106D01*
X77928799Y-46370799D01*
X77902106Y-46392706D01*
X77871649Y-46408986D01*
X77838600Y-46419011D01*
X77798096Y-46423000D01*
X76361904Y-46423000D01*
X76321400Y-46419011D01*
X76288351Y-46408986D01*
X76257894Y-46392706D01*
X76231201Y-46370799D01*
X76209294Y-46344106D01*
X76193014Y-46313649D01*
X76182989Y-46280600D01*
X76179000Y-46240096D01*
X76179000Y-44503904D01*
X76182989Y-44463400D01*
X76193014Y-44430351D01*
X76209294Y-44399894D01*
X76231201Y-44373201D01*
X76257894Y-44351294D01*
X76288351Y-44335014D01*
X76321400Y-44324989D01*
X76361904Y-44321000D01*
X77798096Y-44321000D01*
X77838600Y-44324989D01*
X77838600Y-44324989D01*
G37*
G36*
X136226978Y-42463293D02*
X136360627Y-42503835D01*
X136483782Y-42569662D01*
X136591739Y-42658261D01*
X136680338Y-42766218D01*
X136746165Y-42889373D01*
X136786707Y-43023022D01*
X136801000Y-43168140D01*
X136801000Y-44831860D01*
X136786707Y-44976978D01*
X136746165Y-45110627D01*
X136680338Y-45233782D01*
X136591739Y-45341739D01*
X136483782Y-45430338D01*
X136360627Y-45496165D01*
X136226978Y-45536707D01*
X136081860Y-45551000D01*
X133918140Y-45551000D01*
X133773022Y-45536707D01*
X133639373Y-45496165D01*
X133516218Y-45430338D01*
X133408261Y-45341739D01*
X133319662Y-45233782D01*
X133253835Y-45110627D01*
X133213293Y-44976978D01*
X133199000Y-44831860D01*
X133199000Y-43168140D01*
X133213293Y-43023022D01*
X133253835Y-42889373D01*
X133319662Y-42766218D01*
X133408261Y-42658261D01*
X133516218Y-42569662D01*
X133639373Y-42503835D01*
X133773022Y-42463293D01*
X133918140Y-42449000D01*
X136081860Y-42449000D01*
X136226978Y-42463293D01*
X136226978Y-42463293D01*
G37*
M02*
