M48
;DRILL file {KiCad (5.0.1-3-g963ef8bb5)} date Sunday, November 18, 2018 at 12:08:48 AM
;FORMAT={-:-/ absolute / inch / decimal}
FMAT,2
INCH,TZ
T1C0.0236
T2C0.0315
T3C0.0374
T4C0.0394
T5C0.0472
%
G90
G05
M72
T1
X4.5276Y-5.9047
X4.5276Y-5.9539
X4.5276Y-6.0031
X4.5276Y-6.0524
X3.7402Y-5.8987
X3.7402Y-5.9479
X3.7402Y-5.9971
X3.7402Y-6.0463
T2
X4.8559Y-3.3563
X4.9346Y-3.3563
X4.8228Y-2.2047
X4.9606Y-2.2047
X3.8846Y-2.8063
X3.8846Y-2.9063
X3.8846Y-3.0063
X3.8846Y-3.1063
X3.8846Y-3.2063
X3.8846Y-3.3063
X3.8846Y-3.4063
X3.8846Y-3.5063
X4.3846Y-2.8063
X4.3846Y-2.9063
X4.3846Y-3.0063
X4.3846Y-3.1063
X4.3846Y-3.2063
X4.3846Y-3.3063
X4.3846Y-3.4063
X4.3846Y-3.5063
X3.3759Y-3.3663
X3.4546Y-3.3663
X3.6846Y-1.8063
X3.6846Y-1.9063
X3.6846Y-2.0063
X3.6846Y-2.1063
X3.6846Y-2.2063
X3.6846Y-2.3063
X3.6846Y-2.4063
X3.6846Y-2.5063
X3.6846Y-2.6063
X3.6846Y-2.7063
X3.6846Y-2.8063
X3.6846Y-2.9063
X3.6846Y-3.0063
X3.6846Y-3.1063
X3.6846Y-3.2063
X3.6846Y-3.3063
X3.6846Y-3.4063
X3.6846Y-3.5063
X3.6846Y-3.6063
X3.6846Y-3.7063
X4.5846Y-1.8063
X4.5846Y-1.9063
X4.5846Y-2.0063
X4.5846Y-2.1063
X4.5846Y-2.2063
X4.5846Y-2.3063
X4.5846Y-2.4063
X4.5846Y-2.5063
X4.5846Y-2.6063
X4.5846Y-2.7063
X4.5846Y-2.8063
X4.5846Y-2.9063
X4.5846Y-3.0063
X4.5846Y-3.1063
X4.5846Y-3.2063
X4.5846Y-3.3063
X4.5846Y-3.4063
X4.5846Y-3.5063
X4.5846Y-3.6063
X4.5846Y-3.7063
X4.2369Y-2.5063
X4.3746Y-2.5063
X3.0159Y-3.3663
X3.0946Y-3.3663
X5.2059Y-3.3563
X5.2846Y-3.3563
T3
X4.2913Y-5.7087
X4.2913Y-5.8087
X4.2913Y-5.9087
X4.2913Y-6.0087
X4.0126Y-4.4094
X4.1126Y-4.4094
X4.2126Y-4.4094
X4.3126Y-4.4094
X3.8685Y-5.4331
X3.9764Y-5.4331
X4.0764Y-5.4331
X4.1764Y-5.4331
X4.2764Y-5.4331
X4.3764Y-5.4331
X3.9764Y-5.7063
X3.9764Y-5.8063
X3.9764Y-5.9063
X3.9764Y-6.0063
X3.8622Y-4.8425
X3.9701Y-4.8425
X4.0701Y-4.8425
X4.1701Y-4.8425
X4.2701Y-4.8425
X4.3701Y-4.8425
T4
X3.0346Y-1.7863
X3.1346Y-1.7863
X4.8346Y-1.7863
X4.9346Y-1.7863
T5
X3.1465Y-3.6563
X3.2465Y-3.6563
X3.3465Y-3.6563
X4.9181Y-3.6563
X5.0181Y-3.6563
X5.1181Y-3.6563
X2.8709Y-2.0472
X2.9709Y-2.0472
X3.0709Y-2.0472
T4
X5.1299Y-1.811G85X5.1299Y-1.8898
G05
X5.3543Y-1.7323G85X5.2756Y-1.7323
G05
X5.3543Y-1.9685G85X5.2756Y-1.9685
G05
T0
M30
