G04 #@! TF.GenerationSoftware,KiCad,Pcbnew,(5.0.1-3-g963ef8bb5)*
G04 #@! TF.CreationDate,2018-11-18T00:16:36+02:00*
G04 #@! TF.ProjectId,volaser,766F6C617365722E6B696361645F7063,rev?*
G04 #@! TF.SameCoordinates,Original*
G04 #@! TF.FileFunction,Copper,L1,Top,Signal*
G04 #@! TF.FilePolarity,Positive*
%FSLAX46Y46*%
G04 Gerber Fmt 4.6, Leading zero omitted, Abs format (unit mm)*
G04 Created by KiCad (PCBNEW (5.0.1-3-g963ef8bb5)) date Sunday, November 18, 2018 at 12:16:36 AM*
%MOMM*%
%LPD*%
G01*
G04 APERTURE LIST*
G04 #@! TA.AperFunction,Conductor*
%ADD10C,0.100000*%
G04 #@! TD*
G04 #@! TA.AperFunction,ComponentPad*
%ADD11C,1.700000*%
G04 #@! TD*
G04 #@! TA.AperFunction,ComponentPad*
%ADD12O,1.700000X1.950000*%
G04 #@! TD*
G04 #@! TA.AperFunction,ComponentPad*
%ADD13R,3.500000X3.500000*%
G04 #@! TD*
G04 #@! TA.AperFunction,ComponentPad*
%ADD14C,3.000000*%
G04 #@! TD*
G04 #@! TA.AperFunction,ComponentPad*
%ADD15C,3.500000*%
G04 #@! TD*
G04 #@! TA.AperFunction,ComponentPad*
%ADD16R,1.600000X1.600000*%
G04 #@! TD*
G04 #@! TA.AperFunction,ComponentPad*
%ADD17O,1.600000X1.600000*%
G04 #@! TD*
G04 #@! TA.AperFunction,ComponentPad*
%ADD18O,1.905000X2.000000*%
G04 #@! TD*
G04 #@! TA.AperFunction,ComponentPad*
%ADD19R,1.905000X2.000000*%
G04 #@! TD*
G04 #@! TA.AperFunction,ComponentPad*
%ADD20O,2.400000X1.600000*%
G04 #@! TD*
G04 #@! TA.AperFunction,ComponentPad*
%ADD21O,1.700000X2.000000*%
G04 #@! TD*
G04 #@! TA.AperFunction,ComponentPad*
%ADD22C,1.600000*%
G04 #@! TD*
G04 #@! TA.AperFunction,ComponentPad*
%ADD23O,1.950000X1.700000*%
G04 #@! TD*
G04 #@! TA.AperFunction,ComponentPad*
%ADD24O,1.400000X0.900000*%
G04 #@! TD*
G04 #@! TA.AperFunction,ComponentPad*
%ADD25C,0.900000*%
G04 #@! TD*
G04 #@! TA.AperFunction,Conductor*
%ADD26C,0.250000*%
G04 #@! TD*
G04 #@! TA.AperFunction,Conductor*
%ADD27C,0.500000*%
G04 #@! TD*
G04 #@! TA.AperFunction,Conductor*
%ADD28C,0.254000*%
G04 #@! TD*
G04 APERTURE END LIST*
D10*
G04 #@! TO.N,+5V*
G04 #@! TO.C,S1*
G36*
X111784504Y-137026204D02*
X111808773Y-137029804D01*
X111832571Y-137035765D01*
X111855671Y-137044030D01*
X111877849Y-137054520D01*
X111898893Y-137067133D01*
X111918598Y-137081747D01*
X111936777Y-137098223D01*
X111953253Y-137116402D01*
X111967867Y-137136107D01*
X111980480Y-137157151D01*
X111990970Y-137179329D01*
X111999235Y-137202429D01*
X112005196Y-137226227D01*
X112008796Y-137250496D01*
X112010000Y-137275000D01*
X112010000Y-138725000D01*
X112008796Y-138749504D01*
X112005196Y-138773773D01*
X111999235Y-138797571D01*
X111990970Y-138820671D01*
X111980480Y-138842849D01*
X111967867Y-138863893D01*
X111953253Y-138883598D01*
X111936777Y-138901777D01*
X111918598Y-138918253D01*
X111898893Y-138932867D01*
X111877849Y-138945480D01*
X111855671Y-138955970D01*
X111832571Y-138964235D01*
X111808773Y-138970196D01*
X111784504Y-138973796D01*
X111760000Y-138975000D01*
X110560000Y-138975000D01*
X110535496Y-138973796D01*
X110511227Y-138970196D01*
X110487429Y-138964235D01*
X110464329Y-138955970D01*
X110442151Y-138945480D01*
X110421107Y-138932867D01*
X110401402Y-138918253D01*
X110383223Y-138901777D01*
X110366747Y-138883598D01*
X110352133Y-138863893D01*
X110339520Y-138842849D01*
X110329030Y-138820671D01*
X110320765Y-138797571D01*
X110314804Y-138773773D01*
X110311204Y-138749504D01*
X110310000Y-138725000D01*
X110310000Y-137275000D01*
X110311204Y-137250496D01*
X110314804Y-137226227D01*
X110320765Y-137202429D01*
X110329030Y-137179329D01*
X110339520Y-137157151D01*
X110352133Y-137136107D01*
X110366747Y-137116402D01*
X110383223Y-137098223D01*
X110401402Y-137081747D01*
X110421107Y-137067133D01*
X110442151Y-137054520D01*
X110464329Y-137044030D01*
X110487429Y-137035765D01*
X110511227Y-137029804D01*
X110535496Y-137026204D01*
X110560000Y-137025000D01*
X111760000Y-137025000D01*
X111784504Y-137026204D01*
X111784504Y-137026204D01*
G37*
D11*
G04 #@! TD*
G04 #@! TO.P,S1,1*
G04 #@! TO.N,+5V*
X111160000Y-138000000D03*
D12*
G04 #@! TO.P,S1,2*
G04 #@! TO.N,GND*
X108620000Y-138000000D03*
G04 #@! TO.P,S1,3*
G04 #@! TO.N,/LaserV_RX*
X106080000Y-138000000D03*
G04 #@! TO.P,S1,4*
G04 #@! TO.N,/LaserV_TX*
X103540000Y-138000000D03*
G04 #@! TO.P,S1,5*
G04 #@! TO.N,/LaserH_RX*
X101000000Y-138000000D03*
G04 #@! TO.P,S1,6*
G04 #@! TO.N,/LaserH_TX*
X98260000Y-138000000D03*
G04 #@! TD*
D13*
G04 #@! TO.P,J4,1*
G04 #@! TO.N,Net-(BT1-Pad1)*
X135000000Y-50000000D03*
D10*
G04 #@! TD*
G04 #@! TO.N,GND*
G04 #@! TO.C,J4*
G36*
X136073513Y-42503611D02*
X136146318Y-42514411D01*
X136217714Y-42532295D01*
X136287013Y-42557090D01*
X136353548Y-42588559D01*
X136416678Y-42626398D01*
X136475795Y-42670242D01*
X136530330Y-42719670D01*
X136579758Y-42774205D01*
X136623602Y-42833322D01*
X136661441Y-42896452D01*
X136692910Y-42962987D01*
X136717705Y-43032286D01*
X136735589Y-43103682D01*
X136746389Y-43176487D01*
X136750000Y-43250000D01*
X136750000Y-44750000D01*
X136746389Y-44823513D01*
X136735589Y-44896318D01*
X136717705Y-44967714D01*
X136692910Y-45037013D01*
X136661441Y-45103548D01*
X136623602Y-45166678D01*
X136579758Y-45225795D01*
X136530330Y-45280330D01*
X136475795Y-45329758D01*
X136416678Y-45373602D01*
X136353548Y-45411441D01*
X136287013Y-45442910D01*
X136217714Y-45467705D01*
X136146318Y-45485589D01*
X136073513Y-45496389D01*
X136000000Y-45500000D01*
X134000000Y-45500000D01*
X133926487Y-45496389D01*
X133853682Y-45485589D01*
X133782286Y-45467705D01*
X133712987Y-45442910D01*
X133646452Y-45411441D01*
X133583322Y-45373602D01*
X133524205Y-45329758D01*
X133469670Y-45280330D01*
X133420242Y-45225795D01*
X133376398Y-45166678D01*
X133338559Y-45103548D01*
X133307090Y-45037013D01*
X133282295Y-44967714D01*
X133264411Y-44896318D01*
X133253611Y-44823513D01*
X133250000Y-44750000D01*
X133250000Y-43250000D01*
X133253611Y-43176487D01*
X133264411Y-43103682D01*
X133282295Y-43032286D01*
X133307090Y-42962987D01*
X133338559Y-42896452D01*
X133376398Y-42833322D01*
X133420242Y-42774205D01*
X133469670Y-42719670D01*
X133524205Y-42670242D01*
X133583322Y-42626398D01*
X133646452Y-42588559D01*
X133712987Y-42557090D01*
X133782286Y-42532295D01*
X133853682Y-42514411D01*
X133926487Y-42503611D01*
X134000000Y-42500000D01*
X136000000Y-42500000D01*
X136073513Y-42503611D01*
X136073513Y-42503611D01*
G37*
D14*
G04 #@! TO.P,J4,2*
G04 #@! TO.N,GND*
X135000000Y-44000000D03*
D10*
G04 #@! TD*
G04 #@! TO.N,Net-(J4-Pad3)*
G04 #@! TO.C,J4*
G36*
X131260765Y-45254213D02*
X131345704Y-45266813D01*
X131428999Y-45287677D01*
X131509848Y-45316605D01*
X131587472Y-45353319D01*
X131661124Y-45397464D01*
X131730094Y-45448616D01*
X131793718Y-45506282D01*
X131851384Y-45569906D01*
X131902536Y-45638876D01*
X131946681Y-45712528D01*
X131983395Y-45790152D01*
X132012323Y-45871001D01*
X132033187Y-45954296D01*
X132045787Y-46039235D01*
X132050000Y-46125000D01*
X132050000Y-47875000D01*
X132045787Y-47960765D01*
X132033187Y-48045704D01*
X132012323Y-48128999D01*
X131983395Y-48209848D01*
X131946681Y-48287472D01*
X131902536Y-48361124D01*
X131851384Y-48430094D01*
X131793718Y-48493718D01*
X131730094Y-48551384D01*
X131661124Y-48602536D01*
X131587472Y-48646681D01*
X131509848Y-48683395D01*
X131428999Y-48712323D01*
X131345704Y-48733187D01*
X131260765Y-48745787D01*
X131175000Y-48750000D01*
X129425000Y-48750000D01*
X129339235Y-48745787D01*
X129254296Y-48733187D01*
X129171001Y-48712323D01*
X129090152Y-48683395D01*
X129012528Y-48646681D01*
X128938876Y-48602536D01*
X128869906Y-48551384D01*
X128806282Y-48493718D01*
X128748616Y-48430094D01*
X128697464Y-48361124D01*
X128653319Y-48287472D01*
X128616605Y-48209848D01*
X128587677Y-48128999D01*
X128566813Y-48045704D01*
X128554213Y-47960765D01*
X128550000Y-47875000D01*
X128550000Y-46125000D01*
X128554213Y-46039235D01*
X128566813Y-45954296D01*
X128587677Y-45871001D01*
X128616605Y-45790152D01*
X128653319Y-45712528D01*
X128697464Y-45638876D01*
X128748616Y-45569906D01*
X128806282Y-45506282D01*
X128869906Y-45448616D01*
X128938876Y-45397464D01*
X129012528Y-45353319D01*
X129090152Y-45316605D01*
X129171001Y-45287677D01*
X129254296Y-45266813D01*
X129339235Y-45254213D01*
X129425000Y-45250000D01*
X131175000Y-45250000D01*
X131260765Y-45254213D01*
X131260765Y-45254213D01*
G37*
D15*
G04 #@! TO.P,J4,3*
G04 #@! TO.N,Net-(J4-Pad3)*
X130300000Y-47000000D03*
G04 #@! TD*
D16*
G04 #@! TO.P,A1,1*
G04 #@! TO.N,GND*
X111370000Y-89060000D03*
D17*
G04 #@! TO.P,A1,9*
G04 #@! TO.N,/~ENABLE*
X98670000Y-71280000D03*
G04 #@! TO.P,A1,2*
G04 #@! TO.N,+3V3*
X111370000Y-86520000D03*
G04 #@! TO.P,A1,10*
G04 #@! TO.N,/MS1*
X98670000Y-73820000D03*
G04 #@! TO.P,A1,3*
G04 #@! TO.N,Net-(A1-Pad3)*
X111370000Y-83980000D03*
G04 #@! TO.P,A1,11*
G04 #@! TO.N,/MS2*
X98670000Y-76360000D03*
G04 #@! TO.P,A1,4*
G04 #@! TO.N,Net-(A1-Pad4)*
X111370000Y-81440000D03*
G04 #@! TO.P,A1,12*
G04 #@! TO.N,/MS3*
X98670000Y-78900000D03*
G04 #@! TO.P,A1,5*
G04 #@! TO.N,Net-(A1-Pad5)*
X111370000Y-78900000D03*
G04 #@! TO.P,A1,13*
G04 #@! TO.N,Net-(A1-Pad13)*
X98670000Y-81440000D03*
G04 #@! TO.P,A1,6*
G04 #@! TO.N,Net-(A1-Pad6)*
X111370000Y-76360000D03*
G04 #@! TO.P,A1,14*
G04 #@! TO.N,Net-(A1-Pad13)*
X98670000Y-83980000D03*
G04 #@! TO.P,A1,7*
G04 #@! TO.N,GND*
X111370000Y-73820000D03*
G04 #@! TO.P,A1,15*
G04 #@! TO.N,/STEP*
X98670000Y-86520000D03*
G04 #@! TO.P,A1,8*
G04 #@! TO.N,+BATT*
X111370000Y-71280000D03*
G04 #@! TO.P,A1,16*
G04 #@! TO.N,/DIR*
X98670000Y-89060000D03*
G04 #@! TD*
D18*
G04 #@! TO.P,U1,3*
G04 #@! TO.N,+5V*
X124920000Y-92870000D03*
G04 #@! TO.P,U1,2*
G04 #@! TO.N,GND*
X127460000Y-92870000D03*
D19*
G04 #@! TO.P,U1,1*
G04 #@! TO.N,+BATT*
X130000000Y-92870000D03*
G04 #@! TD*
G04 #@! TO.P,U2,1*
G04 #@! TO.N,GND*
X85000000Y-92870000D03*
D18*
G04 #@! TO.P,U2,2*
G04 #@! TO.N,+3V3*
X82460000Y-92870000D03*
G04 #@! TO.P,U2,3*
G04 #@! TO.N,+BATT*
X79920000Y-92870000D03*
G04 #@! TD*
D20*
G04 #@! TO.P,U3,1*
G04 #@! TO.N,GND*
X93590000Y-45880000D03*
G04 #@! TO.P,U3,2*
G04 #@! TO.N,Net-(U3-Pad2)*
X93590000Y-48420000D03*
G04 #@! TO.P,U3,3*
G04 #@! TO.N,Net-(U3-Pad3)*
X93590000Y-50960000D03*
G04 #@! TO.P,U3,4*
G04 #@! TO.N,GND*
X93590000Y-53500000D03*
G04 #@! TO.P,U3,5*
G04 #@! TO.N,+3V3*
X93590000Y-56040000D03*
G04 #@! TO.P,U3,6*
G04 #@! TO.N,Net-(U3-Pad6)*
X93590000Y-58580000D03*
G04 #@! TO.P,U3,7*
G04 #@! TO.N,/LaserH_TX*
X93590000Y-61120000D03*
G04 #@! TO.P,U3,8*
G04 #@! TO.N,/LaserH_RX*
X93590000Y-63660000D03*
G04 #@! TO.P,U3,9*
G04 #@! TO.N,/LaserV_TX*
X93590000Y-66200000D03*
G04 #@! TO.P,U3,10*
G04 #@! TO.N,/LaserV_RX*
X93590000Y-68740000D03*
G04 #@! TO.P,U3,11*
G04 #@! TO.N,/~ENABLE*
X93590000Y-71280000D03*
G04 #@! TO.P,U3,12*
G04 #@! TO.N,/MS1*
X93590000Y-73820000D03*
G04 #@! TO.P,U3,13*
G04 #@! TO.N,/MS2*
X93590000Y-76360000D03*
G04 #@! TO.P,U3,14*
G04 #@! TO.N,/MS3*
X93590000Y-78900000D03*
G04 #@! TO.P,U3,15*
G04 #@! TO.N,/STEP*
X93590000Y-81440000D03*
G04 #@! TO.P,U3,16*
G04 #@! TO.N,/DIR*
X93590000Y-83980000D03*
G04 #@! TO.P,U3,17*
G04 #@! TO.N,Net-(U3-Pad17)*
X93590000Y-86520000D03*
G04 #@! TO.P,U3,18*
G04 #@! TO.N,Net-(U3-Pad18)*
X93590000Y-89060000D03*
G04 #@! TO.P,U3,19*
G04 #@! TO.N,Net-(U3-Pad19)*
X93590000Y-91600000D03*
G04 #@! TO.P,U3,20*
G04 #@! TO.N,Net-(U3-Pad20)*
X93590000Y-94140000D03*
G04 #@! TO.P,U3,21*
G04 #@! TO.N,Net-(U3-Pad21)*
X116450000Y-94140000D03*
G04 #@! TO.P,U3,22*
G04 #@! TO.N,Net-(U3-Pad22)*
X116450000Y-91600000D03*
G04 #@! TO.P,U3,23*
G04 #@! TO.N,Net-(U3-Pad23)*
X116450000Y-89060000D03*
G04 #@! TO.P,U3,24*
G04 #@! TO.N,Net-(U3-Pad24)*
X116450000Y-86520000D03*
G04 #@! TO.P,U3,25*
G04 #@! TO.N,Net-(U3-Pad25)*
X116450000Y-83980000D03*
G04 #@! TO.P,U3,26*
G04 #@! TO.N,Net-(U3-Pad26)*
X116450000Y-81440000D03*
G04 #@! TO.P,U3,27*
G04 #@! TO.N,Net-(U3-Pad27)*
X116450000Y-78900000D03*
G04 #@! TO.P,U3,28*
G04 #@! TO.N,Net-(U3-Pad28)*
X116450000Y-76360000D03*
G04 #@! TO.P,U3,29*
G04 #@! TO.N,Net-(U3-Pad29)*
X116450000Y-73820000D03*
G04 #@! TO.P,U3,30*
G04 #@! TO.N,Net-(U3-Pad30)*
X116450000Y-71280000D03*
G04 #@! TO.P,U3,31*
G04 #@! TO.N,Net-(U3-Pad31)*
X116450000Y-68740000D03*
G04 #@! TO.P,U3,32*
G04 #@! TO.N,Net-(U3-Pad32)*
X116450000Y-66200000D03*
G04 #@! TO.P,U3,33*
G04 #@! TO.N,Net-(U3-Pad33)*
X116450000Y-63660000D03*
G04 #@! TO.P,U3,34*
G04 #@! TO.N,Net-(U3-Pad34)*
X116450000Y-61120000D03*
G04 #@! TO.P,U3,35*
G04 #@! TO.N,Net-(U3-Pad35)*
X116450000Y-58580000D03*
G04 #@! TO.P,U3,36*
G04 #@! TO.N,Net-(U3-Pad36)*
X116450000Y-56040000D03*
G04 #@! TO.P,U3,37*
G04 #@! TO.N,Net-(U3-Pad37)*
X116450000Y-53500000D03*
G04 #@! TO.P,U3,38*
G04 #@! TO.N,Net-(U3-Pad38)*
X116450000Y-50960000D03*
G04 #@! TO.P,U3,39*
G04 #@! TO.N,Net-(U3-Pad39)*
X116450000Y-48420000D03*
G04 #@! TO.P,U3,40*
G04 #@! TO.N,Net-(U3-Pad40)*
X116450000Y-45880000D03*
G04 #@! TD*
D10*
G04 #@! TO.N,Net-(BT1-Pad1)*
G04 #@! TO.C,BT1*
G36*
X123424504Y-44373204D02*
X123448773Y-44376804D01*
X123472571Y-44382765D01*
X123495671Y-44391030D01*
X123517849Y-44401520D01*
X123538893Y-44414133D01*
X123558598Y-44428747D01*
X123576777Y-44445223D01*
X123593253Y-44463402D01*
X123607867Y-44483107D01*
X123620480Y-44504151D01*
X123630970Y-44526329D01*
X123639235Y-44549429D01*
X123645196Y-44573227D01*
X123648796Y-44597496D01*
X123650000Y-44622000D01*
X123650000Y-46122000D01*
X123648796Y-46146504D01*
X123645196Y-46170773D01*
X123639235Y-46194571D01*
X123630970Y-46217671D01*
X123620480Y-46239849D01*
X123607867Y-46260893D01*
X123593253Y-46280598D01*
X123576777Y-46298777D01*
X123558598Y-46315253D01*
X123538893Y-46329867D01*
X123517849Y-46342480D01*
X123495671Y-46352970D01*
X123472571Y-46361235D01*
X123448773Y-46367196D01*
X123424504Y-46370796D01*
X123400000Y-46372000D01*
X122200000Y-46372000D01*
X122175496Y-46370796D01*
X122151227Y-46367196D01*
X122127429Y-46361235D01*
X122104329Y-46352970D01*
X122082151Y-46342480D01*
X122061107Y-46329867D01*
X122041402Y-46315253D01*
X122023223Y-46298777D01*
X122006747Y-46280598D01*
X121992133Y-46260893D01*
X121979520Y-46239849D01*
X121969030Y-46217671D01*
X121960765Y-46194571D01*
X121954804Y-46170773D01*
X121951204Y-46146504D01*
X121950000Y-46122000D01*
X121950000Y-44622000D01*
X121951204Y-44597496D01*
X121954804Y-44573227D01*
X121960765Y-44549429D01*
X121969030Y-44526329D01*
X121979520Y-44504151D01*
X121992133Y-44483107D01*
X122006747Y-44463402D01*
X122023223Y-44445223D01*
X122041402Y-44428747D01*
X122061107Y-44414133D01*
X122082151Y-44401520D01*
X122104329Y-44391030D01*
X122127429Y-44382765D01*
X122151227Y-44376804D01*
X122175496Y-44373204D01*
X122200000Y-44372000D01*
X123400000Y-44372000D01*
X123424504Y-44373204D01*
X123424504Y-44373204D01*
G37*
D11*
G04 #@! TD*
G04 #@! TO.P,BT1,1*
G04 #@! TO.N,Net-(BT1-Pad1)*
X122800000Y-45372000D03*
D21*
G04 #@! TO.P,BT1,2*
G04 #@! TO.N,GND*
X125340000Y-45372000D03*
G04 #@! TD*
D16*
G04 #@! TO.P,C5,1*
G04 #@! TO.N,+BATT*
X111116000Y-63660000D03*
D22*
G04 #@! TO.P,C5,2*
G04 #@! TO.N,GND*
X107616000Y-63660000D03*
G04 #@! TD*
D10*
G04 #@! TO.N,GND*
G04 #@! TO.C,J1*
G36*
X109749504Y-144151204D02*
X109773773Y-144154804D01*
X109797571Y-144160765D01*
X109820671Y-144169030D01*
X109842849Y-144179520D01*
X109863893Y-144192133D01*
X109883598Y-144206747D01*
X109901777Y-144223223D01*
X109918253Y-144241402D01*
X109932867Y-144261107D01*
X109945480Y-144282151D01*
X109955970Y-144304329D01*
X109964235Y-144327429D01*
X109970196Y-144351227D01*
X109973796Y-144375496D01*
X109975000Y-144400000D01*
X109975000Y-145600000D01*
X109973796Y-145624504D01*
X109970196Y-145648773D01*
X109964235Y-145672571D01*
X109955970Y-145695671D01*
X109945480Y-145717849D01*
X109932867Y-145738893D01*
X109918253Y-145758598D01*
X109901777Y-145776777D01*
X109883598Y-145793253D01*
X109863893Y-145807867D01*
X109842849Y-145820480D01*
X109820671Y-145830970D01*
X109797571Y-145839235D01*
X109773773Y-145845196D01*
X109749504Y-145848796D01*
X109725000Y-145850000D01*
X108275000Y-145850000D01*
X108250496Y-145848796D01*
X108226227Y-145845196D01*
X108202429Y-145839235D01*
X108179329Y-145830970D01*
X108157151Y-145820480D01*
X108136107Y-145807867D01*
X108116402Y-145793253D01*
X108098223Y-145776777D01*
X108081747Y-145758598D01*
X108067133Y-145738893D01*
X108054520Y-145717849D01*
X108044030Y-145695671D01*
X108035765Y-145672571D01*
X108029804Y-145648773D01*
X108026204Y-145624504D01*
X108025000Y-145600000D01*
X108025000Y-144400000D01*
X108026204Y-144375496D01*
X108029804Y-144351227D01*
X108035765Y-144327429D01*
X108044030Y-144304329D01*
X108054520Y-144282151D01*
X108067133Y-144261107D01*
X108081747Y-144241402D01*
X108098223Y-144223223D01*
X108116402Y-144206747D01*
X108136107Y-144192133D01*
X108157151Y-144179520D01*
X108179329Y-144169030D01*
X108202429Y-144160765D01*
X108226227Y-144154804D01*
X108250496Y-144151204D01*
X108275000Y-144150000D01*
X109725000Y-144150000D01*
X109749504Y-144151204D01*
X109749504Y-144151204D01*
G37*
D11*
G04 #@! TD*
G04 #@! TO.P,J1,1*
G04 #@! TO.N,GND*
X109000000Y-145000000D03*
D23*
G04 #@! TO.P,J1,2*
G04 #@! TO.N,+5V*
X109000000Y-147540000D03*
G04 #@! TO.P,J1,3*
G04 #@! TO.N,/LaserV_RX*
X109000000Y-150080000D03*
G04 #@! TO.P,J1,4*
G04 #@! TO.N,/LaserV_TX*
X109000000Y-152620000D03*
G04 #@! TD*
G04 #@! TO.P,J2,4*
G04 #@! TO.N,/LaserH_TX*
X101000000Y-144940000D03*
G04 #@! TO.P,J2,3*
G04 #@! TO.N,/LaserH_RX*
X101000000Y-147480000D03*
G04 #@! TO.P,J2,2*
G04 #@! TO.N,+5V*
X101000000Y-150020000D03*
D10*
G04 #@! TD*
G04 #@! TO.N,GND*
G04 #@! TO.C,J2*
G36*
X101749504Y-151711204D02*
X101773773Y-151714804D01*
X101797571Y-151720765D01*
X101820671Y-151729030D01*
X101842849Y-151739520D01*
X101863893Y-151752133D01*
X101883598Y-151766747D01*
X101901777Y-151783223D01*
X101918253Y-151801402D01*
X101932867Y-151821107D01*
X101945480Y-151842151D01*
X101955970Y-151864329D01*
X101964235Y-151887429D01*
X101970196Y-151911227D01*
X101973796Y-151935496D01*
X101975000Y-151960000D01*
X101975000Y-153160000D01*
X101973796Y-153184504D01*
X101970196Y-153208773D01*
X101964235Y-153232571D01*
X101955970Y-153255671D01*
X101945480Y-153277849D01*
X101932867Y-153298893D01*
X101918253Y-153318598D01*
X101901777Y-153336777D01*
X101883598Y-153353253D01*
X101863893Y-153367867D01*
X101842849Y-153380480D01*
X101820671Y-153390970D01*
X101797571Y-153399235D01*
X101773773Y-153405196D01*
X101749504Y-153408796D01*
X101725000Y-153410000D01*
X100275000Y-153410000D01*
X100250496Y-153408796D01*
X100226227Y-153405196D01*
X100202429Y-153399235D01*
X100179329Y-153390970D01*
X100157151Y-153380480D01*
X100136107Y-153367867D01*
X100116402Y-153353253D01*
X100098223Y-153336777D01*
X100081747Y-153318598D01*
X100067133Y-153298893D01*
X100054520Y-153277849D01*
X100044030Y-153255671D01*
X100035765Y-153232571D01*
X100029804Y-153208773D01*
X100026204Y-153184504D01*
X100025000Y-153160000D01*
X100025000Y-151960000D01*
X100026204Y-151935496D01*
X100029804Y-151911227D01*
X100035765Y-151887429D01*
X100044030Y-151864329D01*
X100054520Y-151842151D01*
X100067133Y-151821107D01*
X100081747Y-151801402D01*
X100098223Y-151783223D01*
X100116402Y-151766747D01*
X100136107Y-151752133D01*
X100157151Y-151739520D01*
X100179329Y-151729030D01*
X100202429Y-151720765D01*
X100226227Y-151714804D01*
X100250496Y-151711204D01*
X100275000Y-151710000D01*
X101725000Y-151710000D01*
X101749504Y-151711204D01*
X101749504Y-151711204D01*
G37*
D11*
G04 #@! TO.P,J2,1*
G04 #@! TO.N,GND*
X101000000Y-152560000D03*
G04 #@! TD*
D24*
G04 #@! TO.P,L1,4*
G04 #@! TO.N,/LaserV_TX*
X115000000Y-153730000D03*
G04 #@! TO.P,L1,3*
G04 #@! TO.N,/LaserV_RX*
X115000000Y-152480000D03*
G04 #@! TO.P,L1,2*
G04 #@! TO.N,+5V*
X115000000Y-151230000D03*
D10*
G04 #@! TD*
G04 #@! TO.N,GND*
G04 #@! TO.C,L1*
G36*
X115497054Y-149531083D02*
X115518895Y-149534323D01*
X115540314Y-149539688D01*
X115561104Y-149547127D01*
X115581064Y-149556568D01*
X115600003Y-149567919D01*
X115617738Y-149581073D01*
X115634099Y-149595901D01*
X115648927Y-149612262D01*
X115662081Y-149629997D01*
X115673432Y-149648936D01*
X115682873Y-149668896D01*
X115690312Y-149689686D01*
X115695677Y-149711105D01*
X115698917Y-149732946D01*
X115700000Y-149755000D01*
X115700000Y-150205000D01*
X115698917Y-150227054D01*
X115695677Y-150248895D01*
X115690312Y-150270314D01*
X115682873Y-150291104D01*
X115673432Y-150311064D01*
X115662081Y-150330003D01*
X115648927Y-150347738D01*
X115634099Y-150364099D01*
X115617738Y-150378927D01*
X115600003Y-150392081D01*
X115581064Y-150403432D01*
X115561104Y-150412873D01*
X115540314Y-150420312D01*
X115518895Y-150425677D01*
X115497054Y-150428917D01*
X115475000Y-150430000D01*
X114525000Y-150430000D01*
X114502946Y-150428917D01*
X114481105Y-150425677D01*
X114459686Y-150420312D01*
X114438896Y-150412873D01*
X114418936Y-150403432D01*
X114399997Y-150392081D01*
X114382262Y-150378927D01*
X114365901Y-150364099D01*
X114351073Y-150347738D01*
X114337919Y-150330003D01*
X114326568Y-150311064D01*
X114317127Y-150291104D01*
X114309688Y-150270314D01*
X114304323Y-150248895D01*
X114301083Y-150227054D01*
X114300000Y-150205000D01*
X114300000Y-149755000D01*
X114301083Y-149732946D01*
X114304323Y-149711105D01*
X114309688Y-149689686D01*
X114317127Y-149668896D01*
X114326568Y-149648936D01*
X114337919Y-149629997D01*
X114351073Y-149612262D01*
X114365901Y-149595901D01*
X114382262Y-149581073D01*
X114399997Y-149567919D01*
X114418936Y-149556568D01*
X114438896Y-149547127D01*
X114459686Y-149539688D01*
X114481105Y-149534323D01*
X114502946Y-149531083D01*
X114525000Y-149530000D01*
X115475000Y-149530000D01*
X115497054Y-149531083D01*
X115497054Y-149531083D01*
G37*
D25*
G04 #@! TO.P,L1,1*
G04 #@! TO.N,GND*
X115000000Y-149980000D03*
G04 #@! TD*
D10*
G04 #@! TO.N,GND*
G04 #@! TO.C,L2*
G36*
X95497054Y-153127083D02*
X95518895Y-153130323D01*
X95540314Y-153135688D01*
X95561104Y-153143127D01*
X95581064Y-153152568D01*
X95600003Y-153163919D01*
X95617738Y-153177073D01*
X95634099Y-153191901D01*
X95648927Y-153208262D01*
X95662081Y-153225997D01*
X95673432Y-153244936D01*
X95682873Y-153264896D01*
X95690312Y-153285686D01*
X95695677Y-153307105D01*
X95698917Y-153328946D01*
X95700000Y-153351000D01*
X95700000Y-153801000D01*
X95698917Y-153823054D01*
X95695677Y-153844895D01*
X95690312Y-153866314D01*
X95682873Y-153887104D01*
X95673432Y-153907064D01*
X95662081Y-153926003D01*
X95648927Y-153943738D01*
X95634099Y-153960099D01*
X95617738Y-153974927D01*
X95600003Y-153988081D01*
X95581064Y-153999432D01*
X95561104Y-154008873D01*
X95540314Y-154016312D01*
X95518895Y-154021677D01*
X95497054Y-154024917D01*
X95475000Y-154026000D01*
X94525000Y-154026000D01*
X94502946Y-154024917D01*
X94481105Y-154021677D01*
X94459686Y-154016312D01*
X94438896Y-154008873D01*
X94418936Y-153999432D01*
X94399997Y-153988081D01*
X94382262Y-153974927D01*
X94365901Y-153960099D01*
X94351073Y-153943738D01*
X94337919Y-153926003D01*
X94326568Y-153907064D01*
X94317127Y-153887104D01*
X94309688Y-153866314D01*
X94304323Y-153844895D01*
X94301083Y-153823054D01*
X94300000Y-153801000D01*
X94300000Y-153351000D01*
X94301083Y-153328946D01*
X94304323Y-153307105D01*
X94309688Y-153285686D01*
X94317127Y-153264896D01*
X94326568Y-153244936D01*
X94337919Y-153225997D01*
X94351073Y-153208262D01*
X94365901Y-153191901D01*
X94382262Y-153177073D01*
X94399997Y-153163919D01*
X94418936Y-153152568D01*
X94438896Y-153143127D01*
X94459686Y-153135688D01*
X94481105Y-153130323D01*
X94502946Y-153127083D01*
X94525000Y-153126000D01*
X95475000Y-153126000D01*
X95497054Y-153127083D01*
X95497054Y-153127083D01*
G37*
D25*
G04 #@! TD*
G04 #@! TO.P,L2,1*
G04 #@! TO.N,GND*
X95000000Y-153576000D03*
D24*
G04 #@! TO.P,L2,2*
G04 #@! TO.N,+5V*
X95000000Y-152326000D03*
G04 #@! TO.P,L2,3*
G04 #@! TO.N,/LaserH_RX*
X95000000Y-151076000D03*
G04 #@! TO.P,L2,4*
G04 #@! TO.N,/LaserH_TX*
X95000000Y-149826000D03*
G04 #@! TD*
D21*
G04 #@! TO.P,SW1,2*
G04 #@! TO.N,Net-(Q1-Pad2)*
X79620000Y-45372000D03*
D10*
G04 #@! TD*
G04 #@! TO.N,Net-(BT1-Pad1)*
G04 #@! TO.C,SW1*
G36*
X77704504Y-44373204D02*
X77728773Y-44376804D01*
X77752571Y-44382765D01*
X77775671Y-44391030D01*
X77797849Y-44401520D01*
X77818893Y-44414133D01*
X77838598Y-44428747D01*
X77856777Y-44445223D01*
X77873253Y-44463402D01*
X77887867Y-44483107D01*
X77900480Y-44504151D01*
X77910970Y-44526329D01*
X77919235Y-44549429D01*
X77925196Y-44573227D01*
X77928796Y-44597496D01*
X77930000Y-44622000D01*
X77930000Y-46122000D01*
X77928796Y-46146504D01*
X77925196Y-46170773D01*
X77919235Y-46194571D01*
X77910970Y-46217671D01*
X77900480Y-46239849D01*
X77887867Y-46260893D01*
X77873253Y-46280598D01*
X77856777Y-46298777D01*
X77838598Y-46315253D01*
X77818893Y-46329867D01*
X77797849Y-46342480D01*
X77775671Y-46352970D01*
X77752571Y-46361235D01*
X77728773Y-46367196D01*
X77704504Y-46370796D01*
X77680000Y-46372000D01*
X76480000Y-46372000D01*
X76455496Y-46370796D01*
X76431227Y-46367196D01*
X76407429Y-46361235D01*
X76384329Y-46352970D01*
X76362151Y-46342480D01*
X76341107Y-46329867D01*
X76321402Y-46315253D01*
X76303223Y-46298777D01*
X76286747Y-46280598D01*
X76272133Y-46260893D01*
X76259520Y-46239849D01*
X76249030Y-46217671D01*
X76240765Y-46194571D01*
X76234804Y-46170773D01*
X76231204Y-46146504D01*
X76230000Y-46122000D01*
X76230000Y-44622000D01*
X76231204Y-44597496D01*
X76234804Y-44573227D01*
X76240765Y-44549429D01*
X76249030Y-44526329D01*
X76259520Y-44504151D01*
X76272133Y-44483107D01*
X76286747Y-44463402D01*
X76303223Y-44445223D01*
X76321402Y-44428747D01*
X76341107Y-44414133D01*
X76362151Y-44401520D01*
X76384329Y-44391030D01*
X76407429Y-44382765D01*
X76431227Y-44376804D01*
X76455496Y-44373204D01*
X76480000Y-44372000D01*
X77680000Y-44372000D01*
X77704504Y-44373204D01*
X77704504Y-44373204D01*
G37*
D11*
G04 #@! TO.P,SW1,1*
G04 #@! TO.N,Net-(BT1-Pad1)*
X77080000Y-45372000D03*
G04 #@! TD*
D10*
G04 #@! TO.N,+5V*
G04 #@! TO.C,J3*
G36*
X111624504Y-122026204D02*
X111648773Y-122029804D01*
X111672571Y-122035765D01*
X111695671Y-122044030D01*
X111717849Y-122054520D01*
X111738893Y-122067133D01*
X111758598Y-122081747D01*
X111776777Y-122098223D01*
X111793253Y-122116402D01*
X111807867Y-122136107D01*
X111820480Y-122157151D01*
X111830970Y-122179329D01*
X111839235Y-122202429D01*
X111845196Y-122226227D01*
X111848796Y-122250496D01*
X111850000Y-122275000D01*
X111850000Y-123725000D01*
X111848796Y-123749504D01*
X111845196Y-123773773D01*
X111839235Y-123797571D01*
X111830970Y-123820671D01*
X111820480Y-123842849D01*
X111807867Y-123863893D01*
X111793253Y-123883598D01*
X111776777Y-123901777D01*
X111758598Y-123918253D01*
X111738893Y-123932867D01*
X111717849Y-123945480D01*
X111695671Y-123955970D01*
X111672571Y-123964235D01*
X111648773Y-123970196D01*
X111624504Y-123973796D01*
X111600000Y-123975000D01*
X110400000Y-123975000D01*
X110375496Y-123973796D01*
X110351227Y-123970196D01*
X110327429Y-123964235D01*
X110304329Y-123955970D01*
X110282151Y-123945480D01*
X110261107Y-123932867D01*
X110241402Y-123918253D01*
X110223223Y-123901777D01*
X110206747Y-123883598D01*
X110192133Y-123863893D01*
X110179520Y-123842849D01*
X110169030Y-123820671D01*
X110160765Y-123797571D01*
X110154804Y-123773773D01*
X110151204Y-123749504D01*
X110150000Y-123725000D01*
X110150000Y-122275000D01*
X110151204Y-122250496D01*
X110154804Y-122226227D01*
X110160765Y-122202429D01*
X110169030Y-122179329D01*
X110179520Y-122157151D01*
X110192133Y-122136107D01*
X110206747Y-122116402D01*
X110223223Y-122098223D01*
X110241402Y-122081747D01*
X110261107Y-122067133D01*
X110282151Y-122054520D01*
X110304329Y-122044030D01*
X110327429Y-122035765D01*
X110351227Y-122029804D01*
X110375496Y-122026204D01*
X110400000Y-122025000D01*
X111600000Y-122025000D01*
X111624504Y-122026204D01*
X111624504Y-122026204D01*
G37*
D11*
G04 #@! TD*
G04 #@! TO.P,J3,1*
G04 #@! TO.N,+5V*
X111000000Y-123000000D03*
D12*
G04 #@! TO.P,J3,2*
G04 #@! TO.N,GND*
X108460000Y-123000000D03*
G04 #@! TO.P,J3,3*
G04 #@! TO.N,/LaserV_RX*
X105920000Y-123000000D03*
G04 #@! TO.P,J3,4*
G04 #@! TO.N,/LaserV_TX*
X103380000Y-123000000D03*
G04 #@! TO.P,J3,5*
G04 #@! TO.N,/LaserH_RX*
X100840000Y-123000000D03*
G04 #@! TO.P,J3,6*
G04 #@! TO.N,/LaserH_TX*
X98100000Y-123000000D03*
G04 #@! TD*
D10*
G04 #@! TO.N,Net-(A1-Pad3)*
G04 #@! TO.C,M1*
G36*
X110164504Y-111026204D02*
X110188773Y-111029804D01*
X110212571Y-111035765D01*
X110235671Y-111044030D01*
X110257849Y-111054520D01*
X110278893Y-111067133D01*
X110298598Y-111081747D01*
X110316777Y-111098223D01*
X110333253Y-111116402D01*
X110347867Y-111136107D01*
X110360480Y-111157151D01*
X110370970Y-111179329D01*
X110379235Y-111202429D01*
X110385196Y-111226227D01*
X110388796Y-111250496D01*
X110390000Y-111275000D01*
X110390000Y-112725000D01*
X110388796Y-112749504D01*
X110385196Y-112773773D01*
X110379235Y-112797571D01*
X110370970Y-112820671D01*
X110360480Y-112842849D01*
X110347867Y-112863893D01*
X110333253Y-112883598D01*
X110316777Y-112901777D01*
X110298598Y-112918253D01*
X110278893Y-112932867D01*
X110257849Y-112945480D01*
X110235671Y-112955970D01*
X110212571Y-112964235D01*
X110188773Y-112970196D01*
X110164504Y-112973796D01*
X110140000Y-112975000D01*
X108940000Y-112975000D01*
X108915496Y-112973796D01*
X108891227Y-112970196D01*
X108867429Y-112964235D01*
X108844329Y-112955970D01*
X108822151Y-112945480D01*
X108801107Y-112932867D01*
X108781402Y-112918253D01*
X108763223Y-112901777D01*
X108746747Y-112883598D01*
X108732133Y-112863893D01*
X108719520Y-112842849D01*
X108709030Y-112820671D01*
X108700765Y-112797571D01*
X108694804Y-112773773D01*
X108691204Y-112749504D01*
X108690000Y-112725000D01*
X108690000Y-111275000D01*
X108691204Y-111250496D01*
X108694804Y-111226227D01*
X108700765Y-111202429D01*
X108709030Y-111179329D01*
X108719520Y-111157151D01*
X108732133Y-111136107D01*
X108746747Y-111116402D01*
X108763223Y-111098223D01*
X108781402Y-111081747D01*
X108801107Y-111067133D01*
X108822151Y-111054520D01*
X108844329Y-111044030D01*
X108867429Y-111035765D01*
X108891227Y-111029804D01*
X108915496Y-111026204D01*
X108940000Y-111025000D01*
X110140000Y-111025000D01*
X110164504Y-111026204D01*
X110164504Y-111026204D01*
G37*
D11*
G04 #@! TD*
G04 #@! TO.P,M1,1*
G04 #@! TO.N,Net-(A1-Pad3)*
X109540000Y-112000000D03*
D12*
G04 #@! TO.P,M1,2*
G04 #@! TO.N,Net-(A1-Pad4)*
X107000000Y-112000000D03*
G04 #@! TO.P,M1,3*
G04 #@! TO.N,Net-(A1-Pad5)*
X104460000Y-112000000D03*
G04 #@! TO.P,M1,4*
G04 #@! TO.N,Net-(A1-Pad6)*
X101920000Y-112000000D03*
G04 #@! TD*
D16*
G04 #@! TO.P,C6,1*
G04 #@! TO.N,Net-(BT1-Pad1)*
X126000000Y-56000000D03*
D22*
G04 #@! TO.P,C6,2*
G04 #@! TO.N,GND*
X122500000Y-56000000D03*
G04 #@! TD*
D16*
G04 #@! TO.P,C1,1*
G04 #@! TO.N,GND*
X134230000Y-85250000D03*
D22*
G04 #@! TO.P,C1,2*
G04 #@! TO.N,+BATT*
X132230000Y-85250000D03*
G04 #@! TD*
G04 #@! TO.P,C2,2*
G04 #@! TO.N,GND*
X123340000Y-85250000D03*
D16*
G04 #@! TO.P,C2,1*
G04 #@! TO.N,+5V*
X125340000Y-85250000D03*
G04 #@! TD*
G04 #@! TO.P,C3,1*
G04 #@! TO.N,+BATT*
X78604000Y-85504000D03*
D22*
G04 #@! TO.P,C3,2*
G04 #@! TO.N,GND*
X76604000Y-85504000D03*
G04 #@! TD*
G04 #@! TO.P,C4,2*
G04 #@! TO.N,GND*
X85748000Y-85504000D03*
D16*
G04 #@! TO.P,C4,1*
G04 #@! TO.N,+3V3*
X87748000Y-85504000D03*
G04 #@! TD*
D19*
G04 #@! TO.P,Q1,1*
G04 #@! TO.N,GND*
X78000000Y-52000000D03*
D18*
G04 #@! TO.P,Q1,2*
G04 #@! TO.N,Net-(Q1-Pad2)*
X75460000Y-52000000D03*
G04 #@! TO.P,Q1,3*
G04 #@! TO.N,+BATT*
X72920000Y-52000000D03*
G04 #@! TD*
D26*
G04 #@! TO.N,GND*
X108460000Y-123125000D02*
X105450010Y-126134990D01*
X108460000Y-123000000D02*
X108460000Y-123125000D01*
X105450010Y-126134990D02*
X105450010Y-134956010D01*
X105450010Y-134956010D02*
X106544000Y-136050000D01*
X108620000Y-137875000D02*
X108620000Y-138000000D01*
X106795000Y-136050000D02*
X108620000Y-137875000D01*
X106544000Y-136050000D02*
X106795000Y-136050000D01*
G04 #@! TO.N,/~ENABLE*
X93590000Y-71280000D02*
X98670000Y-71280000D01*
G04 #@! TO.N,/MS1*
X93590000Y-73820000D02*
X98670000Y-73820000D01*
G04 #@! TO.N,Net-(A1-Pad3)*
X109540000Y-85810000D02*
X111370000Y-83980000D01*
X109540000Y-112000000D02*
X109540000Y-85810000D01*
G04 #@! TO.N,/MS2*
X93590000Y-76360000D02*
X98670000Y-76360000D01*
G04 #@! TO.N,Net-(A1-Pad4)*
X107000000Y-85810000D02*
X111370000Y-81440000D01*
X107000000Y-112000000D02*
X107000000Y-85810000D01*
G04 #@! TO.N,/MS3*
X93590000Y-78900000D02*
X98670000Y-78900000D01*
G04 #@! TO.N,Net-(A1-Pad5)*
X104460000Y-85810000D02*
X111370000Y-78900000D01*
X104460000Y-112000000D02*
X104460000Y-85810000D01*
G04 #@! TO.N,Net-(A1-Pad13)*
X98670000Y-81440000D02*
X98670000Y-83980000D01*
G04 #@! TO.N,Net-(A1-Pad6)*
X101920000Y-85810000D02*
X111370000Y-76360000D01*
X101920000Y-112000000D02*
X101920000Y-85810000D01*
G04 #@! TO.N,/STEP*
X96130000Y-83980000D02*
X98670000Y-86520000D01*
X96130000Y-82710000D02*
X96130000Y-83980000D01*
X94860000Y-81440000D02*
X96130000Y-82710000D01*
X93590000Y-81440000D02*
X94860000Y-81440000D01*
D27*
G04 #@! TO.N,+BATT*
X112620010Y-72530010D02*
X121256010Y-72530010D01*
X111370000Y-71280000D02*
X112620010Y-72530010D01*
X121256010Y-72530010D02*
X130000000Y-81274000D01*
X130000000Y-82710000D02*
X130000000Y-84000000D01*
X130000000Y-81274000D02*
X130000000Y-82710000D01*
X130730000Y-85250000D02*
X130000000Y-85250000D01*
X130000000Y-85250000D02*
X130000000Y-82710000D01*
X130000000Y-92870000D02*
X130000000Y-85250000D01*
X79620000Y-85504000D02*
X79620000Y-92570000D01*
X111370000Y-63914000D02*
X111116000Y-63660000D01*
X111370000Y-71280000D02*
X111370000Y-63914000D01*
X79620000Y-92570000D02*
X79920000Y-92870000D01*
X131098630Y-85250000D02*
X130000000Y-85250000D01*
X132230000Y-85250000D02*
X131098630Y-85250000D01*
X78604000Y-85504000D02*
X79620000Y-85504000D01*
X79620000Y-60200000D02*
X79620000Y-61000000D01*
X72920000Y-53500000D02*
X79620000Y-60200000D01*
X72920000Y-52000000D02*
X72920000Y-53500000D01*
X79620000Y-61000000D02*
X79620000Y-92570000D01*
X111116000Y-62360000D02*
X111116000Y-63660000D01*
X103506010Y-54750010D02*
X111116000Y-62360000D01*
X84192000Y-54750010D02*
X103506010Y-54750010D01*
X79620000Y-59322010D02*
X84192000Y-54750010D01*
X79620000Y-61000000D02*
X79620000Y-59322010D01*
D26*
G04 #@! TO.N,/DIR*
X93590000Y-83980000D02*
X94860000Y-83980000D01*
X96130000Y-86520000D02*
X98670000Y-89060000D01*
X94860000Y-83980000D02*
X96130000Y-85250000D01*
X96130000Y-85250000D02*
X96130000Y-86520000D01*
D27*
G04 #@! TO.N,+5V*
X119498000Y-114502000D02*
X111000000Y-123000000D01*
X110261628Y-137101628D02*
X111160000Y-138000000D01*
X106495347Y-128579653D02*
X106495347Y-133335347D01*
X106495347Y-133335347D02*
X110261628Y-137101628D01*
X111000000Y-124075000D02*
X106495347Y-128579653D01*
X111000000Y-123000000D02*
X111000000Y-124075000D01*
X122038000Y-92870000D02*
X119498000Y-95410000D01*
X124920000Y-92870000D02*
X122038000Y-92870000D01*
X119498000Y-95410000D02*
X119498000Y-114502000D01*
X124920000Y-85670000D02*
X125340000Y-85250000D01*
X124920000Y-92870000D02*
X124920000Y-85670000D01*
X99525000Y-151370000D02*
X100875000Y-150020000D01*
X100875000Y-150020000D02*
X101000000Y-150020000D01*
X99525000Y-151495000D02*
X99525000Y-151370000D01*
X98694000Y-152326000D02*
X99525000Y-151495000D01*
X95000000Y-152326000D02*
X98694000Y-152326000D01*
X109125000Y-147540000D02*
X109000000Y-147540000D01*
X110475000Y-149015000D02*
X110475000Y-148890000D01*
X112690000Y-151230000D02*
X110475000Y-149015000D01*
X110475000Y-148890000D02*
X109125000Y-147540000D01*
X115000000Y-151230000D02*
X112690000Y-151230000D01*
X109000000Y-147540000D02*
X109000000Y-147314966D01*
G04 #@! TO.N,+3V3*
X91890000Y-56040000D02*
X93590000Y-56040000D01*
X81007500Y-66922500D02*
X91890000Y-56040000D01*
X81007500Y-82500000D02*
X81007500Y-66922500D01*
X81007500Y-88047500D02*
X82460000Y-89500000D01*
X82460000Y-92870000D02*
X82460000Y-89500000D01*
X86544000Y-83000000D02*
X81007500Y-83000000D01*
X87748000Y-84204000D02*
X86544000Y-83000000D01*
X81007500Y-83000000D02*
X81007500Y-88047500D01*
X87748000Y-85504000D02*
X87748000Y-84204000D01*
X81007500Y-82500000D02*
X81007500Y-83000000D01*
G04 #@! TO.N,Net-(BT1-Pad1)*
X122800000Y-45372000D02*
X120260000Y-42832000D01*
X79620000Y-42832000D02*
X77080000Y-45372000D01*
X120260000Y-42832000D02*
X79620000Y-42832000D01*
X126000000Y-56000000D02*
X126000000Y-48572000D01*
X127428000Y-50000000D02*
X125428000Y-48000000D01*
X125428000Y-48000000D02*
X122800000Y-45372000D01*
X135000000Y-50000000D02*
X127428000Y-50000000D01*
X126000000Y-48572000D02*
X125428000Y-48000000D01*
D26*
G04 #@! TO.N,/LaserH_TX*
X98260000Y-137875000D02*
X98260000Y-138000000D01*
X100085000Y-136050000D02*
X98260000Y-137875000D01*
X101972000Y-136050000D02*
X100085000Y-136050000D01*
X103496000Y-128521000D02*
X103496000Y-134526000D01*
X98100000Y-123125000D02*
X103496000Y-128521000D01*
X103496000Y-134526000D02*
X101972000Y-136050000D01*
X98100000Y-123000000D02*
X98100000Y-123125000D01*
X93190000Y-61120000D02*
X93590000Y-61120000D01*
X89549990Y-64760010D02*
X93190000Y-61120000D01*
X98100000Y-122875000D02*
X89549990Y-114324990D01*
X89549990Y-114324990D02*
X89549990Y-64760010D01*
X98100000Y-123000000D02*
X98100000Y-122875000D01*
X94929000Y-149826000D02*
X94860000Y-149826000D01*
X100875000Y-144940000D02*
X101000000Y-144940000D01*
X99775000Y-146165000D02*
X99775000Y-146040000D01*
X96114000Y-149826000D02*
X99775000Y-146165000D01*
X99775000Y-146040000D02*
X100875000Y-144940000D01*
X95000000Y-149826000D02*
X96114000Y-149826000D01*
X98260000Y-139225000D02*
X98260000Y-138000000D01*
X99775000Y-144940000D02*
X98260000Y-143425000D01*
X98260000Y-143425000D02*
X98260000Y-139225000D01*
X101000000Y-144940000D02*
X99775000Y-144940000D01*
G04 #@! TO.N,/LaserH_RX*
X101000000Y-137875000D02*
X102571000Y-136304000D01*
X101000000Y-138000000D02*
X101000000Y-137875000D01*
X102571000Y-136304000D02*
X102571000Y-136213000D01*
X102571000Y-136213000D02*
X104004000Y-134780000D01*
X100840000Y-123125000D02*
X100840000Y-123000000D01*
X103351000Y-125636000D02*
X100840000Y-123125000D01*
X103496000Y-125636000D02*
X104004000Y-126144000D01*
X103351000Y-125636000D02*
X103496000Y-125636000D01*
X104004000Y-134780000D02*
X104004000Y-126144000D01*
X93190000Y-63660000D02*
X90000000Y-66850000D01*
X93590000Y-63660000D02*
X93190000Y-63660000D01*
X100840000Y-122875000D02*
X100840000Y-123000000D01*
X90000000Y-112035000D02*
X100840000Y-122875000D01*
X90000000Y-66850000D02*
X90000000Y-112035000D01*
X99775000Y-148580000D02*
X100875000Y-147480000D01*
X99775000Y-148705000D02*
X99775000Y-148580000D01*
X97404000Y-151076000D02*
X99775000Y-148705000D01*
X100875000Y-147480000D02*
X101000000Y-147480000D01*
X95000000Y-151076000D02*
X97404000Y-151076000D01*
X101125000Y-147480000D02*
X103000000Y-145605000D01*
X101000000Y-147480000D02*
X101125000Y-147480000D01*
X103000000Y-145605000D02*
X103000000Y-144000000D01*
X101000000Y-142000000D02*
X101000000Y-138000000D01*
X103000000Y-144000000D02*
X101000000Y-142000000D01*
G04 #@! TO.N,/LaserV_TX*
X104512000Y-136812000D02*
X104512000Y-124257000D01*
X103380000Y-123125000D02*
X103380000Y-123000000D01*
X103540000Y-137784000D02*
X104512000Y-136812000D01*
X104512000Y-124257000D02*
X103380000Y-123125000D01*
X103540000Y-138000000D02*
X103540000Y-137784000D01*
X93190000Y-66200000D02*
X93590000Y-66200000D01*
X90549991Y-68840009D02*
X93190000Y-66200000D01*
X90549991Y-110044991D02*
X90549991Y-68840009D01*
X103380000Y-122875000D02*
X90549991Y-110044991D01*
X103380000Y-123000000D02*
X103380000Y-122875000D01*
X108875000Y-152620000D02*
X109000000Y-152620000D01*
X103540000Y-147285000D02*
X108875000Y-152620000D01*
X103540000Y-138000000D02*
X103540000Y-147285000D01*
X114050000Y-153730000D02*
X115000000Y-153730000D01*
X110235000Y-153730000D02*
X114050000Y-153730000D01*
X109125000Y-152620000D02*
X110235000Y-153730000D01*
X109000000Y-152620000D02*
X109125000Y-152620000D01*
G04 #@! TO.N,/LaserV_RX*
X105000000Y-137000000D02*
X105000000Y-125145000D01*
X105920000Y-124225000D02*
X105920000Y-123000000D01*
X106000000Y-138000000D02*
X105000000Y-137000000D01*
X105000000Y-125145000D02*
X105920000Y-124225000D01*
X106080000Y-138000000D02*
X106000000Y-138000000D01*
X92140000Y-68740000D02*
X91000000Y-69880000D01*
X93590000Y-68740000D02*
X92140000Y-68740000D01*
X91000000Y-107955000D02*
X105920000Y-122875000D01*
X105920000Y-122875000D02*
X105920000Y-123000000D01*
X91000000Y-69880000D02*
X91000000Y-107955000D01*
X108875000Y-150080000D02*
X109000000Y-150080000D01*
X106080000Y-147285000D02*
X108875000Y-150080000D01*
X106080000Y-138000000D02*
X106080000Y-147285000D01*
X114050000Y-152480000D02*
X115000000Y-152480000D01*
X112625000Y-152480000D02*
X114050000Y-152480000D01*
X110225000Y-150080000D02*
X112625000Y-152480000D01*
X109000000Y-150080000D02*
X110225000Y-150080000D01*
D27*
G04 #@! TO.N,Net-(Q1-Pad2)*
X75460000Y-50500000D02*
X75460000Y-52000000D01*
X75460000Y-49682000D02*
X75460000Y-50500000D01*
X79620000Y-45522000D02*
X75460000Y-49682000D01*
X79620000Y-45372000D02*
X79620000Y-45522000D01*
G04 #@! TD*
D28*
G04 #@! TO.N,GND*
G36*
X137525708Y-40776100D02*
X138023212Y-40956685D01*
X138465835Y-41246881D01*
X138829823Y-41631116D01*
X139095658Y-42088784D01*
X139251892Y-42604629D01*
X139290000Y-43031618D01*
X139290001Y-126958744D01*
X139223900Y-127525708D01*
X139043315Y-128023212D01*
X138753118Y-128465834D01*
X138368884Y-128829823D01*
X137911216Y-129095658D01*
X137395371Y-129251892D01*
X136968382Y-129290000D01*
X108930074Y-129290000D01*
X108893274Y-129297320D01*
X108874913Y-129297320D01*
X108866334Y-129298602D01*
X108306025Y-129385843D01*
X108213858Y-129414021D01*
X108121389Y-129441061D01*
X108113514Y-129444699D01*
X107600212Y-129685694D01*
X107519652Y-129738612D01*
X107438495Y-129790514D01*
X107431958Y-129796216D01*
X107380347Y-129841797D01*
X107380347Y-128946231D01*
X111564156Y-124762423D01*
X111638049Y-124713049D01*
X111698593Y-124622440D01*
X111713705Y-124599822D01*
X111943435Y-124554126D01*
X112234586Y-124359586D01*
X112429126Y-124068435D01*
X112497440Y-123725000D01*
X112497440Y-122754138D01*
X115805549Y-119446029D01*
X122215000Y-119446029D01*
X122215000Y-120553971D01*
X122638991Y-121577576D01*
X123422424Y-122361009D01*
X124446029Y-122785000D01*
X125553971Y-122785000D01*
X126577576Y-122361009D01*
X127361009Y-121577576D01*
X127785000Y-120553971D01*
X127785000Y-119446029D01*
X127361009Y-118422424D01*
X126577576Y-117638991D01*
X125553971Y-117215000D01*
X124446029Y-117215000D01*
X123422424Y-117638991D01*
X122638991Y-118422424D01*
X122215000Y-119446029D01*
X115805549Y-119446029D01*
X120062156Y-115189423D01*
X120136049Y-115140049D01*
X120331652Y-114847310D01*
X120383000Y-114589165D01*
X120383000Y-114589161D01*
X120400337Y-114502000D01*
X120383000Y-114414839D01*
X120383000Y-108670000D01*
X125028276Y-108670000D01*
X125213380Y-109600580D01*
X125740511Y-110389489D01*
X126529420Y-110916620D01*
X127225103Y-111055000D01*
X127694897Y-111055000D01*
X128390580Y-110916620D01*
X129179489Y-110389489D01*
X129706620Y-109600580D01*
X129891724Y-108670000D01*
X129706620Y-107739420D01*
X129179489Y-106950511D01*
X128390580Y-106423380D01*
X127694897Y-106285000D01*
X127225103Y-106285000D01*
X126529420Y-106423380D01*
X125740511Y-106950511D01*
X125213380Y-107739420D01*
X125028276Y-108670000D01*
X120383000Y-108670000D01*
X120383000Y-95776578D01*
X122404579Y-93755000D01*
X123570332Y-93755000D01*
X123775477Y-94062023D01*
X124300589Y-94412891D01*
X124920000Y-94536100D01*
X125539410Y-94412891D01*
X126064523Y-94062023D01*
X126199159Y-93860526D01*
X126593076Y-94245973D01*
X127087020Y-94460563D01*
X127333000Y-94340594D01*
X127333000Y-92997000D01*
X127313000Y-92997000D01*
X127313000Y-92743000D01*
X127333000Y-92743000D01*
X127333000Y-91399406D01*
X127087020Y-91279437D01*
X126593076Y-91494027D01*
X126199159Y-91879474D01*
X126064523Y-91677977D01*
X125805000Y-91504570D01*
X125805000Y-86697440D01*
X126140000Y-86697440D01*
X126387765Y-86648157D01*
X126597809Y-86507809D01*
X126738157Y-86297765D01*
X126787440Y-86050000D01*
X126787440Y-84450000D01*
X126738157Y-84202235D01*
X126597809Y-83992191D01*
X126387765Y-83851843D01*
X126140000Y-83802560D01*
X124540000Y-83802560D01*
X124292235Y-83851843D01*
X124082484Y-83991995D01*
X123556777Y-83803035D01*
X122986546Y-83830222D01*
X122585995Y-83996136D01*
X122511861Y-84242255D01*
X123340000Y-85070395D01*
X123354142Y-85056252D01*
X123533748Y-85235858D01*
X123519605Y-85250000D01*
X123533748Y-85264143D01*
X123354142Y-85443748D01*
X123340000Y-85429605D01*
X122511861Y-86257745D01*
X122585995Y-86503864D01*
X123123223Y-86696965D01*
X123693454Y-86669778D01*
X124035001Y-86528304D01*
X124035000Y-91504570D01*
X123775477Y-91677977D01*
X123570331Y-91985000D01*
X122125159Y-91985000D01*
X122037999Y-91967663D01*
X121950839Y-91985000D01*
X121950835Y-91985000D01*
X121692690Y-92036348D01*
X121692688Y-92036349D01*
X121692689Y-92036349D01*
X121473845Y-92182576D01*
X121473844Y-92182577D01*
X121399951Y-92231951D01*
X121350577Y-92305844D01*
X118933847Y-94722575D01*
X118859951Y-94771951D01*
X118664348Y-95064691D01*
X118613000Y-95322836D01*
X118613000Y-95322839D01*
X118595663Y-95410000D01*
X118613000Y-95497161D01*
X118613001Y-114135420D01*
X111370862Y-121377560D01*
X110400000Y-121377560D01*
X110056565Y-121445874D01*
X109765414Y-121640414D01*
X109571059Y-121931288D01*
X109331193Y-121672503D01*
X108816890Y-121433524D01*
X108587000Y-121554845D01*
X108587000Y-122873000D01*
X108607000Y-122873000D01*
X108607000Y-123127000D01*
X108587000Y-123127000D01*
X108587000Y-124445155D01*
X108816890Y-124566476D01*
X109331193Y-124327497D01*
X109571059Y-124068712D01*
X109644619Y-124178802D01*
X105931194Y-127892228D01*
X105857298Y-127941604D01*
X105760000Y-128087220D01*
X105760000Y-125459802D01*
X106404476Y-124815327D01*
X106467929Y-124772929D01*
X106510327Y-124709476D01*
X106510329Y-124709474D01*
X106635903Y-124521538D01*
X106635904Y-124521537D01*
X106656297Y-124419015D01*
X106990625Y-124195625D01*
X107191912Y-123894378D01*
X107194947Y-123902571D01*
X107588807Y-124327497D01*
X108103110Y-124566476D01*
X108333000Y-124445155D01*
X108333000Y-123127000D01*
X108313000Y-123127000D01*
X108313000Y-122873000D01*
X108333000Y-122873000D01*
X108333000Y-121554845D01*
X108103110Y-121433524D01*
X107588807Y-121672503D01*
X107194947Y-122097429D01*
X107191912Y-122105622D01*
X106990625Y-121804375D01*
X106499418Y-121476161D01*
X105920000Y-121360908D01*
X105553594Y-121433791D01*
X95848547Y-111728745D01*
X100435000Y-111728745D01*
X100435000Y-112271256D01*
X100521161Y-112704418D01*
X100849375Y-113195625D01*
X101340583Y-113523839D01*
X101920000Y-113639092D01*
X102499418Y-113523839D01*
X102990625Y-113195625D01*
X103190000Y-112897239D01*
X103389375Y-113195625D01*
X103880582Y-113523839D01*
X104460000Y-113639092D01*
X105039417Y-113523839D01*
X105530625Y-113195625D01*
X105730000Y-112897239D01*
X105929375Y-113195625D01*
X106420582Y-113523839D01*
X107000000Y-113639092D01*
X107579417Y-113523839D01*
X108070625Y-113195625D01*
X108133242Y-113101912D01*
X108305414Y-113359586D01*
X108596565Y-113554126D01*
X108940000Y-113622440D01*
X110140000Y-113622440D01*
X110483435Y-113554126D01*
X110774586Y-113359586D01*
X110969126Y-113068435D01*
X111037440Y-112725000D01*
X111037440Y-111275000D01*
X110969126Y-110931565D01*
X110774586Y-110640414D01*
X110483435Y-110445874D01*
X110300000Y-110409386D01*
X110300000Y-90435481D01*
X110443691Y-90495000D01*
X111084250Y-90495000D01*
X111243000Y-90336250D01*
X111243000Y-89187000D01*
X111497000Y-89187000D01*
X111497000Y-90336250D01*
X111655750Y-90495000D01*
X112296309Y-90495000D01*
X112529698Y-90398327D01*
X112708327Y-90219699D01*
X112805000Y-89986310D01*
X112805000Y-89345750D01*
X112646250Y-89187000D01*
X111497000Y-89187000D01*
X111243000Y-89187000D01*
X111223000Y-89187000D01*
X111223000Y-88933000D01*
X111243000Y-88933000D01*
X111243000Y-88913000D01*
X111497000Y-88913000D01*
X111497000Y-88933000D01*
X112646250Y-88933000D01*
X112805000Y-88774250D01*
X112805000Y-88133690D01*
X112708327Y-87900301D01*
X112529698Y-87721673D01*
X112298082Y-87625735D01*
X112404577Y-87554577D01*
X112721740Y-87079909D01*
X112833113Y-86520000D01*
X112721740Y-85960091D01*
X112404577Y-85485423D01*
X112052242Y-85250000D01*
X112404577Y-85014577D01*
X112721740Y-84539909D01*
X112833113Y-83980000D01*
X112721740Y-83420091D01*
X112404577Y-82945423D01*
X112052242Y-82710000D01*
X112404577Y-82474577D01*
X112721740Y-81999909D01*
X112833113Y-81440000D01*
X112721740Y-80880091D01*
X112404577Y-80405423D01*
X112052242Y-80170000D01*
X112404577Y-79934577D01*
X112721740Y-79459909D01*
X112833113Y-78900000D01*
X112721740Y-78340091D01*
X112404577Y-77865423D01*
X112052242Y-77630000D01*
X112404577Y-77394577D01*
X112721740Y-76919909D01*
X112833113Y-76360000D01*
X112721740Y-75800091D01*
X112404577Y-75325423D01*
X112020892Y-75069053D01*
X112225134Y-74972389D01*
X112601041Y-74557423D01*
X112761904Y-74169039D01*
X112639915Y-73947000D01*
X111497000Y-73947000D01*
X111497000Y-73967000D01*
X111243000Y-73967000D01*
X111243000Y-73947000D01*
X110100085Y-73947000D01*
X109978096Y-74169039D01*
X110138959Y-74557423D01*
X110514866Y-74972389D01*
X110719108Y-75069053D01*
X110335423Y-75325423D01*
X110018260Y-75800091D01*
X109906887Y-76360000D01*
X109971312Y-76683886D01*
X101435528Y-85219671D01*
X101372072Y-85262071D01*
X101329672Y-85325527D01*
X101329671Y-85325528D01*
X101204097Y-85513463D01*
X101145112Y-85810000D01*
X101160001Y-85884852D01*
X101160000Y-110596822D01*
X100849375Y-110804375D01*
X100521161Y-111295583D01*
X100435000Y-111728745D01*
X95848547Y-111728745D01*
X91760000Y-107640199D01*
X91760000Y-94306470D01*
X91838260Y-94699909D01*
X92155423Y-95174577D01*
X92630091Y-95491740D01*
X93048667Y-95575000D01*
X94131333Y-95575000D01*
X94549909Y-95491740D01*
X95024577Y-95174577D01*
X95341740Y-94699909D01*
X95453113Y-94140000D01*
X95341740Y-93580091D01*
X95024577Y-93105423D01*
X94672242Y-92870000D01*
X95024577Y-92634577D01*
X95341740Y-92159909D01*
X95453113Y-91600000D01*
X95341740Y-91040091D01*
X95024577Y-90565423D01*
X94672242Y-90330000D01*
X95024577Y-90094577D01*
X95341740Y-89619909D01*
X95453113Y-89060000D01*
X95341740Y-88500091D01*
X95024577Y-88025423D01*
X94672242Y-87790000D01*
X95024577Y-87554577D01*
X95341740Y-87079909D01*
X95404113Y-86766342D01*
X95414097Y-86816537D01*
X95471307Y-86902157D01*
X95582072Y-87067929D01*
X95645528Y-87110329D01*
X97271312Y-88736114D01*
X97206887Y-89060000D01*
X97318260Y-89619909D01*
X97635423Y-90094577D01*
X98110091Y-90411740D01*
X98528667Y-90495000D01*
X98811333Y-90495000D01*
X99229909Y-90411740D01*
X99704577Y-90094577D01*
X100021740Y-89619909D01*
X100133113Y-89060000D01*
X100021740Y-88500091D01*
X99704577Y-88025423D01*
X99352242Y-87790000D01*
X99704577Y-87554577D01*
X100021740Y-87079909D01*
X100133113Y-86520000D01*
X100021740Y-85960091D01*
X99704577Y-85485423D01*
X99352242Y-85250000D01*
X99704577Y-85014577D01*
X100021740Y-84539909D01*
X100133113Y-83980000D01*
X100021740Y-83420091D01*
X99704577Y-82945423D01*
X99430000Y-82761957D01*
X99430000Y-82658043D01*
X99704577Y-82474577D01*
X100021740Y-81999909D01*
X100133113Y-81440000D01*
X100021740Y-80880091D01*
X99704577Y-80405423D01*
X99352242Y-80170000D01*
X99704577Y-79934577D01*
X100021740Y-79459909D01*
X100133113Y-78900000D01*
X100021740Y-78340091D01*
X99704577Y-77865423D01*
X99352242Y-77630000D01*
X99704577Y-77394577D01*
X100021740Y-76919909D01*
X100133113Y-76360000D01*
X100021740Y-75800091D01*
X99704577Y-75325423D01*
X99352242Y-75090000D01*
X99704577Y-74854577D01*
X100021740Y-74379909D01*
X100133113Y-73820000D01*
X100021740Y-73260091D01*
X99704577Y-72785423D01*
X99352242Y-72550000D01*
X99704577Y-72314577D01*
X100021740Y-71839909D01*
X100133113Y-71280000D01*
X100021740Y-70720091D01*
X99704577Y-70245423D01*
X99229909Y-69928260D01*
X98811333Y-69845000D01*
X98528667Y-69845000D01*
X98110091Y-69928260D01*
X97635423Y-70245423D01*
X97451957Y-70520000D01*
X95208043Y-70520000D01*
X95024577Y-70245423D01*
X94672242Y-70010000D01*
X95024577Y-69774577D01*
X95341740Y-69299909D01*
X95453113Y-68740000D01*
X95341740Y-68180091D01*
X95024577Y-67705423D01*
X94672242Y-67470000D01*
X95024577Y-67234577D01*
X95341740Y-66759909D01*
X95453113Y-66200000D01*
X95341740Y-65640091D01*
X95024577Y-65165423D01*
X94672242Y-64930000D01*
X95024577Y-64694577D01*
X95042505Y-64667745D01*
X106787861Y-64667745D01*
X106861995Y-64913864D01*
X107399223Y-65106965D01*
X107969454Y-65079778D01*
X108370005Y-64913864D01*
X108444139Y-64667745D01*
X107616000Y-63839605D01*
X106787861Y-64667745D01*
X95042505Y-64667745D01*
X95341740Y-64219909D01*
X95453113Y-63660000D01*
X95409994Y-63443223D01*
X106169035Y-63443223D01*
X106196222Y-64013454D01*
X106362136Y-64414005D01*
X106608255Y-64488139D01*
X107436395Y-63660000D01*
X107795605Y-63660000D01*
X108623745Y-64488139D01*
X108869864Y-64414005D01*
X109062965Y-63876777D01*
X109035778Y-63306546D01*
X108869864Y-62905995D01*
X108623745Y-62831861D01*
X107795605Y-63660000D01*
X107436395Y-63660000D01*
X106608255Y-62831861D01*
X106362136Y-62905995D01*
X106169035Y-63443223D01*
X95409994Y-63443223D01*
X95341740Y-63100091D01*
X95042506Y-62652255D01*
X106787861Y-62652255D01*
X107616000Y-63480395D01*
X108444139Y-62652255D01*
X108370005Y-62406136D01*
X107832777Y-62213035D01*
X107262546Y-62240222D01*
X106861995Y-62406136D01*
X106787861Y-62652255D01*
X95042506Y-62652255D01*
X95024577Y-62625423D01*
X94672242Y-62390000D01*
X95024577Y-62154577D01*
X95341740Y-61679909D01*
X95453113Y-61120000D01*
X95341740Y-60560091D01*
X95024577Y-60085423D01*
X94672242Y-59850000D01*
X95024577Y-59614577D01*
X95341740Y-59139909D01*
X95453113Y-58580000D01*
X95341740Y-58020091D01*
X95024577Y-57545423D01*
X94672242Y-57310000D01*
X95024577Y-57074577D01*
X95341740Y-56599909D01*
X95453113Y-56040000D01*
X95372555Y-55635010D01*
X103139432Y-55635010D01*
X109887217Y-62382796D01*
X109858191Y-62402191D01*
X109717843Y-62612235D01*
X109668560Y-62860000D01*
X109668560Y-64460000D01*
X109717843Y-64707765D01*
X109858191Y-64917809D01*
X110068235Y-65058157D01*
X110316000Y-65107440D01*
X110485001Y-65107440D01*
X110485000Y-70145479D01*
X110335423Y-70245423D01*
X110018260Y-70720091D01*
X109906887Y-71280000D01*
X110018260Y-71839909D01*
X110335423Y-72314577D01*
X110719108Y-72570947D01*
X110514866Y-72667611D01*
X110138959Y-73082577D01*
X109978096Y-73470961D01*
X110100085Y-73693000D01*
X111243000Y-73693000D01*
X111243000Y-73673000D01*
X111497000Y-73673000D01*
X111497000Y-73693000D01*
X112639915Y-73693000D01*
X112761904Y-73470961D01*
X112738730Y-73415010D01*
X114667445Y-73415010D01*
X114586887Y-73820000D01*
X114698260Y-74379909D01*
X115015423Y-74854577D01*
X115367758Y-75090000D01*
X115015423Y-75325423D01*
X114698260Y-75800091D01*
X114586887Y-76360000D01*
X114698260Y-76919909D01*
X115015423Y-77394577D01*
X115367758Y-77630000D01*
X115015423Y-77865423D01*
X114698260Y-78340091D01*
X114586887Y-78900000D01*
X114698260Y-79459909D01*
X115015423Y-79934577D01*
X115367758Y-80170000D01*
X115015423Y-80405423D01*
X114698260Y-80880091D01*
X114586887Y-81440000D01*
X114698260Y-81999909D01*
X115015423Y-82474577D01*
X115367758Y-82710000D01*
X115015423Y-82945423D01*
X114698260Y-83420091D01*
X114586887Y-83980000D01*
X114698260Y-84539909D01*
X115015423Y-85014577D01*
X115367758Y-85250000D01*
X115015423Y-85485423D01*
X114698260Y-85960091D01*
X114586887Y-86520000D01*
X114698260Y-87079909D01*
X115015423Y-87554577D01*
X115367758Y-87790000D01*
X115015423Y-88025423D01*
X114698260Y-88500091D01*
X114586887Y-89060000D01*
X114698260Y-89619909D01*
X115015423Y-90094577D01*
X115367758Y-90330000D01*
X115015423Y-90565423D01*
X114698260Y-91040091D01*
X114586887Y-91600000D01*
X114698260Y-92159909D01*
X115015423Y-92634577D01*
X115367758Y-92870000D01*
X115015423Y-93105423D01*
X114698260Y-93580091D01*
X114586887Y-94140000D01*
X114698260Y-94699909D01*
X115015423Y-95174577D01*
X115490091Y-95491740D01*
X115908667Y-95575000D01*
X116991333Y-95575000D01*
X117409909Y-95491740D01*
X117884577Y-95174577D01*
X118201740Y-94699909D01*
X118313113Y-94140000D01*
X118201740Y-93580091D01*
X117884577Y-93105423D01*
X117532242Y-92870000D01*
X117884577Y-92634577D01*
X118201740Y-92159909D01*
X118313113Y-91600000D01*
X118201740Y-91040091D01*
X117884577Y-90565423D01*
X117532242Y-90330000D01*
X117884577Y-90094577D01*
X118201740Y-89619909D01*
X118313113Y-89060000D01*
X118201740Y-88500091D01*
X117884577Y-88025423D01*
X117532242Y-87790000D01*
X117884577Y-87554577D01*
X118201740Y-87079909D01*
X118313113Y-86520000D01*
X118201740Y-85960091D01*
X117884577Y-85485423D01*
X117532242Y-85250000D01*
X117856671Y-85033223D01*
X121893035Y-85033223D01*
X121920222Y-85603454D01*
X122086136Y-86004005D01*
X122332255Y-86078139D01*
X123160395Y-85250000D01*
X122332255Y-84421861D01*
X122086136Y-84495995D01*
X121893035Y-85033223D01*
X117856671Y-85033223D01*
X117884577Y-85014577D01*
X118201740Y-84539909D01*
X118313113Y-83980000D01*
X118201740Y-83420091D01*
X117884577Y-82945423D01*
X117532242Y-82710000D01*
X117884577Y-82474577D01*
X118201740Y-81999909D01*
X118313113Y-81440000D01*
X118201740Y-80880091D01*
X117884577Y-80405423D01*
X117532242Y-80170000D01*
X117884577Y-79934577D01*
X118201740Y-79459909D01*
X118313113Y-78900000D01*
X118201740Y-78340091D01*
X117884577Y-77865423D01*
X117532242Y-77630000D01*
X117884577Y-77394577D01*
X118201740Y-76919909D01*
X118313113Y-76360000D01*
X118201740Y-75800091D01*
X117884577Y-75325423D01*
X117532242Y-75090000D01*
X117884577Y-74854577D01*
X118201740Y-74379909D01*
X118313113Y-73820000D01*
X118232555Y-73415010D01*
X120889432Y-73415010D01*
X129115000Y-81640579D01*
X129115001Y-82622832D01*
X129115000Y-82622836D01*
X129115001Y-83370348D01*
X129115000Y-85162835D01*
X129097662Y-85250000D01*
X129115001Y-85337169D01*
X129115000Y-91222560D01*
X129047500Y-91222560D01*
X128799735Y-91271843D01*
X128589691Y-91412191D01*
X128452745Y-91617143D01*
X128326924Y-91494027D01*
X127832980Y-91279437D01*
X127587000Y-91399406D01*
X127587000Y-92743000D01*
X127607000Y-92743000D01*
X127607000Y-92997000D01*
X127587000Y-92997000D01*
X127587000Y-94340594D01*
X127832980Y-94460563D01*
X128326924Y-94245973D01*
X128452745Y-94122857D01*
X128589691Y-94327809D01*
X128799735Y-94468157D01*
X129047500Y-94517440D01*
X130952500Y-94517440D01*
X131200265Y-94468157D01*
X131410309Y-94327809D01*
X131550657Y-94117765D01*
X131599940Y-93870000D01*
X131599940Y-91870000D01*
X131550657Y-91622235D01*
X131410309Y-91412191D01*
X131200265Y-91271843D01*
X130952500Y-91222560D01*
X130885000Y-91222560D01*
X130885000Y-86135000D01*
X131085604Y-86135000D01*
X131417138Y-86466534D01*
X131944561Y-86685000D01*
X132515439Y-86685000D01*
X132976144Y-86494170D01*
X133070302Y-86588327D01*
X133303691Y-86685000D01*
X133944250Y-86685000D01*
X134103000Y-86526250D01*
X134103000Y-85377000D01*
X134357000Y-85377000D01*
X134357000Y-86526250D01*
X134515750Y-86685000D01*
X135156309Y-86685000D01*
X135389698Y-86588327D01*
X135568327Y-86409699D01*
X135665000Y-86176310D01*
X135665000Y-85535750D01*
X135506250Y-85377000D01*
X134357000Y-85377000D01*
X134103000Y-85377000D01*
X134083000Y-85377000D01*
X134083000Y-85123000D01*
X134103000Y-85123000D01*
X134103000Y-83973750D01*
X134357000Y-83973750D01*
X134357000Y-85123000D01*
X135506250Y-85123000D01*
X135665000Y-84964250D01*
X135665000Y-84323690D01*
X135568327Y-84090301D01*
X135389698Y-83911673D01*
X135156309Y-83815000D01*
X134515750Y-83815000D01*
X134357000Y-83973750D01*
X134103000Y-83973750D01*
X133944250Y-83815000D01*
X133303691Y-83815000D01*
X133070302Y-83911673D01*
X132976144Y-84005830D01*
X132515439Y-83815000D01*
X131944561Y-83815000D01*
X131417138Y-84033466D01*
X131085604Y-84365000D01*
X130885000Y-84365000D01*
X130885000Y-81361159D01*
X130902337Y-81273999D01*
X130885000Y-81186839D01*
X130885000Y-81186835D01*
X130833652Y-80928690D01*
X130638049Y-80635951D01*
X130564156Y-80586578D01*
X121943435Y-71965857D01*
X121894059Y-71891961D01*
X121601320Y-71696358D01*
X121343175Y-71645010D01*
X121343171Y-71645010D01*
X121256010Y-71627673D01*
X121168849Y-71645010D01*
X118240508Y-71645010D01*
X118313113Y-71280000D01*
X118201740Y-70720091D01*
X117884577Y-70245423D01*
X117532242Y-70010000D01*
X117884577Y-69774577D01*
X118201740Y-69299909D01*
X118313113Y-68740000D01*
X118201740Y-68180091D01*
X117884577Y-67705423D01*
X117532242Y-67470000D01*
X117884577Y-67234577D01*
X118201740Y-66759909D01*
X118264174Y-66446029D01*
X122215000Y-66446029D01*
X122215000Y-67553971D01*
X122638991Y-68577576D01*
X123422424Y-69361009D01*
X124446029Y-69785000D01*
X125553971Y-69785000D01*
X126577576Y-69361009D01*
X127361009Y-68577576D01*
X127785000Y-67553971D01*
X127785000Y-66446029D01*
X127361009Y-65422424D01*
X126577576Y-64638991D01*
X125553971Y-64215000D01*
X124446029Y-64215000D01*
X123422424Y-64638991D01*
X122638991Y-65422424D01*
X122215000Y-66446029D01*
X118264174Y-66446029D01*
X118313113Y-66200000D01*
X118201740Y-65640091D01*
X117884577Y-65165423D01*
X117532242Y-64930000D01*
X117884577Y-64694577D01*
X118201740Y-64219909D01*
X118313113Y-63660000D01*
X118201740Y-63100091D01*
X117884577Y-62625423D01*
X117532242Y-62390000D01*
X117884577Y-62154577D01*
X118201740Y-61679909D01*
X118313113Y-61120000D01*
X118201740Y-60560091D01*
X117884577Y-60085423D01*
X117532242Y-59850000D01*
X117884577Y-59614577D01*
X118201740Y-59139909D01*
X118313113Y-58580000D01*
X118201740Y-58020091D01*
X117884577Y-57545423D01*
X117532242Y-57310000D01*
X117884577Y-57074577D01*
X117929232Y-57007745D01*
X121671861Y-57007745D01*
X121745995Y-57253864D01*
X122283223Y-57446965D01*
X122853454Y-57419778D01*
X123254005Y-57253864D01*
X123328139Y-57007745D01*
X122500000Y-56179605D01*
X121671861Y-57007745D01*
X117929232Y-57007745D01*
X118201740Y-56599909D01*
X118313113Y-56040000D01*
X118262037Y-55783223D01*
X121053035Y-55783223D01*
X121080222Y-56353454D01*
X121246136Y-56754005D01*
X121492255Y-56828139D01*
X122320395Y-56000000D01*
X122679605Y-56000000D01*
X123507745Y-56828139D01*
X123753864Y-56754005D01*
X123946965Y-56216777D01*
X123919778Y-55646546D01*
X123753864Y-55245995D01*
X123507745Y-55171861D01*
X122679605Y-56000000D01*
X122320395Y-56000000D01*
X121492255Y-55171861D01*
X121246136Y-55245995D01*
X121053035Y-55783223D01*
X118262037Y-55783223D01*
X118201740Y-55480091D01*
X117884577Y-55005423D01*
X117864870Y-54992255D01*
X121671861Y-54992255D01*
X122500000Y-55820395D01*
X123328139Y-54992255D01*
X123254005Y-54746136D01*
X122716777Y-54553035D01*
X122146546Y-54580222D01*
X121745995Y-54746136D01*
X121671861Y-54992255D01*
X117864870Y-54992255D01*
X117532242Y-54770000D01*
X117884577Y-54534577D01*
X118201740Y-54059909D01*
X118313113Y-53500000D01*
X118201740Y-52940091D01*
X117884577Y-52465423D01*
X117532242Y-52230000D01*
X117884577Y-51994577D01*
X118201740Y-51519909D01*
X118313113Y-50960000D01*
X118201740Y-50400091D01*
X117884577Y-49925423D01*
X117532242Y-49690000D01*
X117884577Y-49454577D01*
X118201740Y-48979909D01*
X118313113Y-48420000D01*
X118201740Y-47860091D01*
X117884577Y-47385423D01*
X117532242Y-47150000D01*
X117884577Y-46914577D01*
X118201740Y-46439909D01*
X118313113Y-45880000D01*
X118201740Y-45320091D01*
X117884577Y-44845423D01*
X117409909Y-44528260D01*
X116991333Y-44445000D01*
X115908667Y-44445000D01*
X115490091Y-44528260D01*
X115015423Y-44845423D01*
X114698260Y-45320091D01*
X114586887Y-45880000D01*
X114698260Y-46439909D01*
X115015423Y-46914577D01*
X115367758Y-47150000D01*
X115015423Y-47385423D01*
X114698260Y-47860091D01*
X114586887Y-48420000D01*
X114698260Y-48979909D01*
X115015423Y-49454577D01*
X115367758Y-49690000D01*
X115015423Y-49925423D01*
X114698260Y-50400091D01*
X114586887Y-50960000D01*
X114698260Y-51519909D01*
X115015423Y-51994577D01*
X115367758Y-52230000D01*
X115015423Y-52465423D01*
X114698260Y-52940091D01*
X114586887Y-53500000D01*
X114698260Y-54059909D01*
X115015423Y-54534577D01*
X115367758Y-54770000D01*
X115015423Y-55005423D01*
X114698260Y-55480091D01*
X114586887Y-56040000D01*
X114698260Y-56599909D01*
X115015423Y-57074577D01*
X115367758Y-57310000D01*
X115015423Y-57545423D01*
X114698260Y-58020091D01*
X114586887Y-58580000D01*
X114698260Y-59139909D01*
X115015423Y-59614577D01*
X115367758Y-59850000D01*
X115015423Y-60085423D01*
X114698260Y-60560091D01*
X114586887Y-61120000D01*
X114698260Y-61679909D01*
X115015423Y-62154577D01*
X115367758Y-62390000D01*
X115015423Y-62625423D01*
X114698260Y-63100091D01*
X114586887Y-63660000D01*
X114698260Y-64219909D01*
X115015423Y-64694577D01*
X115367758Y-64930000D01*
X115015423Y-65165423D01*
X114698260Y-65640091D01*
X114586887Y-66200000D01*
X114698260Y-66759909D01*
X115015423Y-67234577D01*
X115367758Y-67470000D01*
X115015423Y-67705423D01*
X114698260Y-68180091D01*
X114586887Y-68740000D01*
X114698260Y-69299909D01*
X115015423Y-69774577D01*
X115367758Y-70010000D01*
X115015423Y-70245423D01*
X114698260Y-70720091D01*
X114586887Y-71280000D01*
X114659492Y-71645010D01*
X112986589Y-71645010D01*
X112798017Y-71456439D01*
X112833113Y-71280000D01*
X112721740Y-70720091D01*
X112404577Y-70245423D01*
X112255000Y-70145479D01*
X112255000Y-64997195D01*
X112373809Y-64917809D01*
X112514157Y-64707765D01*
X112563440Y-64460000D01*
X112563440Y-62860000D01*
X112514157Y-62612235D01*
X112373809Y-62402191D01*
X112163765Y-62261843D01*
X111992018Y-62227681D01*
X111949652Y-62014690D01*
X111754049Y-61721951D01*
X111680156Y-61672578D01*
X104193435Y-54185857D01*
X104144059Y-54111961D01*
X103851320Y-53916358D01*
X103593175Y-53865010D01*
X103593171Y-53865010D01*
X103506010Y-53847673D01*
X103418849Y-53865010D01*
X95378521Y-53865010D01*
X95381904Y-53849039D01*
X95259915Y-53627000D01*
X93717000Y-53627000D01*
X93717000Y-53647000D01*
X93463000Y-53647000D01*
X93463000Y-53627000D01*
X91920085Y-53627000D01*
X91798096Y-53849039D01*
X91801479Y-53865010D01*
X84279159Y-53865010D01*
X84191999Y-53847673D01*
X84104839Y-53865010D01*
X84104835Y-53865010D01*
X83846690Y-53916358D01*
X83846688Y-53916359D01*
X83846689Y-53916359D01*
X83627845Y-54062586D01*
X83627844Y-54062587D01*
X83553951Y-54111961D01*
X83504577Y-54185854D01*
X79181005Y-58509427D01*
X73944079Y-53272501D01*
X74064523Y-53192023D01*
X74190000Y-53004233D01*
X74315477Y-53192023D01*
X74840589Y-53542891D01*
X75460000Y-53666100D01*
X76079410Y-53542891D01*
X76475444Y-53278270D01*
X76509173Y-53359699D01*
X76687802Y-53538327D01*
X76921191Y-53635000D01*
X77714250Y-53635000D01*
X77873000Y-53476250D01*
X77873000Y-52127000D01*
X78127000Y-52127000D01*
X78127000Y-53476250D01*
X78285750Y-53635000D01*
X79078809Y-53635000D01*
X79312198Y-53538327D01*
X79490827Y-53359699D01*
X79587500Y-53126310D01*
X79587500Y-52285750D01*
X79428750Y-52127000D01*
X78127000Y-52127000D01*
X77873000Y-52127000D01*
X77853000Y-52127000D01*
X77853000Y-51873000D01*
X77873000Y-51873000D01*
X77873000Y-50523750D01*
X78127000Y-50523750D01*
X78127000Y-51873000D01*
X79428750Y-51873000D01*
X79587500Y-51714250D01*
X79587500Y-50873690D01*
X79490827Y-50640301D01*
X79312198Y-50461673D01*
X79078809Y-50365000D01*
X78285750Y-50365000D01*
X78127000Y-50523750D01*
X77873000Y-50523750D01*
X77714250Y-50365000D01*
X76921191Y-50365000D01*
X76687802Y-50461673D01*
X76509173Y-50640301D01*
X76475444Y-50721729D01*
X76345000Y-50634570D01*
X76345000Y-50048578D01*
X77973578Y-48420000D01*
X91726887Y-48420000D01*
X91838260Y-48979909D01*
X92155423Y-49454577D01*
X92507758Y-49690000D01*
X92155423Y-49925423D01*
X91838260Y-50400091D01*
X91726887Y-50960000D01*
X91838260Y-51519909D01*
X92155423Y-51994577D01*
X92511499Y-52232499D01*
X92085500Y-52575104D01*
X91815633Y-53068181D01*
X91798096Y-53150961D01*
X91920085Y-53373000D01*
X93463000Y-53373000D01*
X93463000Y-53353000D01*
X93717000Y-53353000D01*
X93717000Y-53373000D01*
X95259915Y-53373000D01*
X95381904Y-53150961D01*
X95364367Y-53068181D01*
X95094500Y-52575104D01*
X94668501Y-52232499D01*
X95024577Y-51994577D01*
X95341740Y-51519909D01*
X95453113Y-50960000D01*
X95341740Y-50400091D01*
X95024577Y-49925423D01*
X94672242Y-49690000D01*
X95024577Y-49454577D01*
X95341740Y-48979909D01*
X95453113Y-48420000D01*
X95341740Y-47860091D01*
X95024577Y-47385423D01*
X94668501Y-47147501D01*
X95094500Y-46804896D01*
X95364367Y-46311819D01*
X95381904Y-46229039D01*
X95259915Y-46007000D01*
X93717000Y-46007000D01*
X93717000Y-46027000D01*
X93463000Y-46027000D01*
X93463000Y-46007000D01*
X91920085Y-46007000D01*
X91798096Y-46229039D01*
X91815633Y-46311819D01*
X92085500Y-46804896D01*
X92511499Y-47147501D01*
X92155423Y-47385423D01*
X91838260Y-47860091D01*
X91726887Y-48420000D01*
X77973578Y-48420000D01*
X79401040Y-46992538D01*
X79620000Y-47036092D01*
X80199418Y-46920839D01*
X80690625Y-46592625D01*
X81018839Y-46101417D01*
X81105000Y-45668255D01*
X81105000Y-45530961D01*
X91798096Y-45530961D01*
X91920085Y-45753000D01*
X93463000Y-45753000D01*
X93463000Y-44445000D01*
X93717000Y-44445000D01*
X93717000Y-45753000D01*
X95259915Y-45753000D01*
X95381904Y-45530961D01*
X95364367Y-45448181D01*
X95094500Y-44955104D01*
X94656483Y-44602834D01*
X94117000Y-44445000D01*
X93717000Y-44445000D01*
X93463000Y-44445000D01*
X93063000Y-44445000D01*
X92523517Y-44602834D01*
X92085500Y-44955104D01*
X91815633Y-45448181D01*
X91798096Y-45530961D01*
X81105000Y-45530961D01*
X81105000Y-45075744D01*
X81018839Y-44642582D01*
X80690625Y-44151375D01*
X80199417Y-43823161D01*
X79933343Y-43770236D01*
X79986579Y-43717000D01*
X119893422Y-43717000D01*
X121302560Y-45126139D01*
X121302560Y-46122000D01*
X121370874Y-46465435D01*
X121565414Y-46756586D01*
X121856565Y-46951126D01*
X122200000Y-47019440D01*
X123195862Y-47019440D01*
X124863845Y-48687424D01*
X124863847Y-48687426D01*
X125115001Y-48938579D01*
X125115000Y-54569467D01*
X124952235Y-54601843D01*
X124742191Y-54742191D01*
X124601843Y-54952235D01*
X124552560Y-55200000D01*
X124552560Y-56800000D01*
X124601843Y-57047765D01*
X124742191Y-57257809D01*
X124952235Y-57398157D01*
X125200000Y-57447440D01*
X126800000Y-57447440D01*
X127047765Y-57398157D01*
X127257809Y-57257809D01*
X127398157Y-57047765D01*
X127447440Y-56800000D01*
X127447440Y-55200000D01*
X127398157Y-54952235D01*
X127257809Y-54742191D01*
X127047765Y-54601843D01*
X126885000Y-54569467D01*
X126885000Y-50701559D01*
X126974880Y-50761615D01*
X127082690Y-50833652D01*
X127340835Y-50885000D01*
X127340839Y-50885000D01*
X127427999Y-50902337D01*
X127515159Y-50885000D01*
X132602560Y-50885000D01*
X132602560Y-51750000D01*
X132651843Y-51997765D01*
X132792191Y-52207809D01*
X133002235Y-52348157D01*
X133250000Y-52397440D01*
X136750000Y-52397440D01*
X136997765Y-52348157D01*
X137207809Y-52207809D01*
X137348157Y-51997765D01*
X137397440Y-51750000D01*
X137397440Y-48250000D01*
X137348157Y-48002235D01*
X137207809Y-47792191D01*
X136997765Y-47651843D01*
X136750000Y-47602560D01*
X133250000Y-47602560D01*
X133002235Y-47651843D01*
X132792191Y-47792191D01*
X132680731Y-47959001D01*
X132697440Y-47875000D01*
X132697440Y-46125000D01*
X132581551Y-45542387D01*
X132251528Y-45048472D01*
X131757613Y-44718449D01*
X131175000Y-44602560D01*
X129425000Y-44602560D01*
X128842387Y-44718449D01*
X128348472Y-45048472D01*
X128018449Y-45542387D01*
X127902560Y-46125000D01*
X127902560Y-47875000D01*
X128018449Y-48457613D01*
X128348472Y-48951528D01*
X128593125Y-49115000D01*
X127794579Y-49115000D01*
X126687424Y-48007846D01*
X126638049Y-47933951D01*
X126564155Y-47884577D01*
X126115426Y-47435847D01*
X126115424Y-47435845D01*
X125582896Y-46903318D01*
X125696890Y-46963476D01*
X125709260Y-46961553D01*
X126232045Y-46710664D01*
X126619024Y-46278812D01*
X126811284Y-45731742D01*
X126667231Y-45499000D01*
X125467000Y-45499000D01*
X125467000Y-45519000D01*
X125213000Y-45519000D01*
X125213000Y-45499000D01*
X125193000Y-45499000D01*
X125193000Y-45245000D01*
X125213000Y-45245000D01*
X125213000Y-43901845D01*
X125467000Y-43901845D01*
X125467000Y-45245000D01*
X126667231Y-45245000D01*
X126811284Y-45012258D01*
X126619024Y-44465188D01*
X126458232Y-44285750D01*
X132615000Y-44285750D01*
X132615000Y-45626309D01*
X132711673Y-45859698D01*
X132890301Y-46038327D01*
X133123690Y-46135000D01*
X134714250Y-46135000D01*
X134873000Y-45976250D01*
X134873000Y-44127000D01*
X135127000Y-44127000D01*
X135127000Y-45976250D01*
X135285750Y-46135000D01*
X136876310Y-46135000D01*
X137109699Y-46038327D01*
X137288327Y-45859698D01*
X137385000Y-45626309D01*
X137385000Y-44285750D01*
X137226250Y-44127000D01*
X135127000Y-44127000D01*
X134873000Y-44127000D01*
X132773750Y-44127000D01*
X132615000Y-44285750D01*
X126458232Y-44285750D01*
X126232045Y-44033336D01*
X125709260Y-43782447D01*
X125696890Y-43780524D01*
X125467000Y-43901845D01*
X125213000Y-43901845D01*
X124983110Y-43780524D01*
X124970740Y-43782447D01*
X124447955Y-44033336D01*
X124228734Y-44277978D01*
X124034586Y-43987414D01*
X123743435Y-43792874D01*
X123400000Y-43724560D01*
X122404139Y-43724560D01*
X121053270Y-42373691D01*
X132615000Y-42373691D01*
X132615000Y-43714250D01*
X132773750Y-43873000D01*
X134873000Y-43873000D01*
X134873000Y-42023750D01*
X135127000Y-42023750D01*
X135127000Y-43873000D01*
X137226250Y-43873000D01*
X137385000Y-43714250D01*
X137385000Y-42373691D01*
X137288327Y-42140302D01*
X137109699Y-41961673D01*
X136876310Y-41865000D01*
X135285750Y-41865000D01*
X135127000Y-42023750D01*
X134873000Y-42023750D01*
X134714250Y-41865000D01*
X133123690Y-41865000D01*
X132890301Y-41961673D01*
X132711673Y-42140302D01*
X132615000Y-42373691D01*
X121053270Y-42373691D01*
X120947425Y-42267847D01*
X120898049Y-42193951D01*
X120605310Y-41998348D01*
X120347165Y-41947000D01*
X120347161Y-41947000D01*
X120260000Y-41929663D01*
X120172839Y-41947000D01*
X79707159Y-41947000D01*
X79619999Y-41929663D01*
X79532839Y-41947000D01*
X79532835Y-41947000D01*
X79274690Y-41998348D01*
X79203358Y-42046011D01*
X79055845Y-42144576D01*
X79055844Y-42144577D01*
X78981951Y-42193951D01*
X78932577Y-42267844D01*
X77475862Y-43724560D01*
X76480000Y-43724560D01*
X76136565Y-43792874D01*
X75845414Y-43987414D01*
X75650874Y-44278565D01*
X75582560Y-44622000D01*
X75582560Y-46122000D01*
X75650874Y-46465435D01*
X75845414Y-46756586D01*
X76136565Y-46951126D01*
X76480000Y-47019440D01*
X76870982Y-47019440D01*
X74895847Y-48994575D01*
X74821951Y-49043951D01*
X74626348Y-49336691D01*
X74575000Y-49594836D01*
X74575000Y-49594839D01*
X74557663Y-49682000D01*
X74575000Y-49769161D01*
X74575000Y-50634570D01*
X74315477Y-50807977D01*
X74190000Y-50995767D01*
X74064523Y-50807977D01*
X73539411Y-50457109D01*
X72920000Y-50333900D01*
X72300590Y-50457109D01*
X71775477Y-50807977D01*
X71424609Y-51333089D01*
X71332500Y-51796150D01*
X71332500Y-52203849D01*
X71424609Y-52666910D01*
X71775477Y-53192023D01*
X72035001Y-53365431D01*
X72035001Y-53412835D01*
X72017663Y-53500000D01*
X72086348Y-53845309D01*
X72232576Y-54064154D01*
X72232578Y-54064156D01*
X72281952Y-54138049D01*
X72355845Y-54187423D01*
X78735000Y-60566579D01*
X78735000Y-60912836D01*
X78735001Y-84056560D01*
X77804000Y-84056560D01*
X77556235Y-84105843D01*
X77346484Y-84245995D01*
X76820777Y-84057035D01*
X76250546Y-84084222D01*
X75849995Y-84250136D01*
X75775861Y-84496255D01*
X76604000Y-85324395D01*
X76618142Y-85310252D01*
X76797748Y-85489858D01*
X76783605Y-85504000D01*
X76797748Y-85518143D01*
X76618142Y-85697748D01*
X76604000Y-85683605D01*
X75775861Y-86511745D01*
X75849995Y-86757864D01*
X76387223Y-86950965D01*
X76957454Y-86923778D01*
X77347067Y-86762395D01*
X77556235Y-86902157D01*
X77804000Y-86951440D01*
X78735000Y-86951440D01*
X78735001Y-91738554D01*
X78424609Y-92203089D01*
X78332500Y-92666150D01*
X78332500Y-93073849D01*
X78424609Y-93536910D01*
X78775477Y-94062023D01*
X79300589Y-94412891D01*
X79920000Y-94536100D01*
X80539410Y-94412891D01*
X81064523Y-94062023D01*
X81190000Y-93874233D01*
X81315477Y-94062023D01*
X81840589Y-94412891D01*
X82460000Y-94536100D01*
X83079410Y-94412891D01*
X83475444Y-94148270D01*
X83509173Y-94229699D01*
X83687802Y-94408327D01*
X83921191Y-94505000D01*
X84714250Y-94505000D01*
X84873000Y-94346250D01*
X84873000Y-92997000D01*
X85127000Y-92997000D01*
X85127000Y-94346250D01*
X85285750Y-94505000D01*
X86078809Y-94505000D01*
X86312198Y-94408327D01*
X86490827Y-94229699D01*
X86587500Y-93996310D01*
X86587500Y-93155750D01*
X86428750Y-92997000D01*
X85127000Y-92997000D01*
X84873000Y-92997000D01*
X84853000Y-92997000D01*
X84853000Y-92743000D01*
X84873000Y-92743000D01*
X84873000Y-91393750D01*
X85127000Y-91393750D01*
X85127000Y-92743000D01*
X86428750Y-92743000D01*
X86587500Y-92584250D01*
X86587500Y-91743690D01*
X86490827Y-91510301D01*
X86312198Y-91331673D01*
X86078809Y-91235000D01*
X85285750Y-91235000D01*
X85127000Y-91393750D01*
X84873000Y-91393750D01*
X84714250Y-91235000D01*
X83921191Y-91235000D01*
X83687802Y-91331673D01*
X83509173Y-91510301D01*
X83475444Y-91591729D01*
X83345000Y-91504570D01*
X83345000Y-89587159D01*
X83362337Y-89499999D01*
X83345000Y-89412839D01*
X83345000Y-89412835D01*
X83293652Y-89154690D01*
X83098049Y-88861951D01*
X83024156Y-88812577D01*
X81892500Y-87680922D01*
X81892500Y-85287223D01*
X84301035Y-85287223D01*
X84328222Y-85857454D01*
X84494136Y-86258005D01*
X84740255Y-86332139D01*
X85568395Y-85504000D01*
X84740255Y-84675861D01*
X84494136Y-84749995D01*
X84301035Y-85287223D01*
X81892500Y-85287223D01*
X81892500Y-83885000D01*
X86177422Y-83885000D01*
X86519217Y-84226796D01*
X86490484Y-84245995D01*
X85964777Y-84057035D01*
X85394546Y-84084222D01*
X84993995Y-84250136D01*
X84919861Y-84496255D01*
X85748000Y-85324395D01*
X85762142Y-85310252D01*
X85941748Y-85489858D01*
X85927605Y-85504000D01*
X85941748Y-85518143D01*
X85762142Y-85697748D01*
X85748000Y-85683605D01*
X84919861Y-86511745D01*
X84993995Y-86757864D01*
X85531223Y-86950965D01*
X86101454Y-86923778D01*
X86491067Y-86762395D01*
X86700235Y-86902157D01*
X86948000Y-86951440D01*
X88548000Y-86951440D01*
X88789991Y-86903306D01*
X88789990Y-114250143D01*
X88775102Y-114324990D01*
X88789990Y-114399837D01*
X88789990Y-114399841D01*
X88834086Y-114621526D01*
X89002061Y-114872919D01*
X89065520Y-114915321D01*
X96658791Y-122508593D01*
X96615000Y-122728744D01*
X96615000Y-123271255D01*
X96701161Y-123704417D01*
X97029375Y-124195625D01*
X97520582Y-124523839D01*
X98100000Y-124639092D01*
X98466408Y-124566209D01*
X102736000Y-128835803D01*
X102736000Y-129873000D01*
X102652155Y-129873000D01*
X102541002Y-129777224D01*
X102459789Y-129725286D01*
X102379284Y-129672404D01*
X102371414Y-129668768D01*
X102371411Y-129668766D01*
X102371408Y-129668765D01*
X101855201Y-129434060D01*
X101762732Y-129407020D01*
X101670565Y-129378842D01*
X101661986Y-129377560D01*
X101119666Y-129299894D01*
X101069926Y-129290000D01*
X73041248Y-129290000D01*
X72474292Y-129223900D01*
X71976788Y-129043315D01*
X71534166Y-128753118D01*
X71170177Y-128368884D01*
X70904342Y-127911216D01*
X70748108Y-127395371D01*
X70710000Y-126968382D01*
X70710000Y-119446029D01*
X82215000Y-119446029D01*
X82215000Y-120553971D01*
X82638991Y-121577576D01*
X83422424Y-122361009D01*
X84446029Y-122785000D01*
X85553971Y-122785000D01*
X86577576Y-122361009D01*
X87361009Y-121577576D01*
X87785000Y-120553971D01*
X87785000Y-119446029D01*
X87361009Y-118422424D01*
X86577576Y-117638991D01*
X85553971Y-117215000D01*
X84446029Y-117215000D01*
X83422424Y-117638991D01*
X82638991Y-118422424D01*
X82215000Y-119446029D01*
X70710000Y-119446029D01*
X70710000Y-108670000D01*
X80028276Y-108670000D01*
X80213380Y-109600580D01*
X80740511Y-110389489D01*
X81529420Y-110916620D01*
X82225103Y-111055000D01*
X82694897Y-111055000D01*
X83390580Y-110916620D01*
X84179489Y-110389489D01*
X84706620Y-109600580D01*
X84891724Y-108670000D01*
X84706620Y-107739420D01*
X84179489Y-106950511D01*
X83390580Y-106423380D01*
X82694897Y-106285000D01*
X82225103Y-106285000D01*
X81529420Y-106423380D01*
X80740511Y-106950511D01*
X80213380Y-107739420D01*
X80028276Y-108670000D01*
X70710000Y-108670000D01*
X70710000Y-85287223D01*
X75157035Y-85287223D01*
X75184222Y-85857454D01*
X75350136Y-86258005D01*
X75596255Y-86332139D01*
X76424395Y-85504000D01*
X75596255Y-84675861D01*
X75350136Y-84749995D01*
X75157035Y-85287223D01*
X70710000Y-85287223D01*
X70710000Y-67800000D01*
X73028276Y-67800000D01*
X73213380Y-68730580D01*
X73740511Y-69519489D01*
X74529420Y-70046620D01*
X75225103Y-70185000D01*
X75694897Y-70185000D01*
X76390580Y-70046620D01*
X77179489Y-69519489D01*
X77706620Y-68730580D01*
X77891724Y-67800000D01*
X77706620Y-66869420D01*
X77179489Y-66080511D01*
X76390580Y-65553380D01*
X75694897Y-65415000D01*
X75225103Y-65415000D01*
X74529420Y-65553380D01*
X73740511Y-66080511D01*
X73213380Y-66869420D01*
X73028276Y-67800000D01*
X70710000Y-67800000D01*
X70710000Y-43041247D01*
X70776100Y-42474292D01*
X70956685Y-41976788D01*
X71246881Y-41534165D01*
X71631116Y-41170177D01*
X72088784Y-40904342D01*
X72604629Y-40748108D01*
X73031618Y-40710000D01*
X136958753Y-40710000D01*
X137525708Y-40776100D01*
X137525708Y-40776100D01*
G37*
X137525708Y-40776100D02*
X138023212Y-40956685D01*
X138465835Y-41246881D01*
X138829823Y-41631116D01*
X139095658Y-42088784D01*
X139251892Y-42604629D01*
X139290000Y-43031618D01*
X139290001Y-126958744D01*
X139223900Y-127525708D01*
X139043315Y-128023212D01*
X138753118Y-128465834D01*
X138368884Y-128829823D01*
X137911216Y-129095658D01*
X137395371Y-129251892D01*
X136968382Y-129290000D01*
X108930074Y-129290000D01*
X108893274Y-129297320D01*
X108874913Y-129297320D01*
X108866334Y-129298602D01*
X108306025Y-129385843D01*
X108213858Y-129414021D01*
X108121389Y-129441061D01*
X108113514Y-129444699D01*
X107600212Y-129685694D01*
X107519652Y-129738612D01*
X107438495Y-129790514D01*
X107431958Y-129796216D01*
X107380347Y-129841797D01*
X107380347Y-128946231D01*
X111564156Y-124762423D01*
X111638049Y-124713049D01*
X111698593Y-124622440D01*
X111713705Y-124599822D01*
X111943435Y-124554126D01*
X112234586Y-124359586D01*
X112429126Y-124068435D01*
X112497440Y-123725000D01*
X112497440Y-122754138D01*
X115805549Y-119446029D01*
X122215000Y-119446029D01*
X122215000Y-120553971D01*
X122638991Y-121577576D01*
X123422424Y-122361009D01*
X124446029Y-122785000D01*
X125553971Y-122785000D01*
X126577576Y-122361009D01*
X127361009Y-121577576D01*
X127785000Y-120553971D01*
X127785000Y-119446029D01*
X127361009Y-118422424D01*
X126577576Y-117638991D01*
X125553971Y-117215000D01*
X124446029Y-117215000D01*
X123422424Y-117638991D01*
X122638991Y-118422424D01*
X122215000Y-119446029D01*
X115805549Y-119446029D01*
X120062156Y-115189423D01*
X120136049Y-115140049D01*
X120331652Y-114847310D01*
X120383000Y-114589165D01*
X120383000Y-114589161D01*
X120400337Y-114502000D01*
X120383000Y-114414839D01*
X120383000Y-108670000D01*
X125028276Y-108670000D01*
X125213380Y-109600580D01*
X125740511Y-110389489D01*
X126529420Y-110916620D01*
X127225103Y-111055000D01*
X127694897Y-111055000D01*
X128390580Y-110916620D01*
X129179489Y-110389489D01*
X129706620Y-109600580D01*
X129891724Y-108670000D01*
X129706620Y-107739420D01*
X129179489Y-106950511D01*
X128390580Y-106423380D01*
X127694897Y-106285000D01*
X127225103Y-106285000D01*
X126529420Y-106423380D01*
X125740511Y-106950511D01*
X125213380Y-107739420D01*
X125028276Y-108670000D01*
X120383000Y-108670000D01*
X120383000Y-95776578D01*
X122404579Y-93755000D01*
X123570332Y-93755000D01*
X123775477Y-94062023D01*
X124300589Y-94412891D01*
X124920000Y-94536100D01*
X125539410Y-94412891D01*
X126064523Y-94062023D01*
X126199159Y-93860526D01*
X126593076Y-94245973D01*
X127087020Y-94460563D01*
X127333000Y-94340594D01*
X127333000Y-92997000D01*
X127313000Y-92997000D01*
X127313000Y-92743000D01*
X127333000Y-92743000D01*
X127333000Y-91399406D01*
X127087020Y-91279437D01*
X126593076Y-91494027D01*
X126199159Y-91879474D01*
X126064523Y-91677977D01*
X125805000Y-91504570D01*
X125805000Y-86697440D01*
X126140000Y-86697440D01*
X126387765Y-86648157D01*
X126597809Y-86507809D01*
X126738157Y-86297765D01*
X126787440Y-86050000D01*
X126787440Y-84450000D01*
X126738157Y-84202235D01*
X126597809Y-83992191D01*
X126387765Y-83851843D01*
X126140000Y-83802560D01*
X124540000Y-83802560D01*
X124292235Y-83851843D01*
X124082484Y-83991995D01*
X123556777Y-83803035D01*
X122986546Y-83830222D01*
X122585995Y-83996136D01*
X122511861Y-84242255D01*
X123340000Y-85070395D01*
X123354142Y-85056252D01*
X123533748Y-85235858D01*
X123519605Y-85250000D01*
X123533748Y-85264143D01*
X123354142Y-85443748D01*
X123340000Y-85429605D01*
X122511861Y-86257745D01*
X122585995Y-86503864D01*
X123123223Y-86696965D01*
X123693454Y-86669778D01*
X124035001Y-86528304D01*
X124035000Y-91504570D01*
X123775477Y-91677977D01*
X123570331Y-91985000D01*
X122125159Y-91985000D01*
X122037999Y-91967663D01*
X121950839Y-91985000D01*
X121950835Y-91985000D01*
X121692690Y-92036348D01*
X121692688Y-92036349D01*
X121692689Y-92036349D01*
X121473845Y-92182576D01*
X121473844Y-92182577D01*
X121399951Y-92231951D01*
X121350577Y-92305844D01*
X118933847Y-94722575D01*
X118859951Y-94771951D01*
X118664348Y-95064691D01*
X118613000Y-95322836D01*
X118613000Y-95322839D01*
X118595663Y-95410000D01*
X118613000Y-95497161D01*
X118613001Y-114135420D01*
X111370862Y-121377560D01*
X110400000Y-121377560D01*
X110056565Y-121445874D01*
X109765414Y-121640414D01*
X109571059Y-121931288D01*
X109331193Y-121672503D01*
X108816890Y-121433524D01*
X108587000Y-121554845D01*
X108587000Y-122873000D01*
X108607000Y-122873000D01*
X108607000Y-123127000D01*
X108587000Y-123127000D01*
X108587000Y-124445155D01*
X108816890Y-124566476D01*
X109331193Y-124327497D01*
X109571059Y-124068712D01*
X109644619Y-124178802D01*
X105931194Y-127892228D01*
X105857298Y-127941604D01*
X105760000Y-128087220D01*
X105760000Y-125459802D01*
X106404476Y-124815327D01*
X106467929Y-124772929D01*
X106510327Y-124709476D01*
X106510329Y-124709474D01*
X106635903Y-124521538D01*
X106635904Y-124521537D01*
X106656297Y-124419015D01*
X106990625Y-124195625D01*
X107191912Y-123894378D01*
X107194947Y-123902571D01*
X107588807Y-124327497D01*
X108103110Y-124566476D01*
X108333000Y-124445155D01*
X108333000Y-123127000D01*
X108313000Y-123127000D01*
X108313000Y-122873000D01*
X108333000Y-122873000D01*
X108333000Y-121554845D01*
X108103110Y-121433524D01*
X107588807Y-121672503D01*
X107194947Y-122097429D01*
X107191912Y-122105622D01*
X106990625Y-121804375D01*
X106499418Y-121476161D01*
X105920000Y-121360908D01*
X105553594Y-121433791D01*
X95848547Y-111728745D01*
X100435000Y-111728745D01*
X100435000Y-112271256D01*
X100521161Y-112704418D01*
X100849375Y-113195625D01*
X101340583Y-113523839D01*
X101920000Y-113639092D01*
X102499418Y-113523839D01*
X102990625Y-113195625D01*
X103190000Y-112897239D01*
X103389375Y-113195625D01*
X103880582Y-113523839D01*
X104460000Y-113639092D01*
X105039417Y-113523839D01*
X105530625Y-113195625D01*
X105730000Y-112897239D01*
X105929375Y-113195625D01*
X106420582Y-113523839D01*
X107000000Y-113639092D01*
X107579417Y-113523839D01*
X108070625Y-113195625D01*
X108133242Y-113101912D01*
X108305414Y-113359586D01*
X108596565Y-113554126D01*
X108940000Y-113622440D01*
X110140000Y-113622440D01*
X110483435Y-113554126D01*
X110774586Y-113359586D01*
X110969126Y-113068435D01*
X111037440Y-112725000D01*
X111037440Y-111275000D01*
X110969126Y-110931565D01*
X110774586Y-110640414D01*
X110483435Y-110445874D01*
X110300000Y-110409386D01*
X110300000Y-90435481D01*
X110443691Y-90495000D01*
X111084250Y-90495000D01*
X111243000Y-90336250D01*
X111243000Y-89187000D01*
X111497000Y-89187000D01*
X111497000Y-90336250D01*
X111655750Y-90495000D01*
X112296309Y-90495000D01*
X112529698Y-90398327D01*
X112708327Y-90219699D01*
X112805000Y-89986310D01*
X112805000Y-89345750D01*
X112646250Y-89187000D01*
X111497000Y-89187000D01*
X111243000Y-89187000D01*
X111223000Y-89187000D01*
X111223000Y-88933000D01*
X111243000Y-88933000D01*
X111243000Y-88913000D01*
X111497000Y-88913000D01*
X111497000Y-88933000D01*
X112646250Y-88933000D01*
X112805000Y-88774250D01*
X112805000Y-88133690D01*
X112708327Y-87900301D01*
X112529698Y-87721673D01*
X112298082Y-87625735D01*
X112404577Y-87554577D01*
X112721740Y-87079909D01*
X112833113Y-86520000D01*
X112721740Y-85960091D01*
X112404577Y-85485423D01*
X112052242Y-85250000D01*
X112404577Y-85014577D01*
X112721740Y-84539909D01*
X112833113Y-83980000D01*
X112721740Y-83420091D01*
X112404577Y-82945423D01*
X112052242Y-82710000D01*
X112404577Y-82474577D01*
X112721740Y-81999909D01*
X112833113Y-81440000D01*
X112721740Y-80880091D01*
X112404577Y-80405423D01*
X112052242Y-80170000D01*
X112404577Y-79934577D01*
X112721740Y-79459909D01*
X112833113Y-78900000D01*
X112721740Y-78340091D01*
X112404577Y-77865423D01*
X112052242Y-77630000D01*
X112404577Y-77394577D01*
X112721740Y-76919909D01*
X112833113Y-76360000D01*
X112721740Y-75800091D01*
X112404577Y-75325423D01*
X112020892Y-75069053D01*
X112225134Y-74972389D01*
X112601041Y-74557423D01*
X112761904Y-74169039D01*
X112639915Y-73947000D01*
X111497000Y-73947000D01*
X111497000Y-73967000D01*
X111243000Y-73967000D01*
X111243000Y-73947000D01*
X110100085Y-73947000D01*
X109978096Y-74169039D01*
X110138959Y-74557423D01*
X110514866Y-74972389D01*
X110719108Y-75069053D01*
X110335423Y-75325423D01*
X110018260Y-75800091D01*
X109906887Y-76360000D01*
X109971312Y-76683886D01*
X101435528Y-85219671D01*
X101372072Y-85262071D01*
X101329672Y-85325527D01*
X101329671Y-85325528D01*
X101204097Y-85513463D01*
X101145112Y-85810000D01*
X101160001Y-85884852D01*
X101160000Y-110596822D01*
X100849375Y-110804375D01*
X100521161Y-111295583D01*
X100435000Y-111728745D01*
X95848547Y-111728745D01*
X91760000Y-107640199D01*
X91760000Y-94306470D01*
X91838260Y-94699909D01*
X92155423Y-95174577D01*
X92630091Y-95491740D01*
X93048667Y-95575000D01*
X94131333Y-95575000D01*
X94549909Y-95491740D01*
X95024577Y-95174577D01*
X95341740Y-94699909D01*
X95453113Y-94140000D01*
X95341740Y-93580091D01*
X95024577Y-93105423D01*
X94672242Y-92870000D01*
X95024577Y-92634577D01*
X95341740Y-92159909D01*
X95453113Y-91600000D01*
X95341740Y-91040091D01*
X95024577Y-90565423D01*
X94672242Y-90330000D01*
X95024577Y-90094577D01*
X95341740Y-89619909D01*
X95453113Y-89060000D01*
X95341740Y-88500091D01*
X95024577Y-88025423D01*
X94672242Y-87790000D01*
X95024577Y-87554577D01*
X95341740Y-87079909D01*
X95404113Y-86766342D01*
X95414097Y-86816537D01*
X95471307Y-86902157D01*
X95582072Y-87067929D01*
X95645528Y-87110329D01*
X97271312Y-88736114D01*
X97206887Y-89060000D01*
X97318260Y-89619909D01*
X97635423Y-90094577D01*
X98110091Y-90411740D01*
X98528667Y-90495000D01*
X98811333Y-90495000D01*
X99229909Y-90411740D01*
X99704577Y-90094577D01*
X100021740Y-89619909D01*
X100133113Y-89060000D01*
X100021740Y-88500091D01*
X99704577Y-88025423D01*
X99352242Y-87790000D01*
X99704577Y-87554577D01*
X100021740Y-87079909D01*
X100133113Y-86520000D01*
X100021740Y-85960091D01*
X99704577Y-85485423D01*
X99352242Y-85250000D01*
X99704577Y-85014577D01*
X100021740Y-84539909D01*
X100133113Y-83980000D01*
X100021740Y-83420091D01*
X99704577Y-82945423D01*
X99430000Y-82761957D01*
X99430000Y-82658043D01*
X99704577Y-82474577D01*
X100021740Y-81999909D01*
X100133113Y-81440000D01*
X100021740Y-80880091D01*
X99704577Y-80405423D01*
X99352242Y-80170000D01*
X99704577Y-79934577D01*
X100021740Y-79459909D01*
X100133113Y-78900000D01*
X100021740Y-78340091D01*
X99704577Y-77865423D01*
X99352242Y-77630000D01*
X99704577Y-77394577D01*
X100021740Y-76919909D01*
X100133113Y-76360000D01*
X100021740Y-75800091D01*
X99704577Y-75325423D01*
X99352242Y-75090000D01*
X99704577Y-74854577D01*
X100021740Y-74379909D01*
X100133113Y-73820000D01*
X100021740Y-73260091D01*
X99704577Y-72785423D01*
X99352242Y-72550000D01*
X99704577Y-72314577D01*
X100021740Y-71839909D01*
X100133113Y-71280000D01*
X100021740Y-70720091D01*
X99704577Y-70245423D01*
X99229909Y-69928260D01*
X98811333Y-69845000D01*
X98528667Y-69845000D01*
X98110091Y-69928260D01*
X97635423Y-70245423D01*
X97451957Y-70520000D01*
X95208043Y-70520000D01*
X95024577Y-70245423D01*
X94672242Y-70010000D01*
X95024577Y-69774577D01*
X95341740Y-69299909D01*
X95453113Y-68740000D01*
X95341740Y-68180091D01*
X95024577Y-67705423D01*
X94672242Y-67470000D01*
X95024577Y-67234577D01*
X95341740Y-66759909D01*
X95453113Y-66200000D01*
X95341740Y-65640091D01*
X95024577Y-65165423D01*
X94672242Y-64930000D01*
X95024577Y-64694577D01*
X95042505Y-64667745D01*
X106787861Y-64667745D01*
X106861995Y-64913864D01*
X107399223Y-65106965D01*
X107969454Y-65079778D01*
X108370005Y-64913864D01*
X108444139Y-64667745D01*
X107616000Y-63839605D01*
X106787861Y-64667745D01*
X95042505Y-64667745D01*
X95341740Y-64219909D01*
X95453113Y-63660000D01*
X95409994Y-63443223D01*
X106169035Y-63443223D01*
X106196222Y-64013454D01*
X106362136Y-64414005D01*
X106608255Y-64488139D01*
X107436395Y-63660000D01*
X107795605Y-63660000D01*
X108623745Y-64488139D01*
X108869864Y-64414005D01*
X109062965Y-63876777D01*
X109035778Y-63306546D01*
X108869864Y-62905995D01*
X108623745Y-62831861D01*
X107795605Y-63660000D01*
X107436395Y-63660000D01*
X106608255Y-62831861D01*
X106362136Y-62905995D01*
X106169035Y-63443223D01*
X95409994Y-63443223D01*
X95341740Y-63100091D01*
X95042506Y-62652255D01*
X106787861Y-62652255D01*
X107616000Y-63480395D01*
X108444139Y-62652255D01*
X108370005Y-62406136D01*
X107832777Y-62213035D01*
X107262546Y-62240222D01*
X106861995Y-62406136D01*
X106787861Y-62652255D01*
X95042506Y-62652255D01*
X95024577Y-62625423D01*
X94672242Y-62390000D01*
X95024577Y-62154577D01*
X95341740Y-61679909D01*
X95453113Y-61120000D01*
X95341740Y-60560091D01*
X95024577Y-60085423D01*
X94672242Y-59850000D01*
X95024577Y-59614577D01*
X95341740Y-59139909D01*
X95453113Y-58580000D01*
X95341740Y-58020091D01*
X95024577Y-57545423D01*
X94672242Y-57310000D01*
X95024577Y-57074577D01*
X95341740Y-56599909D01*
X95453113Y-56040000D01*
X95372555Y-55635010D01*
X103139432Y-55635010D01*
X109887217Y-62382796D01*
X109858191Y-62402191D01*
X109717843Y-62612235D01*
X109668560Y-62860000D01*
X109668560Y-64460000D01*
X109717843Y-64707765D01*
X109858191Y-64917809D01*
X110068235Y-65058157D01*
X110316000Y-65107440D01*
X110485001Y-65107440D01*
X110485000Y-70145479D01*
X110335423Y-70245423D01*
X110018260Y-70720091D01*
X109906887Y-71280000D01*
X110018260Y-71839909D01*
X110335423Y-72314577D01*
X110719108Y-72570947D01*
X110514866Y-72667611D01*
X110138959Y-73082577D01*
X109978096Y-73470961D01*
X110100085Y-73693000D01*
X111243000Y-73693000D01*
X111243000Y-73673000D01*
X111497000Y-73673000D01*
X111497000Y-73693000D01*
X112639915Y-73693000D01*
X112761904Y-73470961D01*
X112738730Y-73415010D01*
X114667445Y-73415010D01*
X114586887Y-73820000D01*
X114698260Y-74379909D01*
X115015423Y-74854577D01*
X115367758Y-75090000D01*
X115015423Y-75325423D01*
X114698260Y-75800091D01*
X114586887Y-76360000D01*
X114698260Y-76919909D01*
X115015423Y-77394577D01*
X115367758Y-77630000D01*
X115015423Y-77865423D01*
X114698260Y-78340091D01*
X114586887Y-78900000D01*
X114698260Y-79459909D01*
X115015423Y-79934577D01*
X115367758Y-80170000D01*
X115015423Y-80405423D01*
X114698260Y-80880091D01*
X114586887Y-81440000D01*
X114698260Y-81999909D01*
X115015423Y-82474577D01*
X115367758Y-82710000D01*
X115015423Y-82945423D01*
X114698260Y-83420091D01*
X114586887Y-83980000D01*
X114698260Y-84539909D01*
X115015423Y-85014577D01*
X115367758Y-85250000D01*
X115015423Y-85485423D01*
X114698260Y-85960091D01*
X114586887Y-86520000D01*
X114698260Y-87079909D01*
X115015423Y-87554577D01*
X115367758Y-87790000D01*
X115015423Y-88025423D01*
X114698260Y-88500091D01*
X114586887Y-89060000D01*
X114698260Y-89619909D01*
X115015423Y-90094577D01*
X115367758Y-90330000D01*
X115015423Y-90565423D01*
X114698260Y-91040091D01*
X114586887Y-91600000D01*
X114698260Y-92159909D01*
X115015423Y-92634577D01*
X115367758Y-92870000D01*
X115015423Y-93105423D01*
X114698260Y-93580091D01*
X114586887Y-94140000D01*
X114698260Y-94699909D01*
X115015423Y-95174577D01*
X115490091Y-95491740D01*
X115908667Y-95575000D01*
X116991333Y-95575000D01*
X117409909Y-95491740D01*
X117884577Y-95174577D01*
X118201740Y-94699909D01*
X118313113Y-94140000D01*
X118201740Y-93580091D01*
X117884577Y-93105423D01*
X117532242Y-92870000D01*
X117884577Y-92634577D01*
X118201740Y-92159909D01*
X118313113Y-91600000D01*
X118201740Y-91040091D01*
X117884577Y-90565423D01*
X117532242Y-90330000D01*
X117884577Y-90094577D01*
X118201740Y-89619909D01*
X118313113Y-89060000D01*
X118201740Y-88500091D01*
X117884577Y-88025423D01*
X117532242Y-87790000D01*
X117884577Y-87554577D01*
X118201740Y-87079909D01*
X118313113Y-86520000D01*
X118201740Y-85960091D01*
X117884577Y-85485423D01*
X117532242Y-85250000D01*
X117856671Y-85033223D01*
X121893035Y-85033223D01*
X121920222Y-85603454D01*
X122086136Y-86004005D01*
X122332255Y-86078139D01*
X123160395Y-85250000D01*
X122332255Y-84421861D01*
X122086136Y-84495995D01*
X121893035Y-85033223D01*
X117856671Y-85033223D01*
X117884577Y-85014577D01*
X118201740Y-84539909D01*
X118313113Y-83980000D01*
X118201740Y-83420091D01*
X117884577Y-82945423D01*
X117532242Y-82710000D01*
X117884577Y-82474577D01*
X118201740Y-81999909D01*
X118313113Y-81440000D01*
X118201740Y-80880091D01*
X117884577Y-80405423D01*
X117532242Y-80170000D01*
X117884577Y-79934577D01*
X118201740Y-79459909D01*
X118313113Y-78900000D01*
X118201740Y-78340091D01*
X117884577Y-77865423D01*
X117532242Y-77630000D01*
X117884577Y-77394577D01*
X118201740Y-76919909D01*
X118313113Y-76360000D01*
X118201740Y-75800091D01*
X117884577Y-75325423D01*
X117532242Y-75090000D01*
X117884577Y-74854577D01*
X118201740Y-74379909D01*
X118313113Y-73820000D01*
X118232555Y-73415010D01*
X120889432Y-73415010D01*
X129115000Y-81640579D01*
X129115001Y-82622832D01*
X129115000Y-82622836D01*
X129115001Y-83370348D01*
X129115000Y-85162835D01*
X129097662Y-85250000D01*
X129115001Y-85337169D01*
X129115000Y-91222560D01*
X129047500Y-91222560D01*
X128799735Y-91271843D01*
X128589691Y-91412191D01*
X128452745Y-91617143D01*
X128326924Y-91494027D01*
X127832980Y-91279437D01*
X127587000Y-91399406D01*
X127587000Y-92743000D01*
X127607000Y-92743000D01*
X127607000Y-92997000D01*
X127587000Y-92997000D01*
X127587000Y-94340594D01*
X127832980Y-94460563D01*
X128326924Y-94245973D01*
X128452745Y-94122857D01*
X128589691Y-94327809D01*
X128799735Y-94468157D01*
X129047500Y-94517440D01*
X130952500Y-94517440D01*
X131200265Y-94468157D01*
X131410309Y-94327809D01*
X131550657Y-94117765D01*
X131599940Y-93870000D01*
X131599940Y-91870000D01*
X131550657Y-91622235D01*
X131410309Y-91412191D01*
X131200265Y-91271843D01*
X130952500Y-91222560D01*
X130885000Y-91222560D01*
X130885000Y-86135000D01*
X131085604Y-86135000D01*
X131417138Y-86466534D01*
X131944561Y-86685000D01*
X132515439Y-86685000D01*
X132976144Y-86494170D01*
X133070302Y-86588327D01*
X133303691Y-86685000D01*
X133944250Y-86685000D01*
X134103000Y-86526250D01*
X134103000Y-85377000D01*
X134357000Y-85377000D01*
X134357000Y-86526250D01*
X134515750Y-86685000D01*
X135156309Y-86685000D01*
X135389698Y-86588327D01*
X135568327Y-86409699D01*
X135665000Y-86176310D01*
X135665000Y-85535750D01*
X135506250Y-85377000D01*
X134357000Y-85377000D01*
X134103000Y-85377000D01*
X134083000Y-85377000D01*
X134083000Y-85123000D01*
X134103000Y-85123000D01*
X134103000Y-83973750D01*
X134357000Y-83973750D01*
X134357000Y-85123000D01*
X135506250Y-85123000D01*
X135665000Y-84964250D01*
X135665000Y-84323690D01*
X135568327Y-84090301D01*
X135389698Y-83911673D01*
X135156309Y-83815000D01*
X134515750Y-83815000D01*
X134357000Y-83973750D01*
X134103000Y-83973750D01*
X133944250Y-83815000D01*
X133303691Y-83815000D01*
X133070302Y-83911673D01*
X132976144Y-84005830D01*
X132515439Y-83815000D01*
X131944561Y-83815000D01*
X131417138Y-84033466D01*
X131085604Y-84365000D01*
X130885000Y-84365000D01*
X130885000Y-81361159D01*
X130902337Y-81273999D01*
X130885000Y-81186839D01*
X130885000Y-81186835D01*
X130833652Y-80928690D01*
X130638049Y-80635951D01*
X130564156Y-80586578D01*
X121943435Y-71965857D01*
X121894059Y-71891961D01*
X121601320Y-71696358D01*
X121343175Y-71645010D01*
X121343171Y-71645010D01*
X121256010Y-71627673D01*
X121168849Y-71645010D01*
X118240508Y-71645010D01*
X118313113Y-71280000D01*
X118201740Y-70720091D01*
X117884577Y-70245423D01*
X117532242Y-70010000D01*
X117884577Y-69774577D01*
X118201740Y-69299909D01*
X118313113Y-68740000D01*
X118201740Y-68180091D01*
X117884577Y-67705423D01*
X117532242Y-67470000D01*
X117884577Y-67234577D01*
X118201740Y-66759909D01*
X118264174Y-66446029D01*
X122215000Y-66446029D01*
X122215000Y-67553971D01*
X122638991Y-68577576D01*
X123422424Y-69361009D01*
X124446029Y-69785000D01*
X125553971Y-69785000D01*
X126577576Y-69361009D01*
X127361009Y-68577576D01*
X127785000Y-67553971D01*
X127785000Y-66446029D01*
X127361009Y-65422424D01*
X126577576Y-64638991D01*
X125553971Y-64215000D01*
X124446029Y-64215000D01*
X123422424Y-64638991D01*
X122638991Y-65422424D01*
X122215000Y-66446029D01*
X118264174Y-66446029D01*
X118313113Y-66200000D01*
X118201740Y-65640091D01*
X117884577Y-65165423D01*
X117532242Y-64930000D01*
X117884577Y-64694577D01*
X118201740Y-64219909D01*
X118313113Y-63660000D01*
X118201740Y-63100091D01*
X117884577Y-62625423D01*
X117532242Y-62390000D01*
X117884577Y-62154577D01*
X118201740Y-61679909D01*
X118313113Y-61120000D01*
X118201740Y-60560091D01*
X117884577Y-60085423D01*
X117532242Y-59850000D01*
X117884577Y-59614577D01*
X118201740Y-59139909D01*
X118313113Y-58580000D01*
X118201740Y-58020091D01*
X117884577Y-57545423D01*
X117532242Y-57310000D01*
X117884577Y-57074577D01*
X117929232Y-57007745D01*
X121671861Y-57007745D01*
X121745995Y-57253864D01*
X122283223Y-57446965D01*
X122853454Y-57419778D01*
X123254005Y-57253864D01*
X123328139Y-57007745D01*
X122500000Y-56179605D01*
X121671861Y-57007745D01*
X117929232Y-57007745D01*
X118201740Y-56599909D01*
X118313113Y-56040000D01*
X118262037Y-55783223D01*
X121053035Y-55783223D01*
X121080222Y-56353454D01*
X121246136Y-56754005D01*
X121492255Y-56828139D01*
X122320395Y-56000000D01*
X122679605Y-56000000D01*
X123507745Y-56828139D01*
X123753864Y-56754005D01*
X123946965Y-56216777D01*
X123919778Y-55646546D01*
X123753864Y-55245995D01*
X123507745Y-55171861D01*
X122679605Y-56000000D01*
X122320395Y-56000000D01*
X121492255Y-55171861D01*
X121246136Y-55245995D01*
X121053035Y-55783223D01*
X118262037Y-55783223D01*
X118201740Y-55480091D01*
X117884577Y-55005423D01*
X117864870Y-54992255D01*
X121671861Y-54992255D01*
X122500000Y-55820395D01*
X123328139Y-54992255D01*
X123254005Y-54746136D01*
X122716777Y-54553035D01*
X122146546Y-54580222D01*
X121745995Y-54746136D01*
X121671861Y-54992255D01*
X117864870Y-54992255D01*
X117532242Y-54770000D01*
X117884577Y-54534577D01*
X118201740Y-54059909D01*
X118313113Y-53500000D01*
X118201740Y-52940091D01*
X117884577Y-52465423D01*
X117532242Y-52230000D01*
X117884577Y-51994577D01*
X118201740Y-51519909D01*
X118313113Y-50960000D01*
X118201740Y-50400091D01*
X117884577Y-49925423D01*
X117532242Y-49690000D01*
X117884577Y-49454577D01*
X118201740Y-48979909D01*
X118313113Y-48420000D01*
X118201740Y-47860091D01*
X117884577Y-47385423D01*
X117532242Y-47150000D01*
X117884577Y-46914577D01*
X118201740Y-46439909D01*
X118313113Y-45880000D01*
X118201740Y-45320091D01*
X117884577Y-44845423D01*
X117409909Y-44528260D01*
X116991333Y-44445000D01*
X115908667Y-44445000D01*
X115490091Y-44528260D01*
X115015423Y-44845423D01*
X114698260Y-45320091D01*
X114586887Y-45880000D01*
X114698260Y-46439909D01*
X115015423Y-46914577D01*
X115367758Y-47150000D01*
X115015423Y-47385423D01*
X114698260Y-47860091D01*
X114586887Y-48420000D01*
X114698260Y-48979909D01*
X115015423Y-49454577D01*
X115367758Y-49690000D01*
X115015423Y-49925423D01*
X114698260Y-50400091D01*
X114586887Y-50960000D01*
X114698260Y-51519909D01*
X115015423Y-51994577D01*
X115367758Y-52230000D01*
X115015423Y-52465423D01*
X114698260Y-52940091D01*
X114586887Y-53500000D01*
X114698260Y-54059909D01*
X115015423Y-54534577D01*
X115367758Y-54770000D01*
X115015423Y-55005423D01*
X114698260Y-55480091D01*
X114586887Y-56040000D01*
X114698260Y-56599909D01*
X115015423Y-57074577D01*
X115367758Y-57310000D01*
X115015423Y-57545423D01*
X114698260Y-58020091D01*
X114586887Y-58580000D01*
X114698260Y-59139909D01*
X115015423Y-59614577D01*
X115367758Y-59850000D01*
X115015423Y-60085423D01*
X114698260Y-60560091D01*
X114586887Y-61120000D01*
X114698260Y-61679909D01*
X115015423Y-62154577D01*
X115367758Y-62390000D01*
X115015423Y-62625423D01*
X114698260Y-63100091D01*
X114586887Y-63660000D01*
X114698260Y-64219909D01*
X115015423Y-64694577D01*
X115367758Y-64930000D01*
X115015423Y-65165423D01*
X114698260Y-65640091D01*
X114586887Y-66200000D01*
X114698260Y-66759909D01*
X115015423Y-67234577D01*
X115367758Y-67470000D01*
X115015423Y-67705423D01*
X114698260Y-68180091D01*
X114586887Y-68740000D01*
X114698260Y-69299909D01*
X115015423Y-69774577D01*
X115367758Y-70010000D01*
X115015423Y-70245423D01*
X114698260Y-70720091D01*
X114586887Y-71280000D01*
X114659492Y-71645010D01*
X112986589Y-71645010D01*
X112798017Y-71456439D01*
X112833113Y-71280000D01*
X112721740Y-70720091D01*
X112404577Y-70245423D01*
X112255000Y-70145479D01*
X112255000Y-64997195D01*
X112373809Y-64917809D01*
X112514157Y-64707765D01*
X112563440Y-64460000D01*
X112563440Y-62860000D01*
X112514157Y-62612235D01*
X112373809Y-62402191D01*
X112163765Y-62261843D01*
X111992018Y-62227681D01*
X111949652Y-62014690D01*
X111754049Y-61721951D01*
X111680156Y-61672578D01*
X104193435Y-54185857D01*
X104144059Y-54111961D01*
X103851320Y-53916358D01*
X103593175Y-53865010D01*
X103593171Y-53865010D01*
X103506010Y-53847673D01*
X103418849Y-53865010D01*
X95378521Y-53865010D01*
X95381904Y-53849039D01*
X95259915Y-53627000D01*
X93717000Y-53627000D01*
X93717000Y-53647000D01*
X93463000Y-53647000D01*
X93463000Y-53627000D01*
X91920085Y-53627000D01*
X91798096Y-53849039D01*
X91801479Y-53865010D01*
X84279159Y-53865010D01*
X84191999Y-53847673D01*
X84104839Y-53865010D01*
X84104835Y-53865010D01*
X83846690Y-53916358D01*
X83846688Y-53916359D01*
X83846689Y-53916359D01*
X83627845Y-54062586D01*
X83627844Y-54062587D01*
X83553951Y-54111961D01*
X83504577Y-54185854D01*
X79181005Y-58509427D01*
X73944079Y-53272501D01*
X74064523Y-53192023D01*
X74190000Y-53004233D01*
X74315477Y-53192023D01*
X74840589Y-53542891D01*
X75460000Y-53666100D01*
X76079410Y-53542891D01*
X76475444Y-53278270D01*
X76509173Y-53359699D01*
X76687802Y-53538327D01*
X76921191Y-53635000D01*
X77714250Y-53635000D01*
X77873000Y-53476250D01*
X77873000Y-52127000D01*
X78127000Y-52127000D01*
X78127000Y-53476250D01*
X78285750Y-53635000D01*
X79078809Y-53635000D01*
X79312198Y-53538327D01*
X79490827Y-53359699D01*
X79587500Y-53126310D01*
X79587500Y-52285750D01*
X79428750Y-52127000D01*
X78127000Y-52127000D01*
X77873000Y-52127000D01*
X77853000Y-52127000D01*
X77853000Y-51873000D01*
X77873000Y-51873000D01*
X77873000Y-50523750D01*
X78127000Y-50523750D01*
X78127000Y-51873000D01*
X79428750Y-51873000D01*
X79587500Y-51714250D01*
X79587500Y-50873690D01*
X79490827Y-50640301D01*
X79312198Y-50461673D01*
X79078809Y-50365000D01*
X78285750Y-50365000D01*
X78127000Y-50523750D01*
X77873000Y-50523750D01*
X77714250Y-50365000D01*
X76921191Y-50365000D01*
X76687802Y-50461673D01*
X76509173Y-50640301D01*
X76475444Y-50721729D01*
X76345000Y-50634570D01*
X76345000Y-50048578D01*
X77973578Y-48420000D01*
X91726887Y-48420000D01*
X91838260Y-48979909D01*
X92155423Y-49454577D01*
X92507758Y-49690000D01*
X92155423Y-49925423D01*
X91838260Y-50400091D01*
X91726887Y-50960000D01*
X91838260Y-51519909D01*
X92155423Y-51994577D01*
X92511499Y-52232499D01*
X92085500Y-52575104D01*
X91815633Y-53068181D01*
X91798096Y-53150961D01*
X91920085Y-53373000D01*
X93463000Y-53373000D01*
X93463000Y-53353000D01*
X93717000Y-53353000D01*
X93717000Y-53373000D01*
X95259915Y-53373000D01*
X95381904Y-53150961D01*
X95364367Y-53068181D01*
X95094500Y-52575104D01*
X94668501Y-52232499D01*
X95024577Y-51994577D01*
X95341740Y-51519909D01*
X95453113Y-50960000D01*
X95341740Y-50400091D01*
X95024577Y-49925423D01*
X94672242Y-49690000D01*
X95024577Y-49454577D01*
X95341740Y-48979909D01*
X95453113Y-48420000D01*
X95341740Y-47860091D01*
X95024577Y-47385423D01*
X94668501Y-47147501D01*
X95094500Y-46804896D01*
X95364367Y-46311819D01*
X95381904Y-46229039D01*
X95259915Y-46007000D01*
X93717000Y-46007000D01*
X93717000Y-46027000D01*
X93463000Y-46027000D01*
X93463000Y-46007000D01*
X91920085Y-46007000D01*
X91798096Y-46229039D01*
X91815633Y-46311819D01*
X92085500Y-46804896D01*
X92511499Y-47147501D01*
X92155423Y-47385423D01*
X91838260Y-47860091D01*
X91726887Y-48420000D01*
X77973578Y-48420000D01*
X79401040Y-46992538D01*
X79620000Y-47036092D01*
X80199418Y-46920839D01*
X80690625Y-46592625D01*
X81018839Y-46101417D01*
X81105000Y-45668255D01*
X81105000Y-45530961D01*
X91798096Y-45530961D01*
X91920085Y-45753000D01*
X93463000Y-45753000D01*
X93463000Y-44445000D01*
X93717000Y-44445000D01*
X93717000Y-45753000D01*
X95259915Y-45753000D01*
X95381904Y-45530961D01*
X95364367Y-45448181D01*
X95094500Y-44955104D01*
X94656483Y-44602834D01*
X94117000Y-44445000D01*
X93717000Y-44445000D01*
X93463000Y-44445000D01*
X93063000Y-44445000D01*
X92523517Y-44602834D01*
X92085500Y-44955104D01*
X91815633Y-45448181D01*
X91798096Y-45530961D01*
X81105000Y-45530961D01*
X81105000Y-45075744D01*
X81018839Y-44642582D01*
X80690625Y-44151375D01*
X80199417Y-43823161D01*
X79933343Y-43770236D01*
X79986579Y-43717000D01*
X119893422Y-43717000D01*
X121302560Y-45126139D01*
X121302560Y-46122000D01*
X121370874Y-46465435D01*
X121565414Y-46756586D01*
X121856565Y-46951126D01*
X122200000Y-47019440D01*
X123195862Y-47019440D01*
X124863845Y-48687424D01*
X124863847Y-48687426D01*
X125115001Y-48938579D01*
X125115000Y-54569467D01*
X124952235Y-54601843D01*
X124742191Y-54742191D01*
X124601843Y-54952235D01*
X124552560Y-55200000D01*
X124552560Y-56800000D01*
X124601843Y-57047765D01*
X124742191Y-57257809D01*
X124952235Y-57398157D01*
X125200000Y-57447440D01*
X126800000Y-57447440D01*
X127047765Y-57398157D01*
X127257809Y-57257809D01*
X127398157Y-57047765D01*
X127447440Y-56800000D01*
X127447440Y-55200000D01*
X127398157Y-54952235D01*
X127257809Y-54742191D01*
X127047765Y-54601843D01*
X126885000Y-54569467D01*
X126885000Y-50701559D01*
X126974880Y-50761615D01*
X127082690Y-50833652D01*
X127340835Y-50885000D01*
X127340839Y-50885000D01*
X127427999Y-50902337D01*
X127515159Y-50885000D01*
X132602560Y-50885000D01*
X132602560Y-51750000D01*
X132651843Y-51997765D01*
X132792191Y-52207809D01*
X133002235Y-52348157D01*
X133250000Y-52397440D01*
X136750000Y-52397440D01*
X136997765Y-52348157D01*
X137207809Y-52207809D01*
X137348157Y-51997765D01*
X137397440Y-51750000D01*
X137397440Y-48250000D01*
X137348157Y-48002235D01*
X137207809Y-47792191D01*
X136997765Y-47651843D01*
X136750000Y-47602560D01*
X133250000Y-47602560D01*
X133002235Y-47651843D01*
X132792191Y-47792191D01*
X132680731Y-47959001D01*
X132697440Y-47875000D01*
X132697440Y-46125000D01*
X132581551Y-45542387D01*
X132251528Y-45048472D01*
X131757613Y-44718449D01*
X131175000Y-44602560D01*
X129425000Y-44602560D01*
X128842387Y-44718449D01*
X128348472Y-45048472D01*
X128018449Y-45542387D01*
X127902560Y-46125000D01*
X127902560Y-47875000D01*
X128018449Y-48457613D01*
X128348472Y-48951528D01*
X128593125Y-49115000D01*
X127794579Y-49115000D01*
X126687424Y-48007846D01*
X126638049Y-47933951D01*
X126564155Y-47884577D01*
X126115426Y-47435847D01*
X126115424Y-47435845D01*
X125582896Y-46903318D01*
X125696890Y-46963476D01*
X125709260Y-46961553D01*
X126232045Y-46710664D01*
X126619024Y-46278812D01*
X126811284Y-45731742D01*
X126667231Y-45499000D01*
X125467000Y-45499000D01*
X125467000Y-45519000D01*
X125213000Y-45519000D01*
X125213000Y-45499000D01*
X125193000Y-45499000D01*
X125193000Y-45245000D01*
X125213000Y-45245000D01*
X125213000Y-43901845D01*
X125467000Y-43901845D01*
X125467000Y-45245000D01*
X126667231Y-45245000D01*
X126811284Y-45012258D01*
X126619024Y-44465188D01*
X126458232Y-44285750D01*
X132615000Y-44285750D01*
X132615000Y-45626309D01*
X132711673Y-45859698D01*
X132890301Y-46038327D01*
X133123690Y-46135000D01*
X134714250Y-46135000D01*
X134873000Y-45976250D01*
X134873000Y-44127000D01*
X135127000Y-44127000D01*
X135127000Y-45976250D01*
X135285750Y-46135000D01*
X136876310Y-46135000D01*
X137109699Y-46038327D01*
X137288327Y-45859698D01*
X137385000Y-45626309D01*
X137385000Y-44285750D01*
X137226250Y-44127000D01*
X135127000Y-44127000D01*
X134873000Y-44127000D01*
X132773750Y-44127000D01*
X132615000Y-44285750D01*
X126458232Y-44285750D01*
X126232045Y-44033336D01*
X125709260Y-43782447D01*
X125696890Y-43780524D01*
X125467000Y-43901845D01*
X125213000Y-43901845D01*
X124983110Y-43780524D01*
X124970740Y-43782447D01*
X124447955Y-44033336D01*
X124228734Y-44277978D01*
X124034586Y-43987414D01*
X123743435Y-43792874D01*
X123400000Y-43724560D01*
X122404139Y-43724560D01*
X121053270Y-42373691D01*
X132615000Y-42373691D01*
X132615000Y-43714250D01*
X132773750Y-43873000D01*
X134873000Y-43873000D01*
X134873000Y-42023750D01*
X135127000Y-42023750D01*
X135127000Y-43873000D01*
X137226250Y-43873000D01*
X137385000Y-43714250D01*
X137385000Y-42373691D01*
X137288327Y-42140302D01*
X137109699Y-41961673D01*
X136876310Y-41865000D01*
X135285750Y-41865000D01*
X135127000Y-42023750D01*
X134873000Y-42023750D01*
X134714250Y-41865000D01*
X133123690Y-41865000D01*
X132890301Y-41961673D01*
X132711673Y-42140302D01*
X132615000Y-42373691D01*
X121053270Y-42373691D01*
X120947425Y-42267847D01*
X120898049Y-42193951D01*
X120605310Y-41998348D01*
X120347165Y-41947000D01*
X120347161Y-41947000D01*
X120260000Y-41929663D01*
X120172839Y-41947000D01*
X79707159Y-41947000D01*
X79619999Y-41929663D01*
X79532839Y-41947000D01*
X79532835Y-41947000D01*
X79274690Y-41998348D01*
X79203358Y-42046011D01*
X79055845Y-42144576D01*
X79055844Y-42144577D01*
X78981951Y-42193951D01*
X78932577Y-42267844D01*
X77475862Y-43724560D01*
X76480000Y-43724560D01*
X76136565Y-43792874D01*
X75845414Y-43987414D01*
X75650874Y-44278565D01*
X75582560Y-44622000D01*
X75582560Y-46122000D01*
X75650874Y-46465435D01*
X75845414Y-46756586D01*
X76136565Y-46951126D01*
X76480000Y-47019440D01*
X76870982Y-47019440D01*
X74895847Y-48994575D01*
X74821951Y-49043951D01*
X74626348Y-49336691D01*
X74575000Y-49594836D01*
X74575000Y-49594839D01*
X74557663Y-49682000D01*
X74575000Y-49769161D01*
X74575000Y-50634570D01*
X74315477Y-50807977D01*
X74190000Y-50995767D01*
X74064523Y-50807977D01*
X73539411Y-50457109D01*
X72920000Y-50333900D01*
X72300590Y-50457109D01*
X71775477Y-50807977D01*
X71424609Y-51333089D01*
X71332500Y-51796150D01*
X71332500Y-52203849D01*
X71424609Y-52666910D01*
X71775477Y-53192023D01*
X72035001Y-53365431D01*
X72035001Y-53412835D01*
X72017663Y-53500000D01*
X72086348Y-53845309D01*
X72232576Y-54064154D01*
X72232578Y-54064156D01*
X72281952Y-54138049D01*
X72355845Y-54187423D01*
X78735000Y-60566579D01*
X78735000Y-60912836D01*
X78735001Y-84056560D01*
X77804000Y-84056560D01*
X77556235Y-84105843D01*
X77346484Y-84245995D01*
X76820777Y-84057035D01*
X76250546Y-84084222D01*
X75849995Y-84250136D01*
X75775861Y-84496255D01*
X76604000Y-85324395D01*
X76618142Y-85310252D01*
X76797748Y-85489858D01*
X76783605Y-85504000D01*
X76797748Y-85518143D01*
X76618142Y-85697748D01*
X76604000Y-85683605D01*
X75775861Y-86511745D01*
X75849995Y-86757864D01*
X76387223Y-86950965D01*
X76957454Y-86923778D01*
X77347067Y-86762395D01*
X77556235Y-86902157D01*
X77804000Y-86951440D01*
X78735000Y-86951440D01*
X78735001Y-91738554D01*
X78424609Y-92203089D01*
X78332500Y-92666150D01*
X78332500Y-93073849D01*
X78424609Y-93536910D01*
X78775477Y-94062023D01*
X79300589Y-94412891D01*
X79920000Y-94536100D01*
X80539410Y-94412891D01*
X81064523Y-94062023D01*
X81190000Y-93874233D01*
X81315477Y-94062023D01*
X81840589Y-94412891D01*
X82460000Y-94536100D01*
X83079410Y-94412891D01*
X83475444Y-94148270D01*
X83509173Y-94229699D01*
X83687802Y-94408327D01*
X83921191Y-94505000D01*
X84714250Y-94505000D01*
X84873000Y-94346250D01*
X84873000Y-92997000D01*
X85127000Y-92997000D01*
X85127000Y-94346250D01*
X85285750Y-94505000D01*
X86078809Y-94505000D01*
X86312198Y-94408327D01*
X86490827Y-94229699D01*
X86587500Y-93996310D01*
X86587500Y-93155750D01*
X86428750Y-92997000D01*
X85127000Y-92997000D01*
X84873000Y-92997000D01*
X84853000Y-92997000D01*
X84853000Y-92743000D01*
X84873000Y-92743000D01*
X84873000Y-91393750D01*
X85127000Y-91393750D01*
X85127000Y-92743000D01*
X86428750Y-92743000D01*
X86587500Y-92584250D01*
X86587500Y-91743690D01*
X86490827Y-91510301D01*
X86312198Y-91331673D01*
X86078809Y-91235000D01*
X85285750Y-91235000D01*
X85127000Y-91393750D01*
X84873000Y-91393750D01*
X84714250Y-91235000D01*
X83921191Y-91235000D01*
X83687802Y-91331673D01*
X83509173Y-91510301D01*
X83475444Y-91591729D01*
X83345000Y-91504570D01*
X83345000Y-89587159D01*
X83362337Y-89499999D01*
X83345000Y-89412839D01*
X83345000Y-89412835D01*
X83293652Y-89154690D01*
X83098049Y-88861951D01*
X83024156Y-88812577D01*
X81892500Y-87680922D01*
X81892500Y-85287223D01*
X84301035Y-85287223D01*
X84328222Y-85857454D01*
X84494136Y-86258005D01*
X84740255Y-86332139D01*
X85568395Y-85504000D01*
X84740255Y-84675861D01*
X84494136Y-84749995D01*
X84301035Y-85287223D01*
X81892500Y-85287223D01*
X81892500Y-83885000D01*
X86177422Y-83885000D01*
X86519217Y-84226796D01*
X86490484Y-84245995D01*
X85964777Y-84057035D01*
X85394546Y-84084222D01*
X84993995Y-84250136D01*
X84919861Y-84496255D01*
X85748000Y-85324395D01*
X85762142Y-85310252D01*
X85941748Y-85489858D01*
X85927605Y-85504000D01*
X85941748Y-85518143D01*
X85762142Y-85697748D01*
X85748000Y-85683605D01*
X84919861Y-86511745D01*
X84993995Y-86757864D01*
X85531223Y-86950965D01*
X86101454Y-86923778D01*
X86491067Y-86762395D01*
X86700235Y-86902157D01*
X86948000Y-86951440D01*
X88548000Y-86951440D01*
X88789991Y-86903306D01*
X88789990Y-114250143D01*
X88775102Y-114324990D01*
X88789990Y-114399837D01*
X88789990Y-114399841D01*
X88834086Y-114621526D01*
X89002061Y-114872919D01*
X89065520Y-114915321D01*
X96658791Y-122508593D01*
X96615000Y-122728744D01*
X96615000Y-123271255D01*
X96701161Y-123704417D01*
X97029375Y-124195625D01*
X97520582Y-124523839D01*
X98100000Y-124639092D01*
X98466408Y-124566209D01*
X102736000Y-128835803D01*
X102736000Y-129873000D01*
X102652155Y-129873000D01*
X102541002Y-129777224D01*
X102459789Y-129725286D01*
X102379284Y-129672404D01*
X102371414Y-129668768D01*
X102371411Y-129668766D01*
X102371408Y-129668765D01*
X101855201Y-129434060D01*
X101762732Y-129407020D01*
X101670565Y-129378842D01*
X101661986Y-129377560D01*
X101119666Y-129299894D01*
X101069926Y-129290000D01*
X73041248Y-129290000D01*
X72474292Y-129223900D01*
X71976788Y-129043315D01*
X71534166Y-128753118D01*
X71170177Y-128368884D01*
X70904342Y-127911216D01*
X70748108Y-127395371D01*
X70710000Y-126968382D01*
X70710000Y-119446029D01*
X82215000Y-119446029D01*
X82215000Y-120553971D01*
X82638991Y-121577576D01*
X83422424Y-122361009D01*
X84446029Y-122785000D01*
X85553971Y-122785000D01*
X86577576Y-122361009D01*
X87361009Y-121577576D01*
X87785000Y-120553971D01*
X87785000Y-119446029D01*
X87361009Y-118422424D01*
X86577576Y-117638991D01*
X85553971Y-117215000D01*
X84446029Y-117215000D01*
X83422424Y-117638991D01*
X82638991Y-118422424D01*
X82215000Y-119446029D01*
X70710000Y-119446029D01*
X70710000Y-108670000D01*
X80028276Y-108670000D01*
X80213380Y-109600580D01*
X80740511Y-110389489D01*
X81529420Y-110916620D01*
X82225103Y-111055000D01*
X82694897Y-111055000D01*
X83390580Y-110916620D01*
X84179489Y-110389489D01*
X84706620Y-109600580D01*
X84891724Y-108670000D01*
X84706620Y-107739420D01*
X84179489Y-106950511D01*
X83390580Y-106423380D01*
X82694897Y-106285000D01*
X82225103Y-106285000D01*
X81529420Y-106423380D01*
X80740511Y-106950511D01*
X80213380Y-107739420D01*
X80028276Y-108670000D01*
X70710000Y-108670000D01*
X70710000Y-85287223D01*
X75157035Y-85287223D01*
X75184222Y-85857454D01*
X75350136Y-86258005D01*
X75596255Y-86332139D01*
X76424395Y-85504000D01*
X75596255Y-84675861D01*
X75350136Y-84749995D01*
X75157035Y-85287223D01*
X70710000Y-85287223D01*
X70710000Y-67800000D01*
X73028276Y-67800000D01*
X73213380Y-68730580D01*
X73740511Y-69519489D01*
X74529420Y-70046620D01*
X75225103Y-70185000D01*
X75694897Y-70185000D01*
X76390580Y-70046620D01*
X77179489Y-69519489D01*
X77706620Y-68730580D01*
X77891724Y-67800000D01*
X77706620Y-66869420D01*
X77179489Y-66080511D01*
X76390580Y-65553380D01*
X75694897Y-65415000D01*
X75225103Y-65415000D01*
X74529420Y-65553380D01*
X73740511Y-66080511D01*
X73213380Y-66869420D01*
X73028276Y-67800000D01*
X70710000Y-67800000D01*
X70710000Y-43041247D01*
X70776100Y-42474292D01*
X70956685Y-41976788D01*
X71246881Y-41534165D01*
X71631116Y-41170177D01*
X72088784Y-40904342D01*
X72604629Y-40748108D01*
X73031618Y-40710000D01*
X136958753Y-40710000D01*
X137525708Y-40776100D01*
G36*
X102736001Y-134211196D02*
X101657199Y-135290000D01*
X100159848Y-135290000D01*
X100085000Y-135275112D01*
X100010152Y-135290000D01*
X100010148Y-135290000D01*
X99836605Y-135324520D01*
X99788462Y-135334096D01*
X99632794Y-135438111D01*
X99537071Y-135502071D01*
X99494671Y-135565527D01*
X98626408Y-136433791D01*
X98260000Y-136360908D01*
X97680583Y-136476161D01*
X97189375Y-136804375D01*
X96861161Y-137295582D01*
X96775000Y-137728744D01*
X96775000Y-138271255D01*
X96861161Y-138704417D01*
X97189375Y-139195625D01*
X97500001Y-139403179D01*
X97500000Y-143350153D01*
X97485112Y-143425000D01*
X97500000Y-143499847D01*
X97500000Y-143499851D01*
X97544096Y-143721536D01*
X97712071Y-143972929D01*
X97775530Y-144015331D01*
X99184671Y-145424473D01*
X99227071Y-145487929D01*
X99230170Y-145490000D01*
X99227071Y-145492071D01*
X99059096Y-145743463D01*
X99043542Y-145821656D01*
X95905875Y-148959324D01*
X95673346Y-148803953D01*
X95356861Y-148741000D01*
X94643139Y-148741000D01*
X94326654Y-148803953D01*
X93967759Y-149043759D01*
X93727953Y-149402654D01*
X93643744Y-149826000D01*
X93727953Y-150249346D01*
X93862694Y-150451000D01*
X93727953Y-150652654D01*
X93643744Y-151076000D01*
X93727953Y-151499346D01*
X93862694Y-151701000D01*
X93727953Y-151902654D01*
X93643744Y-152326000D01*
X93727953Y-152749346D01*
X93753105Y-152786988D01*
X93665000Y-152999691D01*
X93665000Y-153290250D01*
X93823750Y-153449000D01*
X94873000Y-153449000D01*
X94873000Y-153429000D01*
X95127000Y-153429000D01*
X95127000Y-153449000D01*
X96176250Y-153449000D01*
X96335000Y-153290250D01*
X96335000Y-153211000D01*
X98606839Y-153211000D01*
X98694000Y-153228337D01*
X98781161Y-153211000D01*
X98781165Y-153211000D01*
X99039310Y-153159652D01*
X99332049Y-152964049D01*
X99381425Y-152890153D01*
X99390000Y-152881578D01*
X99390000Y-153536309D01*
X99486673Y-153769698D01*
X99665301Y-153948327D01*
X99898690Y-154045000D01*
X100714250Y-154045000D01*
X100873000Y-153886250D01*
X100873000Y-152687000D01*
X101127000Y-152687000D01*
X101127000Y-153886250D01*
X101285750Y-154045000D01*
X102101310Y-154045000D01*
X102334699Y-153948327D01*
X102513327Y-153769698D01*
X102610000Y-153536309D01*
X102610000Y-152845750D01*
X102451250Y-152687000D01*
X101127000Y-152687000D01*
X100873000Y-152687000D01*
X100853000Y-152687000D01*
X100853000Y-152433000D01*
X100873000Y-152433000D01*
X100873000Y-152413000D01*
X101127000Y-152413000D01*
X101127000Y-152433000D01*
X102451250Y-152433000D01*
X102610000Y-152274250D01*
X102610000Y-151583691D01*
X102513327Y-151350302D01*
X102334699Y-151171673D01*
X102173968Y-151105096D01*
X102195625Y-151090625D01*
X102523839Y-150599418D01*
X102639092Y-150020000D01*
X102523839Y-149440582D01*
X102195625Y-148949375D01*
X101897239Y-148750000D01*
X102195625Y-148550625D01*
X102523839Y-148059418D01*
X102639092Y-147480000D01*
X102566209Y-147113593D01*
X102780001Y-146899801D01*
X102780001Y-147210148D01*
X102765112Y-147285000D01*
X102780001Y-147359852D01*
X102824097Y-147581537D01*
X102992072Y-147832929D01*
X103055528Y-147875329D01*
X107433791Y-152253593D01*
X107360908Y-152620000D01*
X107476161Y-153199418D01*
X107804375Y-153690625D01*
X108295582Y-154018839D01*
X108728744Y-154105000D01*
X109271256Y-154105000D01*
X109491407Y-154061209D01*
X109644671Y-154214473D01*
X109687071Y-154277929D01*
X109938463Y-154445904D01*
X110160148Y-154490000D01*
X110160152Y-154490000D01*
X110234999Y-154504888D01*
X110309846Y-154490000D01*
X113952898Y-154490000D01*
X113967759Y-154512241D01*
X114326654Y-154752047D01*
X114643139Y-154815000D01*
X115356861Y-154815000D01*
X115673346Y-154752047D01*
X116032241Y-154512241D01*
X116272047Y-154153346D01*
X116356256Y-153730000D01*
X116272047Y-153306654D01*
X116137306Y-153105000D01*
X116272047Y-152903346D01*
X116356256Y-152480000D01*
X116272047Y-152056654D01*
X116137306Y-151855000D01*
X116272047Y-151653346D01*
X116356256Y-151230000D01*
X116272047Y-150806654D01*
X116246895Y-150769012D01*
X116335000Y-150556309D01*
X116335000Y-150265750D01*
X116176250Y-150107000D01*
X115127000Y-150107000D01*
X115127000Y-150127000D01*
X114873000Y-150127000D01*
X114873000Y-150107000D01*
X113823750Y-150107000D01*
X113665000Y-150265750D01*
X113665000Y-150345000D01*
X113056579Y-150345000D01*
X112115270Y-149403691D01*
X113665000Y-149403691D01*
X113665000Y-149694250D01*
X113823750Y-149853000D01*
X114873000Y-149853000D01*
X114873000Y-149053750D01*
X115127000Y-149053750D01*
X115127000Y-149853000D01*
X116176250Y-149853000D01*
X116335000Y-149694250D01*
X116335000Y-149403691D01*
X116238327Y-149170302D01*
X116059699Y-148991673D01*
X115826310Y-148895000D01*
X115285750Y-148895000D01*
X115127000Y-149053750D01*
X114873000Y-149053750D01*
X114714250Y-148895000D01*
X114173690Y-148895000D01*
X113940301Y-148991673D01*
X113761673Y-149170302D01*
X113665000Y-149403691D01*
X112115270Y-149403691D01*
X111321659Y-148610081D01*
X111308652Y-148544691D01*
X111282231Y-148505149D01*
X111162424Y-148325845D01*
X111162422Y-148325843D01*
X111113049Y-148251951D01*
X111039156Y-148202577D01*
X110595538Y-147758960D01*
X110639092Y-147540000D01*
X110523839Y-146960582D01*
X110195625Y-146469375D01*
X110173968Y-146454904D01*
X110334699Y-146388327D01*
X110513327Y-146209698D01*
X110610000Y-145976309D01*
X110610000Y-145285750D01*
X110451250Y-145127000D01*
X109127000Y-145127000D01*
X109127000Y-145147000D01*
X108873000Y-145147000D01*
X108873000Y-145127000D01*
X107548750Y-145127000D01*
X107390000Y-145285750D01*
X107390000Y-145976309D01*
X107486673Y-146209698D01*
X107665301Y-146388327D01*
X107826032Y-146454904D01*
X107804375Y-146469375D01*
X107476161Y-146960582D01*
X107369020Y-147499219D01*
X106840000Y-146970199D01*
X106840000Y-144023691D01*
X107390000Y-144023691D01*
X107390000Y-144714250D01*
X107548750Y-144873000D01*
X108873000Y-144873000D01*
X108873000Y-143673750D01*
X109127000Y-143673750D01*
X109127000Y-144873000D01*
X110451250Y-144873000D01*
X110610000Y-144714250D01*
X110610000Y-144023691D01*
X110513327Y-143790302D01*
X110334699Y-143611673D01*
X110318973Y-143605159D01*
X113015000Y-143605159D01*
X113015000Y-144394841D01*
X113317199Y-145124412D01*
X113875588Y-145682801D01*
X114605159Y-145985000D01*
X115394841Y-145985000D01*
X116124412Y-145682801D01*
X116682801Y-145124412D01*
X116985000Y-144394841D01*
X116985000Y-143605159D01*
X116682801Y-142875588D01*
X116124412Y-142317199D01*
X115394841Y-142015000D01*
X114605159Y-142015000D01*
X113875588Y-142317199D01*
X113317199Y-142875588D01*
X113015000Y-143605159D01*
X110318973Y-143605159D01*
X110101310Y-143515000D01*
X109285750Y-143515000D01*
X109127000Y-143673750D01*
X108873000Y-143673750D01*
X108714250Y-143515000D01*
X107898690Y-143515000D01*
X107665301Y-143611673D01*
X107486673Y-143790302D01*
X107390000Y-144023691D01*
X106840000Y-144023691D01*
X106840000Y-139403178D01*
X107150625Y-139195625D01*
X107351912Y-138894378D01*
X107354947Y-138902571D01*
X107748807Y-139327497D01*
X108263110Y-139566476D01*
X108493000Y-139445155D01*
X108493000Y-138127000D01*
X108473000Y-138127000D01*
X108473000Y-137873000D01*
X108493000Y-137873000D01*
X108493000Y-137853000D01*
X108747000Y-137853000D01*
X108747000Y-137873000D01*
X108767000Y-137873000D01*
X108767000Y-138127000D01*
X108747000Y-138127000D01*
X108747000Y-139445155D01*
X108976890Y-139566476D01*
X109491193Y-139327497D01*
X109731059Y-139068712D01*
X109925414Y-139359586D01*
X110216565Y-139554126D01*
X110560000Y-139622440D01*
X111760000Y-139622440D01*
X112103435Y-139554126D01*
X112394586Y-139359586D01*
X112589126Y-139068435D01*
X112657440Y-138725000D01*
X112657440Y-137275000D01*
X112589126Y-136931565D01*
X112394586Y-136640414D01*
X112103435Y-136445874D01*
X111760000Y-136377560D01*
X110789139Y-136377560D01*
X109121579Y-134710000D01*
X116930070Y-134710000D01*
X117105655Y-134744926D01*
X117195225Y-134804774D01*
X117255074Y-134894345D01*
X117290000Y-135069930D01*
X117290001Y-154930065D01*
X117255074Y-155105655D01*
X117195225Y-155195226D01*
X117105655Y-155255074D01*
X116930070Y-155290000D01*
X93069930Y-155290000D01*
X92894345Y-155255074D01*
X92804774Y-155195225D01*
X92744926Y-155105655D01*
X92710000Y-154930070D01*
X92710000Y-153861750D01*
X93665000Y-153861750D01*
X93665000Y-154152309D01*
X93761673Y-154385698D01*
X93940301Y-154564327D01*
X94173690Y-154661000D01*
X94714250Y-154661000D01*
X94873000Y-154502250D01*
X94873000Y-153703000D01*
X95127000Y-153703000D01*
X95127000Y-154502250D01*
X95285750Y-154661000D01*
X95826310Y-154661000D01*
X96059699Y-154564327D01*
X96238327Y-154385698D01*
X96335000Y-154152309D01*
X96335000Y-153861750D01*
X96176250Y-153703000D01*
X95127000Y-153703000D01*
X94873000Y-153703000D01*
X93823750Y-153703000D01*
X93665000Y-153861750D01*
X92710000Y-153861750D01*
X92710000Y-143605159D01*
X93015000Y-143605159D01*
X93015000Y-144394841D01*
X93317199Y-145124412D01*
X93875588Y-145682801D01*
X94605159Y-145985000D01*
X95394841Y-145985000D01*
X96124412Y-145682801D01*
X96682801Y-145124412D01*
X96985000Y-144394841D01*
X96985000Y-143605159D01*
X96682801Y-142875588D01*
X96124412Y-142317199D01*
X95394841Y-142015000D01*
X94605159Y-142015000D01*
X93875588Y-142317199D01*
X93317199Y-142875588D01*
X93015000Y-143605159D01*
X92710000Y-143605159D01*
X92710000Y-135069930D01*
X92744926Y-134894345D01*
X92804774Y-134804775D01*
X92894345Y-134744926D01*
X93069930Y-134710000D01*
X101069926Y-134710000D01*
X101106726Y-134702680D01*
X101125087Y-134702680D01*
X101133666Y-134701398D01*
X101693975Y-134614157D01*
X101786142Y-134585979D01*
X101878611Y-134558939D01*
X101886485Y-134555301D01*
X102399788Y-134314306D01*
X102480338Y-134261395D01*
X102561506Y-134209486D01*
X102568042Y-134203784D01*
X102654984Y-134127000D01*
X102736001Y-134127000D01*
X102736001Y-134211196D01*
X102736001Y-134211196D01*
G37*
X102736001Y-134211196D02*
X101657199Y-135290000D01*
X100159848Y-135290000D01*
X100085000Y-135275112D01*
X100010152Y-135290000D01*
X100010148Y-135290000D01*
X99836605Y-135324520D01*
X99788462Y-135334096D01*
X99632794Y-135438111D01*
X99537071Y-135502071D01*
X99494671Y-135565527D01*
X98626408Y-136433791D01*
X98260000Y-136360908D01*
X97680583Y-136476161D01*
X97189375Y-136804375D01*
X96861161Y-137295582D01*
X96775000Y-137728744D01*
X96775000Y-138271255D01*
X96861161Y-138704417D01*
X97189375Y-139195625D01*
X97500001Y-139403179D01*
X97500000Y-143350153D01*
X97485112Y-143425000D01*
X97500000Y-143499847D01*
X97500000Y-143499851D01*
X97544096Y-143721536D01*
X97712071Y-143972929D01*
X97775530Y-144015331D01*
X99184671Y-145424473D01*
X99227071Y-145487929D01*
X99230170Y-145490000D01*
X99227071Y-145492071D01*
X99059096Y-145743463D01*
X99043542Y-145821656D01*
X95905875Y-148959324D01*
X95673346Y-148803953D01*
X95356861Y-148741000D01*
X94643139Y-148741000D01*
X94326654Y-148803953D01*
X93967759Y-149043759D01*
X93727953Y-149402654D01*
X93643744Y-149826000D01*
X93727953Y-150249346D01*
X93862694Y-150451000D01*
X93727953Y-150652654D01*
X93643744Y-151076000D01*
X93727953Y-151499346D01*
X93862694Y-151701000D01*
X93727953Y-151902654D01*
X93643744Y-152326000D01*
X93727953Y-152749346D01*
X93753105Y-152786988D01*
X93665000Y-152999691D01*
X93665000Y-153290250D01*
X93823750Y-153449000D01*
X94873000Y-153449000D01*
X94873000Y-153429000D01*
X95127000Y-153429000D01*
X95127000Y-153449000D01*
X96176250Y-153449000D01*
X96335000Y-153290250D01*
X96335000Y-153211000D01*
X98606839Y-153211000D01*
X98694000Y-153228337D01*
X98781161Y-153211000D01*
X98781165Y-153211000D01*
X99039310Y-153159652D01*
X99332049Y-152964049D01*
X99381425Y-152890153D01*
X99390000Y-152881578D01*
X99390000Y-153536309D01*
X99486673Y-153769698D01*
X99665301Y-153948327D01*
X99898690Y-154045000D01*
X100714250Y-154045000D01*
X100873000Y-153886250D01*
X100873000Y-152687000D01*
X101127000Y-152687000D01*
X101127000Y-153886250D01*
X101285750Y-154045000D01*
X102101310Y-154045000D01*
X102334699Y-153948327D01*
X102513327Y-153769698D01*
X102610000Y-153536309D01*
X102610000Y-152845750D01*
X102451250Y-152687000D01*
X101127000Y-152687000D01*
X100873000Y-152687000D01*
X100853000Y-152687000D01*
X100853000Y-152433000D01*
X100873000Y-152433000D01*
X100873000Y-152413000D01*
X101127000Y-152413000D01*
X101127000Y-152433000D01*
X102451250Y-152433000D01*
X102610000Y-152274250D01*
X102610000Y-151583691D01*
X102513327Y-151350302D01*
X102334699Y-151171673D01*
X102173968Y-151105096D01*
X102195625Y-151090625D01*
X102523839Y-150599418D01*
X102639092Y-150020000D01*
X102523839Y-149440582D01*
X102195625Y-148949375D01*
X101897239Y-148750000D01*
X102195625Y-148550625D01*
X102523839Y-148059418D01*
X102639092Y-147480000D01*
X102566209Y-147113593D01*
X102780001Y-146899801D01*
X102780001Y-147210148D01*
X102765112Y-147285000D01*
X102780001Y-147359852D01*
X102824097Y-147581537D01*
X102992072Y-147832929D01*
X103055528Y-147875329D01*
X107433791Y-152253593D01*
X107360908Y-152620000D01*
X107476161Y-153199418D01*
X107804375Y-153690625D01*
X108295582Y-154018839D01*
X108728744Y-154105000D01*
X109271256Y-154105000D01*
X109491407Y-154061209D01*
X109644671Y-154214473D01*
X109687071Y-154277929D01*
X109938463Y-154445904D01*
X110160148Y-154490000D01*
X110160152Y-154490000D01*
X110234999Y-154504888D01*
X110309846Y-154490000D01*
X113952898Y-154490000D01*
X113967759Y-154512241D01*
X114326654Y-154752047D01*
X114643139Y-154815000D01*
X115356861Y-154815000D01*
X115673346Y-154752047D01*
X116032241Y-154512241D01*
X116272047Y-154153346D01*
X116356256Y-153730000D01*
X116272047Y-153306654D01*
X116137306Y-153105000D01*
X116272047Y-152903346D01*
X116356256Y-152480000D01*
X116272047Y-152056654D01*
X116137306Y-151855000D01*
X116272047Y-151653346D01*
X116356256Y-151230000D01*
X116272047Y-150806654D01*
X116246895Y-150769012D01*
X116335000Y-150556309D01*
X116335000Y-150265750D01*
X116176250Y-150107000D01*
X115127000Y-150107000D01*
X115127000Y-150127000D01*
X114873000Y-150127000D01*
X114873000Y-150107000D01*
X113823750Y-150107000D01*
X113665000Y-150265750D01*
X113665000Y-150345000D01*
X113056579Y-150345000D01*
X112115270Y-149403691D01*
X113665000Y-149403691D01*
X113665000Y-149694250D01*
X113823750Y-149853000D01*
X114873000Y-149853000D01*
X114873000Y-149053750D01*
X115127000Y-149053750D01*
X115127000Y-149853000D01*
X116176250Y-149853000D01*
X116335000Y-149694250D01*
X116335000Y-149403691D01*
X116238327Y-149170302D01*
X116059699Y-148991673D01*
X115826310Y-148895000D01*
X115285750Y-148895000D01*
X115127000Y-149053750D01*
X114873000Y-149053750D01*
X114714250Y-148895000D01*
X114173690Y-148895000D01*
X113940301Y-148991673D01*
X113761673Y-149170302D01*
X113665000Y-149403691D01*
X112115270Y-149403691D01*
X111321659Y-148610081D01*
X111308652Y-148544691D01*
X111282231Y-148505149D01*
X111162424Y-148325845D01*
X111162422Y-148325843D01*
X111113049Y-148251951D01*
X111039156Y-148202577D01*
X110595538Y-147758960D01*
X110639092Y-147540000D01*
X110523839Y-146960582D01*
X110195625Y-146469375D01*
X110173968Y-146454904D01*
X110334699Y-146388327D01*
X110513327Y-146209698D01*
X110610000Y-145976309D01*
X110610000Y-145285750D01*
X110451250Y-145127000D01*
X109127000Y-145127000D01*
X109127000Y-145147000D01*
X108873000Y-145147000D01*
X108873000Y-145127000D01*
X107548750Y-145127000D01*
X107390000Y-145285750D01*
X107390000Y-145976309D01*
X107486673Y-146209698D01*
X107665301Y-146388327D01*
X107826032Y-146454904D01*
X107804375Y-146469375D01*
X107476161Y-146960582D01*
X107369020Y-147499219D01*
X106840000Y-146970199D01*
X106840000Y-144023691D01*
X107390000Y-144023691D01*
X107390000Y-144714250D01*
X107548750Y-144873000D01*
X108873000Y-144873000D01*
X108873000Y-143673750D01*
X109127000Y-143673750D01*
X109127000Y-144873000D01*
X110451250Y-144873000D01*
X110610000Y-144714250D01*
X110610000Y-144023691D01*
X110513327Y-143790302D01*
X110334699Y-143611673D01*
X110318973Y-143605159D01*
X113015000Y-143605159D01*
X113015000Y-144394841D01*
X113317199Y-145124412D01*
X113875588Y-145682801D01*
X114605159Y-145985000D01*
X115394841Y-145985000D01*
X116124412Y-145682801D01*
X116682801Y-145124412D01*
X116985000Y-144394841D01*
X116985000Y-143605159D01*
X116682801Y-142875588D01*
X116124412Y-142317199D01*
X115394841Y-142015000D01*
X114605159Y-142015000D01*
X113875588Y-142317199D01*
X113317199Y-142875588D01*
X113015000Y-143605159D01*
X110318973Y-143605159D01*
X110101310Y-143515000D01*
X109285750Y-143515000D01*
X109127000Y-143673750D01*
X108873000Y-143673750D01*
X108714250Y-143515000D01*
X107898690Y-143515000D01*
X107665301Y-143611673D01*
X107486673Y-143790302D01*
X107390000Y-144023691D01*
X106840000Y-144023691D01*
X106840000Y-139403178D01*
X107150625Y-139195625D01*
X107351912Y-138894378D01*
X107354947Y-138902571D01*
X107748807Y-139327497D01*
X108263110Y-139566476D01*
X108493000Y-139445155D01*
X108493000Y-138127000D01*
X108473000Y-138127000D01*
X108473000Y-137873000D01*
X108493000Y-137873000D01*
X108493000Y-137853000D01*
X108747000Y-137853000D01*
X108747000Y-137873000D01*
X108767000Y-137873000D01*
X108767000Y-138127000D01*
X108747000Y-138127000D01*
X108747000Y-139445155D01*
X108976890Y-139566476D01*
X109491193Y-139327497D01*
X109731059Y-139068712D01*
X109925414Y-139359586D01*
X110216565Y-139554126D01*
X110560000Y-139622440D01*
X111760000Y-139622440D01*
X112103435Y-139554126D01*
X112394586Y-139359586D01*
X112589126Y-139068435D01*
X112657440Y-138725000D01*
X112657440Y-137275000D01*
X112589126Y-136931565D01*
X112394586Y-136640414D01*
X112103435Y-136445874D01*
X111760000Y-136377560D01*
X110789139Y-136377560D01*
X109121579Y-134710000D01*
X116930070Y-134710000D01*
X117105655Y-134744926D01*
X117195225Y-134804774D01*
X117255074Y-134894345D01*
X117290000Y-135069930D01*
X117290001Y-154930065D01*
X117255074Y-155105655D01*
X117195225Y-155195226D01*
X117105655Y-155255074D01*
X116930070Y-155290000D01*
X93069930Y-155290000D01*
X92894345Y-155255074D01*
X92804774Y-155195225D01*
X92744926Y-155105655D01*
X92710000Y-154930070D01*
X92710000Y-153861750D01*
X93665000Y-153861750D01*
X93665000Y-154152309D01*
X93761673Y-154385698D01*
X93940301Y-154564327D01*
X94173690Y-154661000D01*
X94714250Y-154661000D01*
X94873000Y-154502250D01*
X94873000Y-153703000D01*
X95127000Y-153703000D01*
X95127000Y-154502250D01*
X95285750Y-154661000D01*
X95826310Y-154661000D01*
X96059699Y-154564327D01*
X96238327Y-154385698D01*
X96335000Y-154152309D01*
X96335000Y-153861750D01*
X96176250Y-153703000D01*
X95127000Y-153703000D01*
X94873000Y-153703000D01*
X93823750Y-153703000D01*
X93665000Y-153861750D01*
X92710000Y-153861750D01*
X92710000Y-143605159D01*
X93015000Y-143605159D01*
X93015000Y-144394841D01*
X93317199Y-145124412D01*
X93875588Y-145682801D01*
X94605159Y-145985000D01*
X95394841Y-145985000D01*
X96124412Y-145682801D01*
X96682801Y-145124412D01*
X96985000Y-144394841D01*
X96985000Y-143605159D01*
X96682801Y-142875588D01*
X96124412Y-142317199D01*
X95394841Y-142015000D01*
X94605159Y-142015000D01*
X93875588Y-142317199D01*
X93317199Y-142875588D01*
X93015000Y-143605159D01*
X92710000Y-143605159D01*
X92710000Y-135069930D01*
X92744926Y-134894345D01*
X92804774Y-134804775D01*
X92894345Y-134744926D01*
X93069930Y-134710000D01*
X101069926Y-134710000D01*
X101106726Y-134702680D01*
X101125087Y-134702680D01*
X101133666Y-134701398D01*
X101693975Y-134614157D01*
X101786142Y-134585979D01*
X101878611Y-134558939D01*
X101886485Y-134555301D01*
X102399788Y-134314306D01*
X102480338Y-134261395D01*
X102561506Y-134209486D01*
X102568042Y-134203784D01*
X102654984Y-134127000D01*
X102736001Y-134127000D01*
X102736001Y-134211196D01*
G36*
X108430040Y-136521619D02*
X108263110Y-136433524D01*
X107748807Y-136672503D01*
X107354947Y-137097429D01*
X107351912Y-137105622D01*
X107150625Y-136804375D01*
X106659418Y-136476161D01*
X106080000Y-136360908D01*
X105760000Y-136424560D01*
X105760000Y-134127000D01*
X106035422Y-134127000D01*
X108430040Y-136521619D01*
X108430040Y-136521619D01*
G37*
X108430040Y-136521619D02*
X108263110Y-136433524D01*
X107748807Y-136672503D01*
X107354947Y-137097429D01*
X107351912Y-137105622D01*
X107150625Y-136804375D01*
X106659418Y-136476161D01*
X106080000Y-136360908D01*
X105760000Y-136424560D01*
X105760000Y-134127000D01*
X106035422Y-134127000D01*
X108430040Y-136521619D01*
G04 #@! TD*
M02*
