G04 #@! TF.GenerationSoftware,KiCad,Pcbnew,(5.0.1-3-g963ef8bb5)*
G04 #@! TF.CreationDate,2018-11-18T00:16:37+02:00*
G04 #@! TF.ProjectId,volaser,766F6C617365722E6B696361645F7063,rev?*
G04 #@! TF.SameCoordinates,Original*
G04 #@! TF.FileFunction,Legend,Bot*
G04 #@! TF.FilePolarity,Positive*
%FSLAX46Y46*%
G04 Gerber Fmt 4.6, Leading zero omitted, Abs format (unit mm)*
G04 Created by KiCad (PCBNEW (5.0.1-3-g963ef8bb5)) date Sunday, November 18, 2018 at 12:16:37 AM*
%MOMM*%
%LPD*%
G01*
G04 APERTURE LIST*
%ADD10C,0.200000*%
%ADD11C,0.120000*%
%ADD12C,0.150000*%
%ADD13C,0.500000*%
G04 APERTURE END LIST*
D10*
X113897619Y-154738095D02*
X112897619Y-154404761D01*
X113897619Y-154071428D01*
X112945238Y-153357142D02*
X112897619Y-153452380D01*
X112897619Y-153642857D01*
X112945238Y-153738095D01*
X113040476Y-153785714D01*
X113421428Y-153785714D01*
X113516666Y-153738095D01*
X113564285Y-153642857D01*
X113564285Y-153452380D01*
X113516666Y-153357142D01*
X113421428Y-153309523D01*
X113326190Y-153309523D01*
X113230952Y-153785714D01*
X112897619Y-152880952D02*
X113564285Y-152880952D01*
X113373809Y-152880952D02*
X113469047Y-152833333D01*
X113516666Y-152785714D01*
X113564285Y-152690476D01*
X113564285Y-152595238D01*
X113564285Y-152404761D02*
X113564285Y-152023809D01*
X113897619Y-152261904D02*
X113040476Y-152261904D01*
X112945238Y-152214285D01*
X112897619Y-152119047D01*
X112897619Y-152023809D01*
X112897619Y-151690476D02*
X113564285Y-151690476D01*
X113897619Y-151690476D02*
X113850000Y-151738095D01*
X113802380Y-151690476D01*
X113850000Y-151642857D01*
X113897619Y-151690476D01*
X113802380Y-151690476D01*
X112945238Y-150785714D02*
X112897619Y-150880952D01*
X112897619Y-151071428D01*
X112945238Y-151166666D01*
X112992857Y-151214285D01*
X113088095Y-151261904D01*
X113373809Y-151261904D01*
X113469047Y-151214285D01*
X113516666Y-151166666D01*
X113564285Y-151071428D01*
X113564285Y-150880952D01*
X113516666Y-150785714D01*
X112897619Y-149928571D02*
X113421428Y-149928571D01*
X113516666Y-149976190D01*
X113564285Y-150071428D01*
X113564285Y-150261904D01*
X113516666Y-150357142D01*
X112945238Y-149928571D02*
X112897619Y-150023809D01*
X112897619Y-150261904D01*
X112945238Y-150357142D01*
X113040476Y-150404761D01*
X113135714Y-150404761D01*
X113230952Y-150357142D01*
X113278571Y-150261904D01*
X113278571Y-150023809D01*
X113326190Y-149928571D01*
X112897619Y-149309523D02*
X112945238Y-149404761D01*
X113040476Y-149452380D01*
X113897619Y-149452380D01*
X111197619Y-153285714D02*
X111197619Y-153761904D01*
X112197619Y-153761904D01*
X111197619Y-152523809D02*
X111721428Y-152523809D01*
X111816666Y-152571428D01*
X111864285Y-152666666D01*
X111864285Y-152857142D01*
X111816666Y-152952380D01*
X111245238Y-152523809D02*
X111197619Y-152619047D01*
X111197619Y-152857142D01*
X111245238Y-152952380D01*
X111340476Y-153000000D01*
X111435714Y-153000000D01*
X111530952Y-152952380D01*
X111578571Y-152857142D01*
X111578571Y-152619047D01*
X111626190Y-152523809D01*
X111245238Y-152095238D02*
X111197619Y-152000000D01*
X111197619Y-151809523D01*
X111245238Y-151714285D01*
X111340476Y-151666666D01*
X111388095Y-151666666D01*
X111483333Y-151714285D01*
X111530952Y-151809523D01*
X111530952Y-151952380D01*
X111578571Y-152047619D01*
X111673809Y-152095238D01*
X111721428Y-152095238D01*
X111816666Y-152047619D01*
X111864285Y-151952380D01*
X111864285Y-151809523D01*
X111816666Y-151714285D01*
X111245238Y-150857142D02*
X111197619Y-150952380D01*
X111197619Y-151142857D01*
X111245238Y-151238095D01*
X111340476Y-151285714D01*
X111721428Y-151285714D01*
X111816666Y-151238095D01*
X111864285Y-151142857D01*
X111864285Y-150952380D01*
X111816666Y-150857142D01*
X111721428Y-150809523D01*
X111626190Y-150809523D01*
X111530952Y-151285714D01*
X111197619Y-150380952D02*
X111864285Y-150380952D01*
X111673809Y-150380952D02*
X111769047Y-150333333D01*
X111816666Y-150285714D01*
X111864285Y-150190476D01*
X111864285Y-150095238D01*
X97897619Y-155095238D02*
X98897619Y-155095238D01*
X98421428Y-155095238D02*
X98421428Y-154523809D01*
X97897619Y-154523809D02*
X98897619Y-154523809D01*
X97897619Y-153904761D02*
X97945238Y-154000000D01*
X97992857Y-154047619D01*
X98088095Y-154095238D01*
X98373809Y-154095238D01*
X98469047Y-154047619D01*
X98516666Y-154000000D01*
X98564285Y-153904761D01*
X98564285Y-153761904D01*
X98516666Y-153666666D01*
X98469047Y-153619047D01*
X98373809Y-153571428D01*
X98088095Y-153571428D01*
X97992857Y-153619047D01*
X97945238Y-153666666D01*
X97897619Y-153761904D01*
X97897619Y-153904761D01*
X97897619Y-153142857D02*
X98564285Y-153142857D01*
X98373809Y-153142857D02*
X98469047Y-153095238D01*
X98516666Y-153047619D01*
X98564285Y-152952380D01*
X98564285Y-152857142D01*
X97897619Y-152523809D02*
X98564285Y-152523809D01*
X98897619Y-152523809D02*
X98850000Y-152571428D01*
X98802380Y-152523809D01*
X98850000Y-152476190D01*
X98897619Y-152523809D01*
X98802380Y-152523809D01*
X98564285Y-152142857D02*
X98564285Y-151619047D01*
X97897619Y-152142857D01*
X97897619Y-151619047D01*
X97897619Y-151095238D02*
X97945238Y-151190476D01*
X97992857Y-151238095D01*
X98088095Y-151285714D01*
X98373809Y-151285714D01*
X98469047Y-151238095D01*
X98516666Y-151190476D01*
X98564285Y-151095238D01*
X98564285Y-150952380D01*
X98516666Y-150857142D01*
X98469047Y-150809523D01*
X98373809Y-150761904D01*
X98088095Y-150761904D01*
X97992857Y-150809523D01*
X97945238Y-150857142D01*
X97897619Y-150952380D01*
X97897619Y-151095238D01*
X98564285Y-150333333D02*
X97897619Y-150333333D01*
X98469047Y-150333333D02*
X98516666Y-150285714D01*
X98564285Y-150190476D01*
X98564285Y-150047619D01*
X98516666Y-149952380D01*
X98421428Y-149904761D01*
X97897619Y-149904761D01*
X98564285Y-149571428D02*
X98564285Y-149190476D01*
X98897619Y-149428571D02*
X98040476Y-149428571D01*
X97945238Y-149380952D01*
X97897619Y-149285714D01*
X97897619Y-149190476D01*
X97897619Y-148428571D02*
X98421428Y-148428571D01*
X98516666Y-148476190D01*
X98564285Y-148571428D01*
X98564285Y-148761904D01*
X98516666Y-148857142D01*
X97945238Y-148428571D02*
X97897619Y-148523809D01*
X97897619Y-148761904D01*
X97945238Y-148857142D01*
X98040476Y-148904761D01*
X98135714Y-148904761D01*
X98230952Y-148857142D01*
X98278571Y-148761904D01*
X98278571Y-148523809D01*
X98326190Y-148428571D01*
X97897619Y-147809523D02*
X97945238Y-147904761D01*
X98040476Y-147952380D01*
X98897619Y-147952380D01*
X96197619Y-152785714D02*
X96197619Y-153261904D01*
X97197619Y-153261904D01*
X96197619Y-152023809D02*
X96721428Y-152023809D01*
X96816666Y-152071428D01*
X96864285Y-152166666D01*
X96864285Y-152357142D01*
X96816666Y-152452380D01*
X96245238Y-152023809D02*
X96197619Y-152119047D01*
X96197619Y-152357142D01*
X96245238Y-152452380D01*
X96340476Y-152500000D01*
X96435714Y-152500000D01*
X96530952Y-152452380D01*
X96578571Y-152357142D01*
X96578571Y-152119047D01*
X96626190Y-152023809D01*
X96245238Y-151595238D02*
X96197619Y-151500000D01*
X96197619Y-151309523D01*
X96245238Y-151214285D01*
X96340476Y-151166666D01*
X96388095Y-151166666D01*
X96483333Y-151214285D01*
X96530952Y-151309523D01*
X96530952Y-151452380D01*
X96578571Y-151547619D01*
X96673809Y-151595238D01*
X96721428Y-151595238D01*
X96816666Y-151547619D01*
X96864285Y-151452380D01*
X96864285Y-151309523D01*
X96816666Y-151214285D01*
X96245238Y-150357142D02*
X96197619Y-150452380D01*
X96197619Y-150642857D01*
X96245238Y-150738095D01*
X96340476Y-150785714D01*
X96721428Y-150785714D01*
X96816666Y-150738095D01*
X96864285Y-150642857D01*
X96864285Y-150452380D01*
X96816666Y-150357142D01*
X96721428Y-150309523D01*
X96626190Y-150309523D01*
X96530952Y-150785714D01*
X96197619Y-149880952D02*
X96864285Y-149880952D01*
X96673809Y-149880952D02*
X96769047Y-149833333D01*
X96816666Y-149785714D01*
X96864285Y-149690476D01*
X96864285Y-149595238D01*
D11*
G04 #@! TO.C,U3*
X118150000Y-44490000D02*
X118150000Y-103490000D01*
X92150000Y-103490000D02*
X92150000Y-44490000D01*
X92150000Y-44490000D02*
X118150000Y-44490000D01*
X118150000Y-103490000D02*
X92150000Y-103490000D01*
D12*
X113910000Y-44610000D02*
X113910000Y-52230000D01*
X113910000Y-52230000D02*
X108830000Y-52230000D01*
X108830000Y-52230000D02*
X108830000Y-44610000D01*
X108830000Y-44610000D02*
X113910000Y-44610000D01*
X102480000Y-44610000D02*
X102480000Y-49690000D01*
X102480000Y-49690000D02*
X96130000Y-49690000D01*
X96130000Y-49690000D02*
X96130000Y-44610000D01*
D13*
X114091428Y-101704285D02*
X113805714Y-101847142D01*
X113234285Y-101847142D01*
X112948571Y-101704285D01*
X112805714Y-101418571D01*
X112805714Y-101275714D01*
X112948571Y-100990000D01*
X113234285Y-100847142D01*
X113662857Y-100847142D01*
X113948571Y-100704285D01*
X114091428Y-100418571D01*
X114091428Y-100275714D01*
X113948571Y-99990000D01*
X113662857Y-99847142D01*
X113234285Y-99847142D01*
X112948571Y-99990000D01*
X111520000Y-99847142D02*
X111520000Y-102847142D01*
X111520000Y-99990000D02*
X111234285Y-99847142D01*
X110662857Y-99847142D01*
X110377142Y-99990000D01*
X110234285Y-100132857D01*
X110091428Y-100418571D01*
X110091428Y-101275714D01*
X110234285Y-101561428D01*
X110377142Y-101704285D01*
X110662857Y-101847142D01*
X111234285Y-101847142D01*
X111520000Y-101704285D01*
X107520000Y-101847142D02*
X107520000Y-100275714D01*
X107662857Y-99990000D01*
X107948571Y-99847142D01*
X108520000Y-99847142D01*
X108805714Y-99990000D01*
X107520000Y-101704285D02*
X107805714Y-101847142D01*
X108520000Y-101847142D01*
X108805714Y-101704285D01*
X108948571Y-101418571D01*
X108948571Y-101132857D01*
X108805714Y-100847142D01*
X108520000Y-100704285D01*
X107805714Y-100704285D01*
X107520000Y-100561428D01*
X106091428Y-101847142D02*
X106091428Y-99847142D01*
X106091428Y-100418571D02*
X105948571Y-100132857D01*
X105805714Y-99990000D01*
X105520000Y-99847142D01*
X105234285Y-99847142D01*
X104234285Y-101847142D02*
X104234285Y-98847142D01*
X103948571Y-100704285D02*
X103091428Y-101847142D01*
X103091428Y-99847142D02*
X104234285Y-100990000D01*
X102234285Y-99847142D02*
X101091428Y-99847142D01*
X101805714Y-101847142D02*
X101805714Y-99275714D01*
X101662857Y-98990000D01*
X101377142Y-98847142D01*
X101091428Y-98847142D01*
X98805714Y-99847142D02*
X98805714Y-101847142D01*
X100091428Y-99847142D02*
X100091428Y-101418571D01*
X99948571Y-101704285D01*
X99662857Y-101847142D01*
X99234285Y-101847142D01*
X98948571Y-101704285D01*
X98805714Y-101561428D01*
X97377142Y-99847142D02*
X97377142Y-101847142D01*
X97377142Y-100132857D02*
X97234285Y-99990000D01*
X96948571Y-99847142D01*
X96520000Y-99847142D01*
X96234285Y-99990000D01*
X96091428Y-100275714D01*
X96091428Y-101847142D01*
D12*
X109520000Y-97878571D02*
X109186666Y-97878571D01*
X109043809Y-98402380D02*
X109520000Y-98402380D01*
X109520000Y-97402380D01*
X109043809Y-97402380D01*
X108662857Y-98354761D02*
X108520000Y-98402380D01*
X108281904Y-98402380D01*
X108186666Y-98354761D01*
X108139047Y-98307142D01*
X108091428Y-98211904D01*
X108091428Y-98116666D01*
X108139047Y-98021428D01*
X108186666Y-97973809D01*
X108281904Y-97926190D01*
X108472380Y-97878571D01*
X108567619Y-97830952D01*
X108615238Y-97783333D01*
X108662857Y-97688095D01*
X108662857Y-97592857D01*
X108615238Y-97497619D01*
X108567619Y-97450000D01*
X108472380Y-97402380D01*
X108234285Y-97402380D01*
X108091428Y-97450000D01*
X107662857Y-98402380D02*
X107662857Y-97402380D01*
X107281904Y-97402380D01*
X107186666Y-97450000D01*
X107139047Y-97497619D01*
X107091428Y-97592857D01*
X107091428Y-97735714D01*
X107139047Y-97830952D01*
X107186666Y-97878571D01*
X107281904Y-97926190D01*
X107662857Y-97926190D01*
X106758095Y-97402380D02*
X106139047Y-97402380D01*
X106472380Y-97783333D01*
X106329523Y-97783333D01*
X106234285Y-97830952D01*
X106186666Y-97878571D01*
X106139047Y-97973809D01*
X106139047Y-98211904D01*
X106186666Y-98307142D01*
X106234285Y-98354761D01*
X106329523Y-98402380D01*
X106615238Y-98402380D01*
X106710476Y-98354761D01*
X106758095Y-98307142D01*
X105758095Y-97497619D02*
X105710476Y-97450000D01*
X105615238Y-97402380D01*
X105377142Y-97402380D01*
X105281904Y-97450000D01*
X105234285Y-97497619D01*
X105186666Y-97592857D01*
X105186666Y-97688095D01*
X105234285Y-97830952D01*
X105805714Y-98402380D01*
X105186666Y-98402380D01*
X104139047Y-97402380D02*
X103567619Y-97402380D01*
X103853333Y-98402380D02*
X103853333Y-97402380D01*
X103234285Y-98402380D02*
X103234285Y-97402380D01*
X102805714Y-98402380D02*
X102805714Y-97878571D01*
X102853333Y-97783333D01*
X102948571Y-97735714D01*
X103091428Y-97735714D01*
X103186666Y-97783333D01*
X103234285Y-97830952D01*
X102329523Y-98402380D02*
X102329523Y-97735714D01*
X102329523Y-97402380D02*
X102377142Y-97450000D01*
X102329523Y-97497619D01*
X102281904Y-97450000D01*
X102329523Y-97402380D01*
X102329523Y-97497619D01*
X101853333Y-97735714D02*
X101853333Y-98402380D01*
X101853333Y-97830952D02*
X101805714Y-97783333D01*
X101710476Y-97735714D01*
X101567619Y-97735714D01*
X101472380Y-97783333D01*
X101424761Y-97878571D01*
X101424761Y-98402380D01*
X100520000Y-97735714D02*
X100520000Y-98545238D01*
X100567619Y-98640476D01*
X100615238Y-98688095D01*
X100710476Y-98735714D01*
X100853333Y-98735714D01*
X100948571Y-98688095D01*
X100520000Y-98354761D02*
X100615238Y-98402380D01*
X100805714Y-98402380D01*
X100900952Y-98354761D01*
X100948571Y-98307142D01*
X100996190Y-98211904D01*
X100996190Y-97926190D01*
X100948571Y-97830952D01*
X100900952Y-97783333D01*
X100805714Y-97735714D01*
X100615238Y-97735714D01*
X100520000Y-97783333D01*
G04 #@! TD*
M02*
